<svg width="128" height="128" viewBox="0 0 128 128" fill="none" xmlns="http://www.w3.org/2000/svg">
<path d="M46.0771 100.037C46.0771 98.0583 47.6833 96.4521 49.6615 96.4521H87.0935C89.0717 96.4521 90.6779 98.0583 90.6779 100.037V110.79H46.0771V100.037Z" fill="#FFD740"/>
<path fill-rule="evenodd" clip-rule="evenodd" d="M33.0568 27.9678C32.594 29.3108 32.349 30.7264 32.349 32.1602V55.6356C32.349 57.0422 32.585 58.4306 33.0296 59.7464C31.2329 59.4651 29.5904 58.485 28.4924 56.9968L21.9951 48.1946C21.0877 46.9605 20.5977 45.4723 20.5977 43.9387V37.505C20.5977 35.9714 21.0877 34.4832 21.9951 33.2491L23.7374 30.8897C25.0895 29.0567 27.2311 27.9768 29.5087 27.9768H33.0568V27.9678Z" fill="#DBC8F9"/>
<path d="M92.0947 112.205H38.2925V100.036C38.2925 97.2775 40.5339 95.0361 43.2925 95.0361H87.0947C89.8533 95.0361 92.0947 97.2775 92.0947 100.036V112.205ZM41.9222 108.575H88.4649V100.036C88.4649 99.283 87.8478 98.6659 87.0947 98.6659H43.2925C42.5393 98.6659 41.9222 99.283 41.9222 100.036V108.575Z" fill="#3D00C3"/>
<path d="M67.0048 82.9131H63.375V97.2507H67.0048V82.9131Z" fill="#3D00C3"/>
<path d="M35.9964 61.6333H32.3303C29.9347 61.6333 27.6751 60.6986 25.9782 59.0017L16.6316 49.6641C14.9347 47.9672 14 45.7077 14 43.3121V38.1033C14 35.7077 14.9347 33.4482 16.6316 31.7513L19.5989 28.7839C21.2958 27.087 23.5554 26.1523 25.951 26.1523H35.1071L35.9964 61.6333ZM25.951 29.7821C24.5172 29.7821 23.1742 30.3356 22.167 31.352L19.1996 34.3193C18.1833 35.3266 17.6298 36.6696 17.6298 38.1033V43.3121C17.6298 44.7458 18.1833 46.0888 19.1996 47.0961L28.5372 56.4336C29.5354 57.4318 30.8603 57.9854 32.2668 58.0035L31.559 29.773H25.951V29.7821Z" fill="#3D00C3"/>
<path fill-rule="evenodd" clip-rule="evenodd" d="M100.28 27.9678C101.65 30.1275 102.957 32.8226 103.42 35.1366C104.218 39.1202 105.017 48.6756 102.621 54.2473C102.222 55.1819 101.841 56.0984 101.487 56.9787L110.08 48.3852C111.423 47.0422 112.176 45.2182 112.176 43.3126V38.1039C112.176 36.2073 111.423 34.3834 110.08 33.0313L107.113 30.064C105.77 28.7209 103.946 27.9678 102.049 27.9678H100.28Z" fill="#DBC8F9"/>
<path d="M95.6712 61.6336H92.0051L92.8944 26.1436H102.05C104.446 26.1436 106.706 27.0782 108.403 28.7751L111.37 31.7425C113.067 33.4394 114.001 35.6989 114.001 38.0946V43.3033C114.001 45.6989 113.067 47.9584 111.37 49.6554L102.023 59.002C100.326 60.6989 98.0759 61.6336 95.6712 61.6336ZM96.4334 29.7824L95.7256 58.0129C97.1322 58.0038 98.457 57.4412 99.4552 56.443L108.793 47.1054C109.8 46.0982 110.363 44.7461 110.363 43.3214V38.1127C110.363 36.6789 109.809 35.3359 108.793 34.3287L105.825 31.3613C104.818 30.3541 103.466 29.7915 102.041 29.7915H96.4334V29.7824Z" fill="#3D00C3"/>
<path d="M39.1638 20.544L35.4796 24.2282C33.093 26.6148 31.75 29.8635 31.75 33.2391V54.5368C31.75 57.9125 33.093 61.1611 35.4796 63.5477L51.1148 79.1829C53.5014 81.5695 56.75 82.9125 60.1257 82.9125H69.4814C72.8571 82.9125 76.1057 81.5695 78.4923 79.1829L92.5304 65.1448C94.917 62.7582 96.26 59.5096 96.26 56.1339V33.2391C96.26 29.8635 94.917 26.6148 92.5304 24.2282L88.8462 20.544C86.4415 18.1575 83.2019 16.8145 79.8262 16.8145H48.1747C44.7899 16.8145 41.5504 18.1575 39.1638 20.544Z" fill="white"/>
<path fill-rule="evenodd" clip-rule="evenodd" d="M53.7912 16.8145C50.1251 16.8145 46.6405 18.3934 44.2177 21.152L41.2776 24.4914C39.2358 26.8145 38.1106 29.809 38.1106 32.9034V55.544C38.1106 58.6384 39.2358 61.6239 41.2776 63.956L54.8347 79.3825C56.2413 80.9887 58.0108 82.1956 59.9708 82.9215C60.0162 82.9215 60.0616 82.9215 60.116 82.9215H69.4718C72.8474 82.9215 76.0961 81.5785 78.4826 79.1919L92.5208 65.1538C92.7295 64.9451 92.9291 64.7273 93.1197 64.5096C94.6351 62.368 95.4518 59.7999 95.4518 57.1593V32.9034C95.4518 29.809 94.3266 26.8235 92.2848 24.4914L89.3447 21.152C86.9309 18.3934 83.4463 16.8145 79.7803 16.8145H53.7912Z" fill="#DBC8F9"/>
<path d="M69.473 84.7278H60.1173C56.2244 84.7278 52.5765 83.2123 49.8269 80.4628L34.1917 64.8367C31.4422 62.0871 29.9268 58.4301 29.9268 54.5463V33.2396C29.9268 29.3466 31.4422 25.6987 34.1917 22.9492L37.8759 19.265C40.6255 16.5154 44.2825 15 48.1754 15H79.8269C83.7199 15 87.3678 16.5154 90.1173 19.265L93.8015 22.9492C96.5511 25.6987 98.0665 29.3557 98.0665 33.2396V56.1343C98.0665 60.0182 96.5511 63.6751 93.8015 66.4247L79.7634 80.4719C77.0139 83.2123 73.3569 84.7278 69.473 84.7278ZM48.1754 18.6298C45.2534 18.6298 42.513 19.7641 40.444 21.833L36.7598 25.5172C34.6999 27.5862 33.5565 30.3267 33.5565 33.2486V54.5463C33.5565 57.4682 34.6908 60.2087 36.7598 62.2777L52.395 77.9129C54.4549 79.9728 57.2044 81.1162 60.1264 81.1162H69.4821C72.4041 81.1162 75.1446 79.9819 77.2044 77.9129L91.2426 63.8748C93.3024 61.8058 94.4458 59.0653 94.4458 56.1434V33.2396C94.4458 30.3176 93.3115 27.5771 91.2426 25.5082L87.5583 21.824C85.4894 19.7641 82.7398 18.6298 79.8269 18.6298H48.1754Z" fill="#3D00C3"/>
</svg>
