<svg width="128" height="128" viewBox="0 0 128 128" fill="none" xmlns="http://www.w3.org/2000/svg">
<path d="M46.7731 103.894C46.7731 96.3632 52.6657 90.1718 60.0933 89.7082C60.7939 87.7406 61.7725 85.9275 62.9779 84.2895H29.0333C27.4571 84.2895 26.1797 83.0121 26.1797 81.4359C26.1797 79.8597 27.4571 78.5823 29.0333 78.5823H69.3032C72.4659 76.7279 76.1539 75.6668 80.0686 75.6668C84.9826 75.6668 89.6493 77.4079 93.358 80.3851V24.3018C93.358 18.6152 88.7428 14 83.0562 14H28.3018C22.6152 14 18 18.6152 18 24.3018V103.678C18 109.364 22.6152 113.979 28.3018 113.979H50.9968C48.3904 111.404 46.7731 107.839 46.7731 103.894ZM29.0333 43.6899H82.3144C83.8906 43.6899 85.168 44.9673 85.168 46.5435C85.168 48.1197 83.8906 49.3971 82.3144 49.3971H29.0333C27.4571 49.3971 26.1797 48.1197 26.1797 46.5435C26.1797 44.9673 27.4571 43.6899 29.0333 43.6899ZM29.0333 61.1309H82.3144C83.8906 61.1309 85.168 62.4084 85.168 63.9845C85.168 65.5607 83.8906 66.8382 82.3144 66.8382H29.0333C27.4571 66.8382 26.1797 65.5607 26.1797 63.9845C26.1797 62.4084 27.4571 61.1309 29.0333 61.1309Z" fill="#D1D1D2"/>
<path d="M60.9791 93.8084C61.7414 93.8084 62.4831 93.9011 63.2043 94.0659C64.5538 85.9687 71.59 79.7979 80.0684 79.7979C87.3621 79.7979 93.5844 84.3616 96.0362 90.7899C97.0355 90.5118 98.0863 90.3572 99.1783 90.3572C105.71 90.3572 110.995 95.6524 110.995 102.173C110.995 108.437 106.122 113.547 99.9612 113.959V114H60.9791C55.4058 114 50.8936 109.488 50.8936 103.914C50.8936 98.3206 55.4161 93.8084 60.9791 93.8084Z" fill="#E8E8E8"/>
<path d="M93.4198 100.989V96.3221L90.5456 95.9821C90.3292 95.1992 90.0202 94.4574 89.6287 93.7569L91.4212 91.4802L88.1246 88.1836L85.8479 89.9761C85.1577 89.5847 84.4057 89.2756 83.6227 89.0593L83.2828 86.1851H78.616L78.2761 89.0593C77.4931 89.2756 76.7514 89.5847 76.0509 89.9761L73.7742 88.1836L70.4776 91.4802L72.2701 93.7569C71.8786 94.4471 71.5696 95.1992 71.3532 95.9821L68.479 96.3221V100.989L71.3532 101.329C71.5696 102.112 71.8786 102.853 72.2701 103.554L70.4776 105.831L73.7742 109.127L76.0509 107.335C76.7411 107.726 77.4931 108.035 78.2761 108.252L78.616 111.126H83.2828L83.6227 108.252C84.4057 108.035 85.1474 107.726 85.8479 107.335L88.1246 109.127L91.4212 105.831L89.6287 103.554C90.0202 102.864 90.3292 102.112 90.5456 101.329L93.4198 100.989ZM80.9545 104.409C77.7816 104.409 75.2061 101.834 75.2061 98.6606C75.2061 95.4876 77.7816 92.9122 80.9545 92.9122C84.1275 92.9122 86.703 95.4876 86.703 98.6606C86.703 101.834 84.1275 104.409 80.9545 104.409Z" fill="#989899"/>
</svg>
