<svg width="50" height="50" viewBox="0 0 50 50" fill="none" xmlns="http://www.w3.org/2000/svg">
<circle cx="24.5" cy="24.5" r="22.5" fill="#F4EBFF"/>
<g clip-path="url(#clip0_353_2634)">
<path d="M23.525 7.37541V17.2504L29.2917 44.1171H33.9C33.9 39.8754 35.975 32.4421 35.975 25.2587C35.975 17.4337 33.9 10.1004 33.9 7.32541L25.1 6.01707C24.275 5.89207 23.525 6.53374 23.525 7.37541Z" fill="#7D5BCA"/>
<path d="M43.1667 8.77523L33.9 7.31689V44.1086H44.3334V10.1419C44.3334 9.45856 43.8417 8.88356 43.1667 8.77523Z" fill="#6F46CD"/>
<path d="M7.375 24.2256H14.125V44.1089H6V25.6089C6 24.8423 6.61667 24.2256 7.375 24.2256Z" fill="#7D5BCA"/>
<path d="M39.2834 17.2505H40.8167C41.1667 17.2505 41.45 17.4838 41.45 17.7672V38.5922C41.45 38.8755 41.1667 39.1088 40.8167 39.1088H39.2834C38.9334 39.1088 38.65 38.8755 38.65 38.5922V17.7672C38.6584 17.4838 38.9417 17.2505 39.2834 17.2505Z" fill="#F9F5FE"/>
<path d="M11.2333 30.1836H13.5C13.7833 30.1836 14.0167 30.4169 14.0167 30.7003V31.9836C14.0167 32.2669 13.7833 32.5003 13.5 32.5003H11.2333C10.95 32.5003 10.7167 32.2669 10.7167 31.9836V30.7003C10.725 30.4086 10.95 30.1836 11.2333 30.1836Z" fill="#F9F5FE"/>
<path d="M11.2333 35.5669H13.5C13.7833 35.5669 14.0167 35.8002 14.0167 36.0836V37.3669C14.0167 37.6502 13.7833 37.8836 13.5 37.8836H11.2333C10.95 37.8836 10.7167 37.6502 10.7167 37.3669V36.0836C10.725 35.8002 10.95 35.5669 11.2333 35.5669Z" fill="#F9F5FE"/>
<path d="M13.0083 18.5752V44.1169H21.1583L21.925 30.6502L21.1583 17.2086H14.3916C13.625 17.2002 13.0083 17.8169 13.0083 18.5752Z" fill="#3D00C3"/>
<path d="M27.95 17.2007H21.1583V44.1174H29.2917L29.3333 18.5757C29.3333 17.8174 28.7167 17.2007 27.95 17.2007Z" fill="#2F00A7"/>
<path d="M19.9333 31.8088H21.1583L21.6166 30.5672L21.1583 29.5005H19.9333C19.65 29.5005 19.4166 29.7338 19.4166 30.0172V31.2922C19.4166 31.5838 19.65 31.8088 19.9333 31.8088Z" fill="#FFC401"/>
<path d="M21.1583 29.5005H22.4083C22.6917 29.5005 22.925 29.7338 22.925 30.0172V31.2922C22.925 31.5755 22.6917 31.8088 22.4083 31.8088H21.1583V29.5005Z" fill="#DBA300"/>
<path d="M19.9333 37.0837H21.1583L21.6916 35.9587L21.1583 34.7754H19.9333C19.65 34.7754 19.4166 35.0087 19.4166 35.2921V36.5671C19.4166 36.8504 19.65 37.0837 19.9333 37.0837Z" fill="#FFC401"/>
<path d="M21.1583 34.7754H22.4083C22.6917 34.7754 22.925 35.0087 22.925 35.2921V36.5671C22.925 36.8504 22.6917 37.0837 22.4083 37.0837H21.1583V34.7754Z" fill="#DBA300"/>
<path d="M19.4166 24.7423V26.0173C19.4166 26.3006 19.65 26.5339 19.9333 26.5339H21.1583L21.6166 25.4089L21.1583 24.2256H19.9333C19.65 24.2256 19.4166 24.4589 19.4166 24.7423Z" fill="#FFC401"/>
<path d="M21.1583 24.2256H22.4083C22.6917 24.2256 22.925 24.4589 22.925 24.7423V26.0173C22.925 26.3006 22.6917 26.5339 22.4083 26.5339H21.1583V24.2256Z" fill="#DBA300"/>
<path d="M33.9 35.3588H33.0834C32.8084 35.3588 32.5834 35.1338 32.5834 34.8588V17.7505C32.5834 17.4755 32.8084 17.2505 33.0834 17.2505H33.8917V35.3588H33.9Z" fill="#F9F5FE"/>
<path d="M34.7084 35.3588H33.9V17.2505H34.7084C34.9834 17.2505 35.2084 17.4755 35.2084 17.7505V34.8588C35.2084 35.1338 34.9834 35.3588 34.7084 35.3588Z" fill="#E0D2FF"/>
</g>
<defs>
<clipPath id="clip0_353_2634">
<rect width="38.3333" height="38.1167" fill="white" transform="translate(6 6.00049)"/>
</clipPath>
</defs>
</svg>
