<svg width="128" height="128" viewBox="0 0 128 128" fill="none" xmlns="http://www.w3.org/2000/svg">
<path d="M94.9231 35.9211L76.0711 17.0692C74.0995 15.1072 71.4285 14 68.6507 14H28.0039C22.4969 14 18 18.4969 18 24.0039V103.996C18 109.493 22.4969 114 28.0039 114H87.9981C93.4953 114 98.0019 109.503 98.0019 103.996V43.3415C97.9922 40.5637 96.8947 37.8928 94.9231 35.9211Z" fill="#D1D1D2"/>
<path d="M68.6511 14V38.1064C68.6511 41.0008 71.0015 43.3512 73.8959 43.3512L97.9926 43.3415C97.9926 40.554 96.8854 37.8928 94.9235 35.9211L76.0715 17.0692C74.0998 15.1072 71.4289 14 68.6511 14Z" fill="#989899"/>
<path d="M39.339 96.7793C38.2706 96.7793 37.3965 95.9051 37.3965 94.8368V34.1627C37.3965 33.0943 38.2706 32.2202 39.339 32.2202C40.4074 32.2202 41.2815 33.0943 41.2815 34.1627V94.8368C41.2815 95.9149 40.4074 96.7793 39.339 96.7793Z" fill="#989899"/>
<path d="M87.2511 62.5915H54.9667C53.8983 62.5915 53.0242 61.7174 53.0242 60.649C53.0242 59.5807 53.8983 58.7065 54.9667 58.7065H87.2511C88.3194 58.7065 89.1936 59.5807 89.1936 60.649C89.1936 61.7174 88.3291 62.5915 87.2511 62.5915Z" fill="#989899"/>
<path d="M87.2511 72.4592H54.9667C53.8983 72.4592 53.0242 71.5851 53.0242 70.5167C53.0242 69.4483 53.8983 68.5742 54.9667 68.5742H87.2511C88.3194 68.5742 89.1936 69.4483 89.1936 70.5167C89.1936 71.5851 88.3291 72.4592 87.2511 72.4592Z" fill="#989899"/>
<path d="M87.2511 96.78H54.9667C53.8983 96.78 53.0242 95.9059 53.0242 94.8375C53.0242 93.7691 53.8983 92.895 54.9667 92.895H87.2511C88.3194 92.895 89.1936 93.7691 89.1936 94.8375C89.1936 95.9059 88.3291 96.78 87.2511 96.78Z" fill="#989899"/>
<path d="M39.3383 44.0892C44.8204 44.0892 49.2645 39.6451 49.2645 34.163C49.2645 28.6809 44.8204 24.2368 39.3383 24.2368C33.8562 24.2368 29.4121 28.6809 29.4121 34.163C29.4121 39.6451 33.8562 44.0892 39.3383 44.0892Z" fill="#989899"/>
<path d="M39.3393 41.5351C43.4107 41.5351 46.7111 38.2346 46.7111 34.1633C46.7111 30.092 43.4107 26.7915 39.3393 26.7915C35.268 26.7915 31.9675 30.092 31.9675 34.1633C31.9675 38.2346 35.268 41.5351 39.3393 41.5351Z" fill="#E8E8E8"/>
<path d="M39.3393 71.8769C43.4107 71.8769 46.7111 68.5764 46.7111 64.5051C46.7111 60.4338 43.4107 57.1333 39.3393 57.1333C35.268 57.1333 31.9675 60.4338 31.9675 64.5051C31.9675 68.5764 35.268 71.8769 39.3393 71.8769Z" fill="#E8E8E8"/>
<path d="M39.3393 102.209C43.4107 102.209 46.7111 98.9085 46.7111 94.8371C46.7111 90.7658 43.4107 87.4653 39.3393 87.4653C35.268 87.4653 31.9675 90.7658 31.9675 94.8371C31.9675 98.9085 35.268 102.209 39.3393 102.209Z" fill="#E8E8E8"/>
<path d="M87.2497 114C100.274 114 110.832 103.442 110.832 90.4179C110.832 77.3939 100.274 66.8359 87.2497 66.8359C74.2257 66.8359 63.6677 77.3939 63.6677 90.4179C63.6677 103.442 74.2257 114 87.2497 114Z" fill="#E8E8E8"/>
<path d="M87.2513 104.404C86.0469 104.404 85.0757 103.433 85.0757 102.229V76.8402C85.0757 75.6358 86.0469 74.6646 87.2513 74.6646C88.4556 74.6646 89.4269 75.6358 89.4269 76.8402V102.229C89.4269 103.433 88.4556 104.404 87.2513 104.404Z" fill="#989899"/>
<path d="M87.2502 106.172C86.6966 106.172 86.1332 105.958 85.7156 105.531L73.2739 93.0891C72.4289 92.2441 72.4289 90.8649 73.2739 90.0102C74.1189 89.1652 75.498 89.1652 76.3527 90.0102L87.2502 100.917L98.1476 90.0199C98.9926 89.1749 100.372 89.1749 101.226 90.0199C102.071 90.8649 102.071 92.2441 101.226 93.0988L88.7945 105.531C88.3671 105.958 87.8135 106.172 87.2502 106.172Z" fill="#989899"/>
</svg>
