<svg width="128" height="128" viewBox="0 0 128 128" fill="none" xmlns="http://www.w3.org/2000/svg">
<g clip-path="url(#clip0_2757_3102)">
<path d="M81.1859 20.4469C81.0027 20.3144 79.4064 19.0954 76.5539 17.9294C72.8902 16.4454 68.6508 15.6504 64.359 15.6504C60.0411 15.6504 55.8278 16.4454 52.138 17.9294C49.2855 19.0954 47.6892 20.2879 47.506 20.4469C46.6424 21.1094 46.119 22.1694 46.119 23.2824V28.8474L49.6257 30.7554L53.1324 28.8474V25.2699C55.0689 24.2629 58.9158 22.7524 64.3329 22.7524C69.7761 22.7524 73.623 24.2894 75.5333 25.2699V28.8209L79.04 30.7289L82.5467 28.8209V23.2559C82.5729 22.1694 82.0756 21.1094 81.1859 20.4469Z" fill="#989899"/>
<path d="M46.119 28.8447V32.7667L49.6257 34.6747L53.1324 32.7667V28.8447H46.119Z" fill="#989899"/>
<path d="M82.5728 28.8447H75.5594V32.7667L79.0661 34.6747L82.5728 32.7667V28.8447Z" fill="#989899"/>
<path d="M13.7474 71.834V103.369C13.7474 107.105 16.7569 110.153 20.4468 110.153H108.219C111.909 110.153 114.918 107.105 114.918 103.369V71.834H13.7474Z" fill="#989899"/>
<path d="M13.7474 67.9111V71.8331C19.3215 76.3116 34.0025 84.9771 64.3327 84.9771C94.663 84.9771 109.37 76.2851 114.918 71.8331V67.9111H13.7474Z" fill="#989899"/>
<path d="M13.4598 65.656C18.7983 70.055 33.4793 79.0385 64.3329 79.0385C95.1866 79.0385 109.868 70.0285 115.206 65.656C116.776 64.3575 117.666 60.5415 117.666 58.501V39.5535C117.666 35.817 114.657 32.7695 110.967 32.7695H17.6992C14.0093 32.7695 10.9999 35.7905 10.9999 39.5535V58.501C10.9999 60.515 11.9158 64.3575 13.4598 65.656Z" fill="#D1D1D2"/>
<path d="M115.232 63.7471C109.894 68.1461 95.2127 77.1296 64.3591 77.1296C33.5055 77.1296 18.8245 68.1196 13.486 63.7471C11.9158 62.4486 10.9999 60.5141 10.9999 58.4736V62.3956C10.9999 64.4361 11.9158 66.3706 13.4598 67.6426C18.7983 72.0416 33.4793 81.0251 64.3329 81.0251C95.1865 81.0251 109.868 72.0151 115.206 67.6426C116.776 66.3441 117.666 64.4361 117.666 62.3956V58.4736C117.692 60.5141 116.802 62.4486 115.232 63.7471Z" fill="#D1D1D2"/>
<path d="M64.359 87.5953C67.8134 87.5953 70.6397 84.9983 70.6397 79.3538V75.5113C70.6397 74.2658 69.6452 73.2588 68.4153 73.2588H60.3289C59.099 73.2588 58.1046 74.2658 58.1046 75.5113V79.3538C58.0784 84.9718 60.8785 87.5953 64.359 87.5953Z" fill="#E8E8E8"/>
<path d="M64.359 85.691C60.9047 85.691 58.0784 82.8556 58.0784 79.3311V83.253C58.0784 86.751 60.8785 89.613 64.359 89.613C67.8395 89.613 70.6396 86.7775 70.6396 83.253V79.3311C70.6135 82.8556 67.8134 85.691 64.359 85.691Z" fill="#E8E8E8"/>
</g>
<defs>
<clipPath id="clip0_2757_3102">
<rect width="106.667" height="106.667" fill="white" transform="translate(10.9999 11)"/>
</clipPath>
</defs>
</svg>
