<svg width="128" height="128" viewBox="0 0 128 128" fill="none" xmlns="http://www.w3.org/2000/svg">
<path fill-rule="evenodd" clip-rule="evenodd" d="M29.9 13.0006C31.2 14.2006 32 16.3006 32 18.8006C32 21.3006 31.1 23.4006 29.9 24.6006C29.1 25.1006 28.2 25.4006 27.3 25.5006C25.2 25.1006 23.5 22.3006 23.5 18.8006C23.5 15.3006 25.2 12.5006 27.3 12.1006C28.3 12.2006 29.2 12.5006 29.9 13.0006Z" fill="#DBC8F9"/>
<path d="M26.6 27.2004C22 27.2004 18.2 23.4004 18.2 18.8004C18.2 14.2004 22 10.4004 26.6 10.4004C31.2 10.4004 35 14.2004 35 18.8004C35 23.4004 31.2 27.2004 26.6 27.2004ZM26.6 14.4004C24.2 14.4004 22.2 16.4004 22.2 18.8004C22.2 21.2004 24.2 23.2004 26.6 23.2004C29 23.2004 31 21.2004 31 18.8004C31 16.4004 29 14.4004 26.6 14.4004Z" fill="#3D00C3"/>
<path fill-rule="evenodd" clip-rule="evenodd" d="M18.7 42.0006C19.2 35.8006 22.9 30.9006 27.7 30.1006C32.7 30.7006 36.9 34.2006 38.6 38.8006C35.2 41.7006 21.3 42.3006 18.7 42.0006Z" fill="#DBC8F9"/>
<path d="M41 42.6H12.2C11.5 42.6 10.9 42.3 10.6 41.7C10.2 41.2 10.1 40.5 10.4 39.9C12.9 33.1 19.4 28.5 26.7 28.5C34 28.5 40.5 33.1 43 39.9C43.2 40.5 43.1 41.2 42.8 41.7C42.3 42.3 41.7 42.6 41 42.6ZM15.4 38.6H37.8C35.4 34.9 31.2 32.5 26.6 32.5C22 32.5 17.8 34.9 15.4 38.6Z" fill="#3D00C3"/>
<path fill-rule="evenodd" clip-rule="evenodd" d="M104 13.0006C105.3 14.2006 106.1 16.3006 106.1 18.8006C106.1 21.3006 105.2 23.4006 104 24.6006C103.2 25.1006 102.3 25.4006 101.4 25.5006C99.3001 25.1006 97.6001 22.3006 97.6001 18.8006C97.6001 15.3006 99.3001 12.5006 101.4 12.1006C102.4 12.2006 103.3 12.5006 104 13.0006Z" fill="#DBC8F9"/>
<path d="M100.7 27.2004C96.1 27.2004 92.3 23.4004 92.3 18.8004C92.3 14.2004 96.1 10.4004 100.7 10.4004C105.3 10.4004 109.1 14.2004 109.1 18.8004C109.1 23.4004 105.3 27.2004 100.7 27.2004ZM100.7 14.4004C98.3 14.4004 96.3 16.4004 96.3 18.8004C96.3 21.2004 98.3 23.2004 100.7 23.2004C103.1 23.2004 105.1 21.2004 105.1 18.8004C105.1 16.4004 103.1 14.4004 100.7 14.4004Z" fill="#3D00C3"/>
<path fill-rule="evenodd" clip-rule="evenodd" d="M92.8 42.0006C93.3 35.8006 97 30.9006 101.8 30.1006C106.8 30.7006 111 34.2006 112.7 38.8006C109.3 41.7006 95.4 42.3006 92.8 42.0006Z" fill="#DBC8F9"/>
<path d="M115.1 42.6H86.3001C85.6001 42.6 85.0001 42.3 84.7001 41.7C84.3001 41.2 84.2001 40.5 84.5001 39.9C87.0001 33.1 93.5001 28.5 100.8 28.5C108.1 28.5 114.6 33.1 117.1 39.9C117.3 40.5 117.2 41.2 116.9 41.7C116.4 42.3 115.8 42.6 115.1 42.6ZM89.5001 38.6H111.9C109.5 34.9 105.3 32.5 100.7 32.5C96.1001 32.5 91.9001 34.9 89.5001 38.6Z" fill="#3D00C3"/>
<path fill-rule="evenodd" clip-rule="evenodd" d="M29.9 86.8004C31.2 88.0004 32 90.1004 32 92.6004C32 95.1004 31.1 97.2004 29.9 98.4004C29.1 98.9004 28.2 99.2004 27.3 99.3004C25.2 98.9004 23.5 96.1004 23.5 92.6004C23.5 89.1004 25.2 86.3004 27.3 85.9004C28.3 86.0004 29.2 86.3004 29.9 86.8004Z" fill="#DBC8F9"/>
<path d="M26.6 101C22 101 18.2 97.2002 18.2 92.6002C18.2 88.0002 22 84.2002 26.6 84.2002C31.2 84.2002 35 88.0002 35 92.6002C35 97.2002 31.2 101 26.6 101ZM26.6 88.2002C24.2 88.2002 22.2 90.2002 22.2 92.6002C22.2 95.0002 24.2 97.0002 26.6 97.0002C29 97.0002 31 95.0002 31 92.6002C31 90.2002 29 88.2002 26.6 88.2002Z" fill="#3D00C3"/>
<path fill-rule="evenodd" clip-rule="evenodd" d="M18.7 115.8C19.2 109.6 22.9 104.7 27.7 103.9C32.7 104.5 36.9 108 38.6 112.6C35.2 115.5 21.3 116.1 18.7 115.8Z" fill="#DBC8F9"/>
<path d="M41 116.4H12.2C11.5 116.4 10.9 116.1 10.6 115.5C10.2 115 10.1 114.3 10.4 113.7C12.9 106.9 19.4 102.3 26.7 102.3C34 102.3 40.5 106.9 43 113.7C43.2 114.3 43.1 115 42.8 115.5C42.3 116.1 41.7 116.4 41 116.4ZM15.4 112.4H37.8C35.4 108.7 31.2 106.3 26.6 106.3C22 106.3 17.8 108.7 15.4 112.4Z" fill="#3D00C3"/>
<path fill-rule="evenodd" clip-rule="evenodd" d="M104 86.8004C105.3 88.0004 106.1 90.1004 106.1 92.6004C106.1 95.1004 105.2 97.2004 104 98.4004C103.2 98.9004 102.3 99.2004 101.4 99.3004C99.3001 98.9004 97.6001 96.1004 97.6001 92.6004C97.6001 89.1004 99.3001 86.3004 101.4 85.9004C102.4 86.0004 103.3 86.3004 104 86.8004Z" fill="#DBC8F9"/>
<path d="M100.7 101C96.1 101 92.3 97.2002 92.3 92.6002C92.3 88.0002 96.1 84.2002 100.7 84.2002C105.3 84.2002 109.1 88.0002 109.1 92.6002C109.1 97.2002 105.3 101 100.7 101ZM100.7 88.2002C98.3 88.2002 96.3 90.2002 96.3 92.6002C96.3 95.0002 98.3 97.0002 100.7 97.0002C103.1 97.0002 105.1 95.0002 105.1 92.6002C105.1 90.2002 103.1 88.2002 100.7 88.2002Z" fill="#3D00C3"/>
<path fill-rule="evenodd" clip-rule="evenodd" d="M92.8 115.8C93.3 109.6 97 104.7 101.8 103.9C106.8 104.5 111 108 112.7 112.6C109.3 115.5 95.4 116.1 92.8 115.8Z" fill="#DBC8F9"/>
<path d="M115.1 116.4H86.3001C85.6001 116.4 85.0001 116.1 84.7001 115.5C84.3001 115 84.2001 114.3 84.5001 113.7C87.0001 106.9 93.5001 102.3 100.8 102.3C108.1 102.3 114.6 106.9 117.1 113.7C117.3 114.3 117.2 115 116.9 115.5C116.4 116.1 115.8 116.4 115.1 116.4ZM89.5001 112.4H111.9C109.5 108.7 105.3 106.3 100.7 106.3C96.1001 106.3 91.9001 108.7 89.5001 112.4Z" fill="#3D00C3"/>
<path fill-rule="evenodd" clip-rule="evenodd" d="M68.6001 52.4996C70.2001 53.8996 71.3001 56.6996 71.3001 59.7996C71.3001 62.8996 70.2001 65.5996 68.6001 67.0996C67.6001 67.6996 66.5001 67.9996 65.3001 68.1996C62.6001 67.6996 60.6001 64.1996 60.6001 59.8996C60.6001 55.5996 62.7001 51.9996 65.3001 51.5996C66.5001 51.5996 67.6001 51.9996 68.6001 52.4996Z" fill="#FFD740"/>
<path fill-rule="evenodd" clip-rule="evenodd" d="M54.6001 86.1998C55.2001 78.4998 59.9001 72.2998 65.8001 71.2998C72.1001 72.0998 77.3001 76.3998 79.4001 82.1998C75.2001 85.7998 69.7001 87.9998 63.7001 87.9998C60.4001 87.9998 57.4001 87.3998 54.6001 86.1998Z" fill="#DBC8F9"/>
<path d="M64.4001 49.7998C58.9001 49.7998 54.4001 54.2998 54.4001 59.7998C54.4001 65.2998 58.9001 69.7998 64.4001 69.7998C69.9001 69.7998 74.4001 65.2998 74.4001 59.7998C74.4001 54.2998 69.9001 49.7998 64.4001 49.7998ZM64.4001 65.7998C61.1001 65.7998 58.4001 63.0998 58.4001 59.7998C58.4001 56.4998 61.1001 53.7998 64.4001 53.7998C67.7001 53.7998 70.4001 56.4998 70.4001 59.7998C70.4001 63.0998 67.7001 65.7998 64.4001 65.7998Z" fill="#3D00C3"/>
<path d="M63.6001 37.5996C49.3001 37.5996 37.6001 49.2996 37.6001 63.5996C37.6001 77.8996 49.3001 89.5996 63.6001 89.5996C77.9001 89.5996 89.6001 77.8996 89.6001 63.5996C89.6001 49.2996 78.0001 37.5996 63.6001 37.5996ZM51.7001 81.9996C54.0001 77.0996 58.9001 73.7996 64.4001 73.7996C69.6001 73.7996 74.3001 76.6996 76.7001 81.1996C73.0001 83.8996 68.5001 85.4996 63.6001 85.4996C59.2001 85.5996 55.1001 84.2996 51.7001 81.9996ZM79.8001 78.4996C76.6001 73.1996 70.8001 69.7996 64.4001 69.7996C57.7001 69.7996 51.5001 73.5996 48.5001 79.4996C44.3001 75.4996 41.7001 69.8996 41.7001 63.5996C41.7001 51.4996 51.6001 41.5996 63.7001 41.5996C75.8001 41.5996 85.7001 51.4996 85.7001 63.5996C85.6001 69.3996 83.4001 74.5996 79.8001 78.4996Z" fill="#3D00C3"/>
<path d="M63.6001 117.3C62.5001 117.3 61.6001 116.4 61.6001 115.3V101.7C61.6001 100.6 62.5001 99.7002 63.6001 99.7002C64.7001 99.7002 65.6001 100.6 65.6001 101.7V115.3C65.6001 116.4 64.7001 117.3 63.6001 117.3Z" fill="#3D00C3"/>
<path d="M63.6001 27.6C62.5001 27.6 61.6001 26.7 61.6001 25.6V12C61.6001 10.9 62.5001 10 63.6001 10C64.7001 10 65.6001 10.9 65.6001 12V25.6C65.6001 26.7 64.7001 27.6 63.6001 27.6Z" fill="#3D00C3"/>
<path d="M63.6001 117.3C62.5001 117.3 61.6001 116.4 61.6001 115.3V101.7C61.6001 100.6 62.5001 99.7002 63.6001 99.7002C64.7001 99.7002 65.6001 100.6 65.6001 101.7V115.3C65.6001 116.4 64.7001 117.3 63.6001 117.3Z" fill="#3D00C3"/>
<path d="M63.6001 27.6C62.5001 27.6 61.6001 26.7 61.6001 25.6V12C61.6001 10.9 62.5001 10 63.6001 10C64.7001 10 65.6001 10.9 65.6001 12V25.6C65.6001 26.7 64.7001 27.6 63.6001 27.6Z" fill="#3D00C3"/>
<path d="M25.6 65.5996H12C10.9 65.5996 10 64.6996 10 63.5996C10 62.4996 10.9 61.5996 12 61.5996H25.6C26.7 61.5996 27.6 62.4996 27.6 63.5996C27.6 64.6996 26.7 65.5996 25.6 65.5996Z" fill="#3D00C3"/>
<path d="M115.3 65.5996H101.7C100.6 65.5996 99.7 64.6996 99.7 63.5996C99.7 62.4996 100.6 61.5996 101.7 61.5996H115.3C116.4 61.5996 117.3 62.4996 117.3 63.5996C117.3 64.6996 116.4 65.5996 115.3 65.5996Z" fill="#3D00C3"/>
</svg>
