<svg width="128" height="128" viewBox="0 0 128 128" fill="none" xmlns="http://www.w3.org/2000/svg">
<path d="M26.5286 19.1192C26.5286 16.8471 28.3718 15.0039 30.6439 15.0039H103.935C108.479 15.0039 112.166 18.6904 112.166 23.2346V69.3519H30.6439C28.3718 69.3519 26.5286 67.5087 26.5286 65.2366V19.1192Z" fill="#DBC8F9"/>
<path d="M54.5329 114H39.7049V110.35H54.3504V90.1201H24.0557C18.5168 90.1201 14 85.6032 14 80.0553V24.0557C14 18.5168 18.5168 14 24.0557 14H103.105C108.653 14 113.161 18.5168 113.161 24.0557V37.232H109.511V24.0557C109.511 20.5243 106.636 17.65 103.105 17.65H24.0557C20.5243 17.65 17.65 20.5243 17.65 24.0557V80.0553C17.65 83.5866 20.5243 86.461 24.0557 86.461H54.5238C56.44 86.461 57.9912 88.0214 57.9912 89.9376V110.523C58.0004 112.44 56.44 114 54.5329 114Z" fill="#3D00C3"/>
<path d="M56.1761 67.5273H15.8257V71.1773H56.1761V67.5273Z" fill="#3D00C3"/>
<path d="M76.7608 29.6494H36.4104V33.2994H76.7608V29.6494Z" fill="#3D00C3"/>
<path d="M59.4691 39.5312H36.4104V43.1812H59.4691V39.5312Z" fill="#3D00C3"/>
<path d="M72.6451 59.4697H95.7038C98.4321 59.4697 100.64 61.678 100.64 64.4063V87.465C100.64 90.1933 98.4321 92.4016 95.7038 92.4016H72.6451C69.9168 92.4016 67.7085 90.1933 67.7085 87.465V64.4063C67.6994 61.678 69.9168 59.4697 72.6451 59.4697Z" fill="white"/>
<path d="M77.5828 59.4697H95.6958C98.4241 59.4697 100.632 61.678 100.632 64.4063V87.465C100.632 90.1933 98.4241 92.4016 95.6958 92.4016H77.5828C74.8545 92.4016 72.6462 90.1933 72.6462 87.465V64.4063C72.6462 61.678 74.8545 59.4697 77.5828 59.4697Z" fill="#DBC8F9"/>
<path fill-rule="evenodd" clip-rule="evenodd" d="M97.5845 92.0366C97.0005 92.2738 96.3709 92.4107 95.7048 92.4107H72.6461C72.5092 92.4107 72.3724 92.4016 72.2446 92.3925C74.4437 87.5471 79.3256 84.1709 85.0013 84.1709C90.531 84.1709 95.3124 87.3829 97.5845 92.0366Z" fill="white"/>
<path fill-rule="evenodd" clip-rule="evenodd" d="M82.4543 72.2258C82.4543 76.0035 84.3523 79.1242 86.8161 79.5805C89.9733 79.1242 92.4188 76.0035 92.4188 72.2258C92.4188 68.4481 89.9733 65.3273 86.8161 64.8711C84.3523 65.3365 82.4543 68.4481 82.4543 72.2258Z" fill="#FFD740"/>
<path d="M95.7055 93.8244H72.6468C69.1429 93.8244 66.2959 90.9774 66.2959 87.4734V64.4056C66.2959 60.9017 69.1429 58.0547 72.6468 58.0547H95.7055C99.2095 58.0547 102.056 60.9017 102.056 64.4056V87.4643C102.056 90.9683 99.2095 93.8244 95.7055 93.8244ZM72.6468 61.7047C71.1595 61.7047 69.9459 62.9183 69.9459 64.4056V87.4643C69.9459 88.9517 71.1595 90.1653 72.6468 90.1653H95.7055C97.1929 90.1653 98.4065 88.9517 98.4065 87.4643V64.4056C98.4065 62.9183 97.1929 61.7047 95.7055 61.7047H72.6468Z" fill="#3D00C3"/>
<path d="M85.0015 81.0587C80.1379 81.0587 76.1777 77.0985 76.1777 72.2349C76.1777 67.3713 80.1379 63.4111 85.0015 63.4111C89.8651 63.4111 93.8253 67.3713 93.8253 72.2349C93.8253 77.0985 89.8651 81.0587 85.0015 81.0587ZM85.0015 67.052C82.1454 67.052 79.8277 69.3697 79.8277 72.2258C79.8277 75.0819 82.1454 77.3996 85.0015 77.3996C87.8576 77.3996 90.1754 75.0819 90.1754 72.2258C90.1754 69.3697 87.8485 67.052 85.0015 67.052Z" fill="#3D00C3"/>
<path d="M74.4987 92.8125L71.2319 91.1791C73.8234 85.9871 79.0976 82.7568 84.9923 82.7568C90.8231 82.7568 96.07 85.9323 98.6888 91.0423L95.4403 92.703C93.4511 88.8158 89.4453 86.4068 84.9923 86.4068C80.4937 86.4068 76.4696 88.8614 74.4987 92.8125Z" fill="#3D00C3"/>
</svg>
