<svg width="128" height="128" viewBox="0 0 128 128" fill="none" xmlns="http://www.w3.org/2000/svg">
<path d="M52.6987 15.5812C56.716 13.4729 61.5467 13.4729 65.564 15.5812C71.0919 18.4862 77.3503 20.0965 83.8742 20.0965H96.5735C98.0509 20.0965 99.2462 21.2917 99.2462 22.7691V52.9154C99.2462 78.5796 83.2268 101.521 59.1231 110.353C35.0193 101.521 19 78.5796 19 52.9154V22.7857C19 21.3083 20.1952 20.1131 21.6727 20.1131H34.3719C40.9291 20.1131 47.1708 18.4862 52.6987 15.5812Z" fill="#D1D1D2"/>
<path d="M53.3962 20.64C56.9773 18.7606 61.2836 18.7606 64.8647 20.64C69.7925 23.2296 75.3713 24.6651 81.187 24.6651H92.5075C93.8245 24.6651 94.89 25.7305 94.89 27.0475V53.9208C94.89 76.7986 80.6098 97.2495 59.1231 105.122C37.6363 97.2495 23.3562 76.7986 23.3562 53.9208V27.0623C23.3562 25.7453 24.4216 24.6798 25.7387 24.6798H37.0592C42.9044 24.6798 48.4685 23.2296 53.3962 20.64Z" fill="#989899"/>
<path d="M47.0897 46.7478V53.588H51.2619V46.7478C51.2619 42.462 54.7814 38.9993 59.1239 38.9851C63.4665 38.9851 66.986 42.4478 66.986 46.7194V53.5596H71.1582V46.7194C71.1582 40.163 65.7655 34.8696 59.1239 34.8696C52.4682 34.8838 47.0755 40.2056 47.0897 46.7478Z" fill="#D1D1D2"/>
<path d="M76.5788 77.0234L41.6823 77.0659C40.5044 77.0659 39.5536 76.1293 39.5536 74.9798L39.5394 53.8773C39.5394 52.7278 40.4902 51.7769 41.6681 51.7769L76.5646 51.7344C77.7425 51.7344 78.6933 52.671 78.6933 53.8205L78.7075 74.923C78.7075 76.0867 77.7567 77.0234 76.5788 77.0234Z" fill="#D1D1D2"/>
<path d="M62.3881 60.0725C62.3881 58.2844 60.9122 56.8369 59.1099 56.8369C57.2934 56.8369 55.8317 58.2844 55.8317 60.0725C55.8317 61.0376 56.2574 61.9032 56.9386 62.4851L55.8458 70.5032L62.4164 70.489L61.3095 62.4851C61.9623 61.889 62.3881 61.0234 62.3881 60.0725Z" fill="#989899"/>
<circle cx="85.663" cy="90.5002" r="23.5002" fill="#E8E8E8"/>
<path d="M73.5364 88.3802C73.7051 88.3802 73.8738 88.3495 74.0424 88.2882L79.6241 86.31C80.4215 86.034 80.8355 85.1446 80.5595 84.3472C80.2835 83.5499 79.3941 83.1358 78.5967 83.4118L74.4565 84.8839L72.9844 80.7437C72.7084 79.9463 71.819 79.5169 71.0216 79.8083C70.2242 80.0843 69.8102 80.9737 70.0862 81.7711L72.0643 87.3528C72.3097 87.9815 72.9077 88.3802 73.5364 88.3802Z" fill="#989899"/>
<path d="M86.2068 105.693C94.196 105.693 100.682 99.1911 100.682 91.2173C100.682 83.2434 94.196 76.7417 86.2068 76.7417C80.6711 76.7417 75.7028 79.8239 73.234 84.7769C72.8506 85.5283 73.1726 86.4636 73.924 86.8317C74.6754 87.1997 75.5955 86.893 75.9788 86.1416C77.9263 82.2314 81.8519 79.8086 86.2068 79.8086C92.4939 79.8086 97.6155 84.9302 97.6155 91.2173C97.6155 97.5043 92.4939 102.626 86.2068 102.626C81.8519 102.626 77.9263 100.203 75.9788 96.2929C75.5955 95.5262 74.6754 95.2195 73.924 95.6029C73.1726 95.9863 72.8506 96.9063 73.234 97.6577C75.7028 102.611 80.6711 105.693 86.2068 105.693Z" fill="#989899"/>
<path fill-rule="evenodd" clip-rule="evenodd" d="M85.3489 84.415C86.1965 84.415 86.8835 85.1021 86.8835 85.9497V91.4525L91.038 95.607C91.6373 96.2063 91.6373 97.178 91.038 97.7773C90.4387 98.3766 89.467 98.3766 88.8677 97.7773L83.8143 92.7239V85.9497C83.8143 85.1021 84.5013 84.415 85.3489 84.415Z" fill="#989899"/>
</svg>
