<svg width="128" height="128" viewBox="0 0 128 128" fill="none" xmlns="http://www.w3.org/2000/svg">
<path d="M92.701 114H34.3561C29.1915 114 25 109.809 25 104.644V39.0388C25 33.8742 29.1915 29.6826 34.3561 29.6826H92.701C97.8656 29.6826 102.057 33.8742 102.057 39.0388V104.644C102.057 109.809 97.875 114 92.701 114Z" fill="#7D5BCA"/>
<path d="M93.1688 57.1792H57.1383C56.0342 57.1792 55.136 56.281 55.136 55.177C55.136 54.073 56.0342 53.1748 57.1383 53.1748H93.1688C94.2728 53.1748 95.171 54.073 95.171 55.177C95.171 56.281 94.2728 57.1792 93.1688 57.1792Z" fill="#3D00C3"/>
<path d="M93.1688 78.9615H57.1383C56.0343 78.9615 55.1361 78.0633 55.1361 76.9592C55.1361 75.8552 56.0343 74.957 57.1383 74.957H93.1688C94.2728 74.957 95.171 75.8552 95.171 76.9592C95.171 78.0633 94.2728 78.9615 93.1688 78.9615Z" fill="#3D00C3"/>
<path d="M93.1688 100.743H57.1383C56.0343 100.743 55.1361 99.8445 55.1361 98.7405C55.1361 97.6365 56.0343 96.7383 57.1383 96.7383H93.1688C94.2728 96.7383 95.171 97.6365 95.171 98.7405C95.171 99.8445 94.2728 100.743 93.1688 100.743Z" fill="#3D00C3"/>
<path d="M46.1636 63.383H38.4541C35.8718 63.383 33.7761 61.2872 33.7761 58.7049V50.9955C33.7761 48.4132 35.8718 46.3174 38.4541 46.3174H46.1636C48.7459 46.3174 50.8417 48.4132 50.8417 50.9955V58.7049C50.8417 61.2872 48.7459 63.383 46.1636 63.383ZM38.4541 50.0598C37.9395 50.0598 37.5185 50.4809 37.5185 50.9955V58.7049C37.5185 59.2195 37.9395 59.6405 38.4541 59.6405H46.1636C46.6782 59.6405 47.0992 59.2195 47.0992 58.7049V50.9955C47.0992 50.4809 46.6782 50.0598 46.1636 50.0598H38.4541Z" fill="#FFC401"/>
<path d="M46.1636 85.4914H38.4541C35.8718 85.4914 33.7761 83.3956 33.7761 80.8133V73.1038C33.7761 70.5216 35.8718 68.4258 38.4541 68.4258H46.1636C48.7459 68.4258 50.8417 70.5216 50.8417 73.1038V80.8133C50.8417 83.3956 48.7459 85.4914 46.1636 85.4914ZM38.4541 72.1682C37.9395 72.1682 37.5185 72.5893 37.5185 73.1038V80.8133C37.5185 81.3279 37.9395 81.7489 38.4541 81.7489H46.1636C46.6782 81.7489 47.0992 81.3279 47.0992 80.8133V73.1038C47.0992 72.5893 46.6782 72.1682 46.1636 72.1682H38.4541Z" fill="#FFC401"/>
<path d="M46.1636 107.601H38.4541C35.8718 107.601 33.7761 105.505 33.7761 102.923V95.2132C33.7761 92.6309 35.8718 90.5352 38.4541 90.5352H46.1636C48.7459 90.5352 50.8417 92.6309 50.8417 95.2132V102.923C50.8417 105.505 48.7459 107.601 46.1636 107.601ZM38.4541 94.2776C37.9395 94.2776 37.5185 94.6986 37.5185 95.2132V102.923C37.5185 103.437 37.9395 103.858 38.4541 103.858H46.1636C46.6782 103.858 47.0992 103.437 47.0992 102.923V95.2132C47.0992 94.6986 46.6782 94.2776 46.1636 94.2776H38.4541Z" fill="#FFC401"/>
<path d="M84.2805 25.9872H74.5501C72.8005 25.9872 71.341 24.5182 71.5094 22.778C71.5749 22.1137 71.5562 21.4214 71.4439 20.7197C70.8825 17.2111 67.9634 14.4323 64.4362 14.0487C59.6084 13.5248 55.5198 17.2953 55.5198 22.0108C55.5198 22.2541 55.5291 22.488 55.5478 22.7219C55.7069 24.4902 54.2099 25.9778 52.4322 25.9778H42.7861C40.8026 25.9778 39.1933 27.5871 39.1933 29.5706V36.3725C39.1933 38.356 40.8026 39.9652 42.7861 39.9652H84.2805C86.264 39.9652 87.8733 38.356 87.8733 36.3725V29.5706C87.8733 27.5964 86.264 25.9872 84.2805 25.9872ZM59.5523 22.0202C59.5523 19.8308 61.3393 18.0438 63.5286 18.0438C65.7179 18.0438 67.505 19.8308 67.505 22.0202C67.505 24.2001 65.746 25.9685 63.5754 25.9872H63.4912C61.3206 25.9685 59.5523 24.1908 59.5523 22.0202Z" fill="#3D00C3"/>
</svg>
