<svg width="240" height="180" viewBox="0 0 240 180" fill="none" xmlns="http://www.w3.org/2000/svg">
<path d="M32.6144 170.962C32.6144 170.962 -15.7656 79.2516 20.4544 57.8516C49.3444 40.7816 74.6844 70.6516 105.604 49.8516C145.494 23.0116 175.734 40.9816 197.344 74.3916C213.564 99.4716 222.154 115.692 230.294 135.212C242.964 165.622 216.104 172.562 216.104 172.562L32.6144 170.962Z" fill="#CFD3FF"/>
<path d="M158.833 8H112.623V171.79H158.833V8Z" fill="#22008C"/>
<path d="M205.044 8H158.834V171.79H205.044V8Z" fill="#3D00C3"/>
<path d="M154.753 11.7109H116.693V168.081H154.753V11.7109Z" fill="#DAC8F9"/>
<path d="M133.253 39.6081C136.782 39.6081 139.643 36.7472 139.643 33.2181C139.643 29.689 136.782 26.8281 133.253 26.8281C129.724 26.8281 126.863 29.689 126.863 33.2181C126.863 36.7472 129.724 39.6081 133.253 39.6081Z" fill="#91268C"/>
<path d="M133.254 38.2392C136.027 38.2392 138.274 35.9917 138.274 33.2192C138.274 30.4467 136.027 28.1992 133.254 28.1992C130.482 28.1992 128.234 30.4467 128.234 33.2192C128.234 35.9917 130.482 38.2392 133.254 38.2392Z" fill="#3D00C3"/>
<path d="M133.253 57.5691C136.782 57.5691 139.643 54.7082 139.643 51.1791C139.643 47.65 136.782 44.7891 133.253 44.7891C129.724 44.7891 126.863 47.65 126.863 51.1791C126.863 54.7082 129.724 57.5691 133.253 57.5691Z" fill="#4DD49D"/>
<path d="M133.254 56.2002C136.027 56.2002 138.274 53.9526 138.274 51.1802C138.274 48.4077 136.027 46.1602 133.254 46.1602C130.482 46.1602 128.234 48.4077 128.234 51.1802C128.234 53.9526 130.482 56.2002 133.254 56.2002Z" fill="#3D00C3"/>
<path d="M133.253 74.4792C136.782 74.4792 139.643 71.6183 139.643 68.0892C139.643 64.5601 136.782 61.6992 133.253 61.6992C129.724 61.6992 126.863 64.5601 126.863 68.0892C126.863 71.6183 129.724 74.4792 133.253 74.4792Z" fill="#FFC401"/>
<path d="M133.254 73.1103C136.027 73.1103 138.274 70.8628 138.274 68.0903C138.274 65.3178 136.027 63.0703 133.254 63.0703C130.482 63.0703 128.234 65.3178 128.234 68.0903C128.234 70.8628 130.482 73.1103 133.254 73.1103Z" fill="#3D00C3"/>
<path d="M55.7943 167.419C44.0643 167.419 34.3543 166.069 33.5543 165.949C31.9143 165.709 30.7743 164.189 31.0143 162.549C31.2443 160.909 32.7643 159.769 34.4143 160.009C34.7943 160.059 72.5143 165.319 87.8643 155.099C110.864 139.799 115.174 131.899 118.674 98.7595C120.024 85.9295 122.774 76.3995 126.834 70.4295C127.914 68.8395 128.974 67.6795 129.944 66.8295C131.664 65.3095 134.394 66.2595 134.824 68.5195C135.024 69.5395 134.684 70.5995 133.894 71.2795C131.564 73.3195 126.694 79.8295 124.634 99.3895C120.924 134.559 115.924 143.629 91.1843 160.099C82.3843 165.959 67.9943 167.419 55.7943 167.419Z" fill="#4DD49D"/>
<path d="M49.8638 172.011C36.2538 172.011 25.9138 169.491 25.1938 169.311C23.5838 168.911 22.6138 167.281 23.0138 165.671C23.4138 164.061 25.0438 163.091 26.6538 163.481C26.9338 163.551 55.4038 170.451 79.3138 160.881C99.9238 152.631 102.174 122.611 102.174 60.791C102.174 50.801 105.114 43.021 110.924 37.681C120.104 29.241 132.964 30.221 133.504 30.261C135.154 30.401 136.384 31.851 136.244 33.501C136.104 35.151 134.654 36.381 133.014 36.241C132.884 36.231 122.144 35.481 114.954 42.131C110.454 46.291 108.174 52.561 108.174 60.791C108.174 121.461 106.934 156.281 81.5438 166.451C70.8438 170.741 59.5338 172.011 49.8638 172.011Z" fill="#91268C"/>
<path d="M54.4936 171.472C42.7636 171.472 33.0536 170.112 32.2536 170.002C30.6136 169.762 29.4735 168.242 29.7135 166.602C29.9435 164.962 31.4636 163.822 33.1136 164.062C33.4936 164.112 71.2135 169.372 86.5635 159.152C99.3635 150.632 96.7736 137.612 93.1936 119.602C90.9236 108.162 88.3436 95.1917 89.7936 81.4117C93.1636 49.4017 132.884 48.5117 133.284 48.5117C133.294 48.5117 133.314 48.5117 133.324 48.5117C134.964 48.5117 136.304 49.8317 136.324 51.4717C136.344 53.1317 135.024 54.4917 133.364 54.5117C133.254 54.5117 124.294 54.6917 115.174 58.3217C103.454 62.9817 96.9235 70.9617 95.7535 82.0417C94.3935 94.9217 96.8735 107.412 99.0635 118.432C102.634 136.422 106.014 153.412 89.8736 164.152C81.0836 170.002 66.6936 171.472 54.4936 171.472Z" fill="#FFC401"/>
<path d="M145.275 135.411H125.155C123.265 135.411 121.725 133.881 121.725 131.981C121.725 130.091 123.255 128.551 125.155 128.551H145.275C147.165 128.551 148.705 130.081 148.705 131.981C148.705 133.881 147.175 135.411 145.275 135.411Z" fill="#7D5BCA"/>
<path d="M145.275 147.501H125.155C123.265 147.501 121.725 145.971 121.725 144.071C121.725 142.181 123.255 140.641 125.155 140.641H145.275C147.165 140.641 148.705 142.171 148.705 144.071C148.705 145.961 147.175 147.501 145.275 147.501Z" fill="#7D5BCA"/>
<path d="M145.275 159.579H125.155C123.265 159.579 121.725 158.049 121.725 156.149C121.725 154.259 123.255 152.719 125.155 152.719H145.275C147.165 152.719 148.705 154.249 148.705 156.149C148.705 158.039 147.175 159.579 145.275 159.579Z" fill="#7D5BCA"/>
<path d="M12.1543 171.989C12.1543 149.609 30.2943 131.469 52.6743 131.469C75.0543 131.469 93.2043 149.599 93.2043 171.989H12.1543Z" fill="#7D5BCA"/>
<path d="M82.0849 97.8577C82.0849 97.8577 80.6549 97.6477 79.9449 98.3477C79.2349 99.0477 80.9849 100.728 80.9849 100.728L82.6249 99.3477L82.0849 97.8577Z" fill="#E57E70"/>
<path d="M80.4252 87.7069C80.4252 87.7069 84.9852 93.9969 84.9752 96.5769C84.9752 97.7269 84.0052 100.877 82.0952 101.207C80.7852 101.437 80.0852 100.207 80.4052 99.2869C80.7252 98.3669 81.7052 98.7869 81.7052 98.7869C81.7052 98.7869 81.7252 96.3769 80.3552 96.4369C78.9852 96.4969 79.1452 98.4269 79.1452 98.4269C79.1452 98.4269 80.4952 99.5469 79.9952 100.427C79.4952 101.307 77.0252 99.9069 76.7552 98.8069C75.2852 92.5869 76.6752 92.2069 76.2352 90.1969C75.6552 87.4969 80.4252 87.7069 80.4252 87.7069Z" fill="#FFB7A9"/>
<path d="M80.4253 87.707L81.5753 89.387C81.5753 89.387 77.2053 91.487 76.1953 92.237L76.4953 89.937L80.4253 87.707Z" fill="#E57E70"/>
<path d="M75.6251 90.43C75.6251 90.43 71.9451 82.4 70.6451 77.68C70.6151 77.58 70.5951 77.49 70.5751 77.4C70.1851 75.92 70.0451 74.62 70.0251 73.56C69.9751 71.34 70.4551 70.08 70.4551 70.08C70.4551 70.08 71.7151 65.82 74.5651 69.08C77.5551 72.5 81.3451 88.66 81.3451 88.66L80.7651 88.84L76.0951 90.3L75.6251 90.43Z" fill="#3D00C3"/>
<path d="M61.6348 157.169L69.5148 156.879L70.0648 156.859L69.9848 157.719L69.9048 158.599L69.5848 161.779L69.4448 163.289L61.6548 162.749V161.589L61.6448 158.129L61.6348 157.169Z" fill="#EFB99F"/>
<path d="M76.0342 74.8984C76.0042 75.1684 75.9542 75.3984 75.9042 75.6084C75.6242 76.6784 75.0842 76.9684 74.1842 77.2484C72.9142 77.6384 71.5742 77.0184 70.4942 76.0084C69.9742 75.5284 69.5142 74.9584 69.1542 74.3584C69.1342 74.3384 69.1242 74.3084 69.1142 74.2784C68.9242 73.8784 68.6642 72.7484 68.3642 71.1484C67.6142 67.0884 66.6142 59.9784 65.7942 53.8384C64.9642 47.6084 64.3242 42.3984 64.3242 42.3984C64.3242 42.3984 67.9842 44.1384 69.2642 46.5584C70.5442 48.9884 73.6242 53.7384 74.6442 61.8484C75.1242 65.7284 76.2042 73.5184 76.0342 74.8984Z" fill="#3D00C3"/>
<path d="M70.4258 83.0687C70.0658 82.6787 69.8058 75.1887 69.5358 74.7387C69.5158 74.7187 69.5058 74.6888 69.4958 74.6588L68.7458 71.5287C67.9958 67.4687 66.9958 60.3587 66.1758 54.2188L69.8858 55.3887C69.8858 55.3887 71.5858 61.9587 71.9158 67.3487C72.2458 72.7287 72.0758 79.1288 72.0958 80.5488C72.1758 88.7588 70.7458 83.3487 70.4258 83.0687Z" fill="#22008C"/>
<path d="M69.0556 122.988C71.0356 121.988 74.5156 119.278 74.5956 119.638C74.6356 119.818 73.5856 158.798 73.5556 159.008C73.5556 159.008 70.3156 159.338 67.0556 159.718C63.1356 160.178 59.5956 159.598 59.5156 159.568C59.5156 159.568 59.8656 137.658 59.8256 133.848C59.7856 130.078 60.6356 124.478 60.6356 124.478C60.6356 124.478 66.5056 124.278 69.0556 122.988Z" fill="#FFEEC2"/>
<path d="M74.1561 127.599C74.1561 127.599 72.5461 134.079 66.6061 133.239C65.2761 133.049 64.2461 132.479 63.4461 131.709C60.6461 129.029 60.0261 126.749 60.0261 126.749C60.0261 126.749 59.3061 109.839 58.3861 98.7988C57.8361 92.2688 57.4261 86.7888 57.4961 85.9088C57.6761 83.5188 58.9661 81.7188 58.9661 81.7188L71.1261 83.4088C76.4161 107.749 74.1561 127.599 74.1561 127.599Z" fill="#FFEEC2"/>
<path d="M62.7148 132.489C62.7948 133.099 64.5748 152.679 63.8348 159.889C63.8348 159.889 62.1148 159.889 61.6348 159.809C61.1848 159.739 59.5148 159.569 59.5148 159.569C59.5148 155.299 59.8248 133.159 60.0248 126.739C59.5948 118.749 59.3048 109.829 58.3848 98.7892L60.2748 90.1992C60.2748 90.1992 61.8548 97.2192 61.8548 103.519C61.8548 109.819 62.4348 130.239 62.7148 132.489Z" fill="#EDCE7E"/>
<path d="M41.8257 156.668L49.7057 157.088L50.2557 157.118L50.0957 157.968L49.9257 158.838L49.3357 161.978L49.0557 163.468L41.3457 162.238L41.4457 161.068L41.7457 157.628L41.8257 156.668Z" fill="#EFB99F"/>
<path d="M47.3657 19.4702C47.3657 19.4702 47.3357 18.8702 46.7857 18.6102C46.2457 18.3502 45.1357 17.9302 43.2457 19.7502C41.3557 21.5702 41.1957 22.7302 40.5657 23.2202C39.9357 23.7102 38.6157 24.3002 38.6157 24.3002C38.6157 24.3002 38.3257 28.3302 41.6657 29.6802L41.8357 29.4602C42.1657 29.1102 43.0357 28.4802 44.8457 28.7402C47.3057 29.0902 49.1557 29.3702 50.4357 27.4002C51.7157 25.4402 52.7457 24.1202 52.1157 23.3702C52.0257 23.2602 51.8957 23.1402 51.7357 23.0102C51.7357 23.0102 52.4257 22.1402 51.5757 21.5402C50.8957 21.0702 50.4157 21.6102 50.2457 21.8502C50.4157 21.5602 50.8257 20.7302 50.0857 20.3702C49.1757 19.9202 48.9957 20.4602 48.9957 20.4602C48.9957 20.4602 48.9157 19.6402 48.3257 19.2802C47.7357 18.9402 47.3657 19.4702 47.3657 19.4702Z" fill="#FFB7A9"/>
<path d="M50.6356 120.437C56.5656 120.767 59.4756 116.227 59.5156 116.597C59.5356 116.777 52.3956 159.747 52.3556 159.957C52.3556 159.957 47.2456 160.417 40.0156 159.177C40.0156 159.177 40.8756 136.987 41.1756 133.177C41.4756 129.427 42.1856 115.617 42.1856 115.617C42.1856 115.617 45.2056 120.137 50.6356 120.437Z" fill="#FFEEC2"/>
<path d="M22.0242 33.2006C22.0242 33.2006 34.4242 24.0106 38.7942 23.2706C39.9942 23.0706 43.4342 28.9906 42.2042 30.0506C39.6542 32.2306 30.4842 39.8206 28.6242 40.4706C26.0442 41.3806 20.1942 36.2806 22.0242 33.2006Z" fill="#3D00C3"/>
<path d="M56.4946 128.027C56.4946 128.027 55.2646 131.567 52.2046 132.767C51.1746 133.167 49.9346 133.307 48.4746 132.967C48.4246 132.957 48.3846 132.947 48.3446 132.937C47.9746 132.847 47.6346 132.717 47.3246 132.577C47.3146 132.567 47.2946 132.567 47.2846 132.557C47.2846 132.557 47.2846 132.557 47.2746 132.557C47.2646 132.547 47.2546 132.547 47.2446 132.537C45.0046 131.447 44.0246 129.107 43.6046 127.027C43.4646 126.307 42.4146 127.857 42.3746 127.267C42.3046 126.147 42.5246 120.327 42.1946 115.617C41.3746 103.787 43.3946 86.557 43.6546 84.997C44.0546 82.637 45.4946 80.957 45.4946 80.957L49.9246 81.877L62.7046 84.517C63.1646 108.837 56.4946 128.027 56.4946 128.027Z" fill="#FFEEC2"/>
<path d="M59.7752 39.1383L50.7852 37.4883L52.1352 38.9083C52.1352 38.8983 62.5152 48.2983 59.7752 39.1383Z" fill="#22008C"/>
<path d="M49.9855 18.2383C49.9855 18.2383 46.1755 18.5483 46.2855 23.7183C46.4255 29.6783 50.6355 32.4083 51.4855 36.7783C51.5055 36.2483 51.5855 34.2483 51.5355 33.7583C51.0055 28.3383 46.5455 26.6683 48.0655 25.4083C49.7255 24.0283 49.9855 18.2383 49.9855 18.2383Z" fill="#0A2961"/>
<path d="M64.666 20.8971V25.1871C64.666 25.1871 65.736 22.8671 65.836 21.1471C65.946 19.4371 64.666 20.8971 64.666 20.8971Z" fill="#0A2961"/>
<path d="M57.5458 45.677C55.6558 45.377 51.4258 39.717 51.4258 39.717L51.5458 34.947L51.5658 34.037L51.5958 32.957L55.6558 34.417H55.6658L59.6158 35.837V37.317L59.6258 41.977C63.6558 43.407 59.4258 45.977 57.5458 45.677Z" fill="#FFB7A9"/>
<path d="M59.6147 37.3105C59.1047 37.9105 58.2647 38.3305 56.9047 38.1305C54.0947 37.7205 52.2247 35.7605 51.5547 34.9405L51.5747 34.0305L51.6047 33.9805L55.6647 34.4005H55.6747L59.6247 35.8205L59.6147 37.3105Z" fill="#E57E70"/>
<path d="M64.955 21.7368C64.955 21.7368 66.705 34.0068 60.625 36.5968C57.875 37.7668 55.615 37.3768 53.945 36.6068C51.925 35.6668 50.535 33.9868 50.045 32.5168C49.425 30.6668 48.995 27.5568 49.765 23.9768C50.905 18.6768 53.925 17.7068 56.575 17.9268C59.215 18.1668 64.305 17.3768 64.955 21.7368Z" fill="#FFB7A9"/>
<path d="M49.6146 26.0201C49.6146 26.0201 48.4746 25.1101 47.4846 25.8901C46.4946 26.6701 46.0346 29.0401 48.1746 30.7901C48.8346 31.3301 49.8546 30.8201 49.8546 30.8201L49.6146 26.0201Z" fill="#FFB7A9"/>
<path d="M57.4263 23.7102C57.4763 23.5402 57.3663 23.3602 57.1863 23.3002C56.9163 23.2002 56.3563 22.8802 55.4563 22.7802C54.1063 22.6302 52.7563 23.4402 53.3963 23.4602C53.7463 23.4802 54.6063 23.4502 55.3763 23.6202C56.0063 23.7602 56.5563 24.0802 56.7363 24.1602C57.0063 24.3002 57.3363 24.0002 57.4263 23.7102Z" fill="#0A2961"/>
<path d="M60.7862 25.1571C60.7362 24.9871 60.8362 24.8071 61.0262 24.7371C61.2962 24.6271 61.8462 24.3071 62.7462 24.1871C64.0862 24.0071 65.1162 24.5771 64.6862 24.7271C64.3562 24.8471 63.6062 24.8471 62.8562 25.0271C62.2262 25.1771 61.6862 25.5071 61.5062 25.5971C61.2162 25.7371 60.8762 25.4471 60.7862 25.1571Z" fill="#0A2961"/>
<path d="M59.1054 30.788C59.2154 30.798 59.5754 30.788 59.8754 30.518C59.9154 30.478 60.2654 30.138 60.1954 29.628C60.1154 29.058 59.5954 28.838 59.5654 28.828C59.5254 28.808 59.4754 28.828 59.4554 28.878C59.4354 28.918 59.4554 28.968 59.5054 28.988C59.5054 28.988 59.9654 29.188 60.0254 29.658C60.0854 30.098 59.7754 30.388 59.7554 30.398C59.5054 30.628 59.2054 30.628 59.1154 30.628C59.0654 30.628 59.0254 30.658 59.0254 30.708C59.0254 30.748 59.0654 30.788 59.1054 30.788Z" fill="#E57E70"/>
<path d="M53.7856 27.527C53.8656 27.677 54.6256 27.947 55.6656 27.947C56.7056 27.947 57.4356 27.767 57.5456 27.527C57.6656 27.267 56.8856 25.707 55.6656 25.707C54.3956 25.707 53.7056 27.387 53.7856 27.527Z" fill="white"/>
<path d="M55.4564 27.1086C55.6664 27.1086 55.8364 26.9386 55.8364 26.7286C55.8364 26.5186 55.6664 26.3486 55.4564 26.3486C55.4364 26.3486 55.4164 26.3586 55.3864 26.3586C55.5764 26.1686 55.8364 26.0586 56.1264 26.0586C56.7064 26.0586 57.1864 26.5286 57.1864 27.1186C57.1864 27.6986 56.7164 28.1786 56.1264 28.1786C55.5464 28.1786 55.0664 27.7086 55.0664 27.1186C55.0664 27.0386 55.0764 26.9586 55.0964 26.8786C55.1564 27.0086 55.2964 27.1086 55.4564 27.1086Z" fill="#040605"/>
<path d="M64.655 27.6677C64.575 27.8177 63.815 28.0877 62.775 28.0877C61.735 28.0877 61.005 27.9077 60.895 27.6677C60.775 27.4077 61.555 25.8477 62.775 25.8477C64.035 25.8477 64.725 27.5277 64.655 27.6677Z" fill="white"/>
<path d="M62.5658 27.2492C62.7758 27.2492 62.9458 27.0792 62.9458 26.8692C62.9458 26.6592 62.7758 26.4892 62.5658 26.4892C62.5458 26.4892 62.5258 26.4992 62.4958 26.4992C62.6858 26.3092 62.9458 26.1992 63.2358 26.1992C63.8158 26.1992 64.2958 26.6692 64.2958 27.2592C64.2958 27.8392 63.8258 28.3192 63.2358 28.3192C62.6558 28.3192 62.1758 27.8492 62.1758 27.2592C62.1758 27.1792 62.1858 27.0992 62.2058 27.0192C62.2658 27.1492 62.4058 27.2492 62.5658 27.2492Z" fill="#040605"/>
<path d="M55.625 33.5595C55.625 33.5595 56.995 32.4695 59.685 33.0095" stroke="#E57E70" stroke-width="0.2626" stroke-miterlimit="10" stroke-linecap="round"/>
<path d="M56.8965 34.078C56.8965 34.078 58.1465 34.188 59.3965 33.668C59.3965 33.668 58.5965 34.498 58.0565 34.498C57.6965 34.488 56.8965 34.078 56.8965 34.078Z" fill="#E57E70"/>
<path d="M65.426 20.0488C66.386 19.3888 67.066 18.5188 67.146 17.4288C67.336 14.6188 63.856 15.3988 63.856 15.3988C63.856 15.3988 63.496 13.7188 61.466 13.7188C59.436 13.7188 56.426 15.6288 54.686 15.9188C52.946 16.2088 50.326 15.7587 49.346 17.0687C49.056 17.4487 48.996 17.4987 48.956 17.7787C48.396 17.5187 48.496 17.0587 49.146 16.4787C48.256 16.5187 47.556 18.1288 48.926 18.6388C49.056 19.0188 49.346 19.2088 49.346 19.2088C49.346 19.2088 46.446 26.0788 47.616 25.5888C48.776 25.1088 50.406 26.1488 50.916 27.9288C51.856 22.1588 50.886 22.8388 52.126 21.1988C52.996 20.0488 58.066 21.6988 60.876 21.5988C61.526 21.5788 62.246 21.4888 62.976 21.3288C62.976 21.3288 66.926 21.3887 67.876 17.6087C67.866 17.6287 67.256 19.2888 65.426 20.0488Z" fill="#0A2961"/>
<path d="M71.1156 83.3977C71.1156 83.3977 59.5656 87.0877 49.1356 84.6577C48.0056 84.3977 46.8856 84.0577 45.7856 83.6377C45.3056 83.4577 44.8356 83.2577 44.3656 83.0377C44.3656 83.0377 42.6956 64.8777 40.4256 58.1977C39.3756 55.1077 34.9056 46.9977 36.0656 45.8977C38.2156 43.8377 37.0456 38.7677 40.2656 39.8677C43.6056 41.0077 50.7756 39.0977 50.7756 39.0977C50.7756 39.0977 56.6256 42.6677 58.9156 42.5877C58.9156 42.5877 59.9656 42.6077 59.7656 40.6677C59.7656 40.6677 66.1956 42.4477 67.7556 45.0477C69.9356 48.6577 71.7456 72.0577 71.1156 83.3977Z" fill="#3D00C3"/>
<path d="M58.4844 42.5898C58.4844 42.5898 62.1244 56.1398 61.9744 82.6398" stroke="#F9F5FE" stroke-width="0.5377" stroke-miterlimit="10"/>
<path d="M58.3945 43.1098L60.6045 45.0798L59.0645 42.6098L58.9245 42.5898H58.7245L58.3945 43.1098Z" fill="#22008C"/>
<path d="M50.7855 37.4805L49.1055 39.6705C49.1055 39.6705 50.3355 40.8105 52.3555 42.5805C54.3255 44.3005 56.9055 45.5305 56.9055 45.5305L58.9355 42.5805C58.9355 42.5805 56.7655 41.8105 54.5955 40.5005C52.8255 39.4405 51.5555 38.5505 50.7855 37.4805Z" fill="#F9F5FE"/>
<path d="M58.9258 42.5885L60.6058 45.0885C60.6058 45.0885 61.3458 42.6585 61.1558 41.1085L59.7758 39.1485C59.7758 39.1385 59.9858 42.3985 58.9258 42.5885Z" fill="#F9F5FE"/>
<path d="M61.1445 85.1805C62.1745 90.9905 61.8145 104.71 61.8145 104.71C61.8145 104.71 64.3545 98.7205 63.5045 84.9805" stroke="#EDCE7E" stroke-width="0.3585" stroke-miterlimit="10"/>
<path d="M41.706 56.3077C41.706 56.3077 40.326 55.6677 38.916 54.5977C41.206 58.8577 44.376 83.0277 44.376 83.0277L48.256 84.4277C48.256 84.4277 45.946 75.4077 45.356 70.5677C44.766 65.7277 41.706 56.3077 41.706 56.3077Z" fill="#22008C"/>
<path d="M42.5852 56.1878C45.1152 56.8378 46.9652 44.6878 42.1352 41.2178C37.3052 37.7478 34.4252 35.0678 31.4052 33.4978C28.3852 31.9278 20.0152 30.9778 21.3452 35.9178C22.6752 40.8578 35.1452 54.2878 42.5852 56.1878Z" fill="#3D00C3"/>
<path d="M61.084 171.195L61.154 169.475L63.114 168.605L68.214 169.785L82.194 171.035C82.194 171.035 82.344 171.385 81.804 171.515C81.274 171.635 75.274 171.745 68.984 170.685L69.014 171.215L61.084 171.195Z" fill="#170E09"/>
<path d="M61.1648 163.187C61.3648 162.247 63.8548 162.027 66.3148 162.157L66.1948 160.777L69.2848 160.967C69.2848 160.967 70.6448 162.657 71.2348 163.057C74.3348 165.107 78.7848 167.567 81.9748 167.787C84.2648 167.947 82.9948 170.947 82.1848 171.037C74.1248 171.897 65.2148 169.427 61.1448 169.487C61.1548 169.477 60.8448 164.637 61.1648 163.187Z" fill="#442A1D"/>
<path d="M37.6698 171.227L50.5098 171.227L50.5098 170.387L37.6698 170.387L37.6698 171.227Z" fill="#170E09"/>
<path d="M37.6745 168.279C38.4145 167.209 41.3245 161.909 41.3245 161.909C41.3245 161.909 41.6845 161.899 42.2345 161.899V160.699H47.6245V161.939C48.3845 161.969 48.9145 162.029 48.9545 162.119C49.0845 162.459 50.6945 167.119 50.9245 168.289C51.1645 169.469 50.1145 170.399 50.1145 170.399H37.9945C37.9945 170.389 36.9345 169.349 37.6745 168.279Z" fill="#442A1D"/>
<path d="M71.7652 86.0901H43.5352L43.9152 82.9102H71.5852L71.7652 86.0901Z" fill="#0A2961"/>
<path d="M65.6447 82.6406H58.3047V86.4506H65.6447V82.6406Z" fill="#FFC401"/>
<path d="M47.0354 82.9102H46.2754V86.2802H47.0354V82.9102Z" fill="#FFEEC2"/>
<path d="M53.5655 82.6406H52.6855V86.2806H53.5655V82.6406Z" fill="#FFEEC2"/>
<path d="M70.0148 82.6406H69.1348V86.2806H70.0148V82.6406Z" fill="#FFEEC2"/>
<path d="M63.1348 54.7578H68.3148L68.9448 59.4378C68.9448 59.4378 67.8248 61.5378 67.2648 62.2778L63.9048 59.8678L63.1348 54.7578Z" stroke="#F9F5FE" stroke-width="0.3585" stroke-miterlimit="10"/>
<path d="M216.634 71.8281H171.084V117.118H216.634V71.8281Z" fill="#FE3838"/>
<path d="M206.625 82.6884C205.245 81.1884 202.905 81.0984 201.415 82.4784L194.075 89.2584L187.295 81.9184C185.915 80.4184 183.575 80.3284 182.085 81.7084C180.585 83.0884 180.495 85.4284 181.875 86.9184L188.655 94.2584L181.315 101.038C179.815 102.418 179.725 104.758 181.105 106.248C182.485 107.748 184.825 107.838 186.315 106.458L193.655 99.6784L200.435 107.018C201.815 108.518 204.155 108.608 205.645 107.228C207.145 105.848 207.235 103.508 205.855 102.018L199.075 94.6784L206.415 87.8984C207.905 86.5184 208.005 84.1884 206.625 82.6884Z" fill="white"/>
<path d="M90.6346 26.4919C93.7605 26.4919 96.2946 23.9578 96.2946 20.8319C96.2946 17.7059 93.7605 15.1719 90.6346 15.1719C87.5087 15.1719 84.9746 17.7059 84.9746 20.8319C84.9746 23.9578 87.5087 26.4919 90.6346 26.4919Z" fill="#FFC401"/>
<path d="M29.1244 78.929C28.4544 78.199 27.3144 78.159 26.5944 78.829L23.0244 82.119L19.7344 78.549C19.0644 77.819 17.9244 77.779 17.2044 78.449C16.4744 79.119 16.4344 80.259 17.1044 80.979L20.3944 84.549L16.8244 87.839C16.0944 88.509 16.0544 89.649 16.7244 90.369C17.3944 91.099 18.5344 91.139 19.2544 90.469L22.8244 87.179L26.1144 90.749C26.7844 91.479 27.9244 91.519 28.6444 90.849C29.3744 90.179 29.4144 89.039 28.7444 88.319L25.4544 84.749L29.0244 81.459C29.7544 80.799 29.8044 79.659 29.1244 78.929Z" fill="#3D00C3"/>
</svg>
