<svg width="283" height="179" viewBox="0 0 283 179" fill="none" xmlns="http://www.w3.org/2000/svg">
<rect x="50.8687" width="231.581" height="179" rx="5.59375" fill="white"/>
<rect x="60.9375" y="8.94922" width="211.444" height="161.1" rx="3.35625" fill="#E6E6E6"/>
<rect x="65.4126" y="110.756" width="202.494" height="53.7" rx="2.2375" fill="white"/>
<rect x="65.4126" y="23.4941" width="202.494" height="15.6625" rx="2.2375" fill="#F9F5FE"/>
<rect x="65.4126" y="44.75" width="202.494" height="59.2938" rx="2.2375" fill="#F8F8F8"/>
<rect x="87.7876" y="133.131" width="174.525" height="8.95" rx="1.11875" fill="#EDEDED"/>
<rect x="71.0063" y="133.131" width="8.95" height="8.95" rx="1.11875" fill="#DBC8F9"/>
<rect x="87.7876" y="116.35" width="174.525" height="8.95" rx="1.11875" fill="#EDEDED"/>
<rect x="71.0063" y="116.35" width="8.95" height="8.95" rx="1.11875" fill="#DBC8F9"/>
<rect x="87.7876" y="149.912" width="174.525" height="8.95" rx="1.11875" fill="#EDEDED"/>
<rect x="71.0063" y="149.912" width="8.95" height="8.95" rx="1.11875" fill="#DBC8F9"/>
<g filter="url(#filter0_d_2617_11810)">
<rect x="5" y="19.0195" width="173.616" height="33.5625" rx="5.90067" fill="white"/>
<path d="M13.7882 37.8008V33.0456H16.6394V33.5564H14.364V35.1631H16.4258V35.674H14.364V37.8008H13.7882ZM17.5513 37.8008V34.2344H18.0993V37.8008H17.5513ZM17.83 33.64C17.7232 33.64 17.6311 33.6036 17.5537 33.5309C17.4778 33.4581 17.4399 33.3707 17.4399 33.2685C17.4399 33.1663 17.4778 33.0789 17.5537 33.0061C17.6311 32.9334 17.7232 32.897 17.83 32.897C17.9368 32.897 18.0281 32.9334 18.1039 33.0061C18.1813 33.0789 18.22 33.1663 18.22 33.2685C18.22 33.3707 18.1813 33.4581 18.1039 33.5309C18.0281 33.6036 17.9368 33.64 17.83 33.64ZM19.6509 33.0456V37.8008H19.1029V33.0456H19.6509ZM22.2055 34.2344V34.6988H20.3573V34.2344H22.2055ZM20.896 33.3799H21.4439V36.7792C21.4439 36.934 21.4664 37.05 21.5113 37.1274C21.5577 37.2033 21.6165 37.2544 21.6877 37.2807C21.7605 37.3054 21.8371 37.3178 21.9176 37.3178C21.978 37.3178 22.0275 37.3147 22.0662 37.3085C22.1049 37.3008 22.1359 37.2946 22.1591 37.29L22.2705 37.7822C22.2334 37.7961 22.1815 37.8101 22.115 37.824C22.0484 37.8395 21.964 37.8472 21.8619 37.8472C21.7071 37.8472 21.5554 37.8139 21.4068 37.7474C21.2597 37.6808 21.1375 37.5794 21.0399 37.4432C20.944 37.307 20.896 37.1352 20.896 36.9278V33.3799ZM24.4868 37.8751C24.1431 37.8751 23.8467 37.7992 23.5975 37.6475C23.3498 37.4943 23.1586 37.2807 23.024 37.0067C22.8909 36.7312 22.8243 36.4108 22.8243 36.0454C22.8243 35.6801 22.8909 35.3582 23.024 35.0796C23.1586 34.7994 23.3459 34.5811 23.5859 34.4248C23.8273 34.2669 24.1091 34.188 24.431 34.188C24.6168 34.188 24.8002 34.2189 24.9813 34.2808C25.1624 34.3427 25.3273 34.4434 25.4759 34.5827C25.6245 34.7204 25.7429 34.9031 25.8311 35.1306C25.9193 35.3582 25.9635 35.6383 25.9635 35.9711V36.2033H23.2144V35.7297H25.4062C25.4062 35.5284 25.366 35.3489 25.2855 35.191C25.2065 35.0331 25.0935 34.9085 24.9465 34.8172C24.801 34.7259 24.6292 34.6802 24.431 34.6802C24.2128 34.6802 24.0239 34.7344 23.8645 34.8427C23.7066 34.9495 23.5851 35.0888 23.5 35.2607C23.4148 35.4325 23.3723 35.6167 23.3723 35.8133V36.129C23.3723 36.3984 23.4187 36.6267 23.5116 36.814C23.606 36.9997 23.7368 37.1414 23.904 37.2389C24.0711 37.3349 24.2654 37.3828 24.4868 37.3828C24.6307 37.3828 24.7607 37.3627 24.8768 37.3225C24.9945 37.2807 25.0959 37.2188 25.181 37.1367C25.2661 37.0531 25.3319 36.9494 25.3784 36.8256L25.9077 36.9742C25.852 37.1538 25.7584 37.3116 25.6268 37.4479C25.4952 37.5825 25.3327 37.6878 25.1392 37.7636C24.9457 37.8379 24.7282 37.8751 24.4868 37.8751ZM26.797 37.8008V34.2344H27.3264V34.7731H27.3635C27.4286 34.5966 27.5462 34.4534 27.7165 34.3435C27.8867 34.2336 28.0787 34.1787 28.2923 34.1787C28.3325 34.1787 28.3828 34.1794 28.4432 34.181C28.5036 34.1825 28.5492 34.1849 28.5802 34.188V34.7452C28.5616 34.7406 28.5191 34.7336 28.4525 34.7243C28.3875 34.7135 28.3186 34.7081 28.2459 34.7081C28.0725 34.7081 27.9177 34.7444 27.7815 34.8172C27.6468 34.8884 27.54 34.9875 27.4611 35.1144C27.3837 35.2398 27.345 35.3829 27.345 35.5439V37.8008H26.797ZM31.7559 35.0331L31.2637 35.1724C31.2327 35.0904 31.1871 35.0107 31.1267 34.9333C31.0679 34.8543 30.9874 34.7893 30.8852 34.7382C30.7831 34.6872 30.6523 34.6616 30.4928 34.6616C30.2746 34.6616 30.0927 34.7119 29.9472 34.8125C29.8033 34.9116 29.7313 35.0378 29.7313 35.191C29.7313 35.3272 29.7808 35.4348 29.8799 35.5137C29.9789 35.5927 30.1337 35.6585 30.3442 35.7111L30.8736 35.8411C31.1925 35.9185 31.4301 36.0369 31.5864 36.1964C31.7428 36.3543 31.821 36.5578 31.821 36.807C31.821 37.0113 31.7621 37.194 31.6445 37.355C31.5284 37.516 31.3659 37.6429 31.1569 37.7358C30.9479 37.8286 30.7049 37.8751 30.4278 37.8751C30.0641 37.8751 29.763 37.7961 29.5246 37.6383C29.2862 37.4804 29.1353 37.2497 29.0719 36.9463L29.592 36.8163C29.6415 37.0083 29.7351 37.1522 29.8729 37.2482C30.0122 37.3441 30.1941 37.3921 30.4185 37.3921C30.674 37.3921 30.8767 37.338 31.0269 37.2296C31.1786 37.1197 31.2544 36.9881 31.2544 36.8349C31.2544 36.7111 31.2111 36.6073 31.1244 36.5238C31.0377 36.4386 30.9046 36.3752 30.725 36.3334L30.1306 36.194C29.804 36.1167 29.5641 35.9967 29.4109 35.8342C29.2592 35.6701 29.1833 35.465 29.1833 35.2189C29.1833 35.0176 29.2398 34.8396 29.3528 34.6848C29.4674 34.53 29.6229 34.4085 29.8195 34.3203C30.0176 34.2321 30.2421 34.188 30.4928 34.188C30.8458 34.188 31.1228 34.2654 31.3241 34.4201C31.5268 34.5749 31.6708 34.7793 31.7559 35.0331ZM33.0452 37.8379C32.9306 37.8379 32.8323 37.7969 32.7503 37.7149C32.6682 37.6328 32.6272 37.5345 32.6272 37.42C32.6272 37.3054 32.6682 37.2072 32.7503 37.1251C32.8323 37.0431 32.9306 37.0021 33.0452 37.0021C33.1597 37.0021 33.258 37.0431 33.34 37.1251C33.4221 37.2072 33.4631 37.3054 33.4631 37.42C33.4631 37.4958 33.4437 37.5655 33.405 37.629C33.3679 37.6924 33.3176 37.7435 33.2541 37.7822C33.1922 37.8194 33.1226 37.8379 33.0452 37.8379ZM33.0452 35.191C32.9306 35.191 32.8323 35.15 32.7503 35.0679C32.6682 34.9859 32.6272 34.8876 32.6272 34.7731C32.6272 34.6585 32.6682 34.5602 32.7503 34.4782C32.8323 34.3961 32.9306 34.3551 33.0452 34.3551C33.1597 34.3551 33.258 34.3961 33.34 34.4782C33.4221 34.5602 33.4631 34.6585 33.4631 34.7731C33.4631 34.8489 33.4437 34.9186 33.405 34.982C33.3679 35.0455 33.3176 35.0966 33.2541 35.1353C33.1922 35.1724 33.1226 35.191 33.0452 35.191Z" fill="#414042"/>
<rect x="40.3707" y="27.2316" width="62.8184" height="17.1373" rx="3.5027" fill="white"/>
<rect x="40.3707" y="27.2316" width="62.8184" height="17.1373" rx="3.5027" stroke="#D1D1D2" stroke-width="0.467027"/>
<path d="M46.4555 37.8008V33.0456H49.4367V33.6632H47.1729V35.1121H49.2812V35.7274H47.1729V37.1832H49.4646V37.8008H46.4555ZM50.3394 37.8008V34.2344H51.0057V34.8149H51.0499C51.1242 34.6183 51.2457 34.465 51.4144 34.3551C51.5831 34.2437 51.7851 34.188 52.0204 34.188C52.2588 34.188 52.4585 34.2437 52.6194 34.3551C52.782 34.4666 52.9019 34.6198 52.9793 34.8149H53.0165C53.1016 34.6245 53.2371 34.4728 53.4228 34.3598C53.6086 34.2452 53.8299 34.188 54.0869 34.188C54.4104 34.188 54.6743 34.2893 54.8786 34.4921C55.0845 34.6949 55.1874 35.0006 55.1874 35.4093V37.8008H54.4932V35.4743C54.4932 35.2328 54.4274 35.0579 54.2958 34.9495C54.1643 34.8412 54.0071 34.787 53.8245 34.787C53.5985 34.787 53.4228 34.8567 53.2974 34.996C53.1721 35.1337 53.1094 35.311 53.1094 35.5277V37.8008H52.4174V35.4302C52.4174 35.2367 52.3571 35.0811 52.2363 34.9635C52.1156 34.8458 51.9585 34.787 51.765 34.787C51.6334 34.787 51.5119 34.8218 51.4005 34.8915C51.2906 34.9596 51.2016 35.0548 51.1335 35.1771C51.0669 35.2994 51.0336 35.441 51.0336 35.602V37.8008H50.3394ZM57.1558 37.8797C56.9298 37.8797 56.7255 37.8379 56.5428 37.7543C56.3602 37.6692 56.2154 37.5461 56.1086 37.3852C56.0034 37.2242 55.9507 37.0268 55.9507 36.7931C55.9507 36.5919 55.9894 36.4262 56.0668 36.2962C56.1442 36.1662 56.2487 36.0633 56.3803 35.9874C56.5119 35.9116 56.6589 35.8543 56.8214 35.8156C56.984 35.7769 57.1496 35.7475 57.3183 35.7274C57.5319 35.7026 57.7053 35.6825 57.8384 35.667C57.9715 35.65 58.0683 35.6229 58.1287 35.5857C58.189 35.5486 58.2192 35.4882 58.2192 35.4046V35.3884C58.2192 35.1856 58.1619 35.0285 58.0474 34.917C57.9344 34.8056 57.7657 34.7498 57.5412 34.7498C57.3075 34.7498 57.1233 34.8017 56.9886 34.9054C56.8555 35.0076 56.7634 35.1213 56.7123 35.2467L56.0599 35.0981C56.1373 34.8814 56.2503 34.7065 56.3989 34.5734C56.549 34.4387 56.7216 34.3412 56.9166 34.2808C57.1117 34.2189 57.3168 34.188 57.5319 34.188C57.6743 34.188 57.8253 34.205 57.9847 34.239C58.1457 34.2715 58.2958 34.3319 58.4351 34.4201C58.576 34.5084 58.6913 34.6345 58.7811 34.7986C58.8709 34.9611 58.9158 35.1724 58.9158 35.4325V37.8008H58.2378V37.3132H58.2099C58.165 37.403 58.0977 37.4912 58.0079 37.5779C57.9181 37.6646 57.8028 37.7365 57.662 37.7938C57.5211 37.8511 57.3524 37.8797 57.1558 37.8797ZM57.3067 37.3225C57.4987 37.3225 57.6627 37.2846 57.799 37.2087C57.9367 37.1329 58.0412 37.0338 58.1124 36.9115C58.1852 36.7877 58.2215 36.6553 58.2215 36.5145V36.0547C58.1968 36.0795 58.1488 36.1027 58.0776 36.1244C58.0079 36.1445 57.9282 36.1623 57.8384 36.1778C57.7486 36.1917 57.6612 36.2049 57.5761 36.2173C57.4909 36.2281 57.4197 36.2374 57.3624 36.2451C57.2278 36.2622 57.1047 36.2908 56.9933 36.331C56.8834 36.3713 56.7951 36.4293 56.7286 36.5052C56.6636 36.5795 56.6311 36.6785 56.6311 36.8024C56.6311 36.9742 56.6945 37.1042 56.8214 37.1925C56.9484 37.2791 57.1101 37.3225 57.3067 37.3225ZM59.8405 37.8008V34.2344H60.5347V37.8008H59.8405ZM60.1911 33.6841C60.0703 33.6841 59.9666 33.6439 59.8799 33.5634C59.7948 33.4813 59.7522 33.3838 59.7522 33.2708C59.7522 33.1563 59.7948 33.0588 59.8799 32.9783C59.9666 32.8962 60.0703 32.8552 60.1911 32.8552C60.3118 32.8552 60.4147 32.8962 60.4999 32.9783C60.5865 33.0588 60.6299 33.1563 60.6299 33.2708C60.6299 33.3838 60.5865 33.4813 60.4999 33.5634C60.4147 33.6439 60.3118 33.6841 60.1911 33.6841ZM62.1629 33.0456V37.8008H61.4687V33.0456H62.1629ZM67.4765 34.2948C67.4517 34.075 67.3496 33.9047 67.17 33.784C66.9905 33.6617 66.7645 33.6005 66.492 33.6005C66.297 33.6005 66.1283 33.6315 65.9859 33.6934C65.8434 33.7538 65.7328 33.8374 65.6538 33.9442C65.5764 34.0494 65.5377 34.1694 65.5377 34.304C65.5377 34.417 65.5641 34.5146 65.6167 34.5966C65.6709 34.6786 65.7413 34.7475 65.828 34.8033C65.9162 34.8574 66.0106 34.9031 66.1112 34.9402C66.2119 34.9758 66.3086 35.0053 66.4015 35.0285L66.8658 35.1492C67.0175 35.1864 67.1731 35.2367 67.3325 35.3001C67.492 35.3636 67.6398 35.4472 67.776 35.5509C67.9122 35.6546 68.0221 35.7831 68.1057 35.9363C68.1909 36.0896 68.2334 36.273 68.2334 36.4866C68.2334 36.7559 68.1638 36.9951 68.0245 37.2041C67.8867 37.413 67.6862 37.5779 67.4231 37.6986C67.1615 37.8194 66.8449 37.8797 66.4734 37.8797C66.1174 37.8797 65.8094 37.8232 65.5493 37.7102C65.2893 37.5972 65.0857 37.437 64.9387 37.2296C64.7916 37.0206 64.7104 36.773 64.6949 36.4866H65.4147C65.4286 36.6584 65.4843 36.8016 65.5819 36.9161C65.6809 37.0291 65.8071 37.1135 65.9603 37.1692C66.1151 37.2234 66.2846 37.2505 66.4688 37.2505C66.6716 37.2505 66.8519 37.2188 67.0098 37.1553C67.1692 37.0903 67.2946 37.0005 67.3859 36.886C67.4773 36.7699 67.5229 36.6344 67.5229 36.4796C67.5229 36.3388 67.4827 36.2235 67.4022 36.1337C67.3233 36.0439 67.2157 35.9696 67.0795 35.9108C66.9448 35.852 66.7923 35.8001 66.622 35.7552L66.0602 35.602C65.6794 35.4983 65.3775 35.3458 65.1546 35.1446C64.9333 34.9433 64.8226 34.6771 64.8226 34.3458C64.8226 34.0719 64.8969 33.8327 65.0455 33.6284C65.1941 33.4241 65.3953 33.2654 65.6492 33.1524C65.903 33.0379 66.1894 32.9806 66.5083 32.9806C66.8302 32.9806 67.1143 33.0371 67.3604 33.1501C67.6081 33.2631 67.8031 33.4186 67.9455 33.6168C68.0879 33.8134 68.1622 34.0394 68.1684 34.2948H67.4765ZM70.6998 34.2344V34.7916H68.7518V34.2344H70.6998ZM69.2742 33.3799H69.9684V36.7536C69.9684 36.8883 69.9886 36.9897 70.0288 37.0578C70.0691 37.1243 70.1209 37.17 70.1844 37.1948C70.2494 37.218 70.3198 37.2296 70.3957 37.2296C70.4514 37.2296 70.5001 37.2257 70.5419 37.218C70.5837 37.2103 70.6162 37.2041 70.6395 37.1994L70.7648 37.7729C70.7246 37.7884 70.6673 37.8039 70.593 37.8194C70.5187 37.8364 70.4258 37.8457 70.3144 37.8472C70.1317 37.8503 69.9615 37.8178 69.8036 37.7497C69.6457 37.6816 69.518 37.5763 69.4205 37.4339C69.323 37.2915 69.2742 37.1127 69.2742 36.8976V33.3799ZM72.5057 37.8797C72.2797 37.8797 72.0753 37.8379 71.8927 37.7543C71.71 37.6692 71.5653 37.5461 71.4585 37.3852C71.3532 37.2242 71.3006 37.0268 71.3006 36.7931C71.3006 36.5919 71.3393 36.4262 71.4167 36.2962C71.4941 36.1662 71.5986 36.0633 71.7302 35.9874C71.8617 35.9116 72.0088 35.8543 72.1713 35.8156C72.3338 35.7769 72.4995 35.7475 72.6682 35.7274C72.8818 35.7026 73.0552 35.6825 73.1883 35.667C73.3214 35.65 73.4182 35.6229 73.4785 35.5857C73.5389 35.5486 73.5691 35.4882 73.5691 35.4046V35.3884C73.5691 35.1856 73.5118 35.0285 73.3973 34.917C73.2843 34.8056 73.1155 34.7498 72.8911 34.7498C72.6574 34.7498 72.4732 34.8017 72.3385 34.9054C72.2054 35.0076 72.1133 35.1213 72.0622 35.2467L71.4097 35.0981C71.4871 34.8814 71.6001 34.7065 71.7487 34.5734C71.8989 34.4387 72.0715 34.3412 72.2665 34.2808C72.4615 34.2189 72.6666 34.188 72.8818 34.188C73.0242 34.188 73.1751 34.205 73.3346 34.239C73.4956 34.2715 73.6457 34.3319 73.785 34.4201C73.9259 34.5084 74.0412 34.6345 74.131 34.7986C74.2207 34.9611 74.2656 35.1724 74.2656 35.4325V37.8008H73.5877V37.3132H73.5598C73.5149 37.403 73.4476 37.4912 73.3578 37.5779C73.268 37.6646 73.1527 37.7365 73.0118 37.7938C72.871 37.8511 72.7022 37.8797 72.5057 37.8797ZM72.6566 37.3225C72.8485 37.3225 73.0126 37.2846 73.1488 37.2087C73.2866 37.1329 73.3911 37.0338 73.4623 36.9115C73.535 36.7877 73.5714 36.6553 73.5714 36.5145V36.0547C73.5466 36.0795 73.4986 36.1027 73.4274 36.1244C73.3578 36.1445 73.2781 36.1623 73.1883 36.1778C73.0985 36.1917 73.0111 36.2049 72.9259 36.2173C72.8408 36.2281 72.7696 36.2374 72.7123 36.2451C72.5776 36.2622 72.4546 36.2908 72.3431 36.331C72.2332 36.3713 72.145 36.4293 72.0784 36.5052C72.0134 36.5795 71.9809 36.6785 71.9809 36.8024C71.9809 36.9742 72.0444 37.1042 72.1713 37.1925C72.2982 37.2791 72.46 37.3225 72.6566 37.3225ZM76.8551 34.2344V34.7916H74.9071V34.2344H76.8551ZM75.4295 33.3799H76.1237V36.7536C76.1237 36.8883 76.1438 36.9897 76.1841 37.0578C76.2243 37.1243 76.2762 37.17 76.3396 37.1948C76.4047 37.218 76.4751 37.2296 76.5509 37.2296C76.6067 37.2296 76.6554 37.2257 76.6972 37.218C76.739 37.2103 76.7715 37.2041 76.7947 37.1994L76.9201 37.7729C76.8799 37.7884 76.8226 37.8039 76.7483 37.8194C76.674 37.8364 76.5811 37.8457 76.4697 37.8472C76.287 37.8503 76.1167 37.8178 75.9589 37.7497C75.801 37.6816 75.6733 37.5763 75.5758 37.4339C75.4782 37.2915 75.4295 37.1127 75.4295 36.8976V33.3799ZM79.8822 36.3218V34.2344H80.5788V37.8008H79.8962V37.1832H79.859C79.777 37.3736 79.6454 37.5322 79.4643 37.6591C79.2847 37.7845 79.0611 37.8472 78.7933 37.8472C78.5642 37.8472 78.3614 37.7969 78.1849 37.6963C78.01 37.5941 77.8723 37.4432 77.7717 37.2435C77.6726 37.0439 77.6231 36.797 77.6231 36.5029V34.2344H78.3173V36.4193C78.3173 36.6623 78.3846 36.8558 78.5193 36.9997C78.654 37.1437 78.8289 37.2157 79.044 37.2157C79.1741 37.2157 79.3033 37.1832 79.4318 37.1182C79.5618 37.0531 79.6694 36.9548 79.7545 36.8233C79.8412 36.6917 79.8838 36.5245 79.8822 36.3218ZM84.1841 35.1051L83.5548 35.2165C83.5285 35.1361 83.4867 35.0594 83.4295 34.9867C83.3737 34.9139 83.2979 34.8543 83.2019 34.8079C83.106 34.7615 82.986 34.7382 82.842 34.7382C82.6455 34.7382 82.4814 34.7824 82.3498 34.8706C82.2182 34.9573 82.1524 35.0695 82.1524 35.2073C82.1524 35.3264 82.1966 35.4224 82.2848 35.4952C82.373 35.5679 82.5154 35.6275 82.712 35.674L83.2785 35.804C83.6067 35.8798 83.8513 35.9967 84.0123 36.1546C84.1732 36.3125 84.2537 36.5176 84.2537 36.7699C84.2537 36.9835 84.1918 37.1739 84.068 37.3411C83.9457 37.5067 83.7747 37.6367 83.5548 37.7311C83.3366 37.8255 83.0835 37.8728 82.7956 37.8728C82.3962 37.8728 82.0704 37.7876 81.8181 37.6174C81.5658 37.4455 81.411 37.2017 81.3537 36.886L82.0247 36.7838C82.0665 36.9587 82.1524 37.0911 82.2825 37.1808C82.4125 37.2691 82.582 37.3132 82.791 37.3132C83.0185 37.3132 83.2004 37.266 83.3366 37.1716C83.4728 37.0756 83.5409 36.9587 83.5409 36.821C83.5409 36.7095 83.4991 36.6159 83.4155 36.54C83.3335 36.4642 83.2073 36.4069 83.0371 36.3682L82.4334 36.2358C82.1006 36.16 81.8545 36.0393 81.695 35.8736C81.5371 35.708 81.4582 35.4983 81.4582 35.2444C81.4582 35.0339 81.517 34.8497 81.6347 34.6918C81.7523 34.5339 81.9148 34.4109 82.1223 34.3226C82.3297 34.2328 82.5673 34.188 82.8351 34.188C83.2205 34.188 83.5239 34.2715 83.7452 34.4387C83.9666 34.6043 84.1129 34.8265 84.1841 35.1051Z" fill="#414042"/>
<path fill-rule="evenodd" clip-rule="evenodd" d="M90.5593 34.3378C90.7225 34.198 90.9681 34.2169 91.108 34.3801L93.1477 36.7596L95.1873 34.3801C95.3272 34.2169 95.5729 34.198 95.7361 34.3378C95.8993 34.4777 95.9182 34.7234 95.7783 34.8866L93.5318 37.5075C93.3299 37.7431 92.9654 37.7431 92.7635 37.5075L90.517 34.8866C90.3772 34.7234 90.3961 34.4777 90.5593 34.3378Z" fill="#414042"/>
<rect x="109.715" y="27.2316" width="59.8184" height="17.1373" rx="3.5027" fill="white"/>
<rect x="109.715" y="27.2316" width="59.8184" height="17.1373" rx="3.5027" stroke="#D1D1D2" stroke-width="0.467027"/>
<path d="M115.655 33.6632V33.0456H119.335V33.6632H117.852V37.8008H117.136V33.6632H115.655ZM121.113 37.8728C120.761 37.8728 120.459 37.7977 120.205 37.6475C119.952 37.4958 119.757 37.283 119.62 37.009C119.483 36.7335 119.415 36.4108 119.415 36.0408C119.415 35.6755 119.483 35.3535 119.62 35.0749C119.757 34.7963 119.949 34.5788 120.196 34.4225C120.443 34.2661 120.733 34.188 121.064 34.188C121.265 34.188 121.46 34.2212 121.649 34.2878C121.838 34.3544 122.007 34.4588 122.157 34.6012C122.308 34.7437 122.426 34.9286 122.513 35.1562C122.599 35.3822 122.643 35.6569 122.643 35.9804V36.2266H119.808V35.7065H121.962C121.962 35.5238 121.925 35.362 121.851 35.2212C121.777 35.0788 121.672 34.9666 121.538 34.8845C121.404 34.8025 121.248 34.7615 121.069 34.7615C120.873 34.7615 120.703 34.8094 120.558 34.9054C120.414 34.9998 120.302 35.1237 120.223 35.2769C120.146 35.4286 120.107 35.5935 120.107 35.7715V36.1778C120.107 36.4162 120.149 36.619 120.233 36.7861C120.318 36.9533 120.436 37.081 120.588 37.1692C120.74 37.2559 120.917 37.2993 121.12 37.2993C121.251 37.2993 121.371 37.2807 121.48 37.2435C121.588 37.2048 121.682 37.1476 121.76 37.0717C121.839 36.9959 121.9 36.9022 121.942 36.7908L122.599 36.9092C122.546 37.1027 122.452 37.2722 122.315 37.4177C122.181 37.5616 122.011 37.6739 121.807 37.7543C121.604 37.8333 121.373 37.8728 121.113 37.8728ZM126.086 35.1051L125.456 35.2165C125.43 35.1361 125.388 35.0594 125.331 34.9867C125.275 34.9139 125.199 34.8543 125.103 34.8079C125.007 34.7615 124.887 34.7382 124.743 34.7382C124.547 34.7382 124.383 34.7824 124.251 34.8706C124.12 34.9573 124.054 35.0695 124.054 35.2073C124.054 35.3264 124.098 35.4224 124.186 35.4952C124.274 35.5679 124.417 35.6275 124.613 35.674L125.18 35.804C125.508 35.8798 125.753 35.9967 125.914 36.1546C126.075 36.3125 126.155 36.5176 126.155 36.7699C126.155 36.9835 126.093 37.1739 125.969 37.3411C125.847 37.5067 125.676 37.6367 125.456 37.7311C125.238 37.8255 124.985 37.8728 124.697 37.8728C124.298 37.8728 123.972 37.7876 123.72 37.6174C123.467 37.4455 123.312 37.2017 123.255 36.886L123.926 36.7838C123.968 36.9587 124.054 37.0911 124.184 37.1808C124.314 37.2691 124.483 37.3132 124.692 37.3132C124.92 37.3132 125.102 37.266 125.238 37.1716C125.374 37.0756 125.442 36.9587 125.442 36.821C125.442 36.7095 125.401 36.6159 125.317 36.54C125.235 36.4642 125.109 36.4069 124.939 36.3682L124.335 36.2358C124.002 36.16 123.756 36.0393 123.596 35.8736C123.439 35.708 123.36 35.4983 123.36 35.2444C123.36 35.0339 123.418 34.8497 123.536 34.6918C123.654 34.5339 123.816 34.4109 124.024 34.3226C124.231 34.2328 124.469 34.188 124.737 34.188C125.122 34.188 125.425 34.2715 125.647 34.4387C125.868 34.6043 126.014 34.8265 126.086 35.1051ZM128.583 34.2344V34.7916H126.635V34.2344H128.583ZM127.158 33.3799H127.852V36.7536C127.852 36.8883 127.872 36.9897 127.912 37.0578C127.952 37.1243 128.004 37.17 128.068 37.1948C128.133 37.218 128.203 37.2296 128.279 37.2296C128.335 37.2296 128.384 37.2257 128.425 37.218C128.467 37.2103 128.5 37.2041 128.523 37.1994L128.648 37.7729C128.608 37.7884 128.551 37.8039 128.476 37.8194C128.402 37.8364 128.309 37.8457 128.198 37.8472C128.015 37.8503 127.845 37.8178 127.687 37.7497C127.529 37.6816 127.401 37.5763 127.304 37.4339C127.206 37.2915 127.158 37.1127 127.158 36.8976V33.3799ZM133.731 34.2948C133.706 34.075 133.604 33.9047 133.424 33.784C133.245 33.6617 133.019 33.6005 132.746 33.6005C132.551 33.6005 132.383 33.6315 132.24 33.6934C132.098 33.7538 131.987 33.8374 131.908 33.9442C131.831 34.0494 131.792 34.1694 131.792 34.304C131.792 34.417 131.818 34.5146 131.871 34.5966C131.925 34.6786 131.996 34.7475 132.082 34.8033C132.171 34.8574 132.265 34.9031 132.366 34.9402C132.466 34.9758 132.563 35.0053 132.656 35.0285L133.12 35.1492C133.272 35.1864 133.427 35.2367 133.587 35.3001C133.746 35.3636 133.894 35.4472 134.03 35.5509C134.167 35.6546 134.276 35.7831 134.36 35.9363C134.445 36.0896 134.488 36.273 134.488 36.4866C134.488 36.7559 134.418 36.9951 134.279 37.2041C134.141 37.413 133.941 37.5779 133.677 37.6986C133.416 37.8194 133.099 37.8797 132.728 37.8797C132.372 37.8797 132.064 37.8232 131.804 37.7102C131.544 37.5972 131.34 37.437 131.193 37.2296C131.046 37.0206 130.965 36.773 130.949 36.4866H131.669C131.683 36.6584 131.739 36.8016 131.836 36.9161C131.935 37.0291 132.061 37.1135 132.215 37.1692C132.369 37.2234 132.539 37.2505 132.723 37.2505C132.926 37.2505 133.106 37.2188 133.264 37.1553C133.424 37.0903 133.549 37.0005 133.64 36.886C133.732 36.7699 133.777 36.6344 133.777 36.4796C133.777 36.3388 133.737 36.2235 133.657 36.1337C133.578 36.0439 133.47 35.9696 133.334 35.9108C133.199 35.852 133.047 35.8001 132.876 35.7552L132.314 35.602C131.934 35.4983 131.632 35.3458 131.409 35.1446C131.188 34.9433 131.077 34.6771 131.077 34.3458C131.077 34.0719 131.151 33.8327 131.3 33.6284C131.448 33.4241 131.65 33.2654 131.904 33.1524C132.157 33.0379 132.444 32.9806 132.763 32.9806C133.085 32.9806 133.369 33.0371 133.615 33.1501C133.862 33.2631 134.057 33.4186 134.2 33.6168C134.342 33.8134 134.417 34.0394 134.423 34.2948H133.731ZM136.954 34.2344V34.7916H135.006V34.2344H136.954ZM135.529 33.3799H136.223V36.7536C136.223 36.8883 136.243 36.9897 136.283 37.0578C136.323 37.1243 136.375 37.17 136.439 37.1948C136.504 37.218 136.574 37.2296 136.65 37.2296C136.706 37.2296 136.754 37.2257 136.796 37.218C136.838 37.2103 136.871 37.2041 136.894 37.1994L137.019 37.7729C136.979 37.7884 136.922 37.8039 136.847 37.8194C136.773 37.8364 136.68 37.8457 136.569 37.8472C136.386 37.8503 136.216 37.8178 136.058 37.7497C135.9 37.6816 135.772 37.5763 135.675 37.4339C135.577 37.2915 135.529 37.1127 135.529 36.8976V33.3799ZM138.76 37.8797C138.534 37.8797 138.33 37.8379 138.147 37.7543C137.964 37.6692 137.82 37.5461 137.713 37.3852C137.608 37.2242 137.555 37.0268 137.555 36.7931C137.555 36.5919 137.594 36.4262 137.671 36.2962C137.748 36.1662 137.853 36.0633 137.984 35.9874C138.116 35.9116 138.263 35.8543 138.426 35.8156C138.588 35.7769 138.754 35.7475 138.923 35.7274C139.136 35.7026 139.31 35.6825 139.443 35.667C139.576 35.65 139.672 35.6229 139.733 35.5857C139.793 35.5486 139.823 35.4882 139.823 35.4046V35.3884C139.823 35.1856 139.766 35.0285 139.652 34.917C139.539 34.8056 139.37 34.7498 139.145 34.7498C138.912 34.7498 138.727 34.8017 138.593 34.9054C138.46 35.0076 138.368 35.1213 138.317 35.2467L137.664 35.0981C137.741 34.8814 137.854 34.7065 138.003 34.5734C138.153 34.4387 138.326 34.3412 138.521 34.2808C138.716 34.2189 138.921 34.188 139.136 34.188C139.279 34.188 139.429 34.205 139.589 34.239C139.75 34.2715 139.9 34.3319 140.039 34.4201C140.18 34.5084 140.296 34.6345 140.385 34.7986C140.475 34.9611 140.52 35.1724 140.52 35.4325V37.8008H139.842V37.3132H139.814C139.769 37.403 139.702 37.4912 139.612 37.5779C139.522 37.6646 139.407 37.7365 139.266 37.7938C139.125 37.8511 138.957 37.8797 138.76 37.8797ZM138.911 37.3225C139.103 37.3225 139.267 37.2846 139.403 37.2087C139.541 37.1329 139.645 37.0338 139.717 36.9115C139.789 36.7877 139.826 36.6553 139.826 36.5145V36.0547C139.801 36.0795 139.753 36.1027 139.682 36.1244C139.612 36.1445 139.532 36.1623 139.443 36.1778C139.353 36.1917 139.265 36.2049 139.18 36.2173C139.095 36.2281 139.024 36.2374 138.967 36.2451C138.832 36.2622 138.709 36.2908 138.597 36.331C138.488 36.3713 138.399 36.4293 138.333 36.5052C138.268 36.5795 138.235 36.6785 138.235 36.8024C138.235 36.9742 138.299 37.1042 138.426 37.1925C138.553 37.2791 138.714 37.3225 138.911 37.3225ZM143.109 34.2344V34.7916H141.161V34.2344H143.109ZM141.684 33.3799H142.378V36.7536C142.378 36.8883 142.398 36.9897 142.438 37.0578C142.479 37.1243 142.531 37.17 142.594 37.1948C142.659 37.218 142.729 37.2296 142.805 37.2296C142.861 37.2296 142.91 37.2257 142.952 37.218C142.993 37.2103 143.026 37.2041 143.049 37.1994L143.174 37.7729C143.134 37.7884 143.077 37.8039 143.003 37.8194C142.928 37.8364 142.835 37.8457 142.724 37.8472C142.541 37.8503 142.371 37.8178 142.213 37.7497C142.055 37.6816 141.928 37.5763 141.83 37.4339C141.733 37.2915 141.684 37.1127 141.684 36.8976V33.3799ZM146.137 36.3218V34.2344H146.833V37.8008H146.151V37.1832H146.113C146.031 37.3736 145.9 37.5322 145.719 37.6591C145.539 37.7845 145.315 37.8472 145.048 37.8472C144.819 37.8472 144.616 37.7969 144.439 37.6963C144.264 37.5941 144.127 37.4432 144.026 37.2435C143.927 37.0439 143.877 36.797 143.877 36.5029V34.2344H144.572V36.4193C144.572 36.6623 144.639 36.8558 144.774 36.9997C144.908 37.1437 145.083 37.2157 145.298 37.2157C145.428 37.2157 145.558 37.1832 145.686 37.1182C145.816 37.0531 145.924 36.9548 146.009 36.8233C146.096 36.6917 146.138 36.5245 146.137 36.3218ZM150.438 35.1051L149.809 35.2165C149.783 35.1361 149.741 35.0594 149.684 34.9867C149.628 34.9139 149.552 34.8543 149.456 34.8079C149.36 34.7615 149.24 34.7382 149.096 34.7382C148.9 34.7382 148.736 34.7824 148.604 34.8706C148.473 34.9573 148.407 35.0695 148.407 35.2073C148.407 35.3264 148.451 35.4224 148.539 35.4952C148.627 35.5679 148.77 35.6275 148.966 35.674L149.533 35.804C149.861 35.8798 150.106 35.9967 150.267 36.1546C150.428 36.3125 150.508 36.5176 150.508 36.7699C150.508 36.9835 150.446 37.1739 150.322 37.3411C150.2 37.5067 150.029 37.6367 149.809 37.7311C149.591 37.8255 149.338 37.8728 149.05 37.8728C148.651 37.8728 148.325 37.7876 148.072 37.6174C147.82 37.4455 147.665 37.2017 147.608 36.886L148.279 36.7838C148.321 36.9587 148.407 37.0911 148.537 37.1808C148.667 37.2691 148.836 37.3132 149.045 37.3132C149.273 37.3132 149.455 37.266 149.591 37.1716C149.727 37.0756 149.795 36.9587 149.795 36.821C149.795 36.7095 149.753 36.6159 149.67 36.54C149.588 36.4642 149.462 36.4069 149.291 36.3682L148.688 36.2358C148.355 36.16 148.109 36.0393 147.949 35.8736C147.791 35.708 147.713 35.4983 147.713 35.2444C147.713 35.0339 147.771 34.8497 147.889 34.6918C148.007 34.5339 148.169 34.4109 148.377 34.3226C148.584 34.2328 148.822 34.188 149.089 34.188C149.475 34.188 149.778 34.2715 150 34.4387C150.221 34.6043 150.367 34.8265 150.438 35.1051Z" fill="#414042"/>
<path fill-rule="evenodd" clip-rule="evenodd" d="M156.903 34.3378C157.067 34.198 157.312 34.2169 157.452 34.3801L159.492 36.7596L161.532 34.3801C161.671 34.2169 161.917 34.198 162.08 34.3378C162.244 34.4777 162.262 34.7234 162.123 34.8866L159.876 37.5075C159.674 37.7431 159.31 37.7431 159.108 37.5075L156.861 34.8866C156.721 34.7234 156.74 34.4777 156.903 34.3378Z" fill="#414042"/>
</g>
<g filter="url(#filter1_d_2617_11810)">
<rect x="5" y="87.2617" width="38.2304" height="67.4655" rx="5.62212" fill="white"/>
<rect x="16.3742" y="98.6359" width="15.4819" height="15.4819" rx="2.02889" fill="#F2F2F2"/>
<rect x="16.3742" y="98.6359" width="15.4819" height="15.4819" rx="2.02889" stroke="#D1D1D2" stroke-width="0.26002"/>
<rect x="16.2441" y="127.74" width="15.7419" height="15.7419" rx="2.1589" fill="#3D00C3"/>
<path fill-rule="evenodd" clip-rule="evenodd" d="M28.8287 131.906C29.1031 132.214 29.1031 132.712 28.8287 133.019L23.2066 139.316C22.9321 139.624 22.4871 139.624 22.2127 139.316L19.4016 136.168C19.1272 135.86 19.1272 135.362 19.4016 135.055C19.6761 134.747 20.121 134.747 20.3955 135.055L22.7096 137.647L27.8348 131.906C28.1093 131.599 28.5542 131.599 28.8287 131.906Z" fill="white"/>
</g>
<ellipse cx="75.5127" cy="121.229" rx="8.91892" ry="9.35399" stroke="#2325B3" stroke-width="1.36115"/>
<path d="M34.9328 121.229C34.9328 123.233 36.5579 124.858 38.5625 124.858C40.5671 124.858 42.1922 123.233 42.1922 121.229C42.1922 119.224 40.5671 117.599 38.5625 117.599C36.5579 117.599 34.9328 119.224 34.9328 121.229ZM38.5625 121.909L66.5934 121.909L66.5934 120.548L38.5625 120.548L38.5625 121.909Z" fill="#2325B3"/>
<defs>
<filter id="filter0_d_2617_11810" x="0.279465" y="16.6593" width="183.057" height="43.0036" filterUnits="userSpaceOnUse" color-interpolation-filters="sRGB">
<feFlood flood-opacity="0" result="BackgroundImageFix"/>
<feColorMatrix in="SourceAlpha" type="matrix" values="0 0 0 0 0 0 0 0 0 0 0 0 0 0 0 0 0 0 127 0" result="hardAlpha"/>
<feOffset dy="2.36027"/>
<feGaussianBlur stdDeviation="2.36027"/>
<feComposite in2="hardAlpha" operator="out"/>
<feColorMatrix type="matrix" values="0 0 0 0 0 0 0 0 0 0 0 0 0 0 0 0 0 0 0.15 0"/>
<feBlend mode="normal" in2="BackgroundImageFix" result="effect1_dropShadow_2617_11810"/>
<feBlend mode="normal" in="SourceGraphic" in2="effect1_dropShadow_2617_11810" result="shape"/>
</filter>
<filter id="filter1_d_2617_11810" x="0.502301" y="87.2617" width="47.2259" height="76.4602" filterUnits="userSpaceOnUse" color-interpolation-filters="sRGB">
<feFlood flood-opacity="0" result="BackgroundImageFix"/>
<feColorMatrix in="SourceAlpha" type="matrix" values="0 0 0 0 0 0 0 0 0 0 0 0 0 0 0 0 0 0 127 0" result="hardAlpha"/>
<feOffset dy="4.4977"/>
<feGaussianBlur stdDeviation="2.24885"/>
<feComposite in2="hardAlpha" operator="out"/>
<feColorMatrix type="matrix" values="0 0 0 0 0 0 0 0 0 0 0 0 0 0 0 0 0 0 0.15 0"/>
<feBlend mode="normal" in2="BackgroundImageFix" result="effect1_dropShadow_2617_11810"/>
<feBlend mode="normal" in="SourceGraphic" in2="effect1_dropShadow_2617_11810" result="shape"/>
</filter>
</defs>
</svg>
