<svg width="240" height="180" viewBox="0 0 240 180" fill="none" xmlns="http://www.w3.org/2000/svg">
<path d="M205.684 173.282C205.684 173.282 245.684 153.112 232.244 119.322C221.604 92.5822 194.874 76.0922 163.784 49.3322C126.044 16.8522 86.3537 15.3522 55.3237 34.6822C24.7137 53.7422 47.2437 93.4622 16.9337 113.972C-10.3963 132.462 11.8837 163.922 26.2637 168.822C40.6437 173.732 50.3637 173.732 50.3637 173.732L205.684 173.282Z" fill="#CFD3FF"/>
<path d="M60.2138 101.572C54.9938 102.902 53.1738 104.722 51.8438 109.942C51.6238 110.812 50.3638 110.812 50.1338 109.942C48.8038 104.722 46.9838 102.902 41.7638 101.572C40.8938 101.352 40.8938 100.092 41.7638 99.8623C46.9838 98.5323 48.8038 96.7123 50.1338 91.4923C50.3538 90.6223 51.6138 90.6223 51.8438 91.4923C53.1738 96.7123 54.9938 98.5323 60.2138 99.8623C61.0938 100.082 61.0938 101.352 60.2138 101.572Z" fill="#91268C"/>
<path d="M159.943 65.0336C156.373 65.9436 155.133 67.1936 154.213 70.7636C154.063 71.3636 153.203 71.3636 153.043 70.7636C152.133 67.1936 150.883 65.9536 147.313 65.0336C146.713 64.8836 146.713 64.0236 147.313 63.8636C150.883 62.9536 152.123 61.7036 153.043 58.1336C153.193 57.5336 154.053 57.5336 154.213 58.1336C155.123 61.7036 156.373 62.9436 159.943 63.8636C160.543 64.0136 160.543 64.8736 159.943 65.0336Z" fill="#BD54AE"/>
<path d="M27.4237 83.7836C23.8537 84.6936 22.6138 85.9436 21.6938 89.5136C21.5438 90.1136 20.6838 90.1136 20.5238 89.5136C19.6138 85.9436 18.3637 84.7036 14.7938 83.7836C14.1937 83.6336 14.1937 82.7736 14.7938 82.6136C18.3637 81.7036 19.6038 80.4536 20.5238 76.8836C20.6738 76.2836 21.5338 76.2836 21.6938 76.8836C22.6038 80.4536 23.8537 81.6936 27.4237 82.6136C28.0237 82.7736 28.0237 83.6336 27.4237 83.7836Z" fill="#FFC401"/>
<path d="M37.1537 173.132H86.1837L111.044 161.992L105.624 152.612L89.5737 163.742L104.264 143.482L89.5537 130.612L78.0537 155.822L80.5337 126.992H57.0437L61.5537 155.762L46.6437 129.602L36.3637 134.592L47.3237 157.242L30.9637 139.622L24.7237 145.172L41.4537 160.182L22.3937 150.802L39.4137 161.992L21.5637 155.762L16.5537 164.632L37.1537 173.132Z" fill="#BD54AE"/>
<path d="M120.113 91.4297H116.583V175.49H120.113V91.4297Z" fill="#22008C"/>
<path d="M206.603 91.4297H203.073V175.49H206.603V91.4297Z" fill="#22008C"/>
<path d="M205.843 157.602H117.333V161.572H205.843V157.602Z" fill="#22008C"/>
<path d="M218.063 88.8516H105.113V92.8216H218.063V88.8516Z" fill="#3D00C3"/>
<path d="M188.573 112.269L197.753 97.6094H186.463L177.283 112.269H188.573Z" fill="#FFC401"/>
<path d="M120.654 112.269L129.834 97.6094H118.544L109.354 112.269H120.654Z" fill="#FFC401"/>
<path d="M107.183 97.6094H100.733V107.909L107.183 97.6094Z" fill="#FFC401"/>
<path d="M211.214 112.269L220.404 97.6094H209.114L199.924 112.269H211.214Z" fill="#FFC401"/>
<path d="M143.293 112.269L152.473 97.6094H141.183L132.003 112.269H143.293Z" fill="#FFC401"/>
<path d="M165.934 112.269L175.114 97.6094H163.824L154.644 112.269H165.934Z" fill="#FFC401"/>
<path d="M100.733 112.269H109.353L118.543 97.6094H107.183L100.733 107.909V112.269Z" fill="#3D00C3"/>
<path d="M132.003 112.269L141.183 97.6094H129.833L120.653 112.269H132.003Z" fill="#3D00C3"/>
<path d="M154.643 112.269L163.823 97.6094H152.473L143.293 112.269H154.643Z" fill="#3D00C3"/>
<path d="M177.284 112.269L186.464 97.6094H175.114L165.934 112.269H177.284Z" fill="#3D00C3"/>
<path d="M199.923 112.269L209.113 97.6094H197.753L188.573 112.269H199.923Z" fill="#3D00C3"/>
<path d="M222.444 112.269V97.6094H220.404L211.214 112.269H222.444Z" fill="#3D00C3"/>
<path d="M188.573 135.68L197.753 121.02H186.463L177.283 135.68H188.573Z" fill="#FFC401"/>
<path d="M143.293 135.68L152.473 121.02H141.183L132.003 135.68H143.293Z" fill="#FFC401"/>
<path d="M120.654 135.68L129.834 121.02H118.544L109.354 135.68H120.654Z" fill="#FFC401"/>
<path d="M107.193 121.02H100.733V131.33L107.193 121.02Z" fill="#FFC401"/>
<path d="M165.934 135.68L175.114 121.02H163.824L154.644 135.68H165.934Z" fill="#FFC401"/>
<path d="M211.214 135.68L220.404 121.02H209.114L199.924 135.68H211.214Z" fill="#FFC401"/>
<path d="M100.733 135.68H109.353L118.543 121.02H107.193L100.733 131.33V135.68Z" fill="#3D00C3"/>
<path d="M132.003 135.68L141.183 121.02H129.833L120.653 135.68H132.003Z" fill="#3D00C3"/>
<path d="M154.643 135.68L163.823 121.02H152.473L143.293 135.68H154.643Z" fill="#3D00C3"/>
<path d="M177.284 135.68L186.464 121.02H175.114L165.934 135.68H177.284Z" fill="#3D00C3"/>
<path d="M199.923 135.68L209.113 121.02H197.753L188.573 135.68H199.923Z" fill="#3D00C3"/>
<path d="M222.444 135.68V121.02H220.404L211.214 135.68H222.444Z" fill="#3D00C3"/>
<path d="M138.203 86.9414H132.663V88.8514H138.203V86.9414Z" fill="#3D00C3"/>
<path d="M135.433 87.9C138.029 87.9 140.133 85.7957 140.133 83.2C140.133 80.6043 138.029 78.5 135.433 78.5C132.838 78.5 130.733 80.6043 130.733 83.2C130.733 85.7957 132.838 87.9 135.433 87.9Z" fill="#FFC401"/>
<path d="M189.054 86.9414H183.514V88.8514H189.054V86.9414Z" fill="#3D00C3"/>
<path d="M186.283 87.9C188.879 87.9 190.983 85.7957 190.983 83.2C190.983 80.6043 188.879 78.5 186.283 78.5C183.687 78.5 181.583 80.6043 181.583 83.2C181.583 85.7957 183.687 87.9 186.283 87.9Z" fill="#FFC401"/>
<path d="M194.544 56.5227C203.325 56.5227 210.444 49.404 210.444 40.6227C210.444 31.8413 203.325 24.7227 194.544 24.7227C185.762 24.7227 178.644 31.8413 178.644 40.6227C178.644 49.404 185.762 56.5227 194.544 56.5227Z" fill="#CFD3FF"/>
<path d="M75.4336 158.72L83.7636 157.91L83.3836 164.7L75.8136 164.63L75.4336 158.72Z" fill="#FFB7A9"/>
<path d="M83.124 118.572C89.424 118.702 91.464 115.092 91.364 115.482C90.974 117.082 86.484 161.242 86.444 161.472C86.444 161.472 81.044 162.172 73.334 161.102C73.334 161.102 73.414 136.932 73.584 132.782C73.754 128.692 73.984 113.652 73.984 113.652C73.984 113.652 77.354 118.462 83.124 118.572Z" fill="#FFEEC2"/>
<path d="M88.694 126.672C88.694 126.672 85.194 132.782 80.634 132.202C75.984 131.612 73.874 127.772 73.874 122.642C73.874 104.862 76.504 81.8822 76.744 80.1822C77.114 77.6022 78.524 75.7422 78.524 75.7422L81.604 76.6322L94.354 79.2122C95.104 105.642 88.694 126.672 88.694 126.672Z" fill="#FFEEC2"/>
<path d="M106.904 158.722L98.5841 157.912L97.9941 157.852L98.0341 158.772L98.0641 159.702L98.1941 163.102L98.2441 164.712L106.534 164.632L106.614 163.402L106.844 159.742L106.904 158.722Z" fill="#FFB7A9"/>
<path d="M93.8337 126.601C93.8337 126.601 97.2237 132.751 101.724 132.211C106.304 131.671 108.394 127.851 108.464 122.731C108.694 104.511 106.624 81.9608 106.404 80.2608C106.064 77.6808 104.684 75.8008 104.684 75.8008L101.224 76.6508L88.6537 79.0908C87.7037 105.511 93.8337 126.601 93.8337 126.601Z" fill="#FFEEC2"/>
<path d="M54.9142 49.25C54.9142 49.25 68.8442 66.37 70.0142 68.1C73.5842 73.33 70.4842 74.4 68.9442 74.66C67.6942 74.87 65.4742 74.79 61.9142 71.3C58.1742 67.64 50.2842 52.51 50.2842 52.51L54.9142 49.25Z" fill="#FFB7A9"/>
<path d="M66.1537 70.9002C66.1837 71.1802 68.6038 74.2702 69.4038 74.3802C70.5638 74.5402 71.7537 73.5402 72.4137 72.5202C72.7937 71.9302 73.1237 71.2602 73.3737 70.5802C73.3837 70.5502 73.3938 70.5202 73.4038 70.4902C73.5238 70.0402 74.9437 64.3602 75.5037 57.8302C75.9637 52.5402 78.7837 44.0902 74.4237 40.6902C73.2537 39.7802 70.1437 40.2402 69.3337 42.9802C68.5237 45.7202 67.1937 47.9702 66.5937 56.6302C66.3037 60.8202 65.9737 69.1902 66.1537 70.9002Z" fill="#FFB7A9"/>
<path d="M74.8143 67.3814L66.1543 64.4414L74.6243 69.8114L74.8143 67.3814Z" fill="#DB837B"/>
<path d="M99.2244 118.58C92.9244 118.65 91.4244 115.09 91.3644 115.49C91.3344 115.69 95.4744 161.23 95.5044 161.45C95.5044 161.45 100.894 162.2 108.614 161.21C108.614 161.21 108.764 137.04 108.624 132.89C108.494 128.79 108.394 113.75 108.394 113.75C108.394 113.75 104.994 118.52 99.2244 118.58Z" fill="#FFEEC2"/>
<path d="M157.664 45.4801C157.664 45.4801 136.584 45.1601 134.504 44.9701C126.394 44.2001 129.944 41.7501 130.114 39.9801C130.234 38.7201 132.214 37.2201 137.174 36.6801C142.374 36.1201 158.564 40.3401 158.564 40.3401L157.664 45.4801Z" fill="#FFB7A9"/>
<path d="M141.844 37.8209C142.104 37.9309 145.254 40.9009 145.204 41.7109C145.134 42.8809 143.924 43.8509 142.794 44.2909C142.144 44.5509 141.424 44.7409 140.714 44.8509C140.684 44.8609 140.654 44.8609 140.624 44.8609C140.154 44.8909 134.314 45.1709 127.794 44.4509C122.514 43.8709 113.604 45.4109 111.124 40.4809C110.454 39.1609 111.524 36.1909 114.364 35.9309C117.214 35.6709 119.754 34.3709 128.354 35.4809C132.514 36.0109 140.504 37.2409 141.844 37.8209Z" fill="#FFB7A9"/>
<path d="M95.564 126.374C95.854 133.804 100.454 154.074 99.664 161.734L95.504 161.464C95.374 159.184 91.154 122.314 91.364 115.504C92.044 111.214 93.854 104.944 93.734 100.094C93.734 100.084 95.404 122.384 95.564 126.374Z" fill="#EDCE7E"/>
<path d="M93.5841 100.882L93.5941 100.072C93.5941 99.9217 93.7441 85.0917 92.6641 79.0117L92.9341 78.9617C93.8541 84.1517 93.8841 95.6817 93.8741 99.1017C94.4841 96.8017 95.8641 90.1617 95.1641 78.7817L95.4441 78.7617C96.3341 93.2017 93.8941 100.052 93.8641 100.122L93.5841 100.882Z" fill="#EDCE7E"/>
<path d="M73.7734 36.1936C73.7734 36.1936 75.7734 43.2136 76.3834 57.3336C76.5934 62.1336 76.7534 73.7636 76.4734 78.1136C76.3634 79.8336 86.5634 81.1836 92.7934 81.1736C101.313 81.1636 107.313 79.2036 107.203 78.2136C106.973 76.0236 106.403 61.1336 106.413 57.3436C106.463 43.9136 108.193 35.7536 108.193 35.7536C108.193 35.7536 101.543 30.6836 91.2134 30.6836C80.8834 30.6836 73.7734 36.1936 73.7734 36.1936Z" fill="#3D00C3"/>
<path d="M62.4639 63.1934L75.3539 67.5634L76.3839 57.3334L77.7639 53.8934L79.6539 33.7734C79.6539 33.7734 74.5839 34.8334 71.5239 38.1034C67.3439 42.5734 62.4639 63.1934 62.4639 63.1934Z" fill="#3D00C3"/>
<path d="M76.384 57.3336L75.794 50.9336C75.794 50.9336 72.044 66.2236 68.834 65.3636L75.354 67.5636L76.384 57.3336Z" fill="#22008C"/>
<path d="M75.8035 43.8242C75.8835 46.1942 75.8235 48.5642 75.7735 50.9342C75.6835 53.3042 75.6135 55.6642 75.3935 58.0242C75.3135 55.6542 75.3735 53.2842 75.4235 50.9142C75.5135 48.5442 75.5835 46.1842 75.8035 43.8242Z" fill="#22008C"/>
<path d="M127.693 34.3327L124.453 49.4427L105.993 50.0427L98.2734 31.4727L127.693 34.3327Z" fill="#3D00C3"/>
<path d="M106.284 42.9453C106.164 45.3153 106.184 47.6853 106.194 50.0453C106.244 52.4153 106.284 54.7753 106.454 57.1453C106.574 54.7753 106.554 52.4053 106.544 50.0453C106.494 47.6753 106.454 45.3053 106.284 42.9453Z" fill="#22008C"/>
<path d="M100.484 54.6355H100.474C99.5737 54.6255 97.5637 52.9155 97.3337 52.7155L97.2637 52.6555V52.5555L97.3337 45.6055L103.794 45.6955L103.714 52.7455L103.644 52.8055C103.424 52.9955 101.384 54.6355 100.484 54.6355ZM97.6137 52.4655C98.2537 53.0055 99.8337 54.2255 100.474 54.2355C100.474 54.2355 100.474 54.2355 100.484 54.2355C101.124 54.2355 102.724 53.0655 103.374 52.5355L103.444 46.0755L97.6837 46.0055L97.6137 52.4655Z" fill="#F9F5FE"/>
<path d="M106.364 44.2836L106.544 50.0336L124.454 49.4336L125.854 42.9336C125.854 42.9336 122.704 45.1936 115.994 45.4736C109.284 45.7536 106.364 44.2836 106.364 44.2836Z" fill="#22008C"/>
<path d="M92.4547 29.4438C88.8747 29.6138 83.7247 26.8337 83.4347 20.9637C83.2947 18.1337 83.7347 9.64375 83.7347 9.64375L99.2947 9.34375C99.2947 9.34375 100.375 18.0537 100.345 20.9637C100.285 26.1637 95.7447 29.2838 92.4547 29.4438Z" fill="#FFB7A9"/>
<path d="M92.2242 25.182C91.5042 25.182 90.3042 24.992 89.7342 23.852C89.7042 23.792 89.7242 23.712 89.7942 23.682C89.8542 23.642 89.9342 23.672 89.9642 23.742C90.7142 25.252 92.7342 24.892 92.7542 24.892C92.8242 24.882 92.8942 24.922 92.9042 24.992C92.9142 25.062 92.8742 25.132 92.8042 25.142C92.7942 25.142 92.5642 25.182 92.2242 25.182Z" fill="#DB837B"/>
<path d="M83.6044 16.5221C83.6044 16.5221 81.2644 15.6921 81.3244 18.4021C81.3844 21.1121 83.3744 20.4121 83.3744 20.4121" fill="#FFB7A9"/>
<path d="M99.7744 16.1738C99.7744 16.1738 102.064 15.2238 102.154 17.9238C102.244 20.6238 100.214 20.0438 100.214 20.0438" fill="#FFB7A9"/>
<path d="M100.675 10.2119C101.835 9.1119 102.075 8.0219 101.655 7.0619C101.035 5.6319 98.4745 6.3319 98.4745 6.3319C98.7045 5.4519 98.1545 4.2719 97.1845 4.0819C94.1645 3.4919 90.1845 6.2919 86.3045 6.0319C84.4045 5.9019 84.5145 7.7219 84.5145 7.7219C83.4645 7.6519 84.0045 5.8819 84.0045 5.8819C83.0545 7.1219 83.6345 8.1019 83.9145 8.3519C82.9945 9.0519 81.7545 10.3819 81.6945 12.4919C81.6445 14.4319 83.2445 18.5919 83.2445 18.5919C83.2945 15.4419 84.6245 11.7819 85.7445 11.6019C87.2945 11.3519 91.3145 13.7119 94.8745 13.3019C97.4045 13.0119 98.5245 11.9519 98.5245 11.9519C99.4445 12.4119 99.4645 15.0519 100.135 17.8819C100.135 17.8819 101.575 13.1919 100.915 10.8419C100.855 10.6019 100.765 10.4019 100.675 10.2119Z" fill="#002264"/>
<path d="M87.5547 27.4922L87.5847 32.8522C87.6247 35.4822 89.5247 35.3622 91.8947 35.3022C93.5147 35.2622 96.5247 35.1022 96.3947 32.5022L96.1447 27.5122L87.5547 27.4922Z" fill="#FFB7A9"/>
<path d="M87.5647 28.0703C87.5647 28.0703 89.2547 29.2203 92.1347 29.1903C94.7047 29.1703 96.1847 28.1903 96.1847 28.1903L96.2047 28.5703C96.2047 28.5703 95.1747 30.4703 92.1847 30.3903C88.9947 30.3003 87.5547 28.4903 87.5547 28.4903L87.5647 28.0703Z" fill="#DB837B"/>
<path d="M92.4948 25.9036C92.4948 25.9036 91.5048 26.3536 89.8848 25.4336C89.8848 25.4336 90.8948 26.6636 91.8648 26.5136C92.2448 26.4536 92.4948 25.9036 92.4948 25.9036Z" fill="#DB837B"/>
<path d="M89.924 15.8121C89.974 15.6521 89.874 15.4721 89.694 15.4021C89.424 15.2921 88.894 14.9721 88.024 14.8521C86.714 14.6721 85.374 15.4221 85.994 15.4621C86.334 15.4821 87.174 15.4821 87.914 15.6621C88.524 15.8121 89.054 16.1421 89.234 16.2221C89.504 16.3721 89.834 16.0921 89.924 15.8121Z" fill="#002264"/>
<path d="M91.8947 22.7711C92.0047 22.7811 92.3547 22.7911 92.6447 22.5311C92.6847 22.4911 93.0347 22.1711 92.9747 21.6711C92.9147 21.1111 92.4047 20.8811 92.3847 20.8711C92.3447 20.8511 92.2947 20.8711 92.2747 20.9111C92.2547 20.9511 92.2747 21.0011 92.3147 21.0211C92.3147 21.0211 92.7547 21.2211 92.8047 21.6911C92.8547 22.1211 92.5347 22.4011 92.5247 22.4111C92.2747 22.6311 91.9847 22.6211 91.8947 22.6111C91.8447 22.6111 91.8047 22.6411 91.8047 22.6911C91.8147 22.7211 91.8447 22.7611 91.8947 22.7711Z" fill="#DB837B"/>
<path d="M86.274 19.4434C86.344 19.5934 87.084 19.8734 88.094 19.9034C89.104 19.9334 89.824 19.7834 89.944 19.5434C90.064 19.2934 89.354 17.7534 88.154 17.7234C86.924 17.6834 86.214 19.2934 86.274 19.4434Z" fill="white"/>
<path d="M87.4744 18.8544C87.6844 18.8644 87.8544 18.6944 87.8544 18.4944C87.8644 18.2844 87.6944 18.1144 87.4944 18.1144C87.4744 18.1144 87.4544 18.1244 87.4244 18.1244C87.6144 17.9444 87.8744 17.8344 88.1544 17.8444C88.7244 17.8644 89.1744 18.3344 89.1544 18.9044C89.1344 19.4744 88.6644 19.9244 88.0944 19.9044C87.5244 19.8844 87.0744 19.4144 87.0944 18.8444C87.0944 18.7644 87.1144 18.6844 87.1244 18.6144C87.1844 18.7444 87.3144 18.8444 87.4744 18.8544Z" fill="#1C1C1C"/>
<path d="M94.1244 15.9209C94.0844 15.7509 94.1944 15.5909 94.3744 15.5209C94.6444 15.4309 95.1944 15.1409 96.0744 15.0609C97.3944 14.9509 98.6844 15.7709 98.0644 15.7809C97.7244 15.7909 96.8844 15.7409 96.1344 15.8809C95.5144 16.0009 94.9644 16.2909 94.7944 16.3709C94.5144 16.5009 94.1944 16.2109 94.1244 15.9209Z" fill="#002264"/>
<path d="M97.5746 19.7423C97.4946 19.8923 96.7446 20.1323 95.7246 20.1023C94.7146 20.0723 94.0046 19.8823 93.9046 19.6423C93.7946 19.3823 94.5946 17.8923 95.7846 17.9223C97.0146 17.9523 97.6446 19.6023 97.5746 19.7423Z" fill="white"/>
<path d="M96.4043 19.0914C96.1943 19.0814 96.0343 18.9114 96.0443 18.7114C96.0543 18.5014 96.2243 18.3414 96.4243 18.3514C96.4443 18.3514 96.4643 18.3614 96.4943 18.3714C96.3143 18.1814 96.0643 18.0614 95.7843 18.0514C95.2143 18.0314 94.7443 18.4814 94.7243 19.0514C94.7043 19.6214 95.1543 20.0914 95.7243 20.1114C96.2943 20.1314 96.7643 19.6814 96.7843 19.1114C96.7843 19.0314 96.7743 18.9514 96.7643 18.8814C96.7043 19.0014 96.5643 19.0914 96.4043 19.0914Z" fill="#1C1C1C"/>
<path d="M102.285 8.45312C102.285 8.45312 101.255 10.6031 99.0547 10.7031L99.4347 11.5531C99.4447 11.5431 101.815 10.7331 102.285 8.45312Z" fill="#002264"/>
<path d="M94.1236 37.512L93.4736 36.032L91.6736 34.372V34.332L91.6536 34.352L91.6336 34.332V34.372L89.8336 36.032L89.1836 37.512C89.7536 37.462 91.2836 35.692 91.6536 35.252C92.0136 35.692 93.5436 37.452 94.1236 37.512Z" fill="#22008C"/>
<path d="M91.6641 34.3334C91.6641 34.3334 93.8441 37.7534 94.1641 37.5134C96.9041 35.3934 98.5041 31.8134 98.5041 31.8134L96.8241 30.0234C96.8241 30.0234 96.3841 31.1234 95.2441 32.2734C93.7941 33.7334 91.6641 34.3334 91.6641 34.3334Z" fill="#F9F5FE"/>
<path d="M91.6645 34.3334C91.6645 34.3334 89.4845 37.7534 89.1645 37.5134C86.4245 35.3934 85.1445 31.8134 85.1445 31.8134L86.8245 30.0234C86.8245 30.0234 87.2645 31.1234 88.4045 32.2734C89.8545 33.7334 91.6645 34.3334 91.6645 34.3334Z" fill="#F9F5FE"/>
<path d="M154.535 45.2611C154.535 45.2611 153.645 44.3611 153.645 42.4511C153.645 40.7311 154.535 39.5811 154.535 39.5811C154.535 39.5811 156.135 39.7111 156.705 39.1311C157.275 38.5611 159.515 36.3911 161.105 36.6411C162.695 36.8911 165.505 38.6211 165.505 38.6211C165.505 38.6211 169.905 38.4911 172.075 38.4911C174.245 38.4911 173.635 40.4011 171.645 40.5311C169.655 40.6611 166.655 40.9411 166.655 40.9411C166.655 40.9411 168.315 41.4911 167.935 42.5711C167.555 43.6511 166.785 43.1411 166.785 43.1411C166.785 43.1411 167.105 43.9111 166.845 44.4211C166.585 44.9311 165.885 44.9311 165.885 44.9311C165.885 44.9311 166.395 45.9511 165.435 46.5911C164.475 47.2311 162.115 47.0411 159.945 46.5911C157.775 46.1411 156.515 45.2011 154.535 45.2611Z" fill="#FFB7A9"/>
<path d="M159.264 41.992L159.234 41.792C161.114 41.482 161.654 39.812 161.664 39.802L161.694 39.702L161.794 39.742C162.524 40.032 163.524 39.932 163.534 39.932L163.644 39.922V40.032C163.634 40.742 164.134 41.142 164.434 41.312C164.944 41.602 165.604 41.672 165.934 41.472C166.384 41.202 165.854 39.602 165.414 38.662L165.594 38.582C165.714 38.852 166.784 41.202 166.034 41.642C165.644 41.882 164.914 41.812 164.334 41.482C163.784 41.172 163.474 40.692 163.444 40.142C163.164 40.162 162.434 40.182 161.814 39.972C161.664 40.352 160.994 41.712 159.264 41.992Z" fill="#DB837B"/>
<path d="M164.405 44.1792C164.395 44.1792 163.715 43.9492 162.385 43.4392C161.475 43.0892 161.455 42.5592 161.495 42.3392C161.555 41.9892 161.875 41.7092 162.205 41.6992C162.225 41.6992 162.235 41.6992 162.255 41.6992C162.695 41.6992 163.275 41.7892 163.885 41.8792C164.095 41.9092 164.305 41.9392 164.515 41.9692C165.345 42.0892 166.765 43.0092 166.835 43.0492L166.725 43.2192C166.715 43.2092 165.275 42.2792 164.495 42.1692C164.285 42.1392 164.075 42.1092 163.865 42.0792C163.265 41.9892 162.685 41.8992 162.265 41.8992C162.255 41.8992 162.235 41.8992 162.225 41.8992C161.985 41.8992 161.755 42.1192 161.705 42.3692C161.645 42.7192 161.925 43.0392 162.465 43.2492C163.795 43.7492 164.465 43.9792 164.475 43.9792L164.405 44.1792Z" fill="#DB837B"/>
<path d="M163.904 45.7602C162.484 45.7202 162.104 44.9902 162.104 44.5602C162.104 44.0402 162.754 43.9302 163.864 43.9102C163.874 43.9102 163.884 43.9102 163.894 43.9102C165.004 43.9102 165.914 44.8202 165.954 44.8602L165.814 45.0002C165.804 44.9902 164.924 44.1102 163.894 44.1102C163.884 44.1102 163.874 44.1102 163.864 44.1102C162.734 44.1302 162.294 44.2602 162.294 44.5602C162.294 44.9102 162.634 45.5202 163.904 45.5602V45.7602Z" fill="#DB837B"/>
<path d="M163.185 41.9929C163.145 41.9729 162.215 41.4929 162.455 40.7129C162.655 40.0929 163.265 40.0529 163.565 40.1229L163.525 40.3229C163.495 40.3129 162.845 40.1829 162.655 40.7829C162.465 41.3929 163.275 41.8129 163.285 41.8229L163.185 41.9929Z" fill="#DB837B"/>
<path d="M44.9941 45.8128C44.9941 45.8128 44.3741 45.9228 44.1841 46.5128C43.9941 47.1028 43.6941 48.2928 45.8141 50.0128C47.9341 51.7328 49.1441 51.7528 49.7341 52.3428C50.3241 52.9328 51.4541 54.2428 51.4541 54.2428C51.4541 54.2428 55.4041 54.7128 56.3741 51.0928C56.3741 51.0928 54.8541 49.1328 54.8941 47.2328C54.9441 44.6528 54.9941 42.7028 52.8041 41.6328C50.6141 40.5628 49.1241 39.6728 48.4341 40.4128C48.3341 40.5228 48.2241 40.6728 48.1041 40.8428C48.1041 40.8428 47.1141 40.2428 46.6041 41.2028C46.2041 41.9628 46.8241 42.3928 47.0941 42.5328C46.7741 42.3928 45.8641 42.0728 45.5841 42.8828C45.2341 43.8828 45.8141 44.0028 45.8141 44.0028C45.8141 44.0028 44.9741 44.1928 44.6841 44.8528C44.3941 45.5028 44.9941 45.8128 44.9941 45.8128Z" fill="#FFB7A9"/>
<path d="M44.9748 52.9818L47.8975 54.0156L54.8843 34.264L51.9616 33.2301L44.9748 52.9818Z" fill="#8E8C8B"/>
<path d="M53.7142 37.6131L54.4642 35.4831L51.5342 34.4531L50.7842 36.5431C50.7842 36.5331 51.8142 37.2331 53.7142 37.6131Z" fill="#1C1C1C"/>
<path d="M56.4841 36.5816C62.8299 36.5816 67.9741 31.4373 67.9741 25.0916C67.9741 18.7458 62.8299 13.6016 56.4841 13.6016C50.1384 13.6016 44.9941 18.7458 44.9941 25.0916C44.9941 31.4373 50.1384 36.5816 56.4841 36.5816Z" fill="#FE3838"/>
<path d="M48.1381 23.9955L63.666 29.4883L64.8333 26.1885L49.3053 20.6957L48.1381 23.9955Z" fill="white"/>
<path d="M48.0936 40.8506C48.0936 40.8506 46.5836 43.4806 46.7736 43.8306C46.9636 44.1806 45.1836 47.6806 45.1836 47.6806C45.1836 47.6806 46.9536 48.7106 47.6036 48.0006C48.0136 47.5506 47.5536 46.9206 47.5536 46.9206C47.5536 46.9206 48.1636 47.6706 48.7836 46.8806C49.3436 46.1606 48.5736 45.5206 48.5736 45.5206C48.5736 45.5206 49.1436 46.2406 49.6636 45.3106C50.0036 44.7106 49.2636 43.6406 49.2636 43.6406L49.7136 43.0306C49.7136 43.0306 49.9936 43.8206 50.8736 44.0406C50.8736 44.0406 49.7636 45.3406 49.7836 45.9306C49.8036 46.5106 49.4836 47.2506 49.8636 47.9606C50.2436 48.6706 52.4336 47.3706 52.4336 47.3706C52.4336 47.3706 54.5136 42.9606 53.7436 42.2706C52.8836 41.5006 50.6436 40.4206 49.5036 40.1806C48.6836 40.0206 48.0936 40.8506 48.0936 40.8506Z" fill="#FFB7A9"/>
<path d="M49.724 47.843L49.924 47.773C49.294 45.813 50.864 44.233 50.884 44.223L50.984 44.123L50.854 44.053C50.064 43.633 49.694 43.053 49.694 43.043L49.594 42.883L49.504 43.043C49.154 43.683 48.744 44.063 48.284 44.173C47.794 44.293 47.324 44.073 47.024 43.863C46.734 43.663 47.404 42.173 48.174 40.903L47.994 40.793C47.994 40.803 47.574 41.483 47.224 42.213C46.564 43.593 46.724 43.913 46.904 44.043C47.244 44.273 47.764 44.523 48.334 44.383C48.814 44.273 49.244 43.903 49.604 43.293C49.754 43.493 50.094 43.863 50.624 44.173C50.294 44.573 49.144 46.053 49.724 47.843Z" fill="#DB837B"/>
<path d="M48.7443 45.8823C48.9543 45.9823 49.3443 46.0123 49.6543 45.5723C50.2743 44.7223 49.2943 43.7023 49.2543 43.6523L49.1043 43.8023C49.1143 43.8123 50.0043 44.7323 49.4843 45.4423C49.1743 45.8723 48.8343 45.6823 48.8043 45.6623L48.6943 45.8423C48.6943 45.8623 48.7143 45.8723 48.7443 45.8823Z" fill="#DB837B"/>
<path d="M47.7244 47.2923C47.8344 47.3423 48.0744 47.4223 48.3344 47.3423C48.6144 47.2523 48.8444 47.0223 49.0144 46.6423C49.1044 46.4323 49.1044 46.2123 49.0144 45.9923C48.5544 44.9023 45.9544 43.9423 45.8444 43.9023L45.7744 44.1023C45.8044 44.1123 48.3944 45.0623 48.8144 46.0723C48.8844 46.2423 48.8844 46.4023 48.8144 46.5523C48.6744 46.8723 48.4844 47.0623 48.2644 47.1323C47.9944 47.2123 47.7644 47.0723 47.7644 47.0723L47.6544 47.2523C47.6644 47.2623 47.6944 47.2723 47.7244 47.2923Z" fill="#DB837B"/>
<path d="M45.7936 48.0531C46.3036 48.2831 46.9636 48.4531 47.4036 48.2631C47.6036 48.1731 47.8436 47.9731 47.8536 47.4931C47.9036 46.0831 45.1236 45.7231 45.0036 45.7031L44.9736 45.9131C45.0036 45.9131 47.6836 46.2631 47.6436 47.4831C47.6336 47.7831 47.5236 47.9631 47.3136 48.0631C46.7736 48.3031 45.7136 47.8531 45.3236 47.5231L45.1836 47.6831C45.3236 47.8031 45.5436 47.9331 45.7936 48.0531Z" fill="#DB837B"/>
<path d="M107.214 80.8825H76.2637L76.6837 76.5625H107.014L107.214 80.8825Z" fill="#002264"/>
<path d="M97.2639 76.1914H89.2139V81.3614H97.2639V76.1914Z" fill="#FFC401"/>
<path d="M83.0042 76.1914H82.0342V81.1414H83.0042V76.1914Z" fill="#FFEEC2"/>
<path d="M102.834 76.1914H101.864V81.1414H102.834V76.1914Z" fill="#FFEEC2"/>
<path d="M91.8636 34.332H91.4736V75.802H91.8636V34.332Z" fill="#F9F5FE"/>
<path d="M97.0547 174.971L97.1347 172.961L99.4347 171.941L105.415 173.321L121.795 174.781C121.795 174.781 121.975 175.191 121.345 175.341C120.725 175.481 113.695 175.611 106.315 174.371L106.355 174.991L97.0547 174.971Z" fill="#1C1C1C"/>
<path d="M97.1442 165.582C97.3842 164.482 100.304 164.222 103.184 164.382L103.044 162.762L106.664 162.982C106.664 162.982 108.254 164.962 108.954 165.432C112.584 167.832 117.804 170.722 121.544 170.972C124.224 171.152 122.734 174.682 121.794 174.782C112.344 175.782 101.914 172.892 97.1442 172.962C97.1342 172.962 96.7742 167.282 97.1442 165.582Z" fill="#442A1D"/>
<path d="M70.7832 175L85.8232 175L85.8232 174.02L70.7832 174.02L70.7832 175Z" fill="#1C1C1C"/>
<path d="M70.7743 171.54C71.6443 170.28 75.0543 164.07 75.0543 164.07C75.0543 164.07 75.4744 164.06 76.1144 164.06V162.66H82.4244V164.11C83.3144 164.15 83.9443 164.21 83.9843 164.32C84.1443 164.71 86.0144 170.17 86.2944 171.55C86.5744 172.93 85.3544 174.03 85.3544 174.03H71.1544C71.1544 174.02 69.9143 172.8 70.7743 171.54Z" fill="#442A1D"/>
</svg>
