<svg width="240" height="180" viewBox="0 0 240 180" fill="none" xmlns="http://www.w3.org/2000/svg">
<g clip-path="url(#clip0_2609_42998)">
<path fill-rule="evenodd" clip-rule="evenodd" d="M222.079 129.7C221.249 131.61 218.189 136.46 218.039 136.65C217.979 136.73 217.919 136.81 217.859 136.89C217.859 136.9 217.839 136.92 217.829 136.93C217.789 136.98 217.749 137.03 217.699 137.1C217.649 137.16 217.589 137.23 217.539 137.3C217.519 137.32 217.499 137.36 217.469 137.38C217.429 137.43 217.389 137.48 217.349 137.53C217.349 137.53 217.349 137.54 217.329 137.55C216.299 138.84 215.169 140.07 213.959 141.24C213.839 141.36 213.719 141.47 213.599 141.58C213.559 141.62 213.519 141.66 213.479 141.7C213.369 141.8 213.249 141.91 213.139 142.01C212.849 142.28 212.549 142.54 212.249 142.8C211.979 143.04 211.699 143.26 211.419 143.49C211.269 143.61 211.119 143.73 210.969 143.85C210.929 143.88 210.889 143.91 210.849 143.94C210.799 143.98 210.749 144.02 210.689 144.07C210.689 144.07 210.679 144.07 210.659 144.09C210.569 144.16 201.569 149.9 199.379 150.93C173.999 162.83 114.919 162.99 114.919 162.99C114.919 162.99 59.9893 163.13 38.2493 150.93C32.8593 147.91 28.9693 144.07 28.9693 144.07C27.3393 142.47 25.9393 140.83 25.1893 139.91C23.6693 138.04 21.9193 135.9 20.2693 133.29C18.4393 130.41 16.7193 126.96 15.5193 122.68C12.1493 110.68 15.2493 100.63 16.3993 97.3997C21.9693 81.6997 33.9593 79.0297 38.2293 74.1097C40.2293 71.8097 41.2793 69.6697 41.8493 68.4897C45.0193 61.9297 43.5193 58.1397 44.8893 51.4897C46.5693 43.3497 51.0993 37.8497 52.9593 35.5997C57.7393 29.7997 62.9593 26.9697 66.8393 24.8997C79.5393 18.1397 91.5093 17.9597 95.1093 17.9997C111.049 18.1997 122.329 24.9197 126.959 27.7497C126.959 27.7497 138.229 34.6597 146.119 44.6097C146.169 44.6797 146.669 45.3097 147.379 46.1497C147.829 46.6797 148.379 47.3197 149.029 48.0197C151.309 50.4997 155.889 55.4297 162.789 59.7197C168.499 63.2697 173.369 64.8897 177.679 66.2597C189.119 69.8997 193.339 68.2697 203.069 72.9097C208.289 75.3997 211.379 77.9097 212.239 78.6297C213.729 79.8697 218.609 84.1497 222.159 91.0697C222.159 91.0697 231.209 108.74 222.069 129.69L222.079 129.7Z" fill="#CFD3FF"/>
<path d="M62.6092 139.199V150.239C62.6092 152.099 53.1692 153.599 41.5292 153.599C29.8892 153.599 20.4492 152.089 20.4492 150.239V139.199H62.6092V139.199Z" fill="#BD54AE"/>
<path d="M20.4492 139.2C20.4492 141.06 29.8892 142.56 41.5292 142.56C53.1692 142.56 62.6092 141.05 62.6092 139.2C62.6092 137.35 53.1692 135.84 41.5292 135.84C29.8892 135.84 20.4492 137.34 20.4492 139.2V139.2Z" fill="#91268C"/>
<path d="M24.6184 144.651C25.1484 144.651 25.5884 144.221 25.5884 143.681C25.5884 143.141 25.1584 142.711 24.6184 142.711C24.0784 142.711 23.6484 143.141 23.6484 143.681C23.6484 144.221 24.0784 144.651 24.6184 144.651Z" fill="white"/>
<path d="M24.6184 147.717C25.1484 147.717 25.5884 147.287 25.5884 146.747C25.5884 146.207 25.1584 145.777 24.6184 145.777C24.0784 145.777 23.6484 146.207 23.6484 146.747C23.6484 147.287 24.0784 147.717 24.6184 147.717Z" fill="white"/>
<path d="M24.6184 150.799C25.1484 150.799 25.5884 150.369 25.5884 149.829C25.5884 149.289 25.1584 148.859 24.6184 148.859C24.0784 148.859 23.6484 149.289 23.6484 149.829C23.6484 150.369 24.0784 150.799 24.6184 150.799Z" fill="white"/>
<path d="M62.6092 124.801V135.841C62.6092 137.701 53.1692 139.201 41.5292 139.201C29.8892 139.201 20.4492 137.691 20.4492 135.841V124.801H62.6092V124.801Z" fill="#BD54AE"/>
<path d="M20.4492 124.798C20.4492 126.658 29.8892 128.158 41.5292 128.158C53.1692 128.158 62.6092 126.648 62.6092 124.798C62.6092 122.948 53.1692 121.438 41.5292 121.438C29.8892 121.438 20.4492 122.938 20.4492 124.798V124.798Z" fill="#91268C"/>
<path d="M24.6184 130.249C25.1484 130.249 25.5884 129.819 25.5884 129.279C25.5884 128.739 25.1584 128.309 24.6184 128.309C24.0784 128.309 23.6484 128.739 23.6484 129.279C23.6484 129.819 24.0784 130.249 24.6184 130.249Z" fill="white"/>
<path d="M23.6602 132.361C23.6602 132.901 24.0902 133.331 24.6302 133.331C25.1702 133.331 25.6002 132.901 25.6002 132.361C25.6002 131.821 25.1702 131.391 24.6302 131.391C24.0902 131.391 23.6602 131.821 23.6602 132.361Z" fill="white"/>
<path d="M24.6184 136.401C25.1484 136.401 25.5884 135.971 25.5884 135.431C25.5884 134.891 25.1584 134.461 24.6184 134.461C24.0784 134.461 23.6484 134.891 23.6484 135.431C23.6484 135.971 24.0784 136.401 24.6184 136.401Z" fill="white"/>
<path d="M62.6092 110.398V121.428C62.6092 123.288 53.1692 124.788 41.5292 124.788C29.8892 124.788 20.4492 123.278 20.4492 121.428V110.398H62.6092Z" fill="#BD54AE"/>
<path d="M20.4492 110.399C20.4492 112.259 29.8892 113.759 41.5292 113.759C53.1692 113.759 62.6092 112.249 62.6092 110.399C62.6092 108.549 53.1692 107.039 41.5292 107.039C29.8892 107.039 20.4492 108.549 20.4492 110.399V110.399Z" fill="#91268C"/>
<path d="M24.6184 115.85C25.1484 115.85 25.5884 115.42 25.5884 114.88C25.5884 114.34 25.1584 113.91 24.6184 113.91C24.0784 113.91 23.6484 114.34 23.6484 114.88C23.6484 115.42 24.0784 115.85 24.6184 115.85Z" fill="white"/>
<path d="M24.6184 118.928C25.1484 118.928 25.5884 118.498 25.5884 117.958C25.5884 117.418 25.1584 116.988 24.6184 116.988C24.0784 116.988 23.6484 117.418 23.6484 117.958C23.6484 118.498 24.0784 118.928 24.6184 118.928Z" fill="white"/>
<path d="M24.6184 121.999C25.1484 121.999 25.5884 121.569 25.5884 121.029C25.5884 120.489 25.1584 120.059 24.6184 120.059C24.0784 120.059 23.6484 120.489 23.6484 121.029C23.6484 121.569 24.0784 121.999 24.6184 121.999Z" fill="white"/>
<g opacity="0.5">
<path d="M210.929 126.479V123.479L205.709 122.379C205.509 120.979 205.139 119.629 204.639 118.349L208.609 114.779L207.119 112.179L202.049 113.839C201.189 112.749 200.199 111.759 199.119 110.899L200.779 105.809L198.189 104.309L194.629 108.289C193.359 107.779 192.009 107.419 190.619 107.209L189.519 101.969H186.529L185.429 107.209C184.039 107.419 182.689 107.779 181.419 108.289L177.859 104.309L175.269 105.809L176.929 110.899C175.839 111.759 174.859 112.749 173.999 113.839L168.929 112.179L167.439 114.779L171.409 118.349C170.899 119.619 170.539 120.969 170.339 122.379L165.119 123.479V126.479L170.339 127.579C170.539 128.979 170.909 130.329 171.409 131.609L167.439 135.179L168.929 137.779L173.999 136.119C174.859 137.209 175.849 138.199 176.929 139.069L175.269 144.159L177.859 145.659L181.419 141.679C182.689 142.189 184.029 142.549 185.429 142.759L186.529 147.999H189.519L190.619 142.759C192.019 142.559 193.359 142.189 194.629 141.679L198.189 145.659L200.779 144.159L199.119 139.069C200.209 138.209 201.189 137.219 202.049 136.119L207.119 137.779L208.609 135.179L204.639 131.609C205.149 130.339 205.509 128.989 205.709 127.579L210.929 126.479V126.479ZM201.049 124.979C201.049 132.199 195.219 138.059 188.019 138.059C180.819 138.059 174.989 132.209 174.989 124.979C174.989 117.749 180.819 111.899 188.019 111.899C195.219 111.899 201.049 117.759 201.049 124.979Z" fill="#F9F5FE"/>
<path d="M193.539 126.298C194.269 123.228 192.379 120.148 189.319 119.418C186.259 118.688 183.189 120.588 182.459 123.658C181.729 126.728 183.619 129.808 186.679 130.538C189.739 131.268 192.809 129.368 193.539 126.298Z" fill="#F9F5FE"/>
</g>
<path opacity="0.5" d="M115.801 48.2095V45.3995L110.911 44.3695C110.721 43.0595 110.381 41.7995 109.901 40.5995L113.621 37.2495L112.221 34.8195L107.471 36.3795C106.661 35.3495 105.741 34.4295 104.721 33.6295L106.281 28.8595L103.861 27.4595L100.531 31.1895C99.3406 30.7195 98.0806 30.3695 96.7706 30.1795L95.7406 25.2695H92.9406L91.9106 30.1795C90.6106 30.3695 89.3506 30.7095 88.1506 31.1895L84.8206 27.4595L82.4006 28.8595L83.9606 33.6295C82.9406 34.4395 82.0206 35.3695 81.2206 36.3795L76.4706 34.8195L75.0706 37.2495L78.7906 40.5995C78.3206 41.7895 77.9706 43.0595 77.7806 44.3695L72.8906 45.3995V48.2095L77.7806 49.2395C77.9706 50.5495 78.3106 51.8095 78.7906 53.0095L75.0706 56.3595L76.4706 58.7895L81.2206 57.2295C82.0306 58.2595 82.9506 59.1795 83.9606 59.9795L82.4006 64.7495L84.8206 66.1495L88.1506 62.4195C89.3406 62.8895 90.6006 63.2395 91.9106 63.4295L92.9406 68.3395H95.7406L96.7706 63.4295C98.0706 63.2395 99.3306 62.8995 100.531 62.4195L103.861 66.1495L106.281 64.7495L104.721 59.9795C105.741 59.1695 106.661 58.2395 107.471 57.2295L112.221 58.7895L113.621 56.3595L109.901 53.0095C110.371 51.8195 110.721 50.5495 110.911 49.2395L115.801 48.2095V48.2095ZM106.541 46.8095C106.541 53.5695 101.071 59.0595 94.3306 59.0595C87.5906 59.0595 82.1206 53.5795 82.1206 46.8095C82.1206 40.0395 87.5806 34.5595 94.3306 34.5595C101.081 34.5595 106.541 40.0395 106.541 46.8095Z" fill="#F9F5FE"/>
<path d="M138.771 150.797H99.6406L105.141 123.797H133.271L138.771 150.797V150.797Z" fill="#723EE4"/>
<path opacity="0.3" d="M135.82 136.127H102.58L105.13 123.797H133.27L135.82 136.127V136.127Z" fill="#DBC8F9"/>
<path d="M152.75 154.72H85.6504C85.6504 151.34 88.3804 148.59 91.7604 148.59H146.65C150.02 148.59 152.76 151.33 152.76 154.72H152.75Z" fill="#3D00C3"/>
<path d="M180.08 133.349H58.3305C55.5205 133.349 53.2305 131.059 53.2305 128.239V51.9186C53.2305 49.0986 55.5105 46.8086 58.3305 46.8086H180.08C182.89 46.8086 185.18 49.0986 185.18 51.9186V128.229C185.18 131.059 182.9 133.349 180.08 133.349V133.349Z" fill="#723EE4"/>
<path d="M181.611 52.9883H56.8008V119.028H181.611V52.9883Z" fill="white"/>
<path d="M181.73 52.9883H56.9102V119.028H181.72V52.9883H181.73Z" fill="#FDF2F8"/>
<path opacity="0.6" d="M181.721 52.9883H56.8008V57.4383H181.721V52.9883Z" fill="#ECCCEA"/>
<path d="M119.211 128.97C120.741 128.97 121.981 127.72 121.981 126.19C121.981 124.66 120.741 123.41 119.211 123.41C117.681 123.41 116.441 124.66 116.441 126.19C116.441 127.72 117.681 128.97 119.211 128.97Z" fill="#EAEEF1"/>
<g opacity="0.2">
<path opacity="0.2" d="M181.72 57.4375H94.3398L160.14 119.028H181.72V57.4375V57.4375Z" fill="white"/>
</g>
<path d="M37.8193 88.7787H40.4793V91.4587C40.4793 92.0387 40.9493 92.4987 41.5193 92.4987C42.0893 92.4987 42.5593 92.0387 42.5593 91.4587V88.7787H45.2293C45.8093 88.7787 46.2693 88.3187 46.2693 87.7387C46.2693 87.1587 45.7993 86.6888 45.2293 86.6888H42.5593V84.0187C42.5593 83.4387 42.0993 82.9688 41.5193 82.9688C40.9393 82.9688 40.4793 83.4387 40.4793 84.0187V86.6888H37.8193C37.2393 86.6888 36.7793 87.1587 36.7793 87.7387C36.7793 88.3187 37.2493 88.7787 37.8193 88.7787V88.7787Z" fill="#FFC401"/>
<path d="M68.0795 27.6291C68.0795 24.9591 65.9195 22.7891 63.2595 22.7891C60.5995 22.7891 58.4395 24.9591 58.4395 27.6291C58.4395 30.2991 60.5995 32.4691 63.2595 32.4691C65.9195 32.4691 68.0795 30.2991 68.0795 27.6291ZM66.2295 27.6291C66.2295 29.2791 64.8995 30.6091 63.2595 30.6091C61.6195 30.6091 60.2895 29.2691 60.2895 27.6291C60.2895 25.9891 61.6195 24.6491 63.2595 24.6491C64.8995 24.6491 66.2295 25.9791 66.2295 27.6291Z" fill="#3D00C3"/>
<path d="M153.539 108.599H79.7794C78.7194 108.599 77.8594 107.739 77.8594 106.679V69.7989C77.8594 68.7389 78.7194 67.8789 79.7794 67.8789H153.529C154.589 67.8789 155.449 68.7389 155.449 69.7989V106.669C155.449 107.729 154.589 108.589 153.529 108.589L153.539 108.599Z" fill="white"/>
<path d="M150.52 76.3086H83.3003C81.9303 76.3086 80.8203 75.0786 80.8203 73.5586C80.8203 72.0386 81.9303 70.8086 83.3003 70.8086H150.52C151.89 70.8086 153 72.0386 153 73.5586C153 75.0786 151.89 76.3086 150.52 76.3086V76.3086Z" fill="#FFC401"/>
<path d="M83.3003 71.8603H150.52C151.73 71.8603 152.73 72.8203 152.95 74.0903C152.98 73.9203 153 73.7503 153 73.5703C153 72.0503 151.89 70.8203 150.52 70.8203H83.3003C81.9303 70.8203 80.8203 72.0503 80.8203 73.5703C80.8203 73.7503 80.8403 73.9203 80.8703 74.0903C81.0903 72.8203 82.1003 71.8603 83.3003 71.8603Z" fill="#F29D06"/>
<path d="M83.7097 74.3491C84.1397 74.3491 84.4897 73.9991 84.4897 73.5691C84.4897 73.1391 84.1397 72.7891 83.7097 72.7891C83.2797 72.7891 82.9297 73.1391 82.9297 73.5691C82.9297 73.9991 83.2797 74.3491 83.7097 74.3491Z" fill="white"/>
<path d="M87.5398 74.3491C87.9698 74.3491 88.3198 73.9991 88.3198 73.5691C88.3198 73.1391 87.9698 72.7891 87.5398 72.7891C87.1098 72.7891 86.7598 73.1391 86.7598 73.5691C86.7598 73.9991 87.1098 74.3491 87.5398 74.3491Z" fill="white"/>
<path d="M91.3601 74.3491C91.7901 74.3491 92.1401 73.9991 92.1401 73.5691C92.1401 73.1391 91.7901 72.7891 91.3601 72.7891C90.9301 72.7891 90.5801 73.1391 90.5801 73.5691C90.5801 73.9991 90.9301 74.3491 91.3601 74.3491Z" fill="white"/>
<path d="M109.379 100.379H86.4088C85.8888 100.379 85.4688 99.9591 85.4688 99.4391V84.2291C85.4688 83.7091 85.8888 83.2891 86.4088 83.2891H109.379C109.899 83.2891 110.319 83.7091 110.319 84.2291V99.4391C110.319 99.9591 109.899 100.379 109.379 100.379Z" fill="#DBC8F9"/>
<path d="M97.9204 98.6313C101.69 98.6213 104.74 95.5713 104.72 91.8113C104.71 88.0613 101.64 85.0213 97.8704 85.0313C94.1004 85.0413 91.0504 88.0913 91.0704 91.8513C91.0804 95.6013 94.1504 98.6413 97.9204 98.6313Z" fill="#916BF9"/>
<path d="M102.82 96.5612C102.59 94.2412 100.6 92.2812 97.8998 92.2812C95.1998 92.2812 93.3598 94.3313 93.0098 96.6113C93.0098 96.6113 94.6798 98.6712 97.9198 98.6312C101.16 98.5912 102.82 96.5612 102.82 96.5612Z" fill="white"/>
<path d="M97.9002 92.8029C99.5402 92.8029 100.87 91.4629 100.87 89.8329C100.87 88.1929 99.5301 86.8729 97.8801 86.8829C96.2301 86.8829 94.9102 88.2229 94.9102 89.8529C94.9102 91.4929 96.2502 92.8129 97.9002 92.8029Z" fill="white"/>
<path d="M143.77 88.7683L116.43 88.7383C116.15 88.7383 115.93 88.5183 115.93 88.2383C115.93 87.9583 116.15 87.7383 116.43 87.7383L143.77 87.7683C144.05 87.7683 144.27 87.9883 144.27 88.2683C144.27 88.5483 144.05 88.7683 143.77 88.7683Z" fill="#DBC8F9"/>
<path d="M143.77 92.3269L116.43 92.2969C116.15 92.2969 115.93 92.0769 115.93 91.7969C115.93 91.5169 116.15 91.2969 116.43 91.2969L143.77 91.3269C144.05 91.3269 144.27 91.5469 144.27 91.8269C144.27 92.1069 144.05 92.3269 143.77 92.3269Z" fill="#DBC8F9"/>
<path d="M143.77 95.9675L116.43 95.9375C116.15 95.9375 115.93 95.7175 115.93 95.4375C115.93 95.1575 116.15 94.9375 116.43 94.9375L143.77 94.9675C144.05 94.9675 144.27 95.1875 144.27 95.4675C144.27 95.7475 144.05 95.9675 143.77 95.9675Z" fill="#DBC8F9"/>
<path d="M211.099 80.1406H152.109C151.192 80.1406 150.449 80.8838 150.449 81.8006V158.471C150.449 159.387 151.192 160.131 152.109 160.131H211.099C212.016 160.131 212.759 159.387 212.759 158.471V81.8006C212.759 80.8838 212.016 80.1406 211.099 80.1406Z" fill="#27138C"/>
<path opacity="0.2" d="M154.91 154.27L207 156.78C207.72 156.81 208.32 156.24 208.32 155.53C208.32 154.84 207.76 154.28 207.07 154.28H154.92L154.91 154.27Z" fill="black"/>
<path d="M207.07 84.0898H156.16C155.47 84.0898 154.91 84.6495 154.91 85.3398V153.03C154.91 153.72 155.47 154.28 156.16 154.28H207.07C207.761 154.28 208.32 153.72 208.32 153.03V85.3398C208.32 84.6495 207.761 84.0898 207.07 84.0898Z" fill="white"/>
<path opacity="0.1" d="M193.609 84.3398V86.5598C193.609 87.4998 192.849 88.2698 191.899 88.2698H169.579C168.639 88.2698 167.869 87.5098 167.869 86.5598V84.3398H193.599H193.609Z" fill="black"/>
<path d="M190.888 79.4395H185.018C185.548 78.6295 185.858 77.6695 185.858 76.6295C185.858 73.8095 183.568 71.5195 180.748 71.5195C177.928 71.5195 175.638 73.8095 175.638 76.6295C175.638 77.6695 175.948 78.6295 176.478 79.4395H170.608C169.798 79.4395 169.148 80.0895 169.148 80.8995V85.1895C169.148 85.9995 169.798 86.6495 170.608 86.6495H190.898C191.708 86.6495 192.358 85.9995 192.358 85.1895V80.8995C192.358 80.0995 191.708 79.4395 190.898 79.4395H190.888ZM180.738 74.4395C181.948 74.4395 182.928 75.4195 182.928 76.6295C182.928 77.8395 181.948 78.8195 180.738 78.8195C179.528 78.8195 178.548 77.8395 178.548 76.6295C178.548 75.4195 179.528 74.4395 180.738 74.4395Z" fill="#FFC401"/>
<path opacity="0.5" d="M192.349 82.8086V85.1886C192.349 85.9986 191.699 86.6486 190.889 86.6486H170.599C169.789 86.6486 169.139 85.9986 169.139 85.1886V82.8086H192.349Z" fill="#DBA300"/>
<path d="M167.918 109.498C171.688 109.488 174.738 106.438 174.718 102.678C174.708 98.9285 171.638 95.8885 167.868 95.8985C164.098 95.9085 161.048 98.9585 161.068 102.718C161.078 106.468 164.148 109.508 167.918 109.498Z" fill="#91268C"/>
<path d="M172.818 107.428C172.588 105.108 170.598 103.148 167.898 103.148C165.198 103.148 163.358 105.198 163.008 107.478C163.008 107.478 164.678 109.538 167.918 109.498C171.158 109.458 172.818 107.428 172.818 107.428V107.428Z" fill="white"/>
<path d="M167.898 103.67C169.538 103.67 170.868 102.33 170.868 100.7C170.868 99.0601 169.528 97.7401 167.878 97.7501C166.228 97.7501 164.908 99.0901 164.908 100.72C164.908 102.36 166.248 103.68 167.898 103.67Z" fill="white"/>
<path d="M167.899 126.92C171.669 126.91 174.719 123.86 174.699 120.1C174.689 116.35 171.619 113.31 167.849 113.32C164.079 113.33 161.029 116.38 161.049 120.14C161.059 123.89 164.129 126.93 167.899 126.92V126.92Z" fill="#E79E24"/>
<path d="M172.798 124.85C172.568 122.53 170.578 120.57 167.878 120.57C165.178 120.57 163.338 122.62 162.988 124.9C162.988 124.9 164.658 126.96 167.898 126.92C171.138 126.88 172.798 124.85 172.798 124.85V124.85Z" fill="white"/>
<path d="M167.888 121.092C169.528 121.092 170.858 119.752 170.858 118.122C170.858 116.482 169.518 115.162 167.868 115.172C166.218 115.172 164.898 116.512 164.898 118.142C164.898 119.782 166.238 121.102 167.888 121.092Z" fill="white"/>
<path d="M167.899 144.327C171.669 144.317 174.719 141.267 174.699 137.507C174.689 133.757 171.619 130.717 167.849 130.727C164.079 130.737 161.029 133.787 161.049 137.547C161.059 141.297 164.129 144.337 167.899 144.327V144.327Z" fill="#916BF9"/>
<path d="M172.798 142.257C172.568 139.937 170.578 137.977 167.878 137.977C165.178 137.977 163.338 140.027 162.988 142.307C162.988 142.307 164.658 144.367 167.898 144.327C171.138 144.287 172.798 142.257 172.798 142.257V142.257Z" fill="white"/>
<path d="M167.888 138.498C169.528 138.498 170.858 137.158 170.858 135.528C170.858 133.888 169.518 132.568 167.868 132.578C166.218 132.578 164.898 133.918 164.898 135.548C164.898 137.188 166.238 138.508 167.888 138.498Z" fill="white"/>
<path d="M180.26 100.859L192.64 100.889" stroke="#3D00C3" stroke-miterlimit="10" stroke-linecap="round"/>
<path d="M180.26 104.418L198.28 104.448" stroke="#3D00C3" stroke-miterlimit="10" stroke-linecap="round"/>
<path d="M180.26 118.32L192.64 118.35" stroke="#3D00C3" stroke-miterlimit="10" stroke-linecap="round"/>
<path d="M180.26 121.891L198.28 121.921" stroke="#3D00C3" stroke-miterlimit="10" stroke-linecap="round"/>
<path d="M180.26 135.789L192.64 135.809" stroke="#3D00C3" stroke-miterlimit="10" stroke-linecap="round"/>
<path d="M180.26 139.348L198.28 139.378" stroke="#3D00C3" stroke-miterlimit="10" stroke-linecap="round"/>
</g>
<defs>
<clipPath id="clip0_2609_42998">
<rect width="212.16" height="144.98" fill="white" transform="translate(14 18)"/>
</clipPath>
</defs>
</svg>
