<svg width="240" height="180" viewBox="0 0 240 180" fill="none" xmlns="http://www.w3.org/2000/svg">
<g clip-path="url(#clip0_2609_42340)">
<path d="M221.58 54.6406L220.947 52.4829C215.652 34.3079 201.011 20.2825 182.602 16.5791C180.235 16.1019 177.836 15.8011 175.417 15.6766C158.015 14.7844 140.363 23.3843 130.157 37.7209C124.155 46.1548 120.282 56.6739 111.664 62.3276C100.451 69.693 85.7272 66.0726 72.9663 62.2239C60.2054 58.3752 45.4717 54.7962 34.2787 62.2135C27.27 66.861 17.2503 74.5583 14.5507 92.422C11.1969 114.529 23.2518 131.843 39.8129 146.553C56.374 161.263 82.1346 164.811 104.199 166.201C135.109 168.151 167.36 159.406 190.846 138.835C214.333 118.274 227.738 85.2745 221.58 54.6406Z" fill="#CFD3FF"/>
<path d="M155.176 151.301C164.908 143.595 171.02 135.104 168.828 132.335C166.636 129.566 156.969 133.568 147.237 141.274C137.505 148.98 131.392 157.471 133.585 160.24C135.777 163.009 145.444 159.007 155.176 151.301Z" stroke="#FFC401" stroke-width="1.2399" stroke-miterlimit="10"/>
<path d="M158.15 155.063C167.882 147.357 173.994 138.866 171.802 136.097C169.609 133.328 159.943 137.33 150.21 145.036C140.478 152.742 134.366 161.233 136.558 164.002C138.751 166.771 148.417 162.769 158.15 155.063Z" stroke="#FFC401" stroke-width="1.2399" stroke-miterlimit="10"/>
<path d="M173.61 103.556C175.012 101.782 176.424 100.018 177.826 98.2445C178.148 97.84 178.501 97.4146 178.989 97.2798C179.861 97.0412 180.733 97.8711 180.858 98.7632C180.993 99.6554 180.609 100.537 180.183 101.326C179.768 102.124 179.3 102.933 179.248 103.836" fill="#FFB7A9"/>
<path d="M178.553 102.88C178.781 102.797 163.809 104.405 164.671 104.55C164.764 104.706 164.847 104.862 164.941 105.017L167.775 113.368C171.139 112.984 180.598 109.447 180.598 109.447C180.598 109.447 183.661 107.175 184.918 105.308L184.596 102.227L178.553 102.88Z" fill="#FFB7A9"/>
<path d="M193.411 101.23L183.09 102.392L184.71 105.536L193.452 102.496L193.411 101.23Z" fill="#FFB7A9"/>
<path d="M164.712 100.131L132.805 106.428L108.518 85.4414L102.413 109.737L120.625 125.028C124.924 128.638 130.884 129.509 136.034 127.279L168.305 114.561L164.712 100.131Z" fill="#2F00A7"/>
<path d="M111.914 165.89C111.27 165.122 111.374 146.304 110.907 145.422C110.886 145.381 110.855 145.329 110.834 145.267L109.744 139.25C108.747 131.47 107.595 117.88 106.691 106.168L113.472 108.751C113.472 108.751 115.974 121.376 116.047 131.636C116.119 141.885 115.154 153.991 115.05 156.688C113.472 169.77 112.485 166.45 111.914 165.89Z" fill="#002264"/>
<path d="M95.1343 75.295L77.4414 71.0625L79.9749 74.0087C79.9749 74.019 99.6302 93.7812 95.1343 75.295Z" fill="#002264"/>
<path d="M78.0963 32.6406C78.0963 32.6406 70.6309 32.8585 70.3194 42.9107C69.9767 54.519 77.9198 60.2661 79.1139 68.8556C79.2073 67.8182 79.5604 63.9384 79.5084 62.984C79.0308 52.382 70.527 48.6682 73.6108 46.3756C76.9853 43.8755 78.0963 32.6406 78.0963 32.6406Z" fill="#002264"/>
<path d="M89.9639 86.8027C86.3194 86.0247 78.667 74.5616 78.667 74.5616L79.4042 65.2874L79.5392 63.5239L79.7053 61.418L87.4615 64.6857H87.4719L95.0205 67.8497L94.8855 70.7233L94.4286 79.79C102.102 83.0266 93.6084 87.5807 89.9639 86.8027Z" fill="#FFB7A9"/>
<path d="M106.41 39.3422L105.964 47.6931C105.964 47.6931 108.279 43.2739 108.674 39.9646C109.068 36.645 106.41 39.3422 106.41 39.3422Z" fill="#002264"/>
<path d="M94.8645 70.7303C93.8054 71.8403 92.1337 72.5665 89.4964 72.0478C84.066 70.9585 80.6188 66.9542 79.3936 65.2944L79.5285 63.5309L79.5908 63.4375L87.4509 64.6824H87.4613L95.0098 67.8464L94.8645 70.7303Z" fill="#DB837B"/>
<path d="M106.888 40.9911C106.888 40.9911 109.027 65.0583 96.9101 69.4672C91.4486 71.459 87.0565 70.4735 83.9 68.7929C80.0686 66.7493 77.5144 63.3467 76.7149 60.442C75.7077 56.78 75.1886 50.6698 77.0575 43.792C79.8298 33.6049 85.8105 32.0177 90.9502 32.7231C96.0691 33.4389 106.068 32.4327 106.888 40.9911Z" fill="#FFB7A9"/>
<path d="M89.5 60C92 61.5 93 61.5 95.5 62C94 64 89.9 65.2 89.5 60Z" fill="#BD2642"/>
<path d="M76.5485 47.7434C76.5485 47.7434 74.4199 45.845 72.416 47.2662C70.4224 48.6874 69.2699 53.2519 73.2466 56.8724C74.4926 57.9927 76.5173 57.1006 76.5173 57.1006L76.5485 47.7434Z" fill="#FFB7A9"/>
<path d="M92.1465 43.112C92.2607 42.7904 92.0634 42.4377 91.7208 42.2717C91.1912 42.0435 90.1425 41.3796 88.3981 41.0787C85.792 40.6534 83.0716 42.085 84.3072 42.1991C84.9925 42.2613 86.6745 42.3132 88.1386 42.697C89.3534 43.029 90.4021 43.7137 90.7447 43.89C91.295 44.2116 91.9596 43.6722 92.1465 43.112Z" fill="#002264"/>
<path d="M99.2671 46.1988C99.2255 45.8564 99.4851 45.5556 99.8589 45.4726C100.42 45.3585 101.593 44.9124 103.348 44.9747C105.985 45.068 107.771 46.4893 106.899 46.6449C106.234 46.7486 104.791 46.5307 103.275 46.6241C102.019 46.6967 100.856 47.1636 100.482 47.2777C99.9004 47.4436 99.3501 46.7693 99.2671 46.1988Z" fill="#002264"/>
<path d="M94.5536 58.0046C94.7717 58.0254 95.4673 58.0565 96.0799 57.5586C96.1734 57.4963 96.8898 56.8635 96.7964 55.8573C96.7029 54.7369 95.6958 54.2597 95.6542 54.2286C95.5712 54.1975 95.4673 54.2182 95.4362 54.3012C95.405 54.3842 95.4258 54.4879 95.5089 54.519C95.5192 54.519 96.3707 54.9547 96.4641 55.878C96.5368 56.739 95.893 57.2785 95.8619 57.2992C95.3531 57.7142 94.7717 57.6831 94.5951 57.6727C94.5121 57.6727 94.4186 57.7349 94.4186 57.8179C94.3979 57.9113 94.4705 57.9839 94.5536 58.0046Z" fill="#DB837B"/>
<path d="M84.5021 51.1049C84.6475 51.4161 86.1011 52.0074 88.1258 52.1112C90.1506 52.2149 91.5938 51.9555 91.8326 51.4887C92.0922 50.9908 90.7424 47.8786 88.3543 47.7541C85.9039 47.6193 84.3879 50.8144 84.5021 51.1049Z" fill="white"/>
<path d="M89.9181 49.069C89.6378 49.3802 89.6689 49.8366 89.9804 50.1167C90.2919 50.3968 90.7488 50.3657 91.0291 50.0545C91.0603 50.0234 91.0707 49.9819 91.0914 49.9404C91.1226 50.4591 90.9461 50.9985 90.5827 51.4134C89.8247 52.2641 88.5268 52.3263 87.6858 51.5794C86.8343 50.8221 86.772 49.5254 87.5196 48.6851C88.2776 47.8345 89.5755 47.7722 90.4165 48.5192C90.5307 48.6229 90.6346 48.7474 90.7176 48.8615C90.4373 48.7578 90.1258 48.8304 89.9181 49.069Z" fill="#040605"/>
<path d="M105.673 52.504C105.497 52.7945 103.991 53.2302 101.967 53.1265C99.9419 53.0227 98.5402 52.6078 98.3429 52.1202C98.1457 51.5911 99.8173 48.645 102.195 48.7695C104.666 48.9147 105.829 52.2343 105.673 52.504Z" fill="white"/>
<path d="M103.728 50.0124C103.468 50.334 103.51 50.7904 103.832 51.0602C104.153 51.3299 104.61 51.278 104.88 50.9564C104.911 50.9253 104.922 50.8838 104.943 50.8423C104.994 51.361 104.849 51.9004 104.496 52.3361C103.769 53.2179 102.482 53.3424 101.61 52.6266C100.727 51.9004 100.602 50.6141 101.319 49.7427C102.046 48.8609 103.333 48.7364 104.205 49.4522C104.33 49.556 104.434 49.6701 104.527 49.7842C104.237 49.6804 103.925 49.7738 103.728 50.0124Z" fill="#040605"/>
<path d="M93.1207 65.6905C93.1207 65.6905 91.1687 66.3337 88.7598 64.207C88.7598 64.207 89.6112 66.5308 91.3867 66.4685C92.0512 66.427 93.1207 65.6905 93.1207 65.6905Z" fill="#DB837B"/>
<path d="M108 37.7534C109.952 36.5708 111.364 34.9525 111.613 32.8362C112.288 27.39 105.393 28.5415 105.393 28.5415C105.393 28.5415 104.885 25.2322 100.908 25.0247C96.9519 24.8173 90.8985 28.2199 87.4617 28.6037C84.0249 28.9875 78.989 27.8568 76.9436 30.305C76.3517 31.0104 76.2167 31.1038 76.1025 31.6536C75.0331 31.0934 75.2823 30.2116 76.6217 29.1535C74.8773 29.1328 73.3406 32.2034 75.9675 33.3445C76.1856 34.1018 76.7255 34.496 76.7255 34.496C76.7255 34.496 70.371 47.5567 72.6865 46.7371C75.0019 45.9176 78.0546 48.1168 78.8748 51.6336C81.2941 40.4921 79.3421 41.7266 81.9379 38.6559C83.7341 36.5085 93.4735 40.2327 98.9558 40.3365C100.223 40.3572 101.645 40.2535 103.088 40.0253C103.088 40.0253 110.772 40.544 113.015 33.2927C112.994 33.2927 111.644 36.4567 108 37.7534Z" fill="#002264"/>
<path d="M112.942 166.556C112.942 166.556 81.2106 167.604 68.8339 159.855C66.6119 159.212 65.667 159.17 63.5281 158.226C62.604 157.821 59.9044 157.738 59.0011 157.241C59.0011 157.241 58.4923 124.584 54.692 111.077C52.9269 104.832 44.8904 87.4974 47.2889 85.433C57.3605 76.7916 77.265 74.25 77.265 74.25C77.265 74.25 88.5204 81.937 93.0786 82.0304C93.0786 82.0304 95.176 82.1652 94.9787 78.3062C94.9787 78.3062 107.553 82.5283 110.387 87.8397C114.343 95.257 115.382 144.118 112.942 166.556Z" fill="#2F00A7"/>
<path d="M95.6121 166.494L94.5738 166.432C97.6368 114.542 91.7703 82.4042 91.708 82.093L92.7256 81.9062C92.7982 82.2278 98.6855 114.47 95.6121 166.494Z" fill="#F9F5FE"/>
<path d="M91.9883 83.0232L96.1727 87.1728L93.3796 82.1207L93.0993 82.0481L92.7047 82.0273L91.9883 83.0232Z" fill="#002264"/>
<path d="M77.4416 71.0625L73.8594 75.2224C73.8594 75.2224 76.1748 77.6084 80.027 81.3429C83.7649 84.9738 88.7488 87.671 88.7488 87.671L93.089 82.038C93.089 82.038 88.863 80.2744 84.689 77.4528C81.2937 75.1705 78.8744 73.2617 77.4416 71.0625Z" fill="#F9F5FE"/>
<path d="M93.0889 82.0489L96.1623 87.1735C96.1623 87.1735 97.8859 82.4327 97.6678 79.3309L95.1343 75.2852C95.1343 75.2955 95.207 81.7895 93.0889 82.0489Z" fill="#F9F5FE"/>
<path d="M61.1607 108.066C61.1607 108.066 58.0873 108.409 56.1768 119.322L59.001 157.238L65.9577 158.753C65.9577 158.753 63.393 144.893 62.7389 135.235C62.064 125.588 61.1607 108.066 61.1607 108.066Z" fill="#002264"/>
<path d="M51.8365 82.2983C56.0313 80.431 64.0679 101.127 56.6439 108.596C49.22 116.065 41.173 130.049 36.3552 133.68C31.5478 137.311 22.6495 128.472 22.5664 119.291C23.5632 110.245 39.5013 87.786 51.8365 82.2983Z" fill="#2F00A7"/>
<path d="M100.191 106.645L110.491 107.194L111.249 116.552C111.249 116.552 108.809 120.608 107.615 122.019L101.188 116.883L100.191 106.645Z" stroke="#F9F5FE" stroke-miterlimit="10"/>
<path d="M59.5831 147.77L66.5917 154.751C66.5917 154.751 71.2849 154.71 73.32 155.332C75.3447 155.954 83.0179 160.892 83.0179 160.892C83.0179 160.892 82.426 162.677 80.557 162.407C79.716 162.282 75.8119 160.125 75.8119 160.125C74.2026 160.571 73.6315 162.552 74.7425 163.787C76.383 165.602 78.2831 167.739 78.47 168.05C78.6881 168.403 81.8861 169.254 84.2846 169.855C85.7175 170.218 85.8732 172.345 84.4403 172.729C84.295 172.77 84.1496 172.77 84.025 172.739C84.025 172.739 85.4371 174.856 81.3358 174.71C81.3358 174.71 78.9269 176.806 76.7257 175.976C76.7257 175.976 73.0604 177.283 71.316 176.961C69.5717 176.629 62.075 167.22 62.075 167.22L50.8301 154.824L59.5831 147.77Z" fill="#FFB7A9"/>
<path d="M72.2196 166.557C72.1677 166.598 72.5415 167.293 73.2683 168.362C74.0055 169.399 75.1269 170.893 76.9336 171.868C78.761 172.812 80.6507 172.833 81.9175 172.812C83.205 172.771 83.9941 172.646 83.9941 172.584C83.9941 172.501 83.1946 172.49 81.9175 172.439C80.6611 172.366 78.8648 172.273 77.1724 171.401C75.5007 170.509 74.3585 169.119 73.559 168.144C72.7699 167.138 72.2819 166.515 72.2196 166.557Z" fill="#DB837B"/>
<path d="M70.5368 168.993C70.4745 169.014 70.7134 169.73 71.409 170.695C71.7517 171.172 72.1981 171.722 72.7381 172.292C73.2988 172.832 73.9321 173.464 74.8355 173.828C75.718 174.159 76.5695 174.284 77.3378 174.388C78.0439 174.471 78.7188 174.564 79.3729 174.647C80.5358 174.782 81.2626 174.823 81.273 174.751C81.2834 174.678 80.5774 174.502 79.4352 174.263C78.8641 174.149 78.1788 174.014 77.4105 173.89C76.6525 173.755 75.8219 173.62 75.0327 173.319C74.2644 173.018 73.6414 172.437 73.0911 171.929C72.5408 171.4 72.0839 170.892 71.7101 170.456C70.9626 169.585 70.6095 168.962 70.5368 168.993Z" fill="#DB837B"/>
<path d="M68.8342 171.971C68.668 172.116 70.132 173.662 72.0114 175.394C72.3021 175.695 72.6552 175.778 72.9459 175.882C73.247 175.975 73.5481 176.037 73.8284 176.079C74.3891 176.172 74.9083 176.214 75.3444 176.214C76.2166 176.214 76.7357 176.037 76.715 175.975C76.7046 175.892 76.1854 175.934 75.3548 175.84C74.9394 175.799 74.4514 175.726 73.9219 175.602C73.6519 175.539 73.382 175.477 73.1016 175.384C72.8317 175.29 72.5409 175.197 72.3852 175.021C71.4403 174.129 70.5578 173.371 69.914 172.821C69.2702 172.261 68.8861 171.94 68.8342 171.971Z" fill="#DB837B"/>
<path d="M21.7465 120.89C20.8639 124.999 22.1307 129.283 24.9964 132.354C32.68 140.601 50.892 159.73 57.205 162.49C59.427 163.465 68.9275 153.682 67.0378 151.047C63.1649 145.611 35.7015 110.735 32.4411 108.587C29.0251 106.326 23.4389 112.996 21.7465 120.89Z" fill="#2F00A7"/>
<path d="M166.498 79.1039H137.56C136.033 79.1039 134.798 77.8694 134.798 76.3444V41.4469C134.798 39.922 136.033 38.6875 137.56 38.6875H166.498C168.024 38.6875 169.26 39.922 169.26 41.4469V76.3444C169.27 77.8694 168.024 79.1039 166.498 79.1039Z" fill="#EFEEEA"/>
<path d="M153.156 62.5273H150.425V63.0357H153.156V62.5273Z" fill="#3D00C3"/>
<path d="M155.948 67.1641H140.041V68.1392H155.948V67.1641Z" fill="#3D00C3"/>
<path d="M152.906 71.875H140.041V72.8501H152.906V71.875Z" fill="#3D00C3"/>
<path d="M147.579 69.5195H140.041V70.4947H147.579V69.5195Z" fill="#3D00C3"/>
<path d="M160.112 42.7135V43.2114H163.03V45.9501H163.528V42.7239H160.112V42.7135ZM140.312 45.9398H140.81V43.2011H143.728V42.7031H140.322V45.9398H140.312ZM163.03 60.0481V62.7868H160.112V63.2848H163.518V60.0585H163.03V60.0481ZM140.81 60.0481H140.312V63.2744H143.717V62.7765H140.8V60.0481H140.81Z" fill="#3D00C3"/>
<path d="M203.389 39.4017H177.888C176.362 39.4017 175.126 38.1672 175.126 36.6423V5.75943C175.126 4.23448 176.362 3 177.888 3H203.389C204.915 3 206.151 4.23448 206.151 5.75943V36.6319C206.151 38.1569 204.915 39.4017 203.389 39.4017Z" fill="#EFEEEA"/>
<path d="M191.645 24.4727H189.185V24.9291H191.645V24.4727Z" fill="#3D00C3"/>
<path d="M194.169 28.6445H179.84V29.5263H194.169V28.6445Z" fill="#3D00C3"/>
<path d="M191.427 32.8789H179.84V33.7607H191.427V32.8789Z" fill="#3D00C3"/>
<path d="M186.63 30.7617H179.84V31.6435H186.63V30.7617Z" fill="#3D00C3"/>
<path d="M197.906 6.62891V7.07498H200.533V9.53357H200.98V6.62891H197.906ZM180.089 9.53357H180.535V7.07498H183.162V6.62891H180.089V9.53357ZM200.533 22.2311V24.6897H197.906V25.1358H200.98V22.2311H200.533ZM180.535 22.2311H180.089V25.1358H183.162V24.6897H180.535V22.2311Z" fill="#3D00C3"/>
<path d="M221.007 102.672H182.666C181.265 102.672 180.131 101.539 180.131 100.139V54.2907C180.131 52.8909 181.265 51.7578 182.666 51.7578H221.007C222.408 51.7578 223.543 52.8909 223.543 54.2907V100.139C223.543 101.539 222.408 102.672 221.007 102.672Z" fill="#EFEEEA"/>
<path d="M203.252 81.7891H199.812V82.427H203.252V81.7891Z" fill="#3D00C3"/>
<path d="M206.778 87.6367H186.735V88.8746H206.778V87.6367Z" fill="#3D00C3"/>
<path d="M202.937 93.5586H186.735V94.7964H202.937V93.5586Z" fill="#3D00C3"/>
<path d="M196.237 90.5977H186.735V91.8355H196.237V90.5977Z" fill="#3D00C3"/>
<path d="M212.02 56.832V57.451H215.69V60.8979H216.309V56.832H212.02ZM187.079 60.8979H187.698V57.451H191.368V56.832H187.069V60.8979H187.079ZM215.69 78.6659V82.1129H212.02V82.7318H216.319V78.6659H215.69V78.6659ZM187.708 78.6659H187.088V82.7318H191.387V82.1129H187.717V78.6659H187.708Z" fill="#3D00C3"/>
<path d="M201.565 78.6671C206.912 78.648 211.238 74.3251 211.229 69.0023C211.21 63.6795 206.864 59.3756 201.508 59.3946C196.161 59.4136 191.834 63.7366 191.844 69.0594C191.863 74.3727 196.209 78.6766 201.565 78.6671Z" fill="#91268C"/>
<path d="M207.817 76.3272C207.522 73.3659 204.977 70.8616 201.536 70.8711C198.096 70.8806 195.751 73.4801 195.294 76.3843C195.294 76.3843 197.429 78.7172 201.565 78.6696C205.701 78.622 207.817 76.3272 207.817 76.3272Z" fill="white"/>
<path d="M201.546 71.5236C203.642 71.5141 205.339 69.8192 205.329 67.7339C205.32 65.6486 203.614 63.9632 201.517 63.9727C199.42 63.9822 197.724 65.6771 197.733 67.7624C197.743 69.8478 199.449 71.5332 201.546 71.5236Z" fill="white"/>
<path d="M151.805 59.5982C155.616 59.5879 158.7 56.4965 158.69 52.71C158.679 48.9132 155.575 45.8529 151.764 45.8633C147.953 45.8737 144.87 48.9651 144.88 52.7515C144.901 56.5483 147.995 59.6086 151.805 59.5982Z" fill="#7D5BCA"/>
<path d="M156.27 57.9292C156.052 55.8234 154.246 54.0391 151.795 54.0391C149.345 54.0494 147.673 55.896 147.341 57.9707C147.341 57.9707 148.857 59.6305 151.816 59.5994C154.754 59.5683 156.27 57.9292 156.27 57.9292Z" fill="white"/>
<path d="M151.795 54.5168C153.29 54.5064 154.494 53.3031 154.494 51.8196C154.484 50.3362 153.269 49.1328 151.774 49.1328C150.279 49.1432 149.074 50.3465 149.074 51.83C149.085 53.3135 150.299 54.5168 151.795 54.5168Z" fill="white"/>
<path d="M190.431 21.4651C193.743 21.4547 196.412 18.7783 196.401 15.4794C196.391 12.1805 193.702 9.52481 190.389 9.53519C187.077 9.54556 184.409 12.222 184.419 15.5209C184.429 18.8094 187.129 21.4754 190.431 21.4651Z" fill="#FFC401"/>
<path d="M194.303 20.0122C194.117 18.1864 192.549 16.6303 190.42 16.6407C188.292 16.6511 186.838 18.2486 186.558 20.0537C186.558 20.0537 187.876 21.4956 190.441 21.4645C192.995 21.4334 194.303 20.0122 194.303 20.0122Z" fill="white"/>
<path d="M190.42 17.0472C191.718 17.0368 192.767 15.9891 192.767 14.7027C192.757 13.4164 191.708 12.3686 190.41 12.379C189.112 12.3894 188.063 13.4371 188.063 14.7235C188.074 16.0098 189.123 17.0472 190.42 17.0472Z" fill="white"/>
<path d="M110.489 73.1516C114.464 74.1681 115.832 75.5365 116.848 79.5113C116.992 80.1629 118.008 80.1629 118.152 79.5113C119.168 75.5365 120.536 74.1681 124.511 73.1516C125.163 73.0083 125.163 71.9917 124.511 71.8484C120.536 70.8319 119.168 69.4635 118.152 65.4887C118.008 64.8371 116.992 64.8371 116.848 65.4887C115.832 69.4635 114.464 70.8319 110.489 71.8484C109.837 72.0048 109.837 73.0083 110.489 73.1516Z" fill="#7D5BCA"/>
</g>
<defs>
<clipPath id="clip0_2609_42340">
<rect width="213" height="174" fill="white" transform="translate(14 3)"/>
</clipPath>
</defs>
</svg>
