<svg width="240" height="180" viewBox="0 0 240 180" fill="none" xmlns="http://www.w3.org/2000/svg">
<path d="M216.09 164.759C220.674 153.245 223.201 140.686 223.201 127.53C223.201 71.9624 178.156 26.918 122.589 26.918C67.0219 26.918 21.9775 71.9624 21.9775 127.53C21.9775 140.686 24.5043 153.245 29.0887 164.759H216.09Z" fill="#CFD3FF"/>
<path d="M88.4942 37.0175V35.962L86.6498 35.5782C86.5752 35.0878 86.4472 34.608 86.266 34.1602L87.6733 32.9022L87.1402 31.9746L85.3491 32.561C85.0399 32.1772 84.6988 31.8254 84.315 31.5269L84.9013 29.7358L83.9845 29.2027L82.7157 30.5993C82.268 30.4181 81.7882 30.2901 81.2978 30.2155L80.914 28.3711H79.8585L79.4747 30.2155C78.9843 30.2901 78.5045 30.4181 78.0567 30.5993L76.7987 29.192L75.8818 29.7251L76.4682 31.5162C76.0844 31.8254 75.7325 32.1666 75.434 32.5504L73.6216 31.9746L73.0885 32.8915L74.4958 34.1496C74.3146 34.5973 74.1866 35.0771 74.112 35.5675L72.2676 35.9513V37.0068L74.112 37.3906C74.1866 37.8811 74.3146 38.3608 74.4958 38.8086L73.0885 40.0666L73.6216 40.9835L75.4127 40.3971C75.7219 40.781 76.063 41.1328 76.4468 41.4313L75.8605 43.2224L76.7773 43.7555L78.0354 42.3482C78.4832 42.5294 78.9629 42.6574 79.4534 42.732L79.8372 44.5764H80.8926L81.2765 42.732C81.7669 42.6574 82.2466 42.5294 82.6944 42.3482L83.9525 43.7555L84.8693 43.2224L84.283 41.4313C84.6668 41.1221 85.0186 40.781 85.3171 40.3971L87.1082 40.9835L87.6413 40.0666L86.234 38.8086C86.4153 38.3608 86.5432 37.8811 86.6178 37.3906L88.4942 37.0175ZM84.9866 36.4844C84.9866 39.0325 82.9183 41.1008 80.3702 41.1008C77.8222 41.1008 75.7539 39.0325 75.7539 36.4844C75.7539 33.9363 77.8222 31.868 80.3702 31.868C82.9183 31.868 84.9866 33.9363 84.9866 36.4844Z" fill="url(#paint0_linear_2609_42662)"/>
<path d="M27.8621 108.979C27.8621 106.911 26.1776 105.227 24.1093 105.227C22.0409 105.227 20.3564 106.911 20.3564 108.979C20.3564 111.048 22.0409 112.732 24.1093 112.732C26.1776 112.732 27.8621 111.048 27.8621 108.979ZM26.4228 108.979C26.4228 110.259 25.3886 111.293 24.1093 111.293C22.8299 111.293 21.7957 110.248 21.7957 108.979C21.7957 107.7 22.8299 106.666 24.1093 106.666C25.378 106.666 26.4228 107.7 26.4228 108.979Z" fill="#DBC8F9"/>
<path d="M119.53 174.768C181.078 174.768 230.973 171.775 230.973 168.083C230.973 164.391 181.078 161.398 119.53 161.398C57.9809 161.398 8.08594 164.391 8.08594 168.083C8.08594 171.775 57.9809 174.768 119.53 174.768Z" fill="#A7AEF3"/>
<path d="M48.6535 166.344C48.6535 166.344 49.613 167.815 49.1546 169.468C48.6961 171.12 48.1631 173.188 48.2804 174.574C48.387 175.971 47.5447 178.7 45.4338 179.639C43.3228 180.587 41.9048 179.553 41.8729 177.741C41.8302 175.939 43.536 173.22 43.536 173.22L48.6535 166.344Z" fill="#2F00A7"/>
<path d="M46.0188 150.273C45.9122 157.523 46.5732 165.05 44.0145 172.011C43.7906 172.619 43.5347 173.237 43.5134 173.888C43.4814 174.538 43.7373 175.242 44.2917 175.572C44.8781 175.913 45.6563 175.754 46.1894 175.338C46.7225 174.922 47.0637 174.304 47.3195 173.675C48.7588 170.263 48.5243 166.403 49.068 162.736C49.8569 157.491 51.9999 152.672 53.3006 147.575C54.6013 142.458 55.0064 137.063 55.5181 131.818C53.1087 131.349 50.6459 130.752 48.1831 130.73C48.1831 130.73 46.7118 134.942 46.5839 135.421C46.1574 136.967 45.8696 138.567 45.731 140.166C45.4538 143.513 46.0721 146.914 46.0188 150.273Z" fill="#FFB7A9"/>
<path d="M51.7872 135.465C53.8448 135.465 55.5186 133.791 55.5186 131.723C55.5186 129.654 53.8448 127.98 51.7872 127.98C49.7295 127.98 48.0557 129.654 48.0557 131.723C48.0557 133.791 49.7295 135.465 51.7872 135.465Z" fill="#FFB7A9"/>
<path d="M49.1006 121.973C49.1965 124.137 49.2605 126.397 49.2605 126.397C49.2605 126.397 48.7914 129.041 48.1943 130.736C50.6678 131.301 53.1412 131.003 55.5187 131.877C55.5614 131.333 55.7639 126.536 57.715 124.276C57.8322 124.137 57.8962 123.764 57.9708 123.252C55.0176 122.804 52.0431 122.474 49.1006 121.973Z" fill="#FBC0A4"/>
<path d="M51.7979 135.465C53.8556 135.465 55.5294 133.791 55.5294 131.723C55.5294 129.654 53.8556 127.98 51.7979 127.98C49.7403 127.98 48.0665 129.654 48.0665 131.723C48.0558 133.791 49.7296 135.465 51.7979 135.465Z" fill="#FFB7A9"/>
<path d="M61.6493 126.492C60.0501 126.396 58.2377 125.938 56.5638 125.938C56.4039 128.763 56.244 131.663 56.0947 134.563C58.6641 134.637 63.5577 134.563 63.5577 134.563C64.4533 131.695 64.9224 129.381 65.3701 126.716C64.1334 126.641 62.886 126.567 61.6493 126.492Z" fill="#FFB7A9"/>
<path d="M59.8262 138.289C61.8839 138.289 63.5577 136.615 63.5577 134.547C63.5577 132.479 61.8839 130.805 59.8262 130.805C57.7686 130.805 56.0947 132.479 56.0947 134.547C56.0947 136.626 57.7579 138.289 59.8262 138.289Z" fill="#FFB7A9"/>
<path d="M68.4294 94.8676C72.9924 107.48 66.3078 127.705 66.3078 127.705C66.3078 127.705 56.382 132.321 47.2665 128.451L44.9317 113.045C44.9317 113.045 42.842 102.299 48.8657 95.3261C54.964 88.2256 68.4294 94.8676 68.4294 94.8676Z" fill="#3D00C3"/>
<path d="M62.4165 169.784C62.1074 169.197 61.4144 168.878 60.4868 165.85C59.7085 163.334 62.6404 150.039 63.7492 142.906C64.3463 139.676 63.7705 135.859 63.5573 134.559C60.8493 134.687 58.8023 134.644 56.0943 134.559C56.041 135.625 55.8385 138.812 55.7958 139.868C55.7638 140.582 55.7425 141.286 55.7212 141.99C55.7212 141.99 55.1881 149.399 56.0943 155.764C57.4483 165.157 56.1157 167.63 56.073 167.801C56.073 167.801 56.4995 170.146 57.523 170.36C60.3376 170.946 61.9901 174.464 63.7492 174.112C65.5083 173.761 66.0201 173.665 66.0201 173.665C66.0201 173.665 63.0882 171.074 62.4165 169.784Z" fill="#FFB7A9"/>
<path d="M59.8262 138.301C61.8839 138.301 63.5577 136.627 63.5577 134.559C63.5577 132.49 61.8839 130.816 59.8262 130.816C57.7686 130.816 56.0947 132.49 56.0947 134.559C56.0947 136.627 57.7579 138.301 59.8262 138.301Z" fill="#FFB7A9"/>
<path d="M64.9752 173.771C65.8281 173.686 63.5359 171.255 63.6959 171.362C63.8558 171.468 67.3527 174.848 67.7045 175.776C67.8325 176.117 67.5659 176.746 66.5318 176.81C65.4976 176.884 63.7492 176.554 62.7683 176.202C61.7875 175.85 58.6424 172.47 57.9174 172.14C57.1924 171.809 57.2884 174.901 57.1284 174.955H56.1263C56.1263 174.955 55.1348 170.36 56.0623 167.801C56.0623 167.801 56.8193 167.939 58.5784 169.699C60.4548 171.554 63.7812 173.888 64.9752 173.771Z" fill="#2F00A7"/>
<path d="M68.5798 88.637C67.7162 86.8459 68.9956 85.6625 69.5073 84.5857C70.0724 83.3703 72.4286 84.2339 73.2601 85.3746C74.0917 86.5154 82.333 104.586 82.333 104.586C81.6826 105.727 78.2497 103.232 78.2497 103.232C78.2497 103.232 69.4327 90.4388 68.5798 88.637Z" fill="#FFB7A9"/>
<path d="M80.5633 105.519C80.7658 105.85 81.1176 107.204 81.2989 107.524C81.4695 107.833 81.736 109.997 81.832 110.871C81.9279 111.746 81.4695 112.364 81.075 112.023C80.6805 111.682 80.4247 108.664 80.35 108.27C80.2647 107.854 78.7295 105.391 78.7295 105.391C78.7295 103.931 80.35 105.167 80.5633 105.519Z" fill="#FFB7A9"/>
<path d="M81.9274 105.161C82.0554 105.715 82.1513 107.976 82.162 108.253C82.1513 108.541 81.9594 110.129 81.6822 111.014C81.405 111.91 80.7334 112.091 80.7653 111.355C80.7653 110.609 81.0639 108.434 81.1065 108.253C81.1385 108.072 80.2323 106.483 80.4242 105.865C80.6694 104.99 81.7888 104.607 81.9274 105.161Z" fill="#FFB7A9"/>
<path d="M82.321 104.795C82.4489 105.35 82.8541 107.322 82.8647 107.599C82.8754 107.887 82.0545 109.433 81.7666 110.318C81.4894 111.213 80.8178 111.395 80.8497 110.659C80.8711 109.923 81.6387 108.036 81.6813 107.866C81.7026 107.685 80.9244 105.989 81.1163 105.371C81.4041 104.486 82.1931 104.241 82.321 104.795Z" fill="#FFB7A9"/>
<path d="M78.7395 102.016C80.2641 100.523 81.9592 103.434 82.3217 104.863C82.1938 104.969 82.0445 105.055 81.9166 105.151C81.2769 105.577 80.6372 105.929 79.9869 106.334C79.827 106.441 79.6457 106.558 79.4858 106.664C78.9741 106.281 78.5369 105.844 78.4516 105.588C78.2384 105.001 78.7608 102.016 78.7395 102.016Z" fill="#FFB7A9"/>
<path d="M79.8597 103.275C79.7638 104.118 78.5057 105.696 78.5057 105.696C78.5057 105.696 79.1774 106.463 79.1347 107.199C79.0814 107.924 78.6976 108.18 78.4737 107.998C78.2605 107.807 77.0664 106.197 77.141 106.047C77.2157 105.909 77.5568 104.534 77.7381 104.118C77.9833 103.531 78.8255 101.996 78.8255 101.996C78.8255 101.996 79.945 102.423 79.8597 103.275Z" fill="#FFB7A9"/>
<path d="M43.1725 69.8627L47.4478 46.9407C48.0235 43.8915 50.7208 45.011 54.0472 45.64L60.8811 46.93C64.2075 47.559 66.4783 48.0281 65.86 53.6147L62.0859 73.4449C61.4995 76.4941 42.5862 72.9118 43.1725 69.8627Z" fill="#002264"/>
<path d="M68.4835 72.7948C68.1423 73.1359 67.7372 73.4025 67.3001 73.605C66.2979 74.0528 65.1784 74.0955 64.155 73.701C63.1315 73.3065 62.3105 72.5389 61.8628 71.5367C61.1591 69.9695 61.5109 68.1038 62.737 66.899C63.0781 66.5579 63.4833 66.2913 63.9204 66.0888C65.9887 65.1506 68.4302 66.0781 69.3577 68.1571C70.0614 69.7243 69.7095 71.59 68.4835 72.7948Z" fill="#EDB6E0"/>
<path d="M68.0149 88.5497L67.7057 87.9953C67.4819 87.4942 62.2471 75.7347 61.5435 70.4253L61.4795 69.9775L69.5715 68.6875L69.6674 69.1139C70.9361 75.0843 73.7721 83.912 74.2199 85.0847L74.3691 85.4899L68.0149 88.5497Z" fill="#EDB6E0"/>
<path d="M46.0728 75.4255C45.6144 75.5641 45.1346 75.6281 44.6442 75.6068C43.5461 75.5535 42.5332 75.0737 41.7976 74.2634C41.062 73.4532 40.6782 72.3977 40.7315 71.2996C40.8167 69.5831 41.9682 68.0798 43.61 67.5681C44.0685 67.4295 44.5482 67.3655 45.0387 67.3868C47.3095 67.4934 49.058 69.4232 48.9514 71.694C48.8661 73.4105 47.7147 74.9138 46.0728 75.4255Z" fill="#EDB6E0"/>
<path d="M37.4696 90.0561L37.4482 89.427C37.4802 88.8833 39.1754 75.2154 40.9558 70.1726L41.1051 69.7461L48.8986 72.2728L48.7813 72.6993C47.2141 78.595 44.698 88.5421 44.5594 89.8002L44.5167 90.2373L37.4696 90.0561Z" fill="#EDB6E0"/>
<path d="M66.4682 79.0268C68.867 76.8732 68.8777 74.7516 68.11 73.0351C68.142 73.0031 68.1847 72.9818 68.2167 72.9498C69.0696 72.2568 69.6026 71.2653 69.7093 70.1778C69.7626 69.6981 69.7199 69.2077 69.6026 68.7386C69.2615 67.4059 68.2806 66.3611 67.0226 65.892V65.8813C67.0226 65.8813 66.7561 65.6894 61.6492 64.0582C58.6214 63.0347 55.4123 60.9877 49.4206 64.2608C48.0346 65.3696 45.5186 65.892 42.7359 67.843C41.9363 68.4933 41.4246 69.0797 41.0514 69.922C40.6036 70.9241 40.5717 72.0436 40.9661 73.0777C41.3606 74.1012 42.1282 74.9115 43.1411 75.3593C43.5888 75.5618 44.0579 75.6685 44.5377 75.7004C44.7403 75.7111 44.9428 75.7111 45.1454 75.6898C46.1049 78.9309 48.2372 87.5346 48.2372 87.5346L46.009 95.9038C57.7258 103.058 70.1144 96.4688 70.1144 96.4688L66.4682 79.0268Z" fill="#EDB6E0"/>
<path d="M50.3803 63.5962C50.5935 63.5109 50.8387 63.3723 51.0733 63.1591C51.1266 63.1058 51.1799 63.0738 51.2225 63.0205C51.3824 62.8286 51.8409 62.2635 51.7876 60.0673C51.7876 60.0353 51.7876 60.014 51.7876 59.982C51.7769 59.5769 51.7556 59.0758 51.6916 58.5001C51.6596 58.1802 51.5957 57.839 51.5317 57.4766L59.1439 57.6152C59.0053 58.1802 58.9307 58.7026 58.8454 59.1824C58.8241 59.3743 58.7495 59.8434 58.6962 60.4404C58.6748 60.6217 58.6535 60.8882 58.6322 61.1867C58.5895 61.7944 58.5469 62.594 58.5682 63.5749C58.5682 63.6815 58.5789 63.7881 58.5789 63.8841C58.5895 64.0973 58.5895 64.2785 58.6002 64.4385C58.6109 64.6197 58.7388 64.7796 58.9094 64.8329L59.4531 65.0035C59.581 65.0462 59.645 65.1634 59.6024 65.2914C59.4851 65.7711 53.4081 67.5303 52.246 66.1763C51.7449 65.5792 51.0733 64.7476 50.3376 63.7348C50.295 63.7135 50.3163 63.6282 50.3803 63.5962Z" fill="#FFB7A9"/>
<path d="M48.1307 53.8206C48.5252 55.3558 49.3461 55.7929 50.327 55.9529C50.5509 55.9955 50.7854 56.0168 51.02 56.0168C51.0733 56.0168 51.1266 56.0168 51.1799 56.0168L50.8814 51.6456C50.8814 51.6456 50.8601 51.6137 50.8281 51.571C50.7108 51.4431 50.4549 51.1552 50.1031 51.0166C49.9432 50.9633 49.7939 50.9207 49.6127 50.9313C48.8984 51.006 47.6297 51.8589 48.1307 53.8206Z" fill="#FFB7A9"/>
<path d="M60.999 45C60.999 45 62.7257 46.6623 63.3974 49.8821C64.0797 53.1018 63.5466 58.3899 61.457 60.2023C57.8001 63.4007 52.608 60.8953 51.3287 57.6436C50.3585 55.1381 50.1986 50.8096 51.2221 47.4833C51.9257 45.2763 56.1374 41.1512 60.999 45Z" fill="#FFB7A9"/>
<path fill-rule="evenodd" clip-rule="evenodd" d="M49.6229 52.1576C49.5376 52.1363 49.431 52.1363 49.303 52.1789C49.2284 52.2002 49.1538 52.1682 49.1325 52.0936C49.1111 52.019 49.1431 51.9444 49.2178 51.9124C49.3883 51.8484 49.5483 51.8484 49.6975 51.8804C49.8468 51.923 49.9641 52.0083 50.0707 52.1149C50.2732 52.3282 50.4012 52.6587 50.4865 52.9785C50.5718 53.2984 50.6251 53.6289 50.6464 53.8847C50.657 54.0127 50.6677 54.1193 50.6677 54.1939C50.6677 54.2259 50.6677 54.2579 50.6677 54.2792V54.3005V54.3112C50.6677 54.3112 50.6677 54.3112 50.5291 54.3218L50.6677 54.3112L50.6784 54.6097L50.4438 54.4285C50.4438 54.4285 50.4332 54.4178 50.4225 54.4178C50.4012 54.4071 50.3798 54.3858 50.3479 54.3645C50.2839 54.3218 50.2093 54.2685 50.124 54.2366C50.0387 54.1939 49.9534 54.1726 49.8788 54.1619C49.8148 54.1619 49.7721 54.1726 49.7508 54.2152C49.7082 54.2792 49.6122 54.2899 49.5589 54.2366C49.5056 54.1832 49.4949 54.098 49.5376 54.034C49.6335 53.906 49.7721 53.8741 49.8894 53.8741C50.0067 53.8741 50.1346 53.9167 50.2306 53.97C50.2732 53.9913 50.3265 54.0127 50.3692 54.0446C50.3692 54.002 50.3585 53.9594 50.3585 53.9167C50.3265 53.6715 50.2839 53.3623 50.1986 53.0638C50.1133 52.7653 49.996 52.4881 49.8468 52.3175C49.7935 52.2429 49.7082 52.1896 49.6229 52.1576Z" fill="#DA8369"/>
<path d="M59.4421 50.7C59.4101 50.3375 60.5402 49.7618 61.5957 49.8684C62.3633 49.9537 62.9817 50.3802 62.939 50.4974C62.907 50.6147 62.214 50.2736 61.2225 50.4655C60.3909 50.6254 59.7513 51.0625 59.506 50.8279C59.4954 50.8066 59.4421 50.7746 59.4421 50.7Z" fill="#002264"/>
<path d="M55.7112 50.785C55.6472 50.3906 54.4105 50.1347 53.4403 50.5292C52.726 50.817 52.2249 51.4461 52.3102 51.5633C52.3742 51.6806 52.9393 51.1475 53.9521 51.0409C54.805 50.9556 55.5193 51.2541 55.6792 50.9343C55.6899 50.9236 55.7219 50.8597 55.7112 50.785Z" fill="#002264"/>
<path d="M58.0447 55.4529C58.1727 55.4209 58.6204 55.325 58.8337 54.9625C59.1002 54.5147 58.9296 53.8964 58.4498 53.5232C58.4179 53.4912 58.3432 53.5019 58.3219 53.5339C58.2899 53.5659 58.3006 53.6405 58.3432 53.6618C58.759 53.9817 58.8976 54.4934 58.6951 54.8559C58.5245 55.1544 58.1513 55.2504 58.0554 55.261C58.0021 55.2823 57.9594 55.3143 57.9807 55.3676C57.9488 55.4316 57.9914 55.4529 58.0447 55.4529Z" fill="#DA8369"/>
<path d="M54.5386 51.9616C55.5194 51.9296 56.2018 53.0917 56.1271 53.2943C56.0525 53.4862 55.4768 53.6461 54.6345 53.6781C53.8029 53.7101 53.1739 53.5288 53.0993 53.4222C53.0353 53.3262 53.5257 52.0149 54.5386 51.9616Z" fill="#FCFAFF"/>
<path d="M55.6568 52.6984C55.6782 52.7517 55.6888 52.8157 55.6888 52.869C55.7102 53.3168 55.3583 53.69 54.9106 53.7113C54.4628 53.7326 54.0896 53.3808 54.0683 52.933C54.047 52.4852 54.3988 52.1121 54.8466 52.0907C55.0705 52.0801 55.273 52.1654 55.433 52.2933C55.4116 52.2933 55.401 52.2933 55.3797 52.2933C55.2197 52.304 55.1025 52.4426 55.1025 52.6025C55.1131 52.7624 55.2517 52.8797 55.4116 52.8797C55.5076 52.8903 55.6142 52.8051 55.6568 52.6984Z" fill="#002264"/>
<path d="M56.7132 57.8268C57.1716 58.3599 57.9605 58.7437 58.7495 58.5518C59.08 58.4665 59.3145 58.2852 59.4425 58.1786C60.0502 57.6669 60.0822 56.9099 60.0822 56.75C59.6024 56.8993 58.9414 57.0805 58.1098 57.1018C57.3528 57.1231 56.7025 57.0272 56.2334 56.9099C56.2974 57.1871 56.436 57.5283 56.7132 57.8268Z" fill="#BD2642"/>
<path d="M61.2016 51.4812C60.2421 51.5239 59.6664 52.8139 59.7623 53.0378C59.869 53.219 60.4447 53.347 61.2656 53.3043C62.0865 53.2617 62.5236 52.686 62.5663 52.558C62.6196 52.4408 62.2038 51.4492 61.2016 51.4812Z" fill="#FCFAFF"/>
<path d="M62.0865 52.2063C62.1079 52.2596 62.1185 52.3342 62.1185 52.3768C62.1398 52.8246 61.788 53.2084 61.3402 53.2191C60.8925 53.2404 60.5087 52.8886 60.498 52.4408C60.4767 51.993 60.8285 51.6092 61.2763 51.5986C61.5002 51.5879 61.7134 51.6732 61.8626 51.8011C61.8413 51.8011 61.8307 51.8011 61.8093 51.8011C61.6494 51.8118 61.5321 51.9504 61.5215 52.1103C61.5321 52.2702 61.6707 52.3875 61.8307 52.3982C61.9373 52.3982 62.0439 52.3129 62.0865 52.2063Z" fill="#002264"/>
<path d="M59.8797 52.8975H59.8691C59.8051 52.8868 59.7625 52.8228 59.7731 52.7589C59.7731 52.7482 60.0397 51.4262 61.287 51.3729C62.3105 51.3302 62.6517 52.0659 62.7796 52.3431C62.7903 52.3644 62.801 52.375 62.801 52.3964C62.8329 52.4497 62.801 52.5243 62.7476 52.5563C62.6837 52.5883 62.6197 52.5563 62.5877 52.503C62.5771 52.4923 62.5664 52.471 62.5557 52.4497C62.4385 52.1938 62.1506 51.5861 61.287 51.6181C60.2316 51.6607 60.0077 52.7695 59.997 52.8122C59.9863 52.8655 59.933 52.8975 59.8797 52.8975Z" fill="#002264"/>
<path d="M53.0881 53.4998C53.0775 53.4998 53.0668 53.4998 53.0668 53.4998C53.0028 53.4785 52.9709 53.4145 52.9815 53.3505L52.9922 53.3292C53.312 52.2204 53.9624 51.9219 54.4528 51.8686C55.7108 51.7406 56.1373 52.988 56.1479 53.0094C56.1693 53.0733 56.1373 53.1373 56.0733 53.1586C56.0093 53.1799 55.9454 53.1479 55.9241 53.084C55.9134 53.0413 55.5509 51.9965 54.4848 52.1138C54.069 52.1564 53.5039 52.4123 53.2267 53.4038L53.2161 53.4251C53.1947 53.4678 53.1414 53.4998 53.0881 53.4998Z" fill="#002264"/>
<path d="M58.5788 61.5754C58.5788 61.5754 56.1374 62.0552 54.165 60.7545C52.2033 59.4432 51.7129 58.5156 51.7129 58.5156C51.7129 58.5156 54.4422 63.0254 58.5468 62.471L58.5788 61.5754Z" fill="#DB837B"/>
<path d="M48.3648 53.6672C48.3648 53.6672 49.399 54.3282 50.5718 53.5819C51.2861 53.1234 51.8405 52.4731 52.2776 51.7481C53.0559 50.4581 53.7489 49.1147 54.6764 47.9313C55.6039 46.7479 56.8193 45.7244 58.28 45.3619C59.4314 45.0741 60.7534 45.2873 61.6809 46.0016C61.9368 46.9718 62.2033 47.942 62.4592 48.9122C62.6618 49.6798 63.2695 51.1298 63.7706 51.7375C64.2823 52.3452 65.1139 52.7076 65.8282 52.3771C65.8282 52.3771 66.8197 42.6539 61.5743 42.4087C61.5743 42.4087 60.6788 41.1294 58.248 40.5003C55.0495 39.6688 48.2156 40.479 47.5333 46.492C47.0215 50.9912 48.3648 53.6672 48.3648 53.6672Z" fill="#002264"/>
<path d="M51.5636 62.3359C51.5636 62.3359 55.9028 66.3659 56.8516 66.27C57.8005 66.174 58.5895 62.9969 58.5895 62.9969C58.5895 62.9969 60.4125 63.4341 60.7964 63.9245C61.1695 64.4149 61.4894 68.8714 61.4894 68.8714C60.7217 69.575 57.6619 66.6858 57.1288 67.0483C56.5958 67.4108 54.3036 70.4919 53.8345 70.4066C53.8345 70.4066 49.9431 64.6708 50.1243 63.8392C50.1989 63.498 51.5636 62.3359 51.5636 62.3359Z" fill="#BD54AE"/>
<path d="M66.7354 72.9531C66.7354 72.9531 69.0809 75.0001 68.0147 80.704C66.9486 86.3971 69.7632 94.681 69.7632 94.681" stroke="#BD54AE" stroke-width="0.5" stroke-miterlimit="10"/>
<path opacity="0.38" d="M46.5634 81.3876L47.6402 76.4727C47.6402 76.4727 50.7427 84.7246 50.6148 87.7737C50.4868 90.8229 48.4505 97.2197 48.4505 97.2197L46.041 95.9404L48.2692 87.5712L46.5634 81.3876Z" fill="#BD54AE"/>
<path d="M71.8733 99.5446L60.8387 98.0733C59.3248 97.8707 58.2586 96.4741 58.4612 94.9602L59.9431 83.9256C60.1457 82.4117 61.5424 81.3456 63.0563 81.5481L74.0908 83.0301C75.6047 83.2326 76.6709 84.6293 76.4683 86.1432L74.9864 97.1777C74.7732 98.6917 73.3872 99.7471 71.8733 99.5446Z" fill="#7D5BCA"/>
<path d="M66.7242 90.8899C66.9481 90.6447 67.2572 90.3888 67.6624 90.1116C67.9716 89.909 68.2061 89.7171 68.3554 89.5572C68.5153 89.3973 68.6112 89.2054 68.6326 88.9708C68.6752 88.651 68.5793 88.3738 68.3447 88.1392C68.1102 87.9047 67.7797 87.7554 67.3425 87.7021C66.5216 87.5955 65.8606 87.7981 65.3595 88.3311L64.3467 87.4569C64.7305 87.0518 65.1996 86.7639 65.754 86.5933C66.3084 86.4227 66.9267 86.3801 67.6304 86.4761C68.4833 86.5933 69.1443 86.8705 69.6027 87.3076C70.0612 87.7448 70.2424 88.2885 70.1571 88.9388C70.1145 89.248 70.0292 89.5145 69.8906 89.7384C69.752 89.9623 69.6027 90.1436 69.4428 90.2928C69.2722 90.4421 69.059 90.602 68.7925 90.7833C68.4726 91.0071 68.2168 91.1991 68.0568 91.3803C67.8863 91.5615 67.7903 91.7854 67.7477 92.0626L66.2977 91.8707C66.3617 91.4656 66.5003 91.1351 66.7242 90.8899ZM66.0418 94.3655C65.8926 94.1736 65.8393 93.9497 65.8713 93.6938C65.9032 93.4379 66.0205 93.246 66.2124 93.0968C66.4043 92.9475 66.6389 92.8942 66.9054 92.9369C67.1613 92.9688 67.3745 93.0861 67.5238 93.278C67.673 93.4699 67.7263 93.6938 67.6944 93.939C67.6624 94.1949 67.5451 94.3868 67.3532 94.5361C67.1613 94.6853 66.9267 94.7386 66.6709 94.7066C66.4043 94.6747 66.1911 94.5574 66.0418 94.3655Z" fill="#FCFAFF"/>
<path d="M58.3863 89.8906C58.3863 89.8906 59.7723 91.7883 58.7808 93.0357C58.7808 93.0357 41.4987 92.46 39.7929 92.0655C38.087 91.671 36.9889 89.4428 38.119 88.2594C39.1105 87.1932 40.2833 86.3616 42.7461 86.4896C45.2195 86.5962 58.3863 89.8906 58.3863 89.8906Z" fill="#FFB7A9"/>
<path d="M64.3469 92.1475C64.4855 91.817 64.2616 91.4546 64.2616 91.4546C64.2616 91.4546 64.5068 91.6145 64.7414 91.156C64.9333 90.7829 64.5175 90.559 64.3469 90.495C64.4855 90.5377 64.8586 90.623 64.9866 90.2178C65.1572 89.7167 64.6028 89.5675 64.6028 89.5675C64.6241 89.4715 64.6454 89.3756 64.6454 89.3009C64.6774 88.7999 63.8458 88.576 62.705 88.1495C61.5749 87.7337 60.8819 88.4054 59.9757 89.3009C59.3041 89.962 58.7603 89.962 58.5045 89.9193L58.3659 89.8873C57.3957 91.4652 58.7603 93.0324 58.7603 93.0324C58.7603 93.0324 59.496 92.9578 59.9118 92.9685C60.3276 92.9791 60.7434 93.3203 62.0867 93.5015C63.43 93.6721 63.7605 93.1604 63.8991 92.8938C64.0377 92.6166 63.8778 92.3608 63.8778 92.3608C63.8778 92.3608 64.219 92.4674 64.3469 92.1475Z" fill="#FFB7A9"/>
<path d="M176.77 110.566L174.702 112.635L177.559 117.017C176.728 118.125 176.056 119.309 175.523 120.545L170.299 120.258L169.542 123.083L174.212 125.45C174.052 126.804 174.052 128.168 174.212 129.522L169.542 131.889L170.299 134.714L175.523 134.427C176.056 135.663 176.738 136.847 177.559 137.955L174.702 142.337L176.77 144.406L181.152 141.548C182.261 142.38 183.444 143.052 184.681 143.585L184.393 148.809L187.219 149.566L189.585 144.896C190.939 145.056 192.304 145.056 193.658 144.896L196.025 149.566L198.85 148.809L198.562 143.585C199.799 143.052 200.982 142.369 202.091 141.548L206.473 144.406L208.541 142.337L205.684 137.955C206.516 136.847 207.187 135.663 207.72 134.427L212.945 134.714L213.701 131.889L209.032 129.522C209.192 128.168 209.192 126.804 209.032 125.45L213.701 123.083L212.945 120.258L207.72 120.545C207.187 119.309 206.505 118.125 205.684 117.017L208.541 112.635L206.473 110.566L202.091 113.424C200.982 112.592 199.799 111.92 198.562 111.387L198.85 106.163L196.025 105.406L193.658 110.076C192.304 109.916 190.939 109.916 189.585 110.076L187.219 105.406L184.393 106.163L184.681 111.387C183.444 111.92 182.261 112.603 181.152 113.424L176.77 110.566ZM182.592 118.456C187.581 113.466 195.673 113.466 200.663 118.456C205.652 123.445 205.652 131.537 200.663 136.527C195.673 141.516 187.581 141.516 182.592 136.527C177.602 131.527 177.602 123.445 182.592 118.456Z" fill="url(#paint1_linear_2609_42662)"/>
<path d="M183.871 168.368H94.6562C89.3149 168.368 84.9863 164.04 84.9863 158.698V24.6738C84.9863 19.3324 89.3149 15.0039 94.6562 15.0039H183.871C189.212 15.0039 193.541 19.3324 193.541 24.6738V158.698C193.53 164.04 189.201 168.368 183.871 168.368Z" fill="#22008C"/>
<path opacity="0.2" d="M92.748 157.137L185.779 162.073V157.137H92.748Z" fill="#002264"/>
<path d="M185.779 22.582H92.748V157.15H185.779V22.582Z" fill="#FCFAFF"/>
<g opacity="0.3">
<path opacity="0.3" d="M106.949 47.9143V36.4C106.949 35.5258 107.664 34.8008 108.548 34.8008H120.063C120.937 34.8008 121.662 35.5151 121.662 36.4V47.9143C121.662 48.7885 120.948 49.5135 120.063 49.5135H108.548C107.674 49.5135 106.949 48.7992 106.949 47.9143ZM108.548 36.0695C108.367 36.0695 108.207 36.2187 108.207 36.4107V47.925C108.207 48.1062 108.357 48.2661 108.548 48.2661H120.063C120.244 48.2661 120.404 48.1169 120.404 47.925V36.4107C120.404 36.2294 120.255 36.0695 120.063 36.0695H108.548V36.0695Z" fill="#002264"/>
</g>
<path d="M119.87 50.4929H108.74C107.215 50.4929 105.979 49.2562 105.979 47.7316V36.6011C105.979 35.0766 107.215 33.8398 108.74 33.8398H119.87C121.395 33.8398 122.632 35.0766 122.632 36.6011V47.7316C122.632 49.2562 121.395 50.4929 119.87 50.4929Z" fill="#BD54AE"/>
<path d="M118.998 39.7424L117.878 38.3984L113.385 42.9993L111.21 40.3851L109.998 41.6251L113.303 45.5984L118.998 39.7424Z" fill="white"/>
<path d="M119.87 74.8133H108.74C107.215 74.8133 105.979 73.5765 105.979 72.0519V60.9215C105.979 59.3969 107.215 58.1602 108.74 58.1602H119.87C121.395 58.1602 122.632 59.3969 122.632 60.9215V72.0519C122.632 73.5659 121.395 74.8133 119.87 74.8133Z" fill="#BD54AE"/>
<path d="M118.998 63.7424L117.878 62.3984L113.385 66.9993L111.21 64.3851L109.998 65.6251L113.303 69.5984L118.998 63.7424Z" fill="white"/>
<path d="M119.87 98.8875H108.74C107.215 98.8875 105.979 97.6508 105.979 96.1262V84.9957C105.979 83.4711 107.215 82.2344 108.74 82.2344H119.87C121.395 82.2344 122.632 83.4711 122.632 84.9957V96.1262C122.632 97.6508 121.395 98.8875 119.87 98.8875Z" fill="#BD54AE"/>
<path d="M118.998 87.7424L117.878 86.3984L113.385 90.9993L111.21 88.3851L109.998 89.6251L113.303 93.5984L118.998 87.7424Z" fill="white"/>
<path d="M119.87 123.184H108.74C107.215 123.184 105.979 121.948 105.979 120.423V109.293C105.979 107.768 107.215 106.531 108.74 106.531H119.87C121.395 106.531 122.632 107.768 122.632 109.293V120.423C122.632 121.948 121.395 123.184 119.87 123.184Z" fill="#BD54AE"/>
<path d="M118.998 112.742L117.878 111.398L113.385 115.999L111.21 113.385L109.998 114.625L113.303 118.598L118.998 112.742Z" fill="white"/>
<path d="M119.87 147.192H108.74C107.215 147.192 105.979 145.955 105.979 144.431V133.3C105.979 131.776 107.215 130.539 108.74 130.539H119.87C121.395 130.539 122.632 131.776 122.632 133.3V144.431C122.632 145.955 121.395 147.192 119.87 147.192Z" fill="#BD54AE"/>
<path d="M118.999 136.742L117.879 135.398L113.386 139.999L111.211 137.385L109.999 138.625L113.304 142.598L118.999 136.742Z" fill="white"/>
<path opacity="0.3" d="M128.709 66.4726H170.416C171.056 66.4726 171.578 65.9502 171.578 65.3105C171.578 64.6708 171.056 64.1484 170.416 64.1484H128.709C128.069 64.1484 127.547 64.6708 127.547 65.3105C127.547 65.9502 128.069 66.4726 128.709 66.4726Z" fill="#002264"/>
<path opacity="0.3" d="M128.709 70.5117H170.416C171.056 70.5117 171.578 69.9893 171.578 69.3496C171.578 68.7099 171.056 68.1875 170.416 68.1875H128.709C128.069 68.1875 127.547 68.7099 127.547 69.3496C127.547 69.9893 128.069 70.5117 128.709 70.5117Z" fill="#002264"/>
<path opacity="0.3" d="M128.709 42.3242H170.416C171.056 42.3242 171.578 41.8018 171.578 41.1621C171.578 40.5224 171.056 40 170.416 40H128.709C128.069 40 127.547 40.5224 127.547 41.1621C127.547 41.8018 128.069 42.3242 128.709 42.3242Z" fill="#002264"/>
<path opacity="0.3" d="M128.709 46.3632H170.416C171.056 46.3632 171.578 45.8408 171.578 45.2012C171.578 44.5615 171.056 44.0391 170.416 44.0391H128.709C128.069 44.0391 127.547 44.5615 127.547 45.2012C127.547 45.8408 128.069 46.3632 128.709 46.3632Z" fill="#002264"/>
<path opacity="0.3" d="M129.161 114.324H170.868C171.508 114.324 172.031 113.802 172.031 113.162C172.031 112.522 171.508 112 170.868 112H129.161C128.521 112 127.999 112.522 127.999 113.162C127.999 113.802 128.521 114.324 129.161 114.324Z" fill="#002264"/>
<path opacity="0.3" d="M129.161 118.363H170.868C171.508 118.363 172.031 117.841 172.031 117.201C172.031 116.561 171.508 116.039 170.868 116.039H129.161C128.521 116.039 127.999 116.561 127.999 117.201C127.999 117.841 128.521 118.363 129.161 118.363Z" fill="#002264"/>
<path opacity="0.3" d="M128.709 138.324H170.416C171.056 138.324 171.578 137.802 171.578 137.162C171.578 136.522 171.056 136 170.416 136H128.709C128.069 136 127.547 136.522 127.547 137.162C127.547 137.802 128.069 138.324 128.709 138.324Z" fill="#002264"/>
<path opacity="0.3" d="M128.709 142.363H170.416C171.056 142.363 171.578 141.841 171.578 141.201C171.578 140.561 171.056 140.039 170.416 140.039H128.709C128.069 140.039 127.547 140.561 127.547 141.201C127.547 141.841 128.069 142.363 128.709 142.363Z" fill="#002264"/>
<path opacity="0.3" d="M128.709 90.7968H170.416C171.056 90.7968 171.578 90.2744 171.578 89.6348C171.578 88.9951 171.056 88.4727 170.416 88.4727H128.709C128.069 88.4727 127.547 88.9951 127.547 89.6348C127.547 90.2744 128.069 90.7968 128.709 90.7968Z" fill="#002264"/>
<path opacity="0.3" d="M128.709 94.8359H170.416C171.056 94.8359 171.578 94.3135 171.578 93.6738C171.578 93.0341 171.056 92.5117 170.416 92.5117H128.709C128.069 92.5117 127.547 93.0341 127.547 93.6738C127.547 94.3135 128.069 94.8359 128.709 94.8359Z" fill="#002264"/>
<path opacity="0.1" d="M160.17 22.3281V26.1875C160.17 27.8294 158.837 29.1621 157.196 29.1621H118.324C116.682 29.1621 115.35 27.8294 115.35 26.1875V22.3281H160.17Z" fill="#FFEC99"/>
<path d="M155.437 13.7958H145.202C146.129 12.3885 146.673 10.704 146.673 8.90226C146.673 3.98736 142.685 0 137.76 0C132.845 0 128.858 3.98736 128.858 8.90226C128.858 10.7147 129.401 12.3885 130.318 13.7958H120.083C118.676 13.7958 117.546 14.9366 117.546 16.3333V23.8069C117.546 25.2142 118.687 26.3443 120.083 26.3443H155.426C156.833 26.3443 157.963 25.2035 157.963 23.8069V16.3333C157.974 14.926 156.833 13.7958 155.437 13.7958ZM137.76 5.08549C139.86 5.08549 141.566 6.79131 141.566 8.8916C141.566 10.9919 139.86 12.6977 137.76 12.6977C135.66 12.6977 133.954 10.9919 133.954 8.8916C133.954 6.79131 135.66 5.08549 137.76 5.08549Z" fill="#FFD740"/>
<path opacity="0.5" d="M157.973 19.6484V23.7957C157.973 25.203 156.832 26.3331 155.436 26.3331H120.093C118.686 26.3331 117.556 25.1924 117.556 23.7957V19.6484H157.973Z" fill="#FFC401"/>
<path d="M31.9558 140.248C34.9646 140.248 37.4038 137.808 37.4038 134.8C37.4038 131.791 34.9646 129.352 31.9558 129.352C28.947 129.352 26.5078 131.791 26.5078 134.8C26.5078 137.808 28.947 140.248 31.9558 140.248Z" fill="#2F00A7"/>
<path d="M205.129 55.566H207.944V58.3913C207.944 58.999 208.434 59.4894 209.042 59.4894C209.65 59.4894 210.14 58.999 210.14 58.3913V55.566H212.955C213.563 55.566 214.053 55.0862 214.053 54.4785C214.053 53.8708 213.563 53.3698 212.955 53.3698H210.14V50.5552C210.14 49.9475 209.65 49.457 209.042 49.457C208.434 49.457 207.944 49.9581 207.944 50.5552V53.3698H205.129C204.522 53.3698 204.031 53.8708 204.031 54.4785C204.031 55.0862 204.522 55.566 205.129 55.566Z" fill="#FFC401"/>
<defs>
<linearGradient id="paint0_linear_2609_42662" x1="89.3602" y1="45.4677" x2="46.9664" y2="3.07385" gradientUnits="userSpaceOnUse">
<stop stop-color="white"/>
<stop offset="1" stop-color="#DFE2F3"/>
</linearGradient>
<linearGradient id="paint1_linear_2609_42662" x1="135.511" y1="127.484" x2="219.799" y2="127.484" gradientUnits="userSpaceOnUse">
<stop stop-color="white"/>
<stop offset="1" stop-color="#EBEEF7"/>
</linearGradient>
</defs>
</svg>
