<svg width="240" height="180" viewBox="0 0 240 180" fill="none" xmlns="http://www.w3.org/2000/svg">
<path d="M65.2133 171.426C24.8833 171.426 -13.6267 106.696 17.1433 71.0965C41.0033 43.4865 72.8233 83.6765 102.493 63.4265C148.143 32.2665 222.103 26.6065 231.893 65.8765C241.683 105.147 209.253 166.517 185.083 170.197C160.923 173.887 65.2133 171.426 65.2133 171.426Z" fill="#CFD3FF"/>
<path d="M195.893 170.794H45.623C45.623 129.304 79.2631 95.6641 120.753 95.6641C162.243 95.6641 195.893 129.304 195.893 170.794Z" fill="#7D5BCA"/>
<path d="M113.714 147.465L94.5637 144.805C94.5637 144.805 92.5337 147.655 92.2537 151.415C92.1537 152.725 92.7137 160.385 93.5037 169.805H117.464C116.614 162.775 115.414 155.275 113.714 147.465Z" fill="#FED9B7"/>
<path d="M99.8134 169.795C100.323 163.315 100.583 156.415 100.443 149.225L80.3134 145.065L73.3434 143.625C73.3434 143.625 71.0734 146.275 70.4434 149.995C70.2234 151.295 69.2234 159.555 68.5234 169.805H93.4834H99.8134V169.795Z" fill="#FED9B7"/>
<path d="M129.113 123.786C120.353 128.606 109.153 108.786 105.923 99.5858C102.643 90.2458 100.943 81.9258 100.943 81.9258C100.943 81.9258 106.103 84.1558 109.433 86.8858C112.273 89.2058 118.333 93.2358 124.703 106.326C127.393 111.866 133.343 121.456 129.113 123.786Z" fill="#3D00C3"/>
<path d="M95.8437 77.7267L81.5237 71.8867L81.2637 75.9867C81.2537 75.9867 100.164 92.1667 95.8437 77.7267Z" fill="#7D5BCA"/>
<path d="M79.5635 64.8049C79.5635 64.8049 74.5935 57.1249 74.5035 50.7449C74.4135 44.3649 78.3135 43.6749 80.3235 43.4949C82.3335 43.3249 79.1235 51.1249 79.1235 51.1249C79.1235 51.1249 78.0435 56.7149 78.1835 58.8749C78.3035 61.0249 79.5635 64.8049 79.5635 64.8049Z" fill="#002264"/>
<path d="M91.5734 85.8627C88.5534 85.3827 81.7734 76.3127 81.7734 76.3127L81.9634 68.6627L82.0034 67.2127L82.0434 65.4727L88.5434 67.8127H88.5534L94.8734 70.0927L94.8834 72.4627L94.9034 79.9327C101.363 82.2327 94.5934 86.3527 91.5734 85.8627Z" fill="#FFB7A9"/>
<path d="M94.8948 72.4628C94.0748 73.4228 92.7348 74.0928 90.5448 73.7828C86.0448 73.1228 83.0448 69.9928 81.9648 68.6728L82.0048 67.2128L82.0448 67.1328L88.5448 67.8128H88.5548L94.8748 70.0928L94.8948 72.4628Z" fill="#DB837B"/>
<path d="M103.454 47.5216C103.454 47.5216 106.254 67.1816 96.5144 71.3316C92.1144 73.2016 88.4844 72.5916 85.8144 71.3416C82.5744 69.8316 80.3444 67.1516 79.5644 64.8016C78.5744 61.8316 77.8844 56.8516 79.1144 51.1216C80.9344 42.6416 85.7744 41.0816 90.0144 41.4416C94.2544 41.7916 102.414 40.5316 103.454 47.5216Z" fill="#FFB7A9"/>
<path d="M78.874 54.3839C78.874 54.3839 77.044 52.9239 75.474 54.1739C73.904 55.4239 73.154 59.2239 76.574 62.0239C77.634 62.8939 79.274 62.0739 79.274 62.0739L78.874 54.3839Z" fill="#FFB7A9"/>
<path d="M91.3844 50.6721C91.4644 50.4021 91.2944 50.1221 90.9944 50.0121C90.5544 49.8421 89.6645 49.3421 88.2245 49.1821C86.0645 48.9421 83.9044 50.2321 84.9244 50.2821C85.4844 50.3021 86.8644 50.2721 88.0944 50.5321C89.1044 50.7521 89.9944 51.2621 90.2844 51.4021C90.7144 51.6121 91.2444 51.1421 91.3844 50.6721Z" fill="#002264"/>
<path d="M97.4334 52.1142C97.3834 51.8342 97.5834 51.5742 97.8834 51.4942C98.3334 51.3742 99.2734 50.9542 100.723 50.9342C102.893 50.9042 104.413 51.9942 103.703 52.1442C103.163 52.2642 101.973 52.1342 100.733 52.2842C99.7034 52.4042 98.7734 52.8342 98.4734 52.9342C98.0034 53.1142 97.5234 52.5942 97.4334 52.1142Z" fill="#002264"/>
<path d="M94.0731 62.0227C94.0831 62.0227 94.0831 62.0227 94.0731 62.0227C94.2431 62.0327 94.8231 62.0327 95.3031 61.5927C95.3631 61.5327 95.9331 60.9827 95.8131 60.1627C95.6831 59.2527 94.8431 58.8927 94.8131 58.8827C94.7431 58.8527 94.6631 58.8827 94.6331 58.9527C94.6031 59.0227 94.6331 59.1027 94.7031 59.1327C94.7131 59.1327 95.4331 59.4427 95.5431 60.2027C95.6431 60.9027 95.1331 61.3727 95.1131 61.3927C94.7131 61.7527 94.2331 61.7627 94.0931 61.7527C94.0231 61.7527 93.9531 61.8027 93.9531 61.8827C93.9531 61.9527 94.0031 62.0127 94.0731 62.0227Z" fill="#DB837B"/>
<path d="M85.5538 56.7928C85.6738 57.0428 86.9038 57.4628 88.5638 57.4628C90.2238 57.4628 91.4038 57.1828 91.5738 56.7928C91.7638 56.3728 90.5238 53.8828 88.5638 53.8828C86.5338 53.8828 85.4338 56.5628 85.5538 56.7928Z" fill="white"/>
<path d="M88.0436 56.0416C88.3836 56.0416 88.6536 55.7716 88.6536 55.4316C88.6536 55.0916 88.3836 54.8216 88.0436 54.8216C88.0036 54.8216 87.9736 54.8416 87.9336 54.8416C88.2436 54.5416 88.6536 54.3516 89.1236 54.3516C90.0536 54.3516 90.8136 55.1116 90.8136 56.0416C90.8136 56.9716 90.0536 57.7316 89.1236 57.7316C88.1936 57.7316 87.4336 56.9716 87.4336 56.0416C87.4336 55.9116 87.4536 55.7816 87.4836 55.6616C87.5636 55.8816 87.7836 56.0416 88.0436 56.0416Z" fill="#040605"/>
<path d="M102.965 57.0233C102.845 57.2733 101.615 57.6933 99.9549 57.6933C98.2949 57.6933 97.1149 57.4133 96.9449 57.0233C96.7549 56.6033 97.9949 54.1133 99.9549 54.1133C101.975 54.1133 103.085 56.7933 102.965 57.0233Z" fill="white"/>
<path d="M99.4245 56.2642C99.7645 56.2642 100.034 55.9942 100.034 55.6542C100.034 55.3142 99.7645 55.0442 99.4245 55.0442C99.3845 55.0442 99.3545 55.0642 99.3145 55.0642C99.6245 54.7642 100.034 54.5742 100.504 54.5742C101.434 54.5742 102.194 55.3342 102.194 56.2642C102.194 57.1942 101.434 57.9542 100.504 57.9542C99.5745 57.9542 98.8145 57.1942 98.8145 56.2642C98.8145 56.1342 98.8345 56.0042 98.8645 55.8842C98.9545 56.1142 99.1745 56.2642 99.4245 56.2642Z" fill="#040605"/>
<path d="M87.7031 62.9922C87.7031 62.9922 92.8731 65.0522 96.9131 64.1622C96.9131 64.1622 94.8831 69.4522 91.2331 68.7122C88.5631 68.1822 87.7031 62.9922 87.7031 62.9922Z" fill="#BA3917"/>
<path d="M92.7242 69.6338C92.7242 69.6338 91.1542 70.2437 89.0742 68.5938C89.0742 68.5938 89.8742 70.4738 91.3142 70.3338C91.8842 70.2938 92.7242 69.6338 92.7242 69.6338Z" fill="#DB837B"/>
<path d="M79.5245 59.6233C79.5245 59.6233 77.3945 52.9633 77.3945 49.8933C77.3845 44.5533 81.6646 42.3633 81.6646 42.3633C81.6646 42.3633 83.4946 42.4233 83.2946 45.1833C82.9146 50.1733 79.4545 52.2833 79.5245 59.6233Z" fill="#002264"/>
<path d="M78.9034 43.1035C78.9034 43.1035 76.4634 41.7335 78.6634 38.0935C78.6634 38.0935 77.8133 42.1935 79.7733 41.8435C79.7733 41.8435 80.3934 36.4935 88.2334 35.8935C96.0834 35.2835 101.493 42.2135 106.513 41.8935C106.513 41.8935 106.243 43.2835 105.393 43.6035C105.393 43.6035 106.253 43.9035 107.283 43.6035C107.283 43.6035 106.223 46.6435 103.593 47.4635C98.3533 49.1035 86.4433 47.8235 83.3133 46.1535L78.9034 43.1035Z" fill="#002264"/>
<path d="M113.715 147.466C113.715 147.466 95.5149 153.276 79.0749 149.446C77.2849 149.026 75.5249 148.496 73.8049 147.836C73.0549 147.546 72.3049 147.236 71.5749 146.886C71.5749 146.886 68.9449 118.276 65.3749 107.746C63.7149 102.876 61.9249 96.3461 61.5349 90.1661C61.0849 82.9961 62.5449 76.2961 68.3549 73.2061C68.3549 73.2061 71.3749 71.6561 73.0449 71.9161C74.7149 72.1761 80.3349 74.1161 80.3349 74.1161C80.3349 74.1161 90.8949 83.2661 94.5049 83.1561C94.5049 83.1561 96.1649 83.1761 95.8449 80.1261C95.8449 80.1261 105.975 82.9361 108.435 87.0261C111.855 92.7261 114.715 129.596 113.715 147.466Z" fill="#3D00C3"/>
<path d="M93.6738 83.9863L97.1538 87.0962L94.7338 83.1963L94.5138 83.1562H94.1838L93.6738 83.9863Z" fill="#22008C"/>
<path d="M81.5245 71.8867L79.1445 73.7167C79.1445 73.7167 80.6645 77.5967 83.4445 80.7967C86.1745 83.9367 91.3145 87.7967 91.3145 87.7967L94.5145 83.1567C94.5145 83.1567 91.3645 82.1067 87.7345 79.2767C84.3745 76.6667 82.1545 73.7267 81.5245 71.8867Z" fill="#F9F5FE"/>
<path d="M94.5137 83.1548L97.1537 87.0848C97.1537 87.0848 98.3137 83.2548 98.0137 80.8048L95.8437 77.7148C95.8437 77.7248 96.1737 82.8648 94.5137 83.1548Z" fill="#F9F5FE"/>
<path d="M53.7548 8.4153C53.7548 8.4153 53.1548 7.6953 52.2448 7.8853C51.3348 8.0653 49.5848 8.5653 48.9248 12.5653C48.2648 16.5653 49.1348 18.1353 48.8048 19.3353C48.4748 20.5353 47.3848 22.4753 47.3848 22.4753C47.3848 22.4753 50.7448 27.7353 56.1348 26.3153L56.1448 25.8853C56.2348 25.1453 56.7248 23.5653 59.2048 22.2153C62.5748 20.3853 65.1148 19.0053 64.8848 15.4053C64.6548 11.7953 64.7048 9.2153 63.2448 8.8753C63.0348 8.8253 62.7548 8.7953 62.4448 8.7753C62.4448 8.7753 62.4848 7.0553 60.8848 7.1053C59.6048 7.1453 59.5148 8.2653 59.5248 8.7153C59.4748 8.1953 59.2048 6.7953 57.9548 7.0253C56.4248 7.3053 56.6948 8.1453 56.6948 8.1453C56.6948 8.1453 55.8348 7.2053 54.7748 7.3053C53.7148 7.4153 53.7548 8.4153 53.7548 8.4153Z" fill="#FFB7A9"/>
<path d="M54.6152 16.0165L54.8552 16.2365C56.9152 13.9865 60.1152 14.8465 60.1452 14.8565L60.3552 14.9165L60.3452 14.6965C60.3052 13.3665 60.7852 12.4565 60.7952 12.4565L60.9252 12.2165H60.6552C59.5752 12.2365 58.7752 11.9865 58.3052 11.4765C57.7852 10.9265 57.7352 10.1565 57.7752 9.61651C57.8152 9.10651 60.2252 8.85651 62.4352 8.92651L62.4452 8.60651C62.4352 8.60651 61.2352 8.56651 60.0452 8.65651C57.7752 8.81651 57.4752 9.26651 57.4552 9.58651C57.4052 10.1965 57.4752 11.0565 58.0652 11.6865C58.5652 12.2265 59.3552 12.5065 60.4052 12.5265C60.2652 12.8665 60.0352 13.5665 60.0252 14.4965C59.2552 14.3465 56.5052 13.9665 54.6152 16.0165Z" fill="#DB837B"/>
<path d="M56.4338 13.3044C56.4638 13.6444 56.7138 14.1644 57.5038 14.2544C59.0638 14.4244 59.6538 12.4044 59.6838 12.3244L59.3738 12.2344C59.3638 12.2544 58.8338 14.0744 57.5438 13.9344C56.7638 13.8444 56.7538 13.2744 56.7638 13.2144L56.4238 13.2044C56.4238 13.2344 56.4238 13.2744 56.4338 13.3044Z" fill="#DB837B"/>
<path d="M53.8557 13.0467C53.8757 13.2267 53.9457 13.5867 54.2457 13.8767C54.5657 14.1767 55.0357 14.2967 55.6457 14.2467C55.9857 14.2167 56.2657 14.0567 56.4857 13.7667C57.5557 12.3667 56.8757 8.30672 56.8457 8.13672L56.5357 8.18672C56.5457 8.22672 57.2257 12.2767 56.2357 13.5667C56.0657 13.7867 55.8657 13.9067 55.6157 13.9267C55.1057 13.9767 54.7157 13.8767 54.4657 13.6467C54.1657 13.3667 54.1657 12.9567 54.1657 12.9567L53.8457 12.9467C53.8557 12.9467 53.8557 12.9867 53.8557 13.0467Z" fill="#DB837B"/>
<path d="M51.4649 11.1037C51.5449 11.9437 51.8149 12.9138 52.3749 13.3238C52.6349 13.5138 53.0749 13.6738 53.6949 13.3438C55.5449 12.3737 53.9649 8.51375 53.8949 8.34375L53.6049 8.47375C53.6249 8.51375 55.1449 12.2237 53.5449 13.0637C53.1549 13.2637 52.8349 13.2737 52.5549 13.0637C51.8449 12.5437 51.6549 10.8437 51.7849 10.0937L51.4749 10.0337C51.4349 10.3037 51.4249 10.6837 51.4649 11.1037Z" fill="#DB837B"/>
<path d="M76.934 83.7249C72.814 90.2149 68.064 91.7949 65.094 92.0749C63.334 92.2449 62.194 91.9449 62.194 91.9449C49.404 80.0849 40.244 62.3749 37.164 54.6649C37.164 54.6549 37.164 54.6549 37.164 54.6549C36.554 53.1249 36.184 51.9849 36.064 51.3749C35.394 47.6549 47.484 20.4049 47.484 20.4049C51.844 19.9549 57.684 25.5049 57.684 25.5049C55.154 29.2949 52.364 50.9349 52.364 50.9349C52.364 50.9349 54.824 56.1049 61.824 64.2549C67.524 70.8949 70.404 71.2749 71.664 71.5549C71.954 71.6149 73.204 71.9549 73.204 71.9549C73.204 71.9549 81.914 75.8649 76.934 83.7249Z" fill="#3D00C3"/>
<path d="M65.0941 92.0763C63.3341 92.2463 62.1941 91.9463 62.1941 91.9463C49.4041 80.0863 40.2441 62.3763 37.1641 54.6663C37.1641 54.6563 37.1641 54.6563 37.1641 54.6563C37.2041 53.2163 37.6741 52.1563 39.1641 52.7063C42.7341 54.0363 44.9241 70.3163 59.9141 84.3163C64.4341 88.5363 65.6341 90.8763 65.0941 92.0763Z" fill="#22008C"/>
<path d="M79.0849 149.446C77.2949 149.026 75.5349 148.496 73.8149 147.836C73.0649 147.546 72.3149 147.236 71.5849 146.886C71.5849 146.886 68.9549 118.276 65.3849 107.746C63.7249 102.876 61.9349 96.3458 61.5449 90.1658C62.7049 90.5758 64.2149 89.0358 64.6749 89.7658C64.6749 89.7658 73.3849 104.666 74.5049 108.706C80.8149 131.566 80.8249 145.766 79.0849 149.446Z" fill="#22008C"/>
<path d="M56.7441 86.3242C56.7441 86.3242 61.2041 92.4242 63.7541 102.474C66.3041 112.524 63.7541 92.1242 63.7541 92.1242L62.3841 89.5642L56.7441 86.3242Z" fill="#22008C"/>
<path d="M121.253 75.2335C121.253 75.2335 120.383 74.8935 119.673 75.4935C118.963 76.0935 117.663 77.3735 119.003 81.1935C120.343 85.0235 121.863 85.9835 122.153 87.1935C122.443 88.4035 122.413 90.6335 122.413 90.6335C122.413 90.6335 127.883 93.6335 131.933 89.8035L131.743 89.4235C131.463 88.7335 131.133 87.1135 132.663 84.7335C134.733 81.5135 136.313 79.0835 134.383 76.0235C132.453 72.9735 131.253 70.6835 129.803 71.0835C129.593 71.1435 129.333 71.2435 129.053 71.3735C129.053 71.3735 128.263 69.8535 126.883 70.6635C125.783 71.3135 126.233 72.3335 126.463 72.7235C126.163 72.2935 125.263 71.1935 124.283 71.9935C123.073 72.9735 123.713 73.5835 123.713 73.5835C123.713 73.5835 122.503 73.1735 121.623 73.7735C120.743 74.3735 121.253 75.2335 121.253 75.2335Z" fill="#FFB7A9"/>
<path d="M132.715 89.8166C132.715 89.8166 134.325 108.177 132.735 116.407C131.645 122.047 130.255 123.537 128.115 124.367C126.375 125.037 124.195 123.687 122.005 119.817C118.495 113.587 121.515 89.7266 121.515 89.7266L132.715 89.8166Z" fill="#3D00C3"/>
<path d="M112.774 113.186L111.934 104.516C111.934 104.516 117.864 120.356 125.504 120.566C133.144 120.776 133.434 108.226 133.434 108.226C133.434 108.226 133.794 123.616 127.834 124.526C122.444 125.356 118.124 121.236 112.774 113.186Z" fill="#22008C"/>
<path d="M120.643 99.0352C120.643 99.0352 119.913 104.885 119.913 109.405C119.913 109.405 118.933 106.215 119.493 102.825C120.003 99.6952 120.643 99.0352 120.643 99.0352Z" fill="#22008C"/>
<path d="M98.604 150.336L97.584 150.516C98.504 155.696 98.684 163.816 98.674 169.796H99.714C99.724 163.766 99.534 155.586 98.604 150.336Z" fill="#EAB88F"/>
<path d="M102.323 150.074L101.293 150.134C101.863 159.294 101.443 165.584 100.783 169.794H101.853C102.503 165.514 102.893 159.194 102.323 150.074Z" fill="#EAB88F"/>
<path d="M38.3327 106.854C33.8627 107.994 32.3127 109.554 31.1727 114.014C30.9827 114.764 29.9027 114.764 29.7127 114.014C28.5727 109.544 27.0127 107.994 22.5527 106.854C21.8027 106.664 21.8027 105.584 22.5527 105.394C27.0227 104.254 28.5727 102.694 29.7127 98.2344C29.9027 97.4844 30.9827 97.4844 31.1727 98.2344C32.3127 102.704 33.8727 104.254 38.3327 105.394C39.0827 105.584 39.0827 106.664 38.3327 106.854Z" fill="#7D5BCA"/>
<path d="M157.823 82.8169C155.323 83.4569 154.453 84.3269 153.813 86.8269C153.703 87.2469 153.103 87.2469 152.993 86.8269C152.353 84.3269 151.483 83.4569 148.983 82.8169C148.563 82.7069 148.563 82.1069 148.983 81.9969C151.483 81.3569 152.353 80.4869 152.993 77.9869C153.103 77.5669 153.703 77.5669 153.813 77.9869C154.453 80.4869 155.323 81.3569 157.823 81.9969C158.243 82.1069 158.243 82.7069 157.823 82.8169Z" fill="#7D5BCA"/>
<path d="M128.884 36.4256C125.374 37.3256 124.154 38.5456 123.254 42.0556C123.104 42.6456 122.254 42.6456 122.104 42.0556C121.204 38.5456 119.984 37.3256 116.474 36.4256C115.884 36.2756 115.884 35.4256 116.474 35.2756C119.984 34.3756 121.204 33.1556 122.104 29.6456C122.254 29.0556 123.104 29.0556 123.254 29.6456C124.154 33.1556 125.374 34.3756 128.884 35.2756C129.474 35.4256 129.474 36.2756 128.884 36.4256Z" fill="#FFC401"/>
<path d="M227.224 88.2347C221.854 89.6047 219.974 91.4747 218.604 96.8547C218.374 97.7547 217.074 97.7547 216.844 96.8547C215.474 91.4847 213.604 89.6047 208.224 88.2347C207.324 88.0047 207.324 86.7047 208.224 86.4747C213.594 85.1047 215.474 83.2347 216.844 77.8547C217.074 76.9547 218.374 76.9547 218.604 77.8547C219.974 83.2247 221.844 85.1047 227.224 86.4747C228.124 86.7047 228.124 88.0047 227.224 88.2347Z" fill="#91268C"/>
<path d="M196.104 155.345H118.434L123.014 96.375H200.684L196.104 155.345Z" fill="#FFC401"/>
<path d="M171.314 165.236L166.664 132.176H153.414L158.064 165.236C158.064 165.236 158.914 170.086 154.904 170.676C154.904 170.676 164.244 170.676 167.594 170.676C170.944 170.676 171.944 167.956 171.314 165.236ZM159.374 139.126H163.054C163.764 139.126 164.354 139.646 164.454 140.346L166.744 156.666C166.864 157.516 166.204 158.276 165.344 158.276H161.664C160.954 158.276 160.364 157.756 160.264 157.056L157.974 140.736C157.854 139.886 158.514 139.126 159.374 139.126Z" fill="#3D00C3"/>
<path d="M223.053 167.117H18.4629V173.277H223.053V167.117Z" fill="#3D00C3"/>
<path d="M185.654 75.9555C199.35 75.9555 210.454 64.8521 210.454 51.1555C210.454 37.4588 199.35 26.3555 185.654 26.3555C171.957 26.3555 160.854 37.4588 160.854 51.1555C160.854 64.8521 171.957 75.9555 185.654 75.9555Z" fill="#49C190"/>
<path d="M206.263 42.9541L201.133 37.4141L180.563 56.4041L170.603 45.6141L165.053 50.7341L180.193 67.1341L206.263 42.9541Z" fill="white"/>
</svg>
