<svg width="240" height="180" viewBox="0 0 240 180" fill="none" xmlns="http://www.w3.org/2000/svg">
<path d="M121 163C161.317 163 194 130.317 194 90C194 49.6832 161.317 17 121 17C80.6832 17 48 49.6832 48 90C48 130.317 80.6832 163 121 163Z" fill="#CFD3FF"/>
<path d="M42.1991 62.4374C41.4262 62.4374 40.7852 61.7964 40.7852 61.0235V52.0116C40.7852 51.2387 41.4262 50.5977 42.1991 50.5977C42.9721 50.5977 43.6131 51.2387 43.6131 52.0116V61.0235C43.6131 61.8153 42.9721 62.4374 42.1991 62.4374Z" fill="#FFC401"/>
<path fill-rule="evenodd" clip-rule="evenodd" d="M42.1993 63.0355C41.0962 63.0355 40.1875 62.1268 40.1875 61.0236V52.0118C40.1875 50.9087 41.0962 50 42.1993 50C43.3025 50 44.2111 50.9087 44.2111 52.0118V61.0236C44.2111 62.1508 43.2973 63.0355 42.1993 63.0355ZM40.7853 61.0236C40.7853 61.7966 41.4263 62.4376 42.1993 62.4376C42.9723 62.4376 43.6133 61.8155 43.6133 61.0236V52.0118C43.6133 51.2388 42.9723 50.5978 42.1993 50.5978C41.4263 50.5978 40.7853 51.2388 40.7853 52.0118V61.0236Z" fill="#FFC401"/>
<path d="M42.1991 79.9577C41.4262 79.9577 40.7852 79.3167 40.7852 78.5437V69.5507C40.7852 68.7777 41.4262 68.1367 42.1991 68.1367C42.9721 68.1367 43.6131 68.7777 43.6131 69.5507V78.5625C43.6131 79.3355 42.9721 79.9577 42.1991 79.9577Z" fill="#FFC401"/>
<path fill-rule="evenodd" clip-rule="evenodd" d="M42.1993 80.5557C41.0962 80.5557 40.1875 79.647 40.1875 78.5438V69.5509C40.1875 68.4477 41.0962 67.5391 42.1993 67.5391C43.3025 67.5391 44.2111 68.4477 44.2111 69.5509V78.5627C44.2111 79.6762 43.292 80.5557 42.1993 80.5557ZM40.7853 78.5438C40.7853 79.3168 41.4263 79.9578 42.1993 79.9578C42.9723 79.9578 43.6133 79.3357 43.6133 78.5627V69.5509C43.6133 68.7779 42.9723 68.1369 42.1993 68.1369C41.4263 68.1369 40.7853 68.7779 40.7853 69.5509V78.5438Z" fill="#FFC401"/>
<path d="M54.9818 66.9608H45.9511C45.1781 66.9608 44.5371 66.3198 44.5371 65.5468C44.5371 64.7738 45.1781 64.1328 45.9511 64.1328H54.9818C55.7548 64.1328 56.3958 64.7738 56.3958 65.5468C56.3958 66.3198 55.7736 66.9608 54.9818 66.9608Z" fill="#FFC401"/>
<path fill-rule="evenodd" clip-rule="evenodd" d="M54.9819 67.5588H45.9513C44.8481 67.5588 43.9395 66.6501 43.9395 65.547C43.9395 64.4438 44.8481 63.5352 45.9513 63.5352H54.9819C56.0851 63.5352 56.9938 64.4438 56.9938 65.547C56.9938 66.6449 56.1091 67.5588 54.9819 67.5588ZM45.9513 66.961H54.9819C55.7738 66.961 56.3959 66.32 56.3959 65.547C56.3959 64.774 55.7549 64.133 54.9819 64.133H45.9513C45.1783 64.133 44.5373 64.774 44.5373 65.547C44.5373 66.32 45.1783 66.961 45.9513 66.961Z" fill="#FFC401"/>
<path d="M38.6361 66.9608H29.6054C28.8324 66.9608 28.1914 66.3198 28.1914 65.5468C28.1914 64.7738 28.8324 64.1328 29.6054 64.1328H38.6361C39.409 64.1328 40.0501 64.7738 40.0501 65.5468C40.0501 66.3198 39.4279 66.9608 38.6361 66.9608Z" fill="#FFC401"/>
<path fill-rule="evenodd" clip-rule="evenodd" d="M38.6362 67.5588H29.6056C28.5024 67.5588 27.5938 66.6501 27.5938 65.547C27.5938 64.4438 28.5024 63.5352 29.6056 63.5352H38.6362C39.7394 63.5352 40.6481 64.4438 40.6481 65.547C40.6481 66.6449 39.7634 67.5588 38.6362 67.5588ZM29.6056 66.961H38.6362C39.4281 66.961 40.0502 66.32 40.0502 65.547C40.0502 64.774 39.4092 64.133 38.6362 64.133H29.6056C28.8326 64.133 28.1916 64.774 28.1916 65.547C28.1916 66.32 28.8326 66.961 29.6056 66.961Z" fill="#FFC401"/>
<path opacity="0.46" d="M121 147C152.48 147 178 121.48 178 90C178 58.5198 152.48 33 121 33C89.5198 33 64 58.5198 64 90C64 121.48 89.5198 147 121 147Z" fill="white"/>
<path d="M167.237 89.8685C167.237 115.477 146.477 136.237 120.869 136.237C95.2599 136.237 74.5 115.477 74.5 89.8685C74.5 64.2599 95.2599 43.5 120.869 43.5C146.477 43.5 167.237 64.2599 167.237 89.8685Z" fill="#49C190" stroke="#30AA78" stroke-width="5"/>
<path d="M157.156 75.372L148.487 66.1602L113.703 97.697L96.8619 79.7777L87.4824 88.2775L113.068 115.513L157.156 75.372Z" fill="white"/>
<path d="M200.926 132.388C192.468 134.548 189.538 137.501 187.379 145.942C187.027 147.353 184.978 147.353 184.604 145.942C182.445 137.479 179.494 134.548 171.057 132.388C169.648 132.036 169.648 129.986 171.057 129.612C179.516 127.452 182.445 124.499 184.604 116.058C184.956 114.647 187.005 114.647 187.379 116.058C189.538 124.521 192.49 127.452 200.926 129.612C202.358 129.986 202.358 132.014 200.926 132.388Z" fill="#91268C"/>
<path fill-rule="evenodd" clip-rule="evenodd" d="M63.5 140.857C66.4587 140.857 68.8571 138.459 68.8571 135.5C68.8571 132.541 66.4587 130.143 63.5 130.143C60.5413 130.143 58.1429 132.541 58.1429 135.5C58.1429 138.459 60.5413 140.857 63.5 140.857ZM63.5 143C67.6421 143 71 139.642 71 135.5C71 131.358 67.6421 128 63.5 128C59.3579 128 56 131.358 56 135.5C56 139.642 59.3579 143 63.5 143Z" fill="#3D00C3"/>
</svg>
