<svg width="240" height="180" viewBox="0 0 240 180" fill="none" xmlns="http://www.w3.org/2000/svg">
<path d="M119.8 165.599C177.68 165.599 224.6 160.059 224.6 153.229C224.6 146.399 177.68 140.859 119.8 140.859C61.92 140.849 15 146.399 15 153.229C15 160.059 61.92 165.599 119.8 165.599Z" fill="#CFD3FF"/>
<path d="M200.469 21.9688H39.4395V107.179H200.469V21.9688Z" fill="#FDF2F8"/>
<path opacity="0.2" d="M200.459 27.7188H87.7188L172.619 107.179H200.459V27.7188Z" fill="white"/>
<path d="M145.039 148.158H94.5586L101.649 113.328H137.949L145.039 148.158Z" fill="#7D5BCA"/>
<path opacity="0.3" d="M141.239 129.228H98.3594L101.649 113.328H137.949L141.239 129.228Z" fill="#3D00C3"/>
<path d="M163.09 153.23H76.5195C76.5195 148.86 80.0495 145.32 84.3995 145.32H155.22C159.56 145.32 163.09 148.86 163.09 153.23Z" fill="#3D00C3"/>
<path d="M198.339 14H41.2695C37.6395 14 34.6895 16.95 34.6895 20.6V119.05C34.6895 122.69 37.6295 125.65 41.2695 125.65H198.339C201.979 125.65 204.919 122.7 204.919 119.05V20.6C204.919 16.95 201.969 14 198.339 14ZM200.309 107.18H39.2895V21.97H200.319V107.18H200.309Z" fill="#3D00C3"/>
<path d="M200.459 21.9688H39.2891V27.7088H200.459V21.9688Z" fill="#DBC8F9"/>
<path d="M119.809 120C121.779 120 123.389 118.39 123.389 116.41C123.389 114.43 121.789 112.82 119.809 112.82C117.829 112.82 116.229 114.43 116.229 116.41C116.229 118.39 117.829 120 119.809 120Z" fill="#F9F5FE"/>
<path d="M175.411 87.2005H100.081C99.0009 87.2005 98.1309 86.3305 98.1309 85.2505V37.1805C98.1309 36.1005 99.0009 35.2305 100.081 35.2305H175.411C176.491 35.2305 177.361 36.1005 177.361 37.1805V85.2505C177.361 86.3305 176.491 87.2005 175.411 87.2005Z" fill="#DBC8F9"/>
<path d="M177.361 40.8505H98.1309V37.1805C98.1309 36.1005 99.0009 35.2305 100.081 35.2305H175.411C176.491 35.2305 177.361 36.1005 177.361 37.1805V40.8505Z" fill="#7D5BCA"/>
<path d="M166.581 67.6372H108.911C108.301 67.6372 107.801 67.1372 107.801 66.5272V62.4772C107.801 61.8672 108.301 61.3672 108.911 61.3672H166.581C167.191 61.3672 167.691 61.8672 167.691 62.4772V66.5272C167.691 67.1472 167.191 67.6372 166.581 67.6372Z" fill="#3D00C3"/>
<path d="M166.581 55.8286H108.911C108.301 55.8286 107.801 55.3286 107.801 54.7186V50.6686C107.801 50.0586 108.301 49.5586 108.911 49.5586H166.581C167.191 49.5586 167.691 50.0586 167.691 50.6686V54.7186C167.691 55.3386 167.191 55.8286 166.581 55.8286Z" fill="#3D00C3"/>
<path d="M166.581 79.4575H108.911C108.301 79.4575 107.801 78.9575 107.801 78.3475V74.2975C107.801 73.6875 108.301 73.1875 108.911 73.1875H166.581C167.191 73.1875 167.691 73.6875 167.691 74.2975V78.3475C167.691 78.9575 167.191 79.4575 166.581 79.4575Z" fill="#3D00C3"/>
<path d="M135.271 36.7812H103.051C102.361 36.7812 101.791 37.3413 101.791 38.0413C101.791 38.7313 102.351 39.3012 103.051 39.3012H135.271C135.961 39.3012 136.531 38.7413 136.531 38.0413C136.531 37.3413 135.971 36.7812 135.271 36.7812Z" fill="#F9F5FE"/>
<path d="M132.899 97.8411H57.5691C56.4891 97.8411 55.6191 96.9711 55.6191 95.8911V47.8211C55.6191 46.7411 56.4891 45.8711 57.5691 45.8711H132.899C133.979 45.8711 134.849 46.7411 134.849 47.8211V95.8911C134.849 96.9711 133.979 97.8411 132.899 97.8411Z" fill="#DBC8F9"/>
<path d="M134.849 51.4911H55.6191V47.8211C55.6191 46.7411 56.4891 45.8711 57.5691 45.8711H132.899C133.979 45.8711 134.849 46.7411 134.849 47.8211V51.4911Z" fill="#7D5BCA"/>
<path d="M124.069 78.2895H66.3991C65.7891 78.2895 65.2891 77.7895 65.2891 77.1795V73.1295C65.2891 72.5195 65.7891 72.0195 66.3991 72.0195H124.069C124.679 72.0195 125.179 72.5195 125.179 73.1295V77.1795C125.179 77.7895 124.679 78.2895 124.069 78.2895Z" fill="#3D00C3"/>
<path d="M124.069 66.4809H66.3991C65.7891 66.4809 65.2891 65.9809 65.2891 65.3709V61.3209C65.2891 60.7109 65.7891 60.2109 66.3991 60.2109H124.069C124.679 60.2109 125.179 60.7109 125.179 61.3209V65.3709C125.179 65.9809 124.679 66.4809 124.069 66.4809Z" fill="#3D00C3"/>
<path d="M124.069 90.102H66.3991C65.7891 90.102 65.2891 89.602 65.2891 88.992V84.942C65.2891 84.332 65.7891 83.832 66.3991 83.832H124.069C124.679 83.832 125.179 84.332 125.179 84.942V88.992C125.179 89.602 124.679 90.102 124.069 90.102Z" fill="#3D00C3"/>
<path d="M92.7593 47.4219H60.5393C59.8493 47.4219 59.2793 47.9819 59.2793 48.6819C59.2793 49.3719 59.8393 49.9419 60.5393 49.9419H92.7593C93.4493 49.9419 94.0193 49.3819 94.0193 48.6819C94.0193 47.9919 93.4593 47.4219 92.7593 47.4219Z" fill="#F9F5FE"/>
<path d="M58.8591 38.7483C54.5091 39.8583 52.9891 41.3783 51.8791 45.7283C51.6891 46.4583 50.6391 46.4583 50.4591 45.7283C49.3491 41.3783 47.8291 39.8583 43.4791 38.7483C42.7491 38.5583 42.7491 37.5083 43.4791 37.3283C47.8291 36.2183 49.3491 34.6983 50.4591 30.3483C50.6491 29.6183 51.6991 29.6183 51.8791 30.3483C52.9891 34.6983 54.5091 36.2183 58.8591 37.3283C59.5891 37.5083 59.5891 38.5583 58.8591 38.7483Z" fill="#FFC401"/>
<path d="M28.0303 53.0481C25.8503 53.6081 25.1003 54.3581 24.5403 56.5381C24.4503 56.8981 23.9203 56.8981 23.8303 56.5381C23.2703 54.3581 22.5203 53.6081 20.3403 53.0481C19.9803 52.9581 19.9803 52.4281 20.3403 52.3381C22.5203 51.7781 23.2703 51.0281 23.8303 48.8481C23.9203 48.4881 24.4503 48.4881 24.5403 48.8481C25.1003 51.0281 25.8503 51.7781 28.0303 52.3381C28.3903 52.4381 28.3903 52.9581 28.0303 53.0481Z" fill="#FFC401"/>
<path d="M212.88 137.29C210.7 137.85 209.95 138.6 209.39 140.78C209.3 141.14 208.77 141.14 208.68 140.78C208.12 138.6 207.37 137.85 205.19 137.29C204.83 137.2 204.83 136.67 205.19 136.58C207.37 136.02 208.12 135.27 208.68 133.09C208.77 132.73 209.3 132.73 209.39 133.09C209.95 135.27 210.7 136.02 212.88 136.58C213.25 136.67 213.25 137.2 212.88 137.29Z" fill="#FFC401"/>
<path d="M170.06 101.971C181.591 101.971 190.94 92.6226 190.94 81.0909C190.94 69.5592 181.591 60.2109 170.06 60.2109C158.528 60.2109 149.18 69.5592 149.18 81.0909C149.18 92.6226 158.528 101.971 170.06 101.971Z" fill="#DC3545"/>
<path d="M180.629 70.5203C181.979 71.8703 181.979 74.0503 180.629 75.4003L164.379 91.6503C163.029 93.0003 160.849 93.0003 159.499 91.6503C158.149 90.3003 158.149 88.1203 159.499 86.7703L175.749 70.5203C177.099 69.1703 179.279 69.1703 180.629 70.5203Z" fill="white"/>
<path d="M164.379 70.5203L180.629 86.7703C181.979 88.1203 181.979 90.3003 180.629 91.6503C179.279 93.0003 177.099 93.0003 175.749 91.6503L159.499 75.4003C158.149 74.0503 158.149 71.8703 159.499 70.5203C160.849 69.1703 163.029 69.1703 164.379 70.5203Z" fill="white"/>
</svg>
