<svg width="240" height="180" viewBox="0 0 240 180" fill="none" xmlns="http://www.w3.org/2000/svg">
<path d="M15.7212 121.1C26.5165 151.819 76.5252 173.241 124.107 171.89C171.688 170.539 232.608 149.065 234.93 113.545C237.252 78.0248 180.964 77.7716 170.517 63.0929C160.07 48.4143 147.375 13.7385 64.3159 36.2577C24.9864 46.9158 2.50939 83.5016 15.7212 121.1Z" fill="#CFD3FF"/>
<path d="M38.7472 128.086C38.7472 126.197 36.1196 124.741 32.0779 123.865C34.3151 120.382 35.1487 117.501 33.8085 116.161C32.4684 114.821 29.5875 115.655 26.1052 117.892C25.2293 113.85 23.773 111.223 21.8841 111.223C19.9952 111.223 18.539 113.85 17.6631 117.892C14.1807 115.655 11.2999 114.821 9.95971 116.161C8.61954 117.501 9.45319 120.382 11.6903 123.865C7.62759 124.741 5 126.197 5 128.086C5 129.975 7.62759 131.431 11.6692 132.307C9.43208 135.789 8.59843 138.67 9.93861 140.01C11.2788 141.35 14.1596 140.517 17.642 138.279C18.5179 142.321 19.9741 144.949 21.863 144.949C23.7519 144.949 25.2082 142.321 26.0841 138.279C29.5664 140.517 32.4473 141.35 33.7874 140.01C35.1276 138.67 34.294 135.789 32.0568 132.307C36.1196 131.431 38.7472 129.985 38.7472 128.086Z" fill="#22008C"/>
<path d="M212.546 144.811C220.131 134.984 224.013 125.269 221.218 123.111C218.422 120.953 210.007 127.17 202.422 136.996C194.837 146.823 190.955 156.538 193.751 158.696C196.546 160.854 204.961 154.637 212.546 144.811Z" stroke="#22008C" stroke-width="1.2399" stroke-miterlimit="10"/>
<path d="M216.34 147.744C223.925 137.918 227.807 128.202 225.011 126.044C222.216 123.886 213.801 130.103 206.216 139.93C198.631 149.757 194.749 159.472 197.545 161.63C200.34 163.788 208.755 157.571 216.34 147.744Z" stroke="#22008C" stroke-width="1.2399" stroke-miterlimit="10"/>
<path d="M68.4662 19.6913C64.2453 20.7677 62.7721 22.2414 61.688 26.4722C61.5059 27.1759 60.4879 27.1759 60.3058 26.4722C59.2299 22.2497 57.7568 20.7759 53.5276 19.6913C52.8241 19.5092 52.8241 18.4908 53.5276 18.3087C57.7485 17.2323 59.2216 15.7586 60.3058 11.5278C60.4879 10.8241 61.5059 10.8241 61.688 11.5278C62.7639 15.7503 64.237 17.2241 68.4662 18.3087C69.1779 18.4908 69.1779 19.5175 68.4662 19.6913Z" fill="#FFC401"/>
<path d="M159.2 27.13C159.2 26.36 159.3 25.71 159.51 25.18C159.71 24.64 160.06 24.15 160.54 23.69C161.25 23 161.91 22.4 162.51 21.89C163.11 21.38 163.63 20.9 164.06 20.46C164.49 20.01 164.83 19.59 165.07 19.2C165.31 18.8 165.43 18.39 165.43 17.96C165.43 17.12 165.17 16.46 164.65 15.99C164.13 15.52 163.47 15.28 162.68 15.28C161.48 15.28 160.57 15.61 159.94 16.27C159.32 16.93 158.96 17.74 158.89 18.68L153 18.3C153.28 15.6 154.28 13.54 155.98 12.12C157.69 10.7 159.88 10 162.56 10C163.73 10 164.84 10.16 165.87 10.48C166.9 10.8 167.81 11.28 168.6 11.91C169.39 12.55 170.02 13.34 170.48 14.28C170.94 15.22 171.17 16.31 171.17 17.53C171.17 18.27 171.09 18.94 170.94 19.54C170.79 20.14 170.52 20.73 170.16 21.32C169.79 21.91 169.31 22.5 168.71 23.1C168.11 23.7 167.35 24.36 166.43 25.07C165.84 25.53 165.45 25.98 165.24 26.41C165.03 26.84 164.93 27.28 164.93 27.71V28.82H159.19V27.13H159.2ZM158.55 34.48C158.55 34 158.64 33.54 158.82 33.1C159 32.67 159.25 32.29 159.57 31.97C159.89 31.65 160.26 31.4 160.7 31.22C161.13 31.04 161.59 30.95 162.08 30.95C162.57 30.95 163.02 31.04 163.46 31.22C163.89 31.4 164.27 31.65 164.59 31.97C164.91 32.29 165.16 32.66 165.34 33.1C165.52 33.53 165.61 33.99 165.61 34.48C165.61 34.96 165.52 35.42 165.34 35.86C165.16 36.29 164.91 36.67 164.59 36.99C164.27 37.31 163.89 37.56 163.46 37.74C163.03 37.92 162.57 38.01 162.08 38.01C161.59 38.01 161.14 37.92 160.7 37.74C160.27 37.56 159.89 37.31 159.57 36.99C159.25 36.67 159 36.3 158.82 35.86C158.64 35.42 158.55 34.96 158.55 34.48Z" fill="#2F00A7"/>
<path d="M81.071 54.5619C81.071 54.1771 81.1205 53.8522 81.2246 53.5873C81.3236 53.3174 81.497 53.0725 81.7347 52.8426C82.0864 52.4977 82.4133 52.1978 82.7105 51.9429C83.0077 51.688 83.2653 51.4481 83.4783 51.2281C83.6912 51.0032 83.8597 50.7933 83.9785 50.5984C84.0974 50.3984 84.1569 50.1935 84.1569 49.9786C84.1569 49.5587 84.0281 49.2288 83.7705 48.9939C83.5129 48.759 83.186 48.6391 82.7947 48.6391C82.2003 48.6391 81.7496 48.804 81.4375 49.1339C81.1304 49.4638 80.9521 49.8686 80.9174 50.3385L78 50.1485C78.1387 48.799 78.634 47.7694 79.4761 47.0596C80.3231 46.3499 81.4078 46 82.7353 46C83.3148 46 83.8646 46.08 84.3748 46.2399C84.885 46.3999 85.3357 46.6398 85.727 46.9547C86.1183 47.2745 86.4304 47.6694 86.6582 48.1392C86.8861 48.6091 87 49.1539 87 49.7637C87 50.1335 86.9604 50.4684 86.8861 50.7683C86.8118 51.0682 86.678 51.3631 86.4997 51.658C86.3165 51.9529 86.0787 52.2478 85.7815 52.5477C85.4843 52.8476 85.1079 53.1774 84.6522 53.5323C84.3599 53.7622 84.1668 53.9871 84.0627 54.2021C83.9587 54.417 83.9092 54.6369 83.9092 54.8518V55.4066H81.066V54.5619H81.071ZM80.749 58.2356C80.749 57.9957 80.7936 57.7658 80.8828 57.5459C80.9719 57.331 81.0958 57.141 81.2543 56.9811C81.4128 56.8211 81.596 56.6962 81.814 56.6062C82.027 56.5162 82.2548 56.4713 82.4975 56.4713C82.7402 56.4713 82.9631 56.5162 83.1811 56.6062C83.3941 56.6962 83.5823 56.8211 83.7408 56.9811C83.8993 57.141 84.0231 57.326 84.1123 57.5459C84.2014 57.7608 84.246 57.9907 84.246 58.2356C84.246 58.4755 84.2014 58.7055 84.1123 58.9254C84.0231 59.1403 83.8993 59.3302 83.7408 59.4902C83.5823 59.6501 83.3941 59.7751 83.1811 59.865C82.9681 59.955 82.7402 60 82.4975 60C82.2548 60 82.0319 59.955 81.814 59.865C81.601 59.7751 81.4128 59.6501 81.2543 59.4902C81.0958 59.3302 80.9719 59.1453 80.8828 58.9254C80.7936 58.7055 80.749 58.4755 80.749 58.2356Z" fill="#2F00A7"/>
<path d="M90.1698 160.367C89.9166 161.232 89.695 162.172 89.5578 163.153C89.4733 163.755 89.2412 165.654 88.9141 168.567C96.628 170.382 105.112 171.437 113.924 171.796C113.924 169.516 113.955 167.205 114.008 164.873C104.268 164.198 93.6311 162.509 90.1698 160.367Z" fill="#FFF9D6"/>
<path d="M122.683 165.197C121.986 165.197 121.258 165.186 120.52 165.176C120.741 167.244 120.931 169.534 121.089 171.94C122.366 171.94 123.643 171.919 124.92 171.887C124.909 169.756 124.857 167.529 124.772 165.176C124.086 165.186 123.39 165.197 122.683 165.197Z" fill="#FFF9D6"/>
<path d="M125.31 165.165C125.405 167.508 125.447 169.745 125.457 171.877C134.142 171.655 142.901 170.811 151.343 169.407C151.047 166.115 150.836 163.983 150.752 163.329C150.636 162.495 150.477 161.693 150.277 160.934C146.309 162.791 137.16 164.88 125.31 165.165Z" fill="#FFF9D6"/>
<path d="M114.008 164.871C113.955 167.203 113.924 169.504 113.924 171.794C116.119 171.878 118.324 171.931 120.551 171.931C120.393 169.525 120.203 167.224 119.981 165.156C118.082 165.114 116.066 165.019 114.008 164.871Z" fill="#FFF9D6"/>
<path d="M40.9316 99.6562C40.9316 99.6562 41.0161 99.9201 41.1638 100.374L41.3643 100.321C41.2588 100.163 41.111 99.9412 40.9316 99.6562Z" fill="#FFB7A9"/>
<path d="M50.6611 97.8102L52.0541 97.4303C51.3365 96.2484 50.9144 95.5625 50.9144 95.5625C51.0621 96.4595 50.9566 97.1981 50.6611 97.8102Z" fill="#FFB7A9"/>
<path d="M124.771 165.175C124.866 167.517 124.909 169.754 124.919 171.886C125.099 171.886 125.278 171.876 125.457 171.876C125.447 169.744 125.394 167.517 125.31 165.164C125.13 165.164 124.951 165.175 124.771 165.175Z" fill="#EDCE7E"/>
<path d="M119.98 165.164C120.213 167.232 120.403 169.522 120.55 171.939C120.73 171.939 120.909 171.939 121.088 171.939C120.93 169.533 120.74 167.243 120.519 165.175C120.339 165.175 120.16 165.164 119.98 165.164Z" fill="#EDCE7E"/>
<path d="M196.962 101.683C197.184 100.965 197.279 100.343 197.31 99.7305C196.941 100.184 196.456 100.775 195.886 101.482L196.941 101.778C196.941 101.735 196.952 101.714 196.962 101.683Z" fill="#FFB7A9"/>
<path d="M111.845 61.4766C111.697 61.4977 111.549 61.5188 111.401 61.5399C111.539 61.7509 111.686 61.9725 111.855 62.2047L111.845 61.4766Z" fill="#3D00C3"/>
<path d="M144.062 67.3955C144.062 67.3955 149.222 68.4718 154.477 71.4582C154.477 71.4582 146.689 65.5277 133.731 62.594L134.438 63.3538C134.438 63.3538 131.146 70.7406 125.489 75.1094C125.437 75.1516 125.352 75.1199 125.247 75.0672C124.181 74.7612 121.965 72.3552 120.825 71.0678L121.458 165.06L120.403 165.07L119.77 71.0678C118.715 72.2708 116.72 74.4446 115.58 74.9828C115.401 75.12 115.264 75.1727 115.19 75.1094C109.534 70.7301 106.896 63.3538 106.896 63.3538L108.099 62.0664C93.0824 64.8945 83.4268 72.3763 83.4268 72.3763C83.4268 72.3763 83.4373 72.4185 83.4479 72.4713C89.2307 68.7145 95.5517 67.3955 95.5517 67.3955L91.6578 108.909L88.8191 116.011C89.2518 125.92 89.5895 149.906 88.9985 158.886C88.9669 159.403 89.389 159.899 90.1593 160.374C93.6205 162.506 104.258 164.205 114.008 164.88C116.066 165.028 118.071 165.123 119.97 165.176C120.15 165.176 120.34 165.186 120.519 165.186C121.258 165.197 121.986 165.207 122.682 165.207C123.389 165.207 124.075 165.197 124.772 165.186C124.951 165.186 125.131 165.176 125.31 165.176C137.161 164.891 146.31 162.801 150.267 160.944C151.713 160.269 152.472 159.614 152.42 159.097C151.945 154.57 152.81 125.266 152.831 117.436L147.945 108.92L144.062 67.3955ZM131.905 106.155L132.064 91.8036L145.402 91.983L145.244 106.535L145.096 106.651C144.621 107.042 140.421 110.429 138.553 110.429C138.543 110.429 138.543 110.429 138.532 110.429C136.675 110.397 132.517 106.883 132.053 106.472L131.905 106.345V106.155Z" fill="#3D00C3"/>
<path d="M138.554 109.617C139.873 109.617 143.176 107.2 144.516 106.124L144.664 92.8067L132.782 92.6484L132.634 105.966C133.963 107.084 137.224 109.606 138.533 109.628C138.543 109.617 138.543 109.617 138.554 109.617Z" fill="#3D00C3"/>
<path d="M95.5513 67.3945C95.5513 67.3945 89.2303 68.7136 83.4475 72.4703C81.7908 73.5467 80.1868 74.8235 78.7833 76.322C73.5914 81.8621 67.893 99.4427 64.168 112.591L64.3157 112.813C64.3157 112.813 77.9602 117.139 83.9435 121.878C85.1359 116.548 86.0962 111.43 86.7399 107.821C86.7716 106.133 86.8033 104.445 86.8349 102.756C87.0143 97.8704 87.1726 92.9951 87.6158 88.1198C87.7741 93.0162 87.658 97.902 87.563 102.777C87.563 102.883 87.5525 102.988 87.5525 103.083C87.5947 102.82 87.6158 102.661 87.6158 102.661L88.8188 115.567L85.2204 136.598L88.8188 115.989L91.6574 108.887L95.5513 67.3945Z" fill="#3D00C3"/>
<path d="M87.5526 102.786C87.6476 97.9006 87.7636 93.0148 87.6054 88.1289C87.1621 93.0042 87.0039 97.8795 86.8245 102.765C86.7928 104.454 86.7611 106.142 86.7295 107.831C87.141 105.52 87.4154 103.842 87.5315 103.103C87.5526 102.987 87.5526 102.881 87.5526 102.786Z" fill="#22008C"/>
<path d="M157.242 134.541C155.786 128.114 152.853 117.414 152.853 117.414L157.242 134.541Z" fill="#3D00C3"/>
<path d="M152.061 102.788C151.966 97.902 151.85 93.0162 152.008 88.1304C152.451 93.0056 152.609 97.8809 152.789 102.767C152.81 103.695 152.831 104.624 152.841 105.553V105.51C152.841 105.51 154.54 114.607 157.252 124.357C161.473 120.168 177.25 119.165 177.25 119.165C173.788 106.165 166.961 82.8752 160.84 76.3326C158.962 74.3276 156.714 72.7236 154.488 71.4573C149.232 68.4814 144.072 67.3945 144.072 67.3945L147.966 108.908L152.852 117.424C152.398 112.549 152.251 107.663 152.061 102.788Z" fill="#3D00C3"/>
<path d="M152.841 105.543C152.82 104.615 152.81 103.686 152.789 102.758C152.609 97.8717 152.451 92.9964 152.008 88.1211C151.849 93.0175 151.966 97.9033 152.061 102.779C152.24 107.664 152.398 112.54 152.841 117.415V105.543Z" fill="#22008C"/>
<path d="M68.0091 149.981C67.8297 149.897 67.6608 149.823 67.4814 149.738C67.6608 149.823 67.8402 149.897 68.0091 149.981Z" fill="#3D00C3"/>
<path d="M68.8958 150.37C68.8641 150.36 68.8324 150.349 68.8008 150.328C68.8324 150.349 68.8641 150.36 68.8958 150.37Z" fill="#3D00C3"/>
<path d="M66.2688 149.072C66.2793 149.082 66.2899 149.082 66.3004 149.093C66.2793 149.082 66.2477 149.061 66.2266 149.051C66.2371 149.051 66.2477 149.061 66.2688 149.072Z" fill="#3D00C3"/>
<path d="M81.0316 148.755C81.211 148.533 81.4009 148.238 81.6014 147.879C81.2532 148.407 80.8627 148.903 80.4512 149.356C80.6517 149.166 80.8522 148.966 81.0316 148.755Z" fill="#3D00C3"/>
<path d="M73.9927 146.53C77.6755 146.255 81.3478 133.539 83.9438 121.879C77.9605 117.141 64.316 112.814 64.316 112.814L64.1682 112.592L53.9006 96.9219L52.0539 97.4178L50.6609 97.7977C49.0147 101.217 41.5224 100.563 41.5224 100.563C41.5224 100.563 41.4591 100.468 41.3641 100.309L41.1636 100.362L38.7471 101.016C38.7471 101.016 43.3269 115.062 50.1228 128.21C65.3079 145.696 69.2018 146.899 73.9927 146.53ZM69.0119 119.198C66.722 115.262 64.316 113.173 64.316 113.173C69.1491 114.703 69.0119 119.198 69.0119 119.198Z" fill="#3D00C3"/>
<path d="M138.532 110.442C138.543 110.442 138.543 110.442 138.553 110.442C140.411 110.442 144.621 107.054 145.096 106.664L145.244 106.548L145.402 91.9958L132.064 91.8164L131.905 106.168V106.379L132.053 106.506C132.517 106.885 136.675 110.41 138.532 110.442ZM132.771 92.6395L144.653 92.7978L144.505 106.115C143.154 107.202 139.862 109.608 138.543 109.608H138.532C137.213 109.587 133.963 107.065 132.633 105.946L132.771 92.6395Z" fill="#F9F5FE"/>
<path d="M88.8196 115.589L87.6166 102.684C87.6166 102.684 87.5955 102.831 87.5532 103.106C87.4372 103.844 87.1522 105.533 86.7512 107.833C86.1075 111.442 85.1473 116.55 83.9548 121.889C81.3589 133.55 77.6866 146.266 74.0037 146.54C69.2023 146.899 65.319 145.706 50.1338 128.231C53.1624 134.5 57.5734 141.232 60.1165 144.219C60.7813 144.999 63.0713 147.226 66.2476 149.052C66.2687 149.062 66.3003 149.083 66.3214 149.094C66.7013 149.315 67.1023 149.526 67.5139 149.738C67.6827 149.822 67.8621 149.896 68.0415 149.98C68.3053 150.107 68.5586 150.223 68.833 150.339C68.8646 150.35 68.8963 150.36 68.9279 150.381C70.8802 151.194 73.0223 151.753 75.27 151.753C77.4228 151.753 79.1323 150.803 80.4725 149.379C80.8946 148.936 81.2745 148.429 81.6227 147.901C84.6196 143.417 85.2422 136.631 85.2422 136.631L88.8196 115.589Z" fill="#22008C"/>
<path d="M161.991 148.609C162.297 149.232 162.593 149.717 162.867 150.045C163.775 151.142 164.767 152.071 166.286 152.588C164.598 151.891 163.173 150.424 161.991 148.609Z" fill="#3D00C3"/>
<path d="M157.252 124.349C160.217 135.028 164.407 146.488 168.913 147.649C173.577 148.841 180.489 147.818 195.684 129.942C202.586 117.753 208.274 104.9 208.274 104.9L208.063 104.848C206.659 106.631 205.657 107.802 205.657 107.802C205.657 107.802 195.326 107.443 196.93 101.766L195.874 101.471L193.11 100.711L177.239 119.157C177.239 119.157 173.946 121.626 172.785 124.159C172.785 124.159 173.028 119.642 177.239 119.157C177.249 119.157 161.473 120.17 157.252 124.349Z" fill="#3D00C3"/>
<path d="M195.696 129.94C180.5 147.816 173.588 148.839 168.924 147.647C164.408 146.497 160.229 135.026 157.264 124.347C154.551 114.596 152.853 105.5 152.853 105.5V105.532V117.414C152.853 117.414 155.797 128.114 157.242 134.541C157.517 135.733 157.728 136.778 157.865 137.58C158.34 140.302 159.701 145.083 161.991 148.607C163.173 150.422 164.598 151.889 166.286 152.586C166.729 152.765 167.193 152.913 167.668 152.976C177.524 154.285 183.993 147.942 185.196 146.497C187.739 143.437 192.636 136.219 195.696 129.94Z" fill="#22008C"/>
<path d="M69.0123 119.197C69.0123 119.197 69.1495 114.702 64.3164 113.172C64.3164 113.172 66.7118 115.251 69.0123 119.197Z" fill="#22008C"/>
<path d="M172.796 124.158C173.957 121.626 177.249 119.156 177.249 119.156C173.039 119.652 172.796 124.158 172.796 124.158Z" fill="#22008C"/>
<path d="M207.61 82.5372C207.472 82.0307 207.483 81.4819 207.61 80.9648C206.618 82.0834 205.626 83.5713 206.438 84.5105C207.335 85.5447 208.918 85.8507 209.973 85.9246C210.29 84.8376 210.364 83.8562 210.364 83.8562C210.364 83.8562 208.148 84.5949 207.61 82.5372Z" fill="#E88981"/>
<path d="M196.941 101.766C195.337 107.443 205.668 107.802 205.668 107.802C205.668 107.802 206.67 106.63 208.074 104.847C211.345 100.689 216.843 93.1759 217.138 89.2398C217.328 86.7283 215.766 79.6897 211.64 78.6344C209.519 78.0857 208.01 79.4048 207.62 80.9666C207.493 81.4836 207.483 82.0218 207.62 82.5389C208.158 84.5966 210.374 83.858 210.374 83.858C210.374 83.858 210.3 84.8394 209.984 85.9263C209.562 87.3614 208.717 88.9654 207.029 88.7649C204.064 88.3956 204.728 84.2168 204.728 84.2168C204.728 84.2168 207.873 82.0007 206.934 79.9852C205.995 77.9696 200.349 80.6078 199.589 82.961C196.012 94.0729 197.489 96.6583 197.321 99.7185C197.289 100.331 197.194 100.953 196.972 101.671C196.951 101.713 196.941 101.734 196.941 101.766Z" fill="#FFB7A9"/>
<path d="M42.6833 75.2583C41.8918 77.2316 39.7919 76.2397 39.7919 76.2397C39.7919 76.2397 39.7391 77.221 39.9291 78.3396C40.9843 78.3924 42.5883 78.2869 43.6119 77.3688C44.53 76.5351 43.7386 74.9311 42.8838 73.707C42.9366 74.2241 42.8732 74.7728 42.6833 75.2583Z" fill="#E88981"/>
<path d="M41.5224 100.575C41.5224 100.575 49.0147 101.229 50.6609 97.8102C50.9564 97.1981 51.0619 96.4594 50.9142 95.5625C50.1439 91.1198 53.2358 90.4233 50.6082 76.6733C50.1439 74.2357 44.8676 70.9327 43.6857 72.8216C42.5038 74.7106 45.353 77.2854 45.353 77.2854C45.353 77.2854 45.5007 81.517 42.5144 81.517C40.8154 81.517 40.1717 79.8075 39.929 78.3406C39.7496 77.2221 39.7918 76.2407 39.7918 76.2407C39.7918 76.2407 41.9023 77.2432 42.6832 75.2593C42.8837 74.7633 42.9365 74.2251 42.8731 73.6975C42.6726 72.1041 41.343 70.6056 39.1692 70.8905C34.9482 71.4393 32.5316 78.2246 32.4155 80.7466C32.1939 85.5164 38.8843 96.4383 40.9315 99.6569C41.1109 99.9418 41.2586 100.163 41.3641 100.322C41.4591 100.48 41.5224 100.575 41.5224 100.575Z" fill="#FFB7A9"/>
<path d="M129.425 55.2156L129.541 56.598C134.047 53.6117 137.814 48.3881 137.698 41.4867C137.688 40.9591 137.656 40.3365 137.614 39.6506C137.466 39.6295 137.371 39.6084 137.371 39.6084L136.717 34.9969C135.356 30.5754 133.815 28.7709 132.675 24.9297C130.945 25.9111 128.497 26.9242 125.025 27.8528C119.485 29.3513 113.005 27.9689 107.655 24.1172C105.903 27.5468 102.727 32.2321 102.801 38.838C102.801 38.838 102.79 38.8064 102.759 38.7431L102.706 40.2943C102.738 41.1068 102.769 41.835 102.822 42.4259C103.36 49.4012 107.17 54.1498 111.718 56.8302L111.686 55.6483L129.425 55.2156ZM120.54 53.4006C118.556 53.7699 116.403 51.2901 116.403 51.2901C119.791 53.1051 121.806 52.1237 121.806 52.1237C121.806 52.1237 121.31 53.2529 120.54 53.4006ZM125.088 30.6176C125.637 30.4065 126.755 29.7839 128.57 29.5834C131.282 29.288 133.994 30.9025 132.718 30.9658C132.021 30.9975 130.28 30.9447 128.739 31.2824C127.473 31.5568 126.365 32.2005 125.996 32.3693C125.426 32.6331 124.761 32.0422 124.592 31.4618C124.497 31.1135 124.719 30.7548 125.088 30.6176ZM128.138 35.4718C130.681 35.4718 132.063 38.838 131.926 39.123C131.768 39.429 130.227 39.9672 128.138 39.9672C126.048 39.9672 124.582 39.6189 124.349 39.123C124.107 38.6059 125.668 35.4718 128.138 35.4718ZM120.403 45.349C120.582 45.3595 121.184 45.3595 121.68 44.8952C121.711 44.8741 122.344 44.2726 122.218 43.3968C122.081 42.447 121.173 42.0566 121.163 42.046C121.078 42.0144 121.036 41.9088 121.068 41.8244C121.099 41.74 121.205 41.6978 121.289 41.7294C121.331 41.7505 122.387 42.2043 122.545 43.344C122.693 44.3781 121.986 45.0641 121.901 45.1379C121.31 45.6867 120.582 45.6867 120.371 45.6761H120.361C120.276 45.6656 120.202 45.5917 120.213 45.4967C120.234 45.4123 120.308 45.349 120.403 45.349ZM116.446 47.7972C118.081 50.868 122.218 50.0238 122.26 50.0132C122.397 49.9921 122.545 50.0765 122.577 50.2137C122.608 50.3615 122.513 50.4986 122.376 50.5303C122.355 50.5303 121.785 50.6569 120.962 50.6569C119.464 50.6569 117.153 50.2665 115.981 48.0504C115.918 47.9238 115.96 47.7655 116.087 47.6917C116.224 47.6178 116.382 47.6705 116.446 47.7972ZM107.824 30.9553C106.547 30.9025 109.259 29.2774 111.971 29.5729C113.776 29.7734 114.894 30.4065 115.454 30.607C115.823 30.7442 116.045 31.103 115.939 31.4407C115.77 32.0211 115.105 32.6226 114.536 32.3482C114.177 32.1794 113.058 31.5357 111.792 31.2613C110.262 30.9342 108.521 30.9869 107.824 30.9553ZM108.626 39.1335C108.478 38.8486 109.871 35.4823 112.414 35.4823C114.873 35.4823 116.435 38.6059 116.203 39.1335C115.981 39.6295 114.504 39.9777 112.414 39.9777C110.314 39.9777 108.784 39.4395 108.626 39.1335Z" fill="#FFB7A9"/>
<path d="M115.981 48.0449C117.163 50.2609 119.464 50.6514 120.962 50.6514C121.785 50.6514 122.355 50.5353 122.376 50.5248C122.513 50.4931 122.608 50.3559 122.577 50.2082C122.545 50.071 122.408 49.9866 122.26 50.0077C122.218 50.0182 118.081 50.8624 116.446 47.7916C116.372 47.665 116.213 47.6122 116.087 47.6861C115.96 47.76 115.918 47.9183 115.981 48.0449Z" fill="#E88981"/>
<path d="M101.798 36.202C101.492 35.4106 101.102 34.3448 100.69 33.1523C99.4661 33.4162 98.2209 34.3764 98.358 37.2679C98.6219 42.8396 102.706 41.2989 102.706 41.2989L102.737 40.307L102.79 38.7558C102.663 38.4497 102.273 37.4895 101.798 36.202Z" fill="#FFB7A9"/>
<path d="M137.108 36.2968C136.981 35.8324 136.865 35.4103 136.738 34.9988L137.393 39.6103C137.393 39.6103 137.488 39.6314 137.635 39.6525C138.511 39.7897 141.571 39.9163 141.276 35.136C141.075 31.8436 139.366 31.2315 137.994 31.2843C137.783 32.3606 137.582 33.2893 137.414 33.9646C137.234 35.3681 137.108 36.2968 137.108 36.2968Z" fill="#FFB7A9"/>
<path d="M124.846 26.0716C119.591 27.76 113.333 26.8419 107.941 23.5706C107.856 23.75 107.772 23.9294 107.677 24.1193C113.027 27.971 119.506 29.3429 125.046 27.8549C128.508 26.9158 130.956 25.9133 132.697 24.9319C132.528 24.3515 132.359 23.7289 132.212 23.043C130.238 24.0666 127.832 25.1113 124.846 26.0716Z" fill="#E88981"/>
<path d="M107.085 23.0352C105.313 26.4436 102.274 31.0762 102.326 37.5555C102.326 37.5555 102.115 37.0384 101.788 36.2048C102.263 37.4922 102.653 38.463 102.769 38.7479C102.791 38.8113 102.812 38.8429 102.812 38.8429C102.748 32.237 105.914 27.5517 107.666 24.1221C107.761 23.9321 107.845 23.7527 107.93 23.5733C107.655 23.4045 107.37 23.2251 107.085 23.0352Z" fill="#E88981"/>
<path d="M102.337 37.5536C102.274 31.0743 105.313 26.4523 107.096 23.0333C106.737 22.7906 106.379 22.5479 106.03 22.284L103.371 16.5645C103.371 16.5645 103.287 16.5118 103.15 16.4062C101.292 17.8942 98.8125 20.7012 98.8125 25.0699C98.8125 27.1593 99.7728 30.4623 100.691 33.1532C101.102 34.3456 101.493 35.422 101.799 36.2029C102.115 37.0365 102.337 37.5536 102.337 37.5536Z" fill="#002264"/>
<path d="M137.404 33.953C137.224 34.6917 137.098 35.156 137.098 35.156C135.557 29.331 134.09 27.632 132.929 22.6406C132.697 22.7673 132.454 22.8939 132.201 23.0311C132.349 23.717 132.518 24.3396 132.687 24.92C133.826 28.7717 135.367 30.5656 136.728 34.9871C136.855 35.3987 136.981 35.8208 137.098 36.2851C137.108 36.2957 137.235 35.367 137.404 33.953Z" fill="#E88981"/>
<path d="M106.019 22.2827C106.368 22.5465 106.726 22.7892 107.085 23.0319C107.37 23.2219 107.655 23.3907 107.94 23.5701C113.332 26.8414 119.59 27.7595 124.845 26.0711C127.821 25.1108 130.238 24.0661 132.2 23.0319C132.443 22.9053 132.686 22.7681 132.929 22.6415C132.791 22.0506 132.654 21.4174 132.528 20.7209L132.665 16.4049C132.665 16.4049 135.999 15.9195 137.762 19.2541C139.64 17.5446 140.22 16.3205 140.22 16.3205C138.743 17.1436 136.348 16.7743 136.348 16.7743C138.891 16.0989 139.292 13.3341 139.292 13.3341C133.657 13.7246 122.661 7.32971 113.849 8.05783C105.049 8.78596 104.342 15.0647 104.342 15.0647C102.147 15.4869 103.096 10.6643 103.096 10.6643C101.07 14.1889 102.548 15.8984 103.139 16.4049C103.265 16.5105 103.36 16.5632 103.36 16.5632L106.019 22.2827Z" fill="#002264"/>
<path d="M132.666 16.4192L132.528 20.7352C132.655 21.4317 132.792 22.0648 132.929 22.6558C134.09 27.6472 135.557 29.3461 137.098 35.1711C137.098 35.1711 137.224 34.7068 137.404 33.9682C137.572 33.2822 137.773 32.3642 137.984 31.2878C138.607 28.0271 139.198 23.4683 138.322 20.6191C138.163 20.1021 137.973 19.6694 137.762 19.2684C136 15.9338 132.666 16.4192 132.666 16.4192Z" fill="#002264"/>
<path d="M120.477 68.7474C120.403 68.6313 120.351 68.5469 120.351 68.5469L120.361 68.6313L120.477 68.7474Z" fill="#FFB7A9"/>
<path d="M113.629 64.3045C116.604 67.312 120.351 68.5467 120.351 68.5467C120.351 68.5467 124.751 67.312 127.727 64.3045C128.719 63.302 129.447 62.3206 129.964 61.5186L129.542 56.6011L129.426 55.2188L111.708 55.6514L111.74 56.8333L111.845 61.4659L111.866 62.194C112.32 62.8483 112.9 63.5658 113.629 64.3045ZM111.75 56.865C111.75 56.865 115.296 59.1338 121.237 58.9333C126.534 58.7539 129.542 56.6328 129.542 56.6328L129.605 57.4137C129.605 57.4137 127.59 61.392 121.427 61.392C114.853 61.392 111.782 57.7303 111.782 57.7303L111.75 56.865Z" fill="#FFB7A9"/>
<path d="M121.427 61.3803C127.589 61.3803 129.605 57.402 129.605 57.402L129.542 56.6211C129.542 56.6211 126.545 58.7316 121.237 58.9216C115.296 59.1221 111.75 56.8533 111.75 56.8533L111.782 57.7186C111.782 57.7291 114.842 61.3803 121.427 61.3803Z" fill="#E88981"/>
<path d="M116.403 51.2891C116.403 51.2891 118.567 53.7689 120.54 53.3996C121.3 53.2518 121.796 52.1227 121.796 52.1227C121.796 52.1227 119.791 53.1041 116.403 51.2891Z" fill="#E88981"/>
<path d="M114.546 32.3622C115.116 32.626 115.781 32.0351 115.95 31.4547C116.045 31.117 115.834 30.7582 115.465 30.621C114.916 30.41 113.797 29.7874 111.982 29.5869C109.27 29.2914 106.558 30.9059 107.835 30.9692C108.531 31.0009 110.273 30.9481 111.813 31.2858C113.069 31.5496 114.177 32.1933 114.546 32.3622Z" fill="#002264"/>
<path d="M120.371 45.689C120.381 45.689 120.381 45.689 120.371 45.689C120.592 45.6996 121.31 45.6996 121.911 45.1508C121.996 45.077 122.703 44.391 122.555 43.3569C122.397 42.2172 121.342 41.7634 121.299 41.7423C121.215 41.7107 121.109 41.7423 121.078 41.8373C121.046 41.9217 121.088 42.0273 121.173 42.0589C121.183 42.0589 122.091 42.4494 122.228 43.4096C122.355 44.2855 121.721 44.8765 121.69 44.9081C121.194 45.3619 120.582 45.3724 120.413 45.3619C120.318 45.3513 120.244 45.4252 120.234 45.5202C120.223 45.6046 120.286 45.6785 120.371 45.689Z" fill="#E88981"/>
<path d="M110.283 37.8548C110.283 37.686 110.304 37.5277 110.346 37.3799C110.462 37.6649 110.737 37.8548 111.053 37.8548C111.476 37.8548 111.824 37.5066 111.824 37.0845C111.824 36.6624 111.476 36.3141 111.053 36.3141C111.001 36.3141 110.958 36.3352 110.916 36.3458C111.296 35.9659 111.824 35.7337 112.404 35.7337C113.575 35.7337 114.525 36.6835 114.525 37.8548C114.525 39.0261 113.575 39.9759 112.404 39.9759C114.494 39.9759 115.96 39.6276 116.193 39.1317C116.435 38.604 114.873 35.4805 112.404 35.4805C109.861 35.4805 108.479 38.8467 108.616 39.1317C108.774 39.4377 110.315 39.9759 112.404 39.9759C111.233 39.9759 110.283 39.0261 110.283 37.8548Z" fill="white"/>
<path d="M114.535 37.8594C114.535 36.688 113.585 35.7383 112.414 35.7383C111.834 35.7383 111.306 35.9704 110.926 36.3503C110.968 36.3398 111.011 36.3187 111.063 36.3187C111.485 36.3187 111.834 36.6669 111.834 37.089C111.834 37.5111 111.485 37.8594 111.063 37.8594C110.747 37.8594 110.472 37.6589 110.356 37.3845C110.325 37.5428 110.293 37.7011 110.293 37.8594C110.293 39.0307 111.243 39.9804 112.414 39.9804C113.585 39.9804 114.535 39.0307 114.535 37.8594Z" fill="#040605"/>
<path d="M125.995 32.3608C126.354 32.192 127.473 31.5483 128.739 31.2739C130.269 30.9468 132.01 30.989 132.717 30.9573C133.994 30.9046 131.282 29.2795 128.57 29.5749C126.766 29.7754 125.647 30.4086 125.088 30.6091C124.719 30.7463 124.497 31.1051 124.603 31.4427C124.771 32.0337 125.436 32.6246 125.995 32.3608Z" fill="#002264"/>
<path d="M128.138 39.9759C126.967 39.9759 126.017 39.0261 126.017 37.8548C126.017 36.6835 126.967 35.7337 128.138 35.7337C128.719 35.7337 129.246 35.9659 129.626 36.3458C129.584 36.3352 129.542 36.3141 129.489 36.3141C129.067 36.3141 128.719 36.6624 128.719 37.0845C128.719 37.5066 129.067 37.8548 129.489 37.8548C129.806 37.8548 130.08 37.6543 130.196 37.3799C130.228 37.5382 130.259 37.6965 130.259 37.8548C130.259 39.0261 129.31 39.9759 128.138 39.9759C130.228 39.9759 131.768 39.4377 131.927 39.1317C132.074 38.8467 130.681 35.4805 128.138 35.4805C125.68 35.4805 124.118 38.604 124.35 39.1317C124.572 39.6171 126.049 39.9759 128.138 39.9759Z" fill="white"/>
<path d="M130.26 37.8594C130.26 37.6905 130.239 37.5322 130.196 37.3845C130.08 37.6694 129.806 37.8594 129.489 37.8594C129.067 37.8594 128.719 37.5111 128.719 37.089C128.719 36.6669 129.067 36.3187 129.489 36.3187C129.542 36.3187 129.584 36.3398 129.627 36.3503C129.247 35.9704 128.719 35.7383 128.139 35.7383C126.967 35.7383 126.018 36.688 126.018 37.8594C126.018 39.0307 126.967 39.9804 128.139 39.9804C129.31 39.9804 130.26 39.0307 130.26 37.8594Z" fill="#040605"/>
<path d="M120.476 68.7474L120.35 68.6313L120.339 68.5469C120.339 68.5469 116.867 73.992 115.58 74.9734C116.72 74.4247 118.714 72.2614 119.769 71.0584V70.4569H120.297H120.825V71.0795C121.964 72.3775 124.18 74.7835 125.246 75.0789C124.254 74.5407 121.12 69.7499 120.476 68.7474Z" fill="#22008C"/>
<path d="M127.727 64.3045C124.751 67.3119 120.351 68.5466 120.351 68.5466C120.351 68.5466 120.403 68.631 120.477 68.7471C121.121 69.7496 124.255 74.5405 125.258 75.0681C125.353 75.1209 125.447 75.142 125.5 75.1103C131.156 70.731 134.449 63.3547 134.449 63.3547L133.742 62.5949L130.988 59.6719C130.988 59.6719 130.671 60.4317 129.964 61.5291C129.447 62.3206 128.719 63.302 127.727 64.3045Z" fill="#F9F5FE"/>
<path d="M115.201 75.0947C115.274 75.158 115.412 75.1052 115.591 74.968C116.868 73.9761 120.35 68.5415 120.35 68.5415C120.35 68.5415 116.604 67.3069 113.628 64.2994C112.9 63.5607 112.33 62.8431 111.855 62.1994C111.687 61.9673 111.539 61.7457 111.402 61.5346C110.684 60.4371 110.367 59.6562 110.367 59.6562L108.109 62.0517L106.906 63.3391C106.906 63.3391 109.544 70.7259 115.201 75.0947Z" fill="#F9F5FE"/>
<path d="M120.308 70.4453H119.78V109.836L120.413 165.06L121.469 165.049L120.836 109.836V70.4453H120.308Z" fill="#F9F5FE"/>
<path d="M42.45 90.9C58.7148 90.9 71.9 77.7148 71.9 61.45C71.9 45.1852 58.7148 32 42.45 32C26.1852 32 13 45.1852 13 61.45C13 77.7148 26.1852 90.9 42.45 90.9Z" fill="#EA6465"/>
<path d="M41.4329 52.5455V70H38.2454L30.6516 59.0142H30.5238V70H26.8335V52.5455H30.0721L37.6062 63.5227H37.7596V52.5455H41.4329ZM50.3285 70.2557C49.0046 70.2557 47.8597 69.9744 46.8938 69.4119C45.9336 68.8437 45.1921 68.054 44.6694 67.0426C44.1467 66.0256 43.8853 64.8466 43.8853 63.5057C43.8853 62.1534 44.1467 60.9716 44.6694 59.9602C45.1921 58.9432 45.9336 58.1534 46.8938 57.5909C47.8597 57.0227 49.0046 56.7386 50.3285 56.7386C51.6523 56.7386 52.7944 57.0227 53.7546 57.5909C54.7205 58.1534 55.4648 58.9432 55.9876 59.9602C56.5103 60.9716 56.7717 62.1534 56.7717 63.5057C56.7717 64.8466 56.5103 66.0256 55.9876 67.0426C55.4648 68.054 54.7205 68.8437 53.7546 69.4119C52.7944 69.9744 51.6523 70.2557 50.3285 70.2557ZM50.3455 67.4432C50.9478 67.4432 51.4506 67.2727 51.854 66.9318C52.2575 66.5852 52.5614 66.1136 52.766 65.517C52.9762 64.9205 53.0813 64.2415 53.0813 63.4801C53.0813 62.7188 52.9762 62.0398 52.766 61.4432C52.5614 60.8466 52.2575 60.375 51.854 60.0284C51.4506 59.6818 50.9478 59.5085 50.3455 59.5085C49.7376 59.5085 49.2262 59.6818 48.8114 60.0284C48.4023 60.375 48.0927 60.8466 47.8825 61.4432C47.6779 62.0398 47.5756 62.7188 47.5756 63.4801C47.5756 64.2415 47.6779 64.9205 47.8825 65.517C48.0927 66.1136 48.4023 66.5852 48.8114 66.9318C49.2262 67.2727 49.7376 67.4432 50.3455 67.4432Z" fill="white"/>
<path d="M208.294 90.5879C224.473 90.5879 237.588 77.4726 237.588 61.294C237.588 45.1154 224.473 32 208.294 32C192.115 32 179 45.1154 179 61.294C179 77.4726 192.115 90.5879 208.294 90.5879Z" fill="#35A583"/>
<path d="M187.47 52.6939H191.603L195.584 60.2109H195.754L199.734 52.6939H203.868L197.501 63.978V70.1484H193.836V63.978L187.47 52.6939ZM209.039 70.4041C207.692 70.4041 206.533 70.1314 205.562 69.5859C204.596 69.0348 203.851 68.2564 203.329 67.2507C202.806 66.2393 202.544 65.0433 202.544 63.6626C202.544 62.3161 202.806 61.1342 203.329 60.1172C203.851 59.1001 204.587 58.3075 205.536 57.7393C206.491 57.1712 207.61 56.8871 208.894 56.8871C209.758 56.8871 210.562 57.0263 211.306 57.3047C212.056 57.5774 212.709 57.9893 213.266 58.5405C213.829 59.0916 214.266 59.7848 214.579 60.62C214.891 61.4496 215.047 62.4212 215.047 63.5348V64.532H203.993V62.282H211.63C211.63 61.7592 211.516 61.2962 211.289 60.8928C211.062 60.4893 210.746 60.174 210.343 59.9467C209.945 59.7138 209.482 59.5973 208.954 59.5973C208.402 59.5973 207.914 59.7251 207.488 59.9808C207.067 60.2308 206.738 60.5689 206.499 60.995C206.26 61.4155 206.138 61.8842 206.133 62.4013V64.5405C206.133 65.1882 206.252 65.7479 206.491 66.2195C206.735 66.6911 207.079 67.0547 207.522 67.3104C207.965 67.5661 208.491 67.6939 209.098 67.6939C209.502 67.6939 209.871 67.6371 210.206 67.5234C210.542 67.4098 210.829 67.2393 211.067 67.0121C211.306 66.7848 211.488 66.5064 211.613 66.1768L214.971 66.3984C214.8 67.2053 214.451 67.9098 213.922 68.5121C213.4 69.1087 212.723 69.5746 211.894 69.9098C211.07 70.2393 210.118 70.4041 209.039 70.4041ZM228.309 60.7905L224.985 60.995C224.928 60.7109 224.806 60.4553 224.618 60.228C224.431 59.995 224.184 59.8104 223.877 59.674C223.576 59.532 223.215 59.4609 222.794 59.4609C222.232 59.4609 221.758 59.5803 221.371 59.8189C220.985 60.0518 220.792 60.3643 220.792 60.7564C220.792 61.0689 220.917 61.3331 221.167 61.549C221.417 61.7649 221.846 61.9382 222.454 62.0689L224.823 62.5462C226.096 62.8075 227.044 63.228 227.669 63.8075C228.294 64.3871 228.607 65.1484 228.607 66.0916C228.607 66.9496 228.354 67.7024 227.848 68.3501C227.348 68.9979 226.661 69.5036 225.786 69.8672C224.917 70.2251 223.914 70.4041 222.777 70.4041C221.044 70.4041 219.664 70.0433 218.635 69.3217C217.613 68.5945 217.013 67.6058 216.837 66.3558L220.408 66.1683C220.516 66.6967 220.777 67.1001 221.192 67.3786C221.607 67.6513 222.138 67.7876 222.786 67.7876C223.422 67.7876 223.934 67.6655 224.32 67.4212C224.712 67.1712 224.911 66.8501 224.917 66.4581C224.911 66.1286 224.772 65.8587 224.499 65.6484C224.226 65.4325 223.806 65.2678 223.238 65.1541L220.971 64.7024C219.692 64.4467 218.741 64.0036 218.116 63.3729C217.496 62.7422 217.187 61.9382 217.187 60.9609C217.187 60.12 217.414 59.3956 217.868 58.7876C218.329 58.1797 218.973 57.7109 219.803 57.3814C220.638 57.0518 221.616 56.8871 222.735 56.8871C224.388 56.8871 225.689 57.2365 226.638 57.9354C227.593 58.6342 228.15 59.5859 228.309 60.7905Z" fill="white"/>
</svg>
