<svg width="240" height="180" viewBox="0 0 240 180" fill="none" xmlns="http://www.w3.org/2000/svg">
<path fill-rule="evenodd" clip-rule="evenodd" d="M9.32856 88.9569C13.1716 81.4762 18.4654 76.8586 20.0794 75.5186C21.0114 74.7378 24.3644 72.0193 30.0233 69.3297C40.5724 64.3168 45.1456 66.0713 57.549 62.1382C62.2279 60.6536 67.5025 58.9088 73.6994 55.072C81.1837 50.4448 86.1508 45.1234 88.6199 42.4435C89.3213 41.6819 89.917 40.9975 90.4069 40.4191C91.1756 39.5129 91.7232 38.8285 91.7712 38.7513C100.332 28.0027 112.543 20.5412 112.543 20.5412C117.558 17.4757 129.788 10.2167 147.072 10.0046C150.973 9.95643 163.953 10.1492 177.711 17.4371C181.919 19.664 187.578 22.7392 192.766 28.9956C194.784 31.4249 199.693 37.3632 201.509 46.1646C202.998 53.3464 201.365 57.4435 204.804 64.5289C205.419 65.8111 206.572 68.115 208.734 70.6022C213.365 75.9235 226.354 78.8155 232.397 95.7724C233.637 99.2525 236.999 110.126 233.349 123.083C232.042 127.71 230.178 131.431 228.199 134.545C226.402 137.36 224.51 139.683 222.857 141.698C222.04 142.7 220.522 144.464 218.755 146.2C218.755 146.2 214.527 150.345 208.686 153.613C185.109 166.791 125.081 162.241 125.081 162.241C125.081 162.241 61.5169 166.473 34.0008 153.613C31.6278 152.504 21.8665 146.296 21.78 146.229C21.7608 146.219 21.7512 146.209 21.7512 146.209C21.6935 146.161 21.6359 146.123 21.5782 146.074C21.5302 146.045 21.4918 146.007 21.4533 145.968C21.29 145.843 21.1267 145.708 20.9729 145.583C20.6751 145.332 20.3677 145.091 20.0794 144.831C19.7528 144.551 19.4261 144.262 19.1091 143.982C18.9842 143.867 18.8593 143.761 18.744 143.645C18.696 143.606 18.6575 143.568 18.6095 143.52C18.475 143.394 18.3501 143.279 18.2156 143.153C16.8993 141.891 15.6792 140.56 14.5647 139.162C14.5551 139.153 14.5551 139.153 14.5455 139.143C14.4974 139.085 14.459 139.037 14.4206 138.979C14.3918 138.95 14.3725 138.912 14.3437 138.893C14.2861 138.815 14.2188 138.748 14.1708 138.68C14.1227 138.613 14.0747 138.545 14.0363 138.497C14.0267 138.488 14.0171 138.468 14.0075 138.459C13.9402 138.372 13.8729 138.285 13.8057 138.198C13.652 137.986 10.3374 132.752 9.43424 130.689C-0.48078 108.044 9.32856 88.9569 9.32856 88.9569Z" fill="#CFD3FF"/>
<path d="M124 167C175.362 167 217 163.642 217 159.5C217 155.358 175.362 152 124 152C72.6375 152 31 155.358 31 159.5C31 163.642 72.6375 167 124 167Z" fill="#8A85C9"/>
<path d="M59.6699 155.124C59.6699 157.58 61.6649 159.575 64.121 159.575H175.89C178.347 159.575 180.342 157.58 180.342 155.124V86.1719H59.6699V155.124Z" fill="#6127DF"/>
<path d="M59.6699 86.1738L120.001 40.5898L180.342 86.1738H59.6699Z" fill="#7D5BCA"/>
<path d="M180.342 86.1719H59.6699L102.577 118.593H137.434L180.342 86.1719Z" fill="#22008C"/>
<path d="M64.121 159.578H175.89C178.347 159.578 180.342 157.583 180.342 155.127L137.434 118.586H102.577L59.6699 155.127C59.6699 157.583 61.6549 159.578 64.121 159.578Z" fill="#3D00C3"/>
<path d="M153.955 53.293H71.6895V95.2579L102.577 118.596H137.434L168.311 95.2579V67.6288H153.955V53.293Z" fill="#F9F5FE"/>
<path d="M153.955 67.6288H168.311L153.955 53.293V67.6288Z" fill="#D3CAE2"/>
<path d="M108.728 74.4591H150.258C151.058 74.4591 151.718 73.7991 151.718 72.9991C151.718 72.1991 151.058 71.5391 150.258 71.5391H108.728C107.928 71.5391 107.268 72.1991 107.268 72.9991C107.268 73.8091 107.928 74.4591 108.728 74.4591Z" fill="#FFC401"/>
<path d="M108.728 79.5177H150.258C151.058 79.5177 151.718 78.8577 151.718 78.0577C151.718 77.2577 151.058 76.5977 150.258 76.5977H108.728C107.928 76.5977 107.268 77.2577 107.268 78.0577C107.268 78.8677 107.928 79.5177 108.728 79.5177Z" fill="#FFC401"/>
<path d="M95.42 82.84C99.518 82.84 102.84 79.518 102.84 75.42C102.84 71.322 99.518 68 95.42 68C91.322 68 88 71.322 88 75.42C88 79.518 91.322 82.84 95.42 82.84Z" fill="#49C190"/>
<path d="M108.728 97.4591H150.258C151.058 97.4591 151.718 96.7991 151.718 95.9991C151.718 95.1991 151.058 94.5391 150.258 94.5391H108.728C107.928 94.5391 107.268 95.1991 107.268 95.9991C107.268 96.8091 107.928 97.4591 108.728 97.4591Z" fill="#FFC401"/>
<path d="M108.728 102.518H150.258C151.058 102.518 151.718 101.858 151.718 101.058C151.718 100.258 151.058 99.5977 150.258 99.5977H108.728C107.928 99.5977 107.268 100.258 107.268 101.058C107.268 101.868 107.928 102.518 108.728 102.518Z" fill="#FFC401"/>
<path d="M95.42 105.84C99.518 105.84 102.84 102.518 102.84 98.42C102.84 94.322 99.518 91 95.42 91C91.322 91 88 94.322 88 98.42C88 102.518 91.322 105.84 95.42 105.84Z" fill="#49C190"/>
<path d="M51.9297 53.33L52.9923 67.6457L58.4761 56.949L86.1553 33.4102L51.9297 53.33Z" fill="#B78400"/>
<path d="M36.9531 47.9866L86.1561 33.4102L51.9306 53.33L36.9531 47.9866Z" fill="#FFC401"/>
<path d="M86.1558 33.4102L58.4766 56.949L75.058 70.7134L86.1558 33.4102Z" fill="#FFC401"/>
<path d="M50.5057 73.8008C50.5057 73.8008 19.3077 147.204 73.5533 143.726C102.014 141.901 89.9744 111.756 74.4856 120.307C55.9092 130.573 67.9794 175.545 105.834 168.327C143.689 161.109 131.939 138.222 153.934 135.315C167.538 133.51 170.566 152.377 155.498 150.934C136.791 149.139 153.122 113.129 184.681 112.698C213.814 112.297 210.125 78.4725 168.32 79.084" stroke="#FFC401" stroke-width="0.75" stroke-miterlimit="10" stroke-dasharray="6 6"/>
<path d="M216.604 124.208C219.699 124.208 222.208 121.699 222.208 118.604C222.208 115.509 219.699 113 216.604 113C213.509 113 211 115.509 211 118.604C211 121.699 213.509 124.208 216.604 124.208Z" fill="#7D5BCA"/>
<path d="M187.578 40.7437C187.578 39.4516 187.749 38.3609 188.107 37.4716C188.448 36.5655 189.045 35.7433 189.864 34.9714C191.075 33.8136 192.201 32.8069 193.225 31.9511C194.249 31.0953 195.136 30.2899 195.87 29.5516C196.603 28.7965 197.183 28.0918 197.593 27.4373C198.002 26.7662 198.207 26.0782 198.207 25.3567C198.207 23.9472 197.763 22.8397 196.876 22.0511C195.989 21.2624 194.863 20.8597 193.515 20.8597C191.468 20.8597 189.915 21.4134 188.84 22.5209C187.783 23.6283 187.168 24.9875 187.049 26.5648L177 25.9272C177.478 21.3966 179.184 17.94 182.084 15.5573C185.002 13.1746 188.738 12 193.31 12C195.307 12 197.2 12.2685 198.958 12.8054C200.715 13.3424 202.267 14.1478 203.615 15.2049C204.963 16.2788 206.038 17.6044 206.823 19.1817C207.608 20.759 208 22.588 208 24.6351C208 25.8768 207.864 27.0011 207.608 28.0079C207.352 29.0146 206.891 30.0046 206.277 30.9946C205.646 31.9846 204.827 32.9747 203.803 33.9814C202.779 34.9882 201.483 36.0957 199.913 37.287C198.906 38.0589 198.241 38.814 197.883 39.5355C197.525 40.2571 197.354 40.9954 197.354 41.7169V43.5794H187.561V40.7437H187.578ZM186.469 53.0768C186.469 52.2713 186.622 51.4995 186.93 50.7612C187.237 50.0396 187.663 49.402 188.209 48.865C188.755 48.3281 189.386 47.9086 190.137 47.6066C190.871 47.3045 191.655 47.1535 192.491 47.1535C193.327 47.1535 194.095 47.3045 194.846 47.6066C195.58 47.9086 196.228 48.3281 196.774 48.865C197.32 49.402 197.746 50.0229 198.053 50.7612C198.36 51.4827 198.514 52.2546 198.514 53.0768C198.514 53.8822 198.36 54.6541 198.053 55.3924C197.746 56.1139 197.32 56.7515 196.774 57.2885C196.228 57.8254 195.58 58.2449 194.846 58.5469C194.112 58.849 193.327 59 192.491 59C191.655 59 190.888 58.849 190.137 58.5469C189.403 58.2449 188.755 57.8254 188.209 57.2885C187.663 56.7515 187.237 56.1307 186.93 55.3924C186.622 54.6541 186.469 53.8822 186.469 53.0768Z" fill="#3D00C3"/>
<path d="M148.142 36.5123C148.142 35.7701 148.241 35.1435 148.449 34.6326C148.647 34.1121 148.994 33.6398 149.469 33.1964C150.173 32.5312 150.827 31.9529 151.421 31.4613C152.015 30.9697 152.531 30.507 152.957 30.0828C153.382 29.6491 153.719 29.2442 153.957 28.8683C154.195 28.4827 154.314 28.0875 154.314 27.673C154.314 26.8633 154.056 26.2271 153.541 25.774C153.026 25.321 152.372 25.0896 151.589 25.0896C150.401 25.0896 149.499 25.4077 148.875 26.0439C148.261 26.6801 147.904 27.4609 147.835 28.367L142 28.0007C142.277 25.3981 143.268 23.4124 144.952 22.0436C146.646 20.6748 148.816 20 151.471 20C152.63 20 153.729 20.1542 154.75 20.4627C155.77 20.7712 156.671 21.2338 157.454 21.8411C158.237 22.4581 158.861 23.2196 159.316 24.1257C159.772 25.0318 160 26.0825 160 27.2585C160 27.9718 159.921 28.6176 159.772 29.196C159.624 29.7744 159.356 30.3431 158.999 30.9118C158.633 31.4805 158.157 32.0493 157.563 32.6276C156.969 33.206 156.216 33.8422 155.304 34.5266C154.72 34.97 154.334 35.4038 154.125 35.8183C153.917 36.2328 153.818 36.6569 153.818 37.0714V38.1414H148.132V36.5123H148.142ZM147.498 43.5973C147.498 43.1346 147.587 42.6912 147.766 42.267C147.944 41.8526 148.192 41.4863 148.509 41.1778C148.826 40.8693 149.192 40.6283 149.628 40.4548C150.054 40.2813 150.51 40.1946 150.995 40.1946C151.48 40.1946 151.926 40.2813 152.362 40.4548C152.788 40.6283 153.165 40.8693 153.482 41.1778C153.799 41.4863 154.046 41.8429 154.225 42.267C154.403 42.6815 154.492 43.125 154.492 43.5973C154.492 44.06 154.403 44.5034 154.225 44.9275C154.046 45.342 153.799 45.7083 153.482 46.0168C153.165 46.3252 152.788 46.5662 152.362 46.7397C151.936 46.9132 151.48 47 150.995 47C150.51 47 150.064 46.9132 149.628 46.7397C149.202 46.5662 148.826 46.3252 148.509 46.0168C148.192 45.7083 147.944 45.3517 147.766 44.9275C147.587 44.5034 147.498 44.06 147.498 43.5973Z" fill="#3D00C3"/>
</svg>
