<svg width="240" height="180" viewBox="0 0 240 180" fill="none" xmlns="http://www.w3.org/2000/svg">
<path d="M87.3821 158.974C29.4521 155.274 -16.9979 87.964 13.8221 48.904C37.7321 18.614 69.6021 62.704 99.3321 40.494C145.072 6.31399 219.172 0.0939922 228.982 43.184C238.792 86.274 206.302 153.584 182.092 157.624C157.882 161.664 87.3821 158.974 87.3821 158.974Z" fill="#CFD3FF"/>
<path d="M51.4826 39.6766C48.5926 40.4166 47.5826 41.4166 46.8426 44.3166C46.7226 44.7966 46.0226 44.7966 45.8926 44.3166C45.1526 41.4266 44.1526 40.4166 41.2526 39.6766C40.7726 39.5566 40.7726 38.8566 41.2526 38.7266C44.1426 37.9866 45.1526 36.9866 45.8926 34.0866C46.0126 33.6066 46.7126 33.6066 46.8426 34.0866C47.5826 36.9766 48.5826 37.9866 51.4826 38.7266C51.9626 38.8466 51.9626 39.5466 51.4826 39.6766Z" fill="#FFC401"/>
<path d="M69.0823 28.7759C64.6723 29.8959 63.1423 31.4359 62.0123 35.8459C61.8223 36.5859 60.7623 36.5859 60.5723 35.8459C59.4523 31.4359 57.9123 29.9059 53.5023 28.7759C52.7623 28.5859 52.7623 27.5259 53.5023 27.3359C57.9123 26.2159 59.4423 24.6759 60.5723 20.2659C60.7623 19.5259 61.8223 19.5259 62.0123 20.2659C63.1323 24.6759 64.6723 26.2059 69.0823 27.3359C69.8223 27.5259 69.8223 28.5859 69.0823 28.7759Z" fill="#BD54AE"/>
<path d="M169.262 169.066C177.127 169.066 183.502 162.69 183.502 154.826C183.502 146.961 177.127 140.586 169.262 140.586C161.398 140.586 155.022 146.961 155.022 154.826C155.022 162.69 161.398 169.066 169.262 169.066Z" fill="#7D5BCA"/>
<path d="M184.262 50.6648C182.992 50.6648 181.372 50.2948 179.422 49.5548C175.852 48.2048 171.592 45.7548 167.442 42.6648C163.292 39.5748 159.722 36.2048 157.392 33.1748C154.892 29.9148 154.122 27.4448 155.182 26.0348C156.232 24.6148 158.822 24.6448 162.662 26.0948C166.232 27.4448 170.492 29.8948 174.642 32.9848C178.792 36.0748 182.362 39.4448 184.692 42.4748C187.192 45.7348 187.962 48.2048 186.902 49.6148C186.372 50.3148 185.482 50.6648 184.262 50.6648ZM157.792 26.1348C156.972 26.1348 156.382 26.3248 156.092 26.7148C155.412 27.6348 156.232 29.7848 158.292 32.4748C160.552 35.4248 164.042 38.7148 168.112 41.7448C172.182 44.7748 176.342 47.1648 179.812 48.4848C182.982 49.6848 185.272 49.8548 185.962 48.9348C186.642 48.0148 185.822 45.8648 183.762 43.1848C181.502 40.2348 178.012 36.9448 173.942 33.9148C169.872 30.8848 165.712 28.4948 162.242 27.1748C160.432 26.4848 158.902 26.1348 157.792 26.1348Z" fill="#3D00C3"/>
<path d="M181.822 53.9441C180.552 53.9441 178.932 53.5741 176.982 52.8341C173.412 51.4841 169.152 49.0341 165.002 45.9441C157.312 40.2241 150.402 32.4541 152.742 29.3141C155.072 26.1741 164.512 30.5541 172.202 36.2641C179.892 41.9841 186.802 49.7541 184.462 52.8941C183.932 53.5941 183.042 53.9441 181.822 53.9441ZM155.362 29.4041C154.542 29.4041 153.952 29.6041 153.662 29.9941C152.282 31.8441 156.882 38.4741 165.692 45.0141C169.762 48.0441 173.922 50.4341 177.392 51.7541C180.562 52.9541 182.852 53.1241 183.542 52.2041C184.922 50.3541 180.322 43.7241 171.512 37.1841C164.592 32.0541 158.372 29.4041 155.362 29.4041Z" fill="#3D00C3"/>
<path d="M87.322 114.357C86.652 113.837 85.862 113.458 84.962 113.228C84.832 113.188 84.702 113.148 84.572 113.118C84.442 113.078 84.312 113.038 84.182 113.008C84.052 112.968 83.922 112.928 83.792 112.898C83.662 112.858 83.532 112.818 83.402 112.788C83.272 112.748 83.142 112.708 83.012 112.678C82.882 112.638 82.752 112.598 82.622 112.568C82.492 112.528 82.362 112.488 82.232 112.458C82.102 112.418 81.9719 112.378 81.8419 112.348C81.7119 112.308 81.582 112.268 81.452 112.238C81.322 112.198 81.192 112.158 81.062 112.128C80.932 112.088 80.802 112.048 80.672 112.018C80.542 111.978 80.412 111.938 80.282 111.908C80.152 111.868 80.022 111.828 79.892 111.798C79.762 111.758 79.632 111.717 79.502 111.688C79.372 111.648 79.242 111.607 79.112 111.577C78.982 111.537 78.852 111.497 78.722 111.467C78.592 111.427 78.462 111.387 78.332 111.357C78.202 111.317 78.072 111.277 77.942 111.247C77.812 111.207 77.682 111.167 77.552 111.137C77.422 111.097 77.292 111.057 77.162 111.027C76.482 110.807 75.722 110.688 74.892 110.648V53.6975C74.892 51.8075 74.332 50.2175 73.222 48.9375C72.452 48.0475 71.522 47.4775 70.432 47.1975C70.302 47.1575 70.172 47.1175 70.042 47.0875C69.912 47.0475 69.782 47.0075 69.652 46.9775C69.522 46.9375 69.392 46.8975 69.262 46.8675C69.132 46.8275 69.002 46.7875 68.872 46.7575C68.742 46.7175 68.612 46.6775 68.482 46.6475C68.352 46.6075 68.2219 46.5675 68.0919 46.5375C67.9619 46.4975 67.832 46.4575 67.702 46.4275C67.572 46.3875 67.442 46.3475 67.312 46.3175C67.182 46.2775 67.052 46.2375 66.922 46.2075C66.792 46.1675 66.662 46.1275 66.532 46.0975C66.402 46.0575 66.272 46.0175 66.142 45.9875C66.012 45.9475 65.882 45.9075 65.752 45.8775C65.622 45.8375 65.492 45.7975 65.362 45.7675C65.232 45.7275 65.102 45.6875 64.972 45.6575C64.842 45.6175 64.712 45.5775 64.582 45.5475C64.452 45.5075 64.322 45.4675 64.192 45.4375C64.062 45.3975 63.932 45.3575 63.802 45.3275C63.672 45.2875 63.542 45.2475 63.412 45.2175C63.282 45.1775 63.152 45.1375 63.022 45.1075C62.892 45.0675 62.762 45.0275 62.632 44.9975C62.022 44.7975 61.372 44.6875 60.652 44.6875C58.502 44.6875 56.702 45.6375 55.242 47.5175L5.79195 112.148C4.93195 113.268 4.50195 114.548 4.50195 116.008C4.50195 117.728 5.10195 119.228 6.30195 120.518C7.10195 121.378 8.08195 121.938 9.22195 122.228C9.35195 122.268 9.48195 122.307 9.61195 122.337C9.74195 122.377 9.87195 122.417 10.002 122.447C10.132 122.487 10.262 122.527 10.392 122.557C10.522 122.597 10.652 122.637 10.782 122.667C10.912 122.707 11.042 122.747 11.172 122.777C11.302 122.817 11.432 122.857 11.562 122.887C11.692 122.927 11.822 122.967 11.952 122.997C12.082 123.037 12.212 123.077 12.342 123.107C12.472 123.147 12.602 123.187 12.732 123.217C12.862 123.257 12.992 123.297 13.122 123.327C13.252 123.367 13.382 123.408 13.512 123.438C13.642 123.477 13.772 123.518 13.902 123.548C14.032 123.588 14.162 123.628 14.292 123.658C14.422 123.698 14.552 123.738 14.682 123.768C14.812 123.808 14.942 123.848 15.072 123.878C15.202 123.918 15.332 123.958 15.462 123.988C15.592 124.028 15.722 124.068 15.852 124.098C15.982 124.138 16.112 124.178 16.242 124.208C16.372 124.248 16.502 124.288 16.632 124.318C16.762 124.358 16.892 124.398 17.022 124.428C17.702 124.648 18.442 124.758 19.262 124.758H53.882V138.647C53.882 140.447 54.482 141.997 55.682 143.287C56.512 144.177 57.472 144.757 58.552 145.027C58.682 145.067 58.812 145.107 58.942 145.137C59.072 145.177 59.202 145.217 59.332 145.247C59.462 145.287 59.592 145.327 59.722 145.357C59.852 145.397 59.982 145.437 60.112 145.467C60.242 145.507 60.372 145.547 60.502 145.577C60.632 145.617 60.762 145.658 60.892 145.688C61.022 145.727 61.152 145.768 61.282 145.798C61.412 145.838 61.542 145.878 61.672 145.908C61.802 145.948 61.932 145.988 62.062 146.018C62.192 146.058 62.322 146.098 62.452 146.128C62.582 146.168 62.712 146.208 62.842 146.238C62.972 146.278 63.102 146.318 63.232 146.348C63.362 146.388 63.492 146.428 63.622 146.458C63.752 146.498 63.882 146.538 64.012 146.568C64.142 146.608 64.272 146.647 64.402 146.677C64.532 146.717 64.662 146.757 64.792 146.787C64.922 146.827 65.052 146.867 65.182 146.897C65.312 146.937 65.442 146.977 65.572 147.007C65.702 147.047 65.832 147.087 65.962 147.117C66.092 147.157 66.222 147.197 66.352 147.227C66.942 147.427 67.582 147.527 68.252 147.527C70.052 147.527 71.582 146.888 72.822 145.598C74.062 144.308 74.692 142.768 74.692 140.958V124.728H82.422C84.222 124.728 85.772 124.148 87.062 122.988C88.352 121.828 88.992 120.438 88.992 118.798C89.122 116.798 88.522 115.297 87.322 114.357ZM53.952 81.1575V110.598H31.532L53.952 81.1575Z" fill="#22008C"/>
<path d="M235.082 114.356C234.412 113.836 233.622 113.456 232.722 113.226C232.592 113.186 232.462 113.146 232.332 113.116C232.202 113.076 232.072 113.036 231.942 113.006C231.812 112.966 231.682 112.926 231.552 112.896C231.422 112.856 231.292 112.816 231.162 112.786C231.032 112.746 230.902 112.706 230.772 112.676C230.642 112.636 230.512 112.596 230.382 112.566C230.252 112.526 230.122 112.486 229.992 112.456C229.862 112.416 229.732 112.376 229.602 112.346C229.472 112.306 229.342 112.266 229.212 112.236C229.082 112.196 228.952 112.156 228.822 112.126C228.692 112.086 228.562 112.046 228.432 112.016C228.302 111.976 228.172 111.936 228.042 111.906C227.912 111.866 227.782 111.826 227.652 111.796C227.522 111.756 227.392 111.716 227.262 111.686C227.132 111.646 227.002 111.606 226.872 111.576C226.742 111.536 226.612 111.496 226.482 111.466C226.352 111.426 226.222 111.386 226.092 111.356C225.962 111.316 225.832 111.276 225.702 111.246C225.572 111.206 225.442 111.166 225.312 111.136C225.182 111.096 225.052 111.056 224.922 111.026C224.242 110.806 223.482 110.686 222.652 110.646V53.6959C222.652 51.8059 222.092 50.2159 220.982 48.9359C220.212 48.0459 219.282 47.4759 218.192 47.1959C218.062 47.1559 217.932 47.1159 217.802 47.0859C217.672 47.0459 217.542 47.0059 217.412 46.9759C217.282 46.9359 217.152 46.8959 217.022 46.8659C216.892 46.8259 216.762 46.7859 216.632 46.7559C216.502 46.7159 216.372 46.6759 216.242 46.6459C216.112 46.6059 215.982 46.5659 215.852 46.5359C215.722 46.4959 215.592 46.4559 215.462 46.4259C215.332 46.3859 215.202 46.3459 215.072 46.3159C214.942 46.2759 214.812 46.2359 214.682 46.2059C214.552 46.1659 214.422 46.1259 214.292 46.0959C214.162 46.0559 214.032 46.0159 213.902 45.9859C213.772 45.9459 213.642 45.9059 213.512 45.8759C213.382 45.8359 213.252 45.7959 213.122 45.7659C212.992 45.7259 212.862 45.6859 212.732 45.6559C212.602 45.6159 212.472 45.5759 212.342 45.5459C212.212 45.5059 212.082 45.4659 211.952 45.4359C211.822 45.3959 211.692 45.3559 211.562 45.3259C211.432 45.2859 211.302 45.2459 211.172 45.2159C211.042 45.1759 210.912 45.1359 210.782 45.1059C210.652 45.0659 210.522 45.0259 210.392 44.9959C209.782 44.7959 209.132 44.6859 208.412 44.6859C206.262 44.6859 204.462 45.6359 203.002 47.5159L156.492 108.476C156.842 104.936 157.012 101.186 157.012 97.2359C157.012 86.8459 155.812 77.8759 153.402 70.3259C151.002 62.7759 147.482 56.9759 142.842 52.9459C139.932 50.4159 136.672 48.6759 133.052 47.7359C132.922 47.6959 132.792 47.6559 132.662 47.6259C132.532 47.5859 132.402 47.5459 132.272 47.5159C132.142 47.4759 132.012 47.4359 131.882 47.4059C131.752 47.3659 131.622 47.3259 131.492 47.2959C131.362 47.2559 131.232 47.2159 131.102 47.1859C130.972 47.1459 130.842 47.1059 130.712 47.0759C130.582 47.0359 130.452 46.9959 130.322 46.9659C130.192 46.9259 130.062 46.8859 129.932 46.8559C129.802 46.8159 129.672 46.7759 129.542 46.7459C129.412 46.7059 129.282 46.6659 129.152 46.6359C129.022 46.5959 128.892 46.5559 128.762 46.5259C128.632 46.4859 128.502 46.4459 128.372 46.4159C128.242 46.3759 128.112 46.3359 127.982 46.3059C127.852 46.2659 127.722 46.2259 127.592 46.1959C127.462 46.1559 127.332 46.1159 127.202 46.0859C127.072 46.0459 126.942 46.0059 126.812 45.9759C126.682 45.9359 126.552 45.8959 126.422 45.8659C126.292 45.8259 126.162 45.7859 126.032 45.7559C125.902 45.7159 125.772 45.6759 125.642 45.6459C125.512 45.6059 125.382 45.5659 125.252 45.5359C122.982 44.9059 120.582 44.5859 118.032 44.5859C108.242 44.5859 100.672 49.0059 95.302 57.8459C89.932 66.6859 87.252 79.0559 87.252 94.9359C87.252 110.816 89.932 123.186 95.302 132.026C99.332 138.676 104.622 142.826 111.152 144.476C111.282 144.516 111.412 144.556 111.542 144.586C111.672 144.626 111.802 144.666 111.932 144.696C112.062 144.736 112.192 144.776 112.322 144.806C112.452 144.846 112.582 144.886 112.712 144.916C112.842 144.956 112.972 144.996 113.102 145.026C113.232 145.066 113.362 145.106 113.492 145.136C113.622 145.176 113.752 145.216 113.882 145.246C114.012 145.286 114.142 145.326 114.272 145.356C114.402 145.396 114.532 145.436 114.662 145.466C114.792 145.506 114.922 145.546 115.052 145.576C115.182 145.616 115.312 145.656 115.442 145.686C115.572 145.726 115.702 145.766 115.832 145.796C115.962 145.836 116.092 145.876 116.222 145.906C116.352 145.946 116.482 145.986 116.612 146.016C116.742 146.056 116.872 146.096 117.002 146.126C117.132 146.166 117.262 146.206 117.392 146.236C117.522 146.276 117.652 146.316 117.782 146.346C117.912 146.386 118.042 146.426 118.172 146.456C118.302 146.496 118.432 146.536 118.562 146.566C118.692 146.606 118.822 146.646 118.952 146.676C121.222 147.286 123.642 147.606 126.222 147.606C132.662 147.606 138.202 145.586 142.832 141.556C147.472 137.526 150.992 131.726 153.392 124.166C153.742 123.056 154.062 121.896 154.372 120.726C155.132 121.476 156.042 121.986 157.102 122.256C157.232 122.296 157.362 122.336 157.492 122.366C157.622 122.406 157.752 122.446 157.882 122.476C158.012 122.516 158.142 122.556 158.272 122.586C158.402 122.626 158.532 122.666 158.662 122.696C158.792 122.736 158.922 122.776 159.052 122.806C159.182 122.846 159.312 122.886 159.442 122.916C159.572 122.956 159.702 122.996 159.832 123.026C159.962 123.066 160.092 123.106 160.222 123.136C160.352 123.176 160.482 123.216 160.612 123.246C160.742 123.286 160.872 123.326 161.002 123.356C161.132 123.396 161.262 123.436 161.392 123.466C161.522 123.506 161.652 123.546 161.782 123.576C161.912 123.616 162.042 123.656 162.172 123.686C162.302 123.726 162.432 123.766 162.562 123.796C162.692 123.836 162.822 123.876 162.952 123.906C163.082 123.946 163.212 123.986 163.342 124.016C163.472 124.056 163.602 124.096 163.732 124.126C163.862 124.166 163.992 124.206 164.122 124.236C164.252 124.276 164.382 124.316 164.512 124.346C164.642 124.386 164.772 124.426 164.902 124.456C165.582 124.676 166.322 124.786 167.142 124.786H201.762V138.676C201.762 140.476 202.362 142.026 203.562 143.316C204.392 144.206 205.352 144.786 206.432 145.056C206.562 145.096 206.692 145.136 206.822 145.166C206.952 145.206 207.082 145.246 207.212 145.276C207.342 145.316 207.472 145.356 207.602 145.386C207.732 145.426 207.862 145.466 207.992 145.496C208.122 145.536 208.252 145.576 208.382 145.606C208.512 145.646 208.642 145.686 208.772 145.716C208.902 145.756 209.032 145.796 209.162 145.826C209.292 145.866 209.422 145.906 209.552 145.936C209.682 145.976 209.812 146.016 209.942 146.046C210.072 146.086 210.202 146.126 210.332 146.156C210.462 146.196 210.592 146.236 210.722 146.266C210.852 146.306 210.982 146.346 211.112 146.376C211.242 146.416 211.372 146.456 211.502 146.486C211.632 146.526 211.762 146.566 211.892 146.596C212.022 146.636 212.152 146.676 212.282 146.706C212.412 146.746 212.542 146.786 212.672 146.816C212.802 146.856 212.932 146.896 213.062 146.926C213.192 146.966 213.322 147.006 213.452 147.036C213.582 147.076 213.712 147.116 213.842 147.146C213.972 147.186 214.102 147.226 214.232 147.256C214.822 147.456 215.462 147.556 216.132 147.556C217.932 147.556 219.462 146.916 220.702 145.626C221.942 144.336 222.572 142.796 222.572 140.986V124.756H230.302C232.102 124.756 233.652 124.176 234.942 123.016C236.232 121.856 236.872 120.466 236.872 118.826C236.882 116.796 236.282 115.296 235.082 114.356ZM201.712 81.1559V110.596H179.302L201.712 81.1559ZM113.102 124.076C110.092 117.336 108.592 108.386 108.592 97.2259C108.592 86.1559 110.072 77.2059 113.032 70.3759C115.812 63.9659 119.822 60.5659 125.072 60.1759C127.362 61.8859 129.292 64.5259 130.852 68.1059C133.852 74.9759 135.362 83.9059 135.362 94.8959C135.362 105.966 133.882 114.896 130.922 121.676C128.132 128.066 124.092 131.446 118.822 131.816C116.562 130.136 114.652 127.556 113.102 124.076Z" fill="#22008C"/>
<path d="M79.062 112.014C80.262 112.964 80.862 114.464 80.862 116.524C80.862 118.154 80.222 119.554 78.932 120.714C77.642 121.874 76.102 122.454 74.292 122.454H66.562V138.684C66.562 140.484 65.942 142.034 64.692 143.324C63.442 144.614 61.922 145.254 60.122 145.254C58.402 145.254 56.942 144.614 55.742 143.324C54.542 142.034 53.942 140.494 53.942 138.684V122.454H11.062C9.08195 122.454 7.50195 121.814 6.30195 120.524C5.10195 119.234 4.50195 117.734 4.50195 116.014C4.50195 114.554 4.93195 113.264 5.79195 112.154L55.112 47.5136C56.572 45.6236 58.372 44.6836 60.522 44.6836C62.322 44.6836 63.782 45.3236 64.902 46.6136C66.012 47.9036 66.572 49.4936 66.572 51.3736V110.614H74.302C76.272 110.604 77.852 111.074 79.062 112.014ZM21.502 110.604H53.952V67.9736L21.502 110.604Z" fill="#FFC401"/>
<path d="M95.1223 131.975C89.7523 123.135 87.0723 110.775 87.0723 94.8852C87.0723 79.0052 89.7523 66.6452 95.1223 57.7952C100.482 48.9552 108.062 44.5352 117.852 44.5352C124.292 44.5352 129.832 46.5552 134.462 50.5852C139.102 54.6252 142.622 60.4152 145.022 67.9652C147.422 75.5252 148.632 84.4952 148.632 94.8752C148.632 105.265 147.432 114.235 145.022 121.785C142.622 129.345 139.102 135.135 134.462 139.175C129.822 143.215 124.292 145.225 117.852 145.225C108.062 145.245 100.492 140.825 95.1223 131.975ZM130.922 121.675C133.882 114.895 135.362 105.965 135.362 94.8952C135.362 83.9052 133.862 74.9752 130.852 68.1052C127.842 61.2352 123.512 57.8052 117.842 57.8052C112.092 57.8052 107.732 61.2152 104.772 68.0452C101.812 74.8752 100.332 83.8152 100.332 94.8952C100.332 106.055 101.832 115.005 104.842 121.745C107.842 128.485 112.182 131.855 117.852 131.855C123.602 131.845 127.962 128.455 130.922 121.675Z" fill="#FFC401"/>
<path d="M226.822 112.014C228.022 112.964 228.622 114.464 228.622 116.524C228.622 118.154 227.982 119.554 226.692 120.714C225.402 121.874 223.862 122.454 222.052 122.454H214.322V138.684C214.322 140.484 213.702 142.034 212.452 143.324C211.202 144.614 209.682 145.254 207.882 145.254C206.162 145.254 204.702 144.614 203.502 143.324C202.302 142.034 201.702 140.494 201.702 138.684V122.454H158.822C156.842 122.454 155.262 121.814 154.062 120.524C152.862 119.234 152.262 117.734 152.262 116.014C152.262 114.554 152.692 113.264 153.552 112.154L202.872 47.5136C204.332 45.6236 206.132 44.6836 208.282 44.6836C210.082 44.6836 211.542 45.3236 212.662 46.6136C213.772 47.9036 214.332 49.4936 214.332 51.3736V110.614H222.062C224.032 110.604 225.622 111.074 226.822 112.014ZM169.262 110.604H201.712V67.9736L169.262 110.604Z" fill="#FFC401"/>
<path d="M95.5317 79.4062C94.4117 79.7663 93.2917 80.2862 92.3917 81.0062C88.8817 83.8162 84.3417 84.6662 79.4517 84.9262C79.4317 85.0762 79.4117 85.2162 79.3817 85.3762C79.2017 86.3262 78.9017 87.1962 78.5717 87.9462C77.7017 90.9362 76.5317 93.8162 74.9817 96.0862C74.9017 96.2062 74.8117 96.3262 74.7217 96.4362C80.1817 96.9962 87.6817 96.6962 90.3917 96.5562C89.8417 93.8062 89.6017 91.6263 89.7917 90.4062C90.2017 87.6862 93.2717 84.4262 95.2117 82.6062C95.0417 82.0162 94.9017 81.4162 94.8717 80.8762L95.5317 79.4062Z" fill="#3D00C3"/>
<path d="M91.4223 101.004C90.8723 101.084 90.3523 101.154 89.8223 101.214C90.8323 101.094 91.4223 101.004 91.4223 101.004Z" fill="#3D00C3"/>
<path d="M74.0816 100.746C72.8116 100.396 71.6116 99.9558 70.4316 99.4258C71.5216 99.9958 72.7616 100.416 74.0816 100.746Z" fill="#3D00C3"/>
<path d="M97.4216 81.8648C97.6416 81.5548 97.9516 81.2148 98.3416 80.8548L96.9416 77.4648L96.1816 77.9548C96.1816 77.9548 96.5316 80.7848 97.4216 81.8648Z" fill="#7D5BCA"/>
<path d="M107.232 70.8164L106.422 71.3364L106.832 72.2564C107.032 71.7164 107.172 71.2264 107.232 70.8164Z" fill="#7D5BCA"/>
<path d="M99.7716 74.6061C98.1616 75.5661 96.8816 75.4761 95.9316 74.9861L96.9516 77.4661L98.3516 80.8561C97.9516 81.2161 97.6516 81.5561 97.4316 81.8661C97.6416 82.1261 97.8916 82.2861 98.1716 82.2861C98.1716 82.2861 100.632 80.9061 103.222 77.9761C105.012 75.9461 106.242 73.8661 106.842 72.2661L106.432 71.3461L106.032 70.4461C106.032 70.4461 105.292 69.1061 104.792 67.9961C104.302 69.4661 102.962 72.7061 99.7716 74.6061Z" fill="#FFB7A9"/>
<path d="M99.5917 73.3372C98.5017 73.9072 97.2117 74.3572 95.7217 74.5072L95.9217 74.9972C96.8817 75.4872 98.1517 75.5772 99.7617 74.6172C102.952 72.7172 104.292 69.4772 104.772 67.9972C104.712 67.8672 104.662 67.7372 104.612 67.6172C104.012 69.6172 102.242 71.9372 99.5917 73.3372Z" fill="#DB837B"/>
<path d="M104.722 49.337C104.722 49.337 109.112 58.507 107.502 57.927C107.352 57.877 107.202 57.857 107.042 57.837C107.142 57.927 107.222 58.017 107.282 58.097C107.422 58.157 107.552 58.217 107.692 58.307C108.242 58.697 108.692 59.437 108.862 60.337C109.092 58.977 109.222 57.357 109.172 55.267C109.062 50.837 106.962 49.117 105.412 48.457C105.362 48.487 105.312 48.517 105.252 48.537C105.112 49.057 104.722 49.337 104.722 49.337Z" fill="#002264"/>
<path d="M107.072 65.0273C106.452 65.5773 105.572 65.4273 105.102 65.2873C104.982 66.1273 104.822 66.8673 104.642 67.5073C104.632 67.5373 104.622 67.5673 104.612 67.5973C104.662 67.7173 104.722 67.8473 104.772 67.9773C105.272 69.0873 106.012 70.4273 106.012 70.4273C106.402 67.7473 107.112 66.0473 107.762 64.2773C107.562 64.5373 107.342 64.7873 107.072 65.0273Z" fill="#002264"/>
<path d="M83.5216 55.6236C83.5516 54.4836 83.6216 53.7736 83.6216 53.7736C83.6616 53.4136 83.7216 53.0836 83.8016 52.7636C83.3516 52.6336 82.8816 52.4436 82.4016 52.1836C82.3416 52.3636 82.3216 52.6336 82.3616 53.0336C82.4416 53.7536 82.6516 54.5536 82.9016 55.3136C83.1016 55.4036 83.2816 55.5136 83.4216 55.6536C83.4516 55.6436 83.4916 55.6336 83.5216 55.6236Z" fill="#002264"/>
<path d="M84.1622 55.447C84.1622 55.447 84.1722 55.447 84.1622 55.447C84.1622 55.447 84.1922 55.447 84.2022 55.447C84.3022 55.437 84.4022 55.427 84.5122 55.427C84.5822 55.427 84.6522 55.437 84.7122 55.447C85.1722 55.437 85.8122 55.427 86.1722 55.427C86.9622 55.427 87.7022 55.797 88.3122 56.417L94.8322 57.467C94.9622 57.487 95.0922 57.527 95.2122 57.557C95.3622 57.537 95.5122 57.507 95.6722 57.507C97.6522 57.507 99.2622 59.187 99.2622 61.257C99.2622 63.327 97.6522 64.997 95.6722 64.997C95.5122 64.997 95.3622 64.967 95.2122 64.947C95.0822 64.977 94.9622 65.017 94.8322 65.037L91.9522 65.497C92.0422 65.507 92.1122 65.507 92.1522 65.497C92.2122 65.487 92.2722 65.537 92.2822 65.597C92.2922 65.657 92.2422 65.717 92.1822 65.727C92.1822 65.727 92.1822 65.727 92.1722 65.727C92.0622 65.737 91.7322 65.747 91.4022 65.587L88.3122 66.087C87.7022 66.717 86.9722 67.077 86.1722 67.077C85.9022 67.077 85.3122 67.077 84.9222 67.077C85.9322 70.077 87.6422 72.697 90.4922 73.747C92.4422 74.467 94.1822 74.647 95.7322 74.487C97.2122 74.337 98.5122 73.897 99.6022 73.317C102.252 71.927 104.022 69.607 104.622 67.587C104.632 67.557 104.642 67.527 104.652 67.497C104.832 66.857 104.992 66.107 105.112 65.277C104.922 65.217 104.792 65.167 104.792 65.167L104.822 58.607C104.822 58.607 104.902 58.537 105.022 58.457C105.022 58.447 105.022 58.447 105.022 58.437C104.182 59.047 103.482 60.057 103.182 61.317C101.532 53.507 102.892 54.387 101.092 52.217C99.8322 50.707 93.0322 53.277 89.1922 53.327C88.3022 53.337 87.3122 53.257 86.3022 53.087C86.3022 53.087 85.1722 53.147 83.8122 52.747C83.7322 53.057 83.6722 53.397 83.6322 53.757C83.6322 53.757 83.5622 54.467 83.5322 55.607C83.7322 55.537 83.9422 55.477 84.1622 55.447ZM89.8522 67.677C93.3222 68.277 97.6422 66.307 97.6422 66.307C97.6422 66.307 97.8422 70.497 94.8822 71.317C91.8122 72.167 89.8522 67.677 89.8522 67.677ZM93.6322 72.157C93.6322 72.157 94.9922 72.607 96.6922 71.127C96.6922 71.127 96.0922 72.757 94.8522 72.697C94.3822 72.687 93.6322 72.157 93.6322 72.157ZM94.3222 55.397C94.6922 55.237 95.4322 54.777 96.6422 54.577C98.4722 54.287 100.362 55.297 99.5022 55.377C99.0322 55.417 97.8422 55.447 96.8222 55.717C95.9722 55.947 95.2422 56.417 95.0022 56.547C94.6222 56.747 94.1622 56.367 94.0222 55.977C93.9422 55.747 94.0722 55.497 94.3222 55.397Z" fill="#FFB7A9"/>
<path d="M107.692 58.3069C107.562 58.2069 107.422 58.1469 107.282 58.0969C106.322 57.6969 105.392 58.2069 105.002 58.4769C104.882 58.5569 104.802 58.6269 104.802 58.6269L104.772 65.1869C104.772 65.1869 104.902 65.2369 105.092 65.2969C105.562 65.4369 106.442 65.5869 107.062 65.0369C107.332 64.7969 107.552 64.5469 107.762 64.2969C108.862 62.9569 109.092 61.5169 108.862 60.3469C108.692 59.4369 108.242 58.6969 107.692 58.3069Z" fill="#FFB7A9"/>
<path d="M94.9922 56.5456C95.2322 56.4156 95.9622 55.9456 96.8122 55.7156C97.8422 55.4456 99.0222 55.4156 99.4922 55.3756C100.352 55.2956 98.4622 54.2856 96.6322 54.5756C95.4122 54.7656 94.6722 55.2356 94.3122 55.3956C94.0622 55.5056 93.9322 55.7456 94.0022 55.9756C94.1522 56.3656 94.6222 56.7456 94.9922 56.5456Z" fill="#002264"/>
<path d="M92.1723 65.7352C92.1723 65.7352 92.1823 65.7352 92.1723 65.7352C92.2423 65.7252 92.2823 65.6652 92.2723 65.6052C92.2623 65.5452 92.2123 65.4952 92.1423 65.5052C92.1023 65.5052 92.0323 65.5052 91.9423 65.5052L91.4023 65.5952C91.7423 65.7552 92.0623 65.7452 92.1723 65.7352Z" fill="#DB837B"/>
<path d="M94.8718 71.3147C97.8318 70.4947 97.6318 66.3047 97.6318 66.3047C97.6318 66.3047 93.3118 68.2647 89.8418 67.6747C89.8518 67.6747 91.8118 72.1647 94.8718 71.3147Z" fill="#BA3917"/>
<path d="M96.7016 71.1367C95.0016 72.6167 93.6416 72.1667 93.6416 72.1667C93.6416 72.1667 94.3916 72.6867 94.8616 72.7067C96.0916 72.7667 96.7016 71.1367 96.7016 71.1367Z" fill="#DB837B"/>
<path d="M86.2923 53.1144C86.2923 53.1144 86.2823 53.1144 86.2923 53.1144C87.2923 53.2744 88.2823 53.3544 89.1723 53.3444C93.0123 53.2944 99.8223 50.7144 101.072 52.2344C102.872 54.3944 101.502 53.5244 103.162 61.3344C103.462 60.0744 104.172 59.0644 105.002 58.4544C105.652 57.9744 106.372 57.7544 107.042 57.8344C107.202 57.8544 107.352 57.8744 107.502 57.9244C109.122 58.5044 104.722 49.3344 104.722 49.3344C104.722 49.3344 105.102 49.0544 105.262 48.5344C105.322 48.5144 105.362 48.4844 105.422 48.4544C107.022 47.6144 106.002 45.5944 104.822 45.6044C105.752 46.3444 105.922 46.9744 105.172 47.3544C105.092 46.9744 105.002 46.9044 104.592 46.4044C103.172 44.6844 99.6323 45.4644 97.2423 45.1744C94.8423 44.8944 90.6323 42.4844 87.8523 42.6144C85.0823 42.7444 84.6923 45.0544 84.6923 45.0544C84.6923 45.0544 79.8923 44.2244 80.3323 48.0444C80.5023 49.5244 81.4923 50.6644 82.8423 51.5044C80.3023 50.5844 79.3623 48.3644 79.3623 48.3644C79.9623 50.3644 81.1623 51.5144 82.3923 52.1944C82.8623 52.4544 83.3423 52.6444 83.7923 52.7744C85.1623 53.1744 86.2923 53.1144 86.2923 53.1144Z" fill="#002264"/>
<path d="M125.172 80.4161C122.722 81.1261 118.552 81.3461 113.312 77.6761C106.842 73.1261 112.402 67.2061 112.402 67.2061C112.402 67.2061 112.522 67.1161 112.682 66.9961C112.672 67.0061 112.652 67.0061 112.642 67.0161C111.502 67.7061 108.202 70.6261 107.702 71.0661L109.502 71.9761C109.502 71.9761 108.852 75.4561 107.032 78.5761C105.252 81.6361 101.562 85.6661 101.562 85.6661L98.8719 82.9961L96.5719 85.9961C96.5719 85.9961 95.7019 84.3361 95.2019 82.6161C93.2719 84.4261 90.1919 87.6961 89.7819 90.4161C89.6019 91.6261 89.8319 93.8161 90.3819 96.5661C91.0319 96.5361 91.4119 96.5061 91.4119 96.5061V100.996C93.2119 107.886 96.2319 116.466 99.5119 122.816C103.522 128.426 112.922 131.846 118.092 131.846C123.762 131.846 128.092 128.476 131.102 121.736C131.822 120.126 132.442 118.386 132.992 116.526C129.692 109.846 126.162 101.486 124.882 95.9461C124.262 93.2361 124.882 84.2061 125.172 80.4161Z" fill="#3D00C3"/>
<path d="M98.1623 82.2852L96.5723 85.9952L98.8723 82.9952L98.1623 82.2852Z" fill="#22008C"/>
<path d="M103.212 77.9742C100.622 80.9142 98.1621 82.2842 98.1621 82.2842L98.8721 82.9942L101.562 85.6642C101.562 85.6642 105.252 81.6342 107.032 78.5742C108.852 75.4642 109.502 71.9742 109.502 71.9742L107.702 71.0642L107.222 70.8242C107.162 71.2342 107.032 71.7242 106.822 72.2742C106.222 73.8642 105.002 75.9442 103.212 77.9742Z" fill="#F9F5FE"/>
<path d="M98.1623 82.287C97.8823 82.287 97.6423 82.127 97.4223 81.867C96.5323 80.777 96.1823 77.957 96.1823 77.957L95.5323 79.407L94.8623 80.887C94.8923 81.427 95.0323 82.027 95.2023 82.617C95.7023 84.327 96.5723 85.997 96.5723 85.997L98.1623 82.287Z" fill="#F9F5FE"/>
<path d="M104.442 13.1048C104.682 13.5648 104.912 14.2648 104.652 14.9548C104.522 15.3148 104.252 15.6248 103.892 15.8948C104.152 16.1748 104.992 16.9848 105.802 16.5348C106.302 16.2548 106.242 15.8848 106.202 15.7548C105.122 14.6648 104.472 11.8748 104.442 11.7448L104.702 11.6848C104.712 11.7148 105.382 14.6048 106.422 15.5948H106.432C106.432 15.5948 106.432 15.6048 106.442 15.6148C106.522 15.6948 106.612 15.7648 106.702 15.8148C106.902 15.9348 107.102 15.9548 107.302 15.8948C107.722 15.7648 107.992 15.5648 108.112 15.3048C108.262 14.9848 108.122 14.6648 108.122 14.6648C106.852 13.9448 106.842 11.1048 106.842 10.9748H106.982C106.982 10.9748 106.692 10.1748 105.822 10.4348C104.952 10.6948 104.582 11.7248 104.582 11.7248C104.582 11.7248 104.522 10.9848 103.232 11.2548C102.172 11.4848 102.422 12.6648 102.552 13.0848C103.992 12.6648 104.332 12.8848 104.442 13.1048Z" fill="#FFB7A9"/>
<path d="M115.062 18.6455C114.812 18.4055 114.582 18.1655 114.412 17.9455C113.762 17.1155 113.932 15.5955 112.112 12.6655C110.292 9.73551 108.752 9.91551 107.972 10.0755C107.192 10.2355 106.962 10.9855 106.962 10.9855H107.102C107.102 11.0155 107.112 14.4355 108.642 14.5755C109.012 14.6055 109.272 14.5055 109.422 14.2555C109.812 13.6155 109.402 12.2155 109.052 11.6755L109.282 11.5255C109.402 11.7155 109.542 12.0155 109.642 12.3555C109.852 13.0355 109.962 13.8855 109.652 14.4055C109.512 14.6355 109.212 14.9055 108.622 14.8555C108.552 14.8455 108.492 14.8255 108.432 14.8155C108.462 14.9755 108.462 15.2055 108.362 15.4455C108.212 15.7855 107.882 16.0355 107.382 16.1855C107.112 16.2755 106.832 16.2355 106.562 16.0855C106.542 16.0755 106.512 16.0455 106.492 16.0355C106.472 16.2955 106.342 16.5855 105.942 16.8155C104.932 17.3755 103.962 16.4155 103.682 16.0955C103.502 16.2055 103.312 16.3155 103.092 16.4055C103.312 16.6255 103.722 17.1055 104.032 17.8255C104.582 17.4555 106.622 16.2555 108.772 17.2555L108.662 17.5055C106.302 16.4055 104.082 18.1355 104.062 18.1455L103.902 18.2355L103.832 18.0655C103.432 17.0055 102.752 16.4555 102.752 16.4455L102.572 16.2955L102.792 16.2055C103.652 15.8655 104.192 15.4155 104.402 14.8555C104.632 14.2555 104.422 13.6355 104.212 13.2255C104.012 12.8355 102.042 13.4355 100.322 14.2055L100.262 14.0955C100.022 14.2155 99.8118 14.3255 99.6618 14.4355C98.6218 15.1855 99.5118 17.1955 100.502 20.1055C101.492 23.0155 103.942 23.2655 107.192 23.6055C108.552 23.7455 109.422 24.1655 109.982 24.5955C110.862 22.9255 112.752 19.8055 115.062 18.6455Z" fill="#FFB7A9"/>
<path d="M102.532 13.0959C102.392 12.7359 101.952 11.8859 100.942 12.2759C99.9019 12.6759 100.102 13.6259 100.212 13.9659C100.272 13.9359 101.172 13.5359 102.102 13.2259C102.262 13.1759 102.402 13.1359 102.532 13.0959Z" fill="#FFB7A9"/>
<path d="M104.202 13.2355C104.412 13.6455 104.622 14.2655 104.392 14.8655C104.182 15.4155 103.642 15.8755 102.782 16.2155L102.572 16.2955L102.752 16.4455C102.762 16.4555 103.432 17.0055 103.832 18.0655L103.902 18.2355L104.052 18.1255C104.072 18.1055 106.302 16.3855 108.652 17.4855L108.762 17.2355C106.612 16.2355 104.572 17.4355 104.022 17.8055C103.712 17.0855 103.312 16.6055 103.082 16.3855C103.302 16.2855 103.492 16.1855 103.672 16.0755C103.632 16.0255 103.602 15.9955 103.592 15.9855L103.802 15.8155C103.802 15.8155 103.842 15.8555 103.892 15.9155C104.252 15.6455 104.512 15.3255 104.652 14.9755C104.912 14.2855 104.682 13.5855 104.442 13.1255C104.332 12.9055 103.982 12.6755 102.532 13.1055C102.392 13.1455 102.262 13.1855 102.102 13.2355C101.172 13.5455 100.272 13.9455 100.212 13.9755H100.202L100.262 14.0955L100.322 14.2155C102.032 13.4355 104.002 12.8455 104.202 13.2355Z" fill="#DB837B"/>
<path d="M105.802 16.5456C104.992 16.9956 104.152 16.1856 103.892 15.9056C103.842 15.8556 103.802 15.8156 103.802 15.8056L103.592 15.9756C103.602 15.9856 103.632 16.0156 103.672 16.0656C103.952 16.3756 104.922 17.3356 105.932 16.7856C106.342 16.5656 106.462 16.2656 106.482 16.0056C106.382 15.9356 106.292 15.8556 106.192 15.7656C106.242 15.8956 106.302 16.2656 105.802 16.5456Z" fill="#DB837B"/>
<path d="M106.432 15.6055C106.432 15.6155 106.432 15.6155 106.442 15.6255C106.432 15.6155 106.432 15.6155 106.432 15.6055Z" fill="#DB837B"/>
<path d="M108.112 14.677C108.112 14.677 108.252 14.997 108.102 15.317C107.982 15.577 107.712 15.777 107.292 15.907C107.092 15.967 106.892 15.947 106.692 15.827C106.602 15.777 106.512 15.707 106.432 15.627L106.422 15.617C105.382 14.627 104.712 11.737 104.702 11.707L104.442 11.767C104.472 11.897 105.122 14.687 106.202 15.777C106.292 15.867 106.392 15.947 106.492 16.017C106.512 16.037 106.542 16.057 106.562 16.067C106.832 16.217 107.102 16.257 107.382 16.167C107.882 16.007 108.212 15.757 108.362 15.427C108.472 15.187 108.462 14.967 108.432 14.797C108.322 14.767 108.212 14.727 108.112 14.677Z" fill="#DB837B"/>
<path d="M108.122 14.667C108.222 14.717 108.322 14.757 108.432 14.787C108.492 14.807 108.552 14.827 108.622 14.827C109.222 14.877 109.512 14.617 109.652 14.377C109.962 13.867 109.852 13.017 109.642 12.327C109.532 11.987 109.402 11.687 109.282 11.497L109.052 11.647C109.402 12.197 109.812 13.587 109.422 14.227C109.272 14.477 109.022 14.577 108.642 14.547C107.112 14.407 107.102 10.997 107.102 10.957H106.962H106.822C106.832 11.117 106.852 13.957 108.122 14.667Z" fill="#DB837B"/>
<path d="M113.312 77.6759C118.542 81.3559 122.722 81.1359 125.172 80.4159C125.182 80.3359 125.182 80.2759 125.192 80.1959C124.552 79.2959 124.842 77.0559 126.882 72.5759C134.092 56.6959 130.492 43.1959 132.872 40.9859C133.862 40.0659 134.582 40.7459 135.082 41.8659C135.062 40.4659 134.982 39.4459 134.872 38.9359C134.182 35.7959 115.802 18.3359 115.802 18.3359C115.552 18.4059 115.312 18.5159 115.072 18.6359C112.762 19.7959 110.872 22.9159 109.992 24.5859C109.652 25.2359 109.452 25.6759 109.452 25.6759C112.682 27.8259 121.922 43.9059 121.922 43.9059C121.922 43.9059 121.672 48.7659 118.842 57.4559C116.532 64.5259 114.392 65.7659 113.492 66.3959C113.362 66.4859 112.972 66.7859 112.692 66.9959C112.532 67.1159 112.412 67.2059 112.412 67.2059C112.412 67.2059 106.852 73.1259 113.312 77.6759Z" fill="#3D00C3"/>
<path d="M132.872 40.9941C130.502 43.2041 134.092 56.7041 126.882 72.5841C124.842 77.0641 124.562 79.2941 125.192 80.2041C125.262 79.2841 125.312 78.7241 125.312 78.7241C125.392 78.2241 126.222 78.4041 126.992 78.3341L127.042 77.8241L130.232 72.4941C134.172 60.5741 135.152 47.7941 135.072 41.8841C135.072 41.8841 135.072 41.8841 135.072 41.8741C134.572 40.7641 133.852 40.0741 132.872 40.9941Z" fill="#22008C"/>
<path d="M130.392 90.3659C130.502 93.7059 126.802 80.2759 126.802 80.2759L126.992 78.3359C126.232 78.4059 125.402 78.2259 125.312 78.7259C125.312 78.7259 125.262 79.2859 125.192 80.2059C125.182 80.2759 125.182 80.3459 125.172 80.4259C124.872 84.2159 124.262 93.2359 124.882 95.9559C126.162 101.496 129.692 109.856 132.992 116.536C133.832 113.686 134.462 110.546 134.892 107.116C132.712 102.046 130.852 96.7659 130.612 93.0859C130.562 92.2259 130.482 91.3059 130.392 90.3659Z" fill="#22008C"/>
<path d="M127.042 77.8166L126.992 78.3266L126.802 80.2666C126.802 80.2666 130.502 93.6866 130.392 90.3566C130.382 89.9566 130.312 89.3266 130.182 88.3966C128.912 79.6766 130.252 72.4766 130.252 72.4766L130.242 72.4866L127.042 77.8166Z" fill="#22008C"/>
<path d="M81.1923 69.4345C81.6023 69.0845 82.6523 67.9545 83.3423 66.7945C82.7723 66.5145 82.2523 66.0245 81.8323 65.3945C81.9023 65.7645 81.8623 66.1245 81.6223 66.3945C81.6223 66.3945 79.6723 69.8045 77.9623 68.3745C77.6623 68.1245 77.5123 67.8445 77.4523 67.5445C77.4423 67.5845 77.4323 67.6145 77.4223 67.6545C77.3323 67.4545 77.2923 67.2545 77.2823 67.0345C77.2723 66.8245 77.2923 66.6045 77.3523 66.3945C77.4123 66.1845 77.5023 65.9845 77.6523 65.8145C77.7923 65.6445 77.9723 65.5045 78.1923 65.4545C78.1923 65.4545 78.1923 65.4645 78.1823 65.4645C78.1823 65.4645 78.1823 65.4545 78.1923 65.4545L74.3423 66.0745C74.1423 66.2845 73.9223 66.4645 73.6923 66.6145C73.6223 67.1745 73.5623 67.6445 73.5023 67.7745C73.4023 67.9945 73.1323 68.7545 72.9023 69.3945L80.4423 71.0845C80.5623 70.5245 80.8023 69.7645 81.1923 69.4345Z" fill="#FFB7A9"/>
<path d="M71.9318 96.0358C72.7618 96.2058 73.7018 96.3358 74.7218 96.4358C74.8118 96.3158 74.8918 96.2058 74.9818 96.0858C76.5318 93.8158 77.6918 90.9358 78.5718 87.9458C77.9018 89.4858 77.1418 90.5158 77.1418 90.5158C78.4518 86.9058 79.5518 82.0158 79.5518 82.0158C79.5518 82.0158 79.7318 82.4358 79.6018 83.7958C80.9818 77.2258 81.1718 71.2558 81.1718 71.2558L80.4418 71.0958L72.9018 69.4058L71.8818 69.1758C71.8818 69.1758 69.1218 77.6358 67.6418 84.8558C67.2918 87.0558 66.4618 94.9258 71.9318 96.0358Z" fill="#3D00C3"/>
<path d="M67.8224 97.5141C67.0624 96.2741 66.7724 94.5141 66.7324 92.6641C66.7524 95.1641 67.1424 96.5641 67.8224 97.5141Z" fill="#3D00C3"/>
<path d="M91.422 96.5069C91.422 96.5069 91.042 96.5269 90.392 96.5669C87.682 96.6969 80.182 96.9969 74.722 96.4369C73.712 96.3369 72.762 96.1969 71.932 96.0369C66.462 94.9269 67.292 87.0569 67.632 84.8669C67.692 84.5069 67.732 84.2969 67.732 84.2969C67.732 84.2969 66.632 88.6669 66.722 92.6769C66.762 94.5169 67.052 96.2869 67.812 97.5269C68.172 98.1169 68.642 98.5869 69.232 98.8769C69.622 99.0669 70.022 99.2569 70.412 99.4269C71.592 99.9569 72.792 100.387 74.062 100.747C78.102 101.877 82.842 102.097 89.812 101.217C90.332 101.147 90.862 101.087 91.412 101.007V100.997V96.5069H91.422Z" fill="#22008C"/>
<path d="M79.4516 84.9273C79.5216 84.5073 79.5716 84.1173 79.6016 83.8073C79.7316 82.4473 79.5516 82.0273 79.5516 82.0273C79.5516 82.0273 78.4516 86.9173 77.1416 90.5273C77.1416 90.5273 77.9016 89.4973 78.5716 87.9573C78.9016 87.1973 79.2016 86.3273 79.3816 85.3873C79.4016 85.2073 79.4216 85.0773 79.4516 84.9273Z" fill="#22008C"/>
<path d="M79.5416 63.8459C79.9916 63.3159 80.7116 63.6459 81.2316 64.2459C80.8816 63.3659 80.6816 62.3459 80.6816 61.2459C80.6816 60.6459 80.7416 60.0659 80.8516 59.5259C80.7016 59.6059 80.5316 59.6659 80.3316 59.6859C79.4116 59.7659 78.9616 59.0759 78.7316 58.2159C78.6216 58.8459 78.3416 59.3659 77.6916 59.3559C76.7516 59.3459 76.4016 58.5059 76.2616 57.5859C76.1916 58.0259 76.0016 58.3859 75.5716 58.4659C75.8716 59.2959 76.0416 60.2459 76.0416 61.2659C76.0416 63.2859 75.3716 65.0559 74.3516 66.1059L78.2016 65.4859C78.6416 64.8459 79.1816 64.2659 79.5416 63.8459Z" fill="#7D5BCA"/>
<path d="M76.0418 61.2441C76.0418 60.2341 75.8718 59.2741 75.5718 58.4441C75.5218 58.4541 75.4818 58.4641 75.4318 58.4641C74.4418 58.4641 74.3118 57.2541 74.2618 56.3241C73.6718 55.7541 72.9718 55.4141 72.2118 55.4141C71.8618 55.4141 71.2218 55.4241 70.7518 55.4341C72.7718 55.5941 74.3818 58.1341 74.3818 61.2441C74.3818 64.4641 72.6718 67.0741 70.5518 67.0741C70.5518 67.0741 71.7818 67.0741 72.2118 67.0741C72.7418 67.0741 73.2418 66.9141 73.6918 66.6241C73.9218 66.4741 74.1418 66.2941 74.3418 66.0841C75.3618 65.0341 76.0418 63.2641 76.0418 61.2441Z" fill="#3D00C3"/>
<path d="M74.3817 61.2441C74.3817 58.1241 72.7717 55.5941 70.7517 55.4341C70.6817 55.4241 70.6217 55.4141 70.5517 55.4141C70.4517 55.4141 70.3417 55.4241 70.2417 55.4341C70.2317 55.4341 70.2117 55.4341 70.2017 55.4341C68.2517 55.7041 66.7217 58.1941 66.7217 61.2341C66.7217 64.4541 68.4317 67.0641 70.5517 67.0641C72.6717 67.0641 74.3817 64.4641 74.3817 61.2441ZM70.3417 66.0441C68.6017 66.0441 67.1917 63.8941 67.1917 61.2441C67.1917 58.5941 68.6017 56.4441 70.3417 56.4441C72.0817 56.4441 73.4917 58.5941 73.4917 61.2441C73.5017 63.8941 72.0917 66.0441 70.3417 66.0441Z" fill="#7D5BCA"/>
<path d="M70.3424 56.4453C68.6024 56.4453 67.1924 58.5953 67.1924 61.2453C67.1924 63.8953 68.6024 66.0453 70.3424 66.0453C72.0824 66.0453 73.4924 63.8953 73.4924 61.2453C73.5024 58.5953 72.0924 56.4453 70.3424 56.4453Z" fill="#F9F5FE"/>
<path d="M81.6222 57.4272C81.6322 57.4272 81.6322 57.4272 81.6222 57.4272C82.0922 56.6072 82.7121 55.9872 83.4221 55.6672C83.2821 55.5272 83.1022 55.4172 82.9022 55.3272C82.2122 55.0372 81.3121 55.0772 81.2021 55.5572C81.3221 55.7072 81.4022 55.8672 81.4122 56.0672C81.4222 56.0572 81.5922 56.6872 81.6222 57.4272Z" fill="#FFB7A9"/>
<path d="M76.2522 57.5755C76.4022 58.4955 76.7522 59.3355 77.6822 59.3455C78.3322 59.3555 78.6122 58.8355 78.7222 58.2055C78.5022 57.3755 78.4722 56.3755 78.4322 55.7355C78.4322 55.6855 78.4422 55.6455 78.4422 55.5955C77.8222 54.8655 76.0222 54.7355 76.1022 55.6655C76.1022 55.7155 76.1122 55.7655 76.1122 55.8255C76.1222 55.8655 76.1522 55.9055 76.1622 55.9555C76.1622 55.9555 76.3722 56.8555 76.2522 57.5755Z" fill="#FFB7A9"/>
<path d="M75.422 58.4664C75.472 58.4664 75.522 58.4564 75.562 58.4464C75.982 58.3764 76.182 58.0064 76.252 57.5664C76.372 56.8464 76.162 55.9464 76.162 55.9464C76.162 55.8964 76.132 55.8664 76.112 55.8164C75.862 55.0764 74.142 54.8564 74.212 55.6464C74.232 55.8264 74.232 56.0564 74.252 56.3064C74.302 57.2564 74.442 58.4764 75.422 58.4664Z" fill="#FFB7A9"/>
<path d="M78.7316 58.2054C78.9616 59.0754 79.4116 59.7554 80.3316 59.6754C80.5416 59.6554 80.7016 59.5954 80.8516 59.5154C81.0116 58.7354 81.2816 58.0254 81.6216 57.4154C81.6216 57.4154 81.6216 57.4154 81.6216 57.4054C81.5816 56.6654 81.4116 56.0354 81.4116 56.0354C81.4016 55.8454 81.3116 55.6754 81.2016 55.5254C80.5416 54.7054 78.5416 54.6154 78.4416 55.5754C78.4416 55.6154 78.4316 55.6654 78.4316 55.7154C78.4816 56.3754 78.5016 57.3754 78.7316 58.2054Z" fill="#FFB7A9"/>
<path d="M98.5719 61.2461C98.5719 62.9861 97.1819 64.4861 95.2119 64.9461C95.3619 64.9661 95.5119 64.9961 95.6719 64.9961C97.6519 64.9961 99.2619 63.3161 99.2619 61.2461C99.2619 59.1761 97.6519 57.4961 95.6719 57.4961C95.5119 57.4961 95.3619 57.5261 95.2119 57.5461C97.1819 58.0161 98.5719 59.5061 98.5719 61.2461Z" fill="#3D00C3"/>
<path d="M90.0025 61.2463C90.0025 63.2663 89.3325 65.0363 88.3125 66.0863L91.4025 65.5863L91.9525 65.4963L94.8325 65.0363C94.9625 65.0163 95.0925 64.9763 95.2125 64.9463C97.1825 64.4763 98.5725 62.9863 98.5725 61.2463C98.5725 59.5063 97.1825 58.0062 95.2125 57.5462C95.0825 57.5162 94.9625 57.4762 94.8325 57.4562L88.3125 56.4062C89.3325 57.4562 90.0025 59.2363 90.0025 61.2463Z" fill="#7D5BCA"/>
<path d="M88.3117 66.0841C89.3317 65.0341 90.0017 63.2641 90.0017 61.2441C90.0017 59.2241 89.3317 57.4541 88.3117 56.4041C87.7017 55.7741 86.9717 55.4141 86.1717 55.4141C85.8217 55.4141 85.1817 55.4241 84.7117 55.4341C86.7317 55.5941 88.3417 58.1341 88.3417 61.2441C88.3417 64.4641 86.6317 67.0741 84.5117 67.0741C84.5117 67.0741 84.6817 67.0741 84.9217 67.0741C85.3217 67.0741 85.9017 67.0741 86.1717 67.0741C86.9617 67.0741 87.7017 66.7141 88.3117 66.0841Z" fill="#3D00C3"/>
<path d="M88.3416 61.2441C88.3416 58.1241 86.7316 55.5941 84.7116 55.4341C84.6416 55.4241 84.5816 55.4141 84.5116 55.4141C84.4116 55.4141 84.3016 55.4241 84.2016 55.4341C84.1916 55.4341 84.1716 55.4341 84.1616 55.4341C83.9416 55.4641 83.7216 55.5241 83.5116 55.6141C83.4816 55.6241 83.4516 55.6341 83.4216 55.6541C82.7116 55.9741 82.0916 56.5941 81.6216 57.4241C81.2716 58.0241 81.0116 58.7341 80.8516 59.5241C80.7416 60.0641 80.6816 60.6441 80.6816 61.2441C80.6816 62.3441 80.8816 63.3641 81.2316 64.2441C81.5216 64.5741 81.7416 64.9941 81.8216 65.3941C82.2416 66.0241 82.7516 66.5041 83.3316 66.7941C83.7016 66.9741 84.1016 67.0741 84.5116 67.0741C86.6316 67.0741 88.3416 64.4641 88.3416 61.2441ZM81.1616 61.2441C81.1616 58.5941 82.5716 56.4441 84.3116 56.4441C86.0516 56.4441 87.4616 58.5941 87.4616 61.2441C87.4616 63.8941 86.0516 66.0441 84.3116 66.0441C82.5716 66.0441 81.1616 63.8941 81.1616 61.2441Z" fill="#7D5BCA"/>
<path d="M84.3121 66.0453C86.0518 66.0453 87.4621 63.8963 87.4621 61.2453C87.4621 58.5943 86.0518 56.4453 84.3121 56.4453C82.5724 56.4453 81.1621 58.5943 81.1621 61.2453C81.1621 63.8963 82.5724 66.0453 84.3121 66.0453Z" fill="#F9F5FE"/>
<path d="M81.2322 64.2439C80.7122 63.6439 79.9922 63.3139 79.5422 63.8439C79.1822 64.2639 78.6422 64.8439 78.1922 65.4739C78.1922 65.4739 78.1922 65.4839 78.1822 65.4839C77.9322 65.8139 77.8021 66.1539 77.7021 66.5139C77.6021 66.8439 77.5421 67.1939 77.4521 67.5639C77.5021 67.8639 77.6622 68.1439 77.9622 68.3939C79.6722 69.8239 81.6222 66.4139 81.6222 66.4139C81.8522 66.1439 81.9022 65.7839 81.8322 65.4139C81.7522 64.9939 81.5222 64.5739 81.2322 64.2439Z" fill="#FFB7A9"/>
<path d="M78.1925 65.4766C77.9825 65.5066 77.8025 65.6566 77.6625 65.8266C77.5125 65.9966 77.4225 66.1966 77.3625 66.4066C77.3025 66.6166 77.2825 66.8366 77.2925 67.0466C77.3125 67.2566 77.3525 67.4666 77.4325 67.6666C77.4425 67.6266 77.4525 67.5966 77.4625 67.5566C77.5525 67.1866 77.6125 66.8366 77.7125 66.5066C77.8125 66.1466 77.9425 65.8166 78.1925 65.4766Z" fill="#DB837B"/>
</svg>
