<svg width="240" height="180" viewBox="0 0 240 180" fill="none" xmlns="http://www.w3.org/2000/svg">
<path d="M36.0895 169.298C13.3395 169.298 -2.0105 137.868 12.9295 111.428C26.8595 86.7781 45.4495 89.9081 75.3595 61.2081C111.67 26.3681 137.159 24.4581 169.559 39.6881C187.879 48.2981 190.87 83.6881 220.02 105.688C246.3 125.518 224.879 159.248 211.049 164.518C197.219 169.778 187.869 169.778 187.869 169.778L36.0895 169.298Z" fill="#CFD3FF"/>
<path d="M202.789 60.1C216.348 60.1 227.339 49.1086 227.339 35.55C227.339 21.9914 216.348 11 202.789 11C189.231 11 178.239 21.9914 178.239 35.55C178.239 49.1086 189.231 60.1 202.789 60.1Z" fill="#CFD3FF"/>
<path d="M206.449 34.1914H40.1094V122.211H206.449V34.1914Z" fill="#FDF2F8"/>
<path d="M149.199 164.55H97.0391L104.369 128.57H141.869L149.199 164.55Z" fill="#7D5BCA"/>
<path opacity="0.3" d="M145.269 144.993H100.969L104.369 128.562H141.869L145.269 144.993Z" fill="#DBC8F9"/>
<path d="M167.829 169.779H78.4092C78.4092 165.269 82.0492 161.609 86.5492 161.609H159.699C164.189 161.609 167.829 165.269 167.829 169.779Z" fill="#3D00C3"/>
<path d="M204.249 25.9609H41.9892C38.2392 25.9609 35.1992 29.0109 35.1992 32.7809V134.481C35.1992 138.241 38.2392 141.301 41.9892 141.301H204.239C207.999 141.301 211.039 138.251 211.039 134.481V32.7709C211.039 29.0109 207.999 25.9609 204.249 25.9609ZM206.289 122.211H39.9492V34.1909H206.289V122.211V122.211Z" fill="#2F00A7"/>
<path d="M206.439 34.1914H39.9492V40.1214H206.439V34.1914Z" fill="#DBC8F9"/>
<path d="M123.119 135.451C125.159 135.451 126.809 133.791 126.809 131.741C126.809 129.691 125.159 128.031 123.119 128.031C121.079 128.031 119.419 129.691 119.419 131.741C119.429 133.791 121.079 135.451 123.119 135.451Z" fill="#F9F5FE"/>
<path d="M189.85 123.068C184.63 124.398 182.81 126.218 181.48 131.438C181.26 132.308 180 132.308 179.77 131.438C178.44 126.218 176.62 124.398 171.4 123.068C170.53 122.848 170.53 121.588 171.4 121.358C176.62 120.028 178.44 118.208 179.77 112.988C179.99 112.118 181.25 112.118 181.48 112.988C182.81 118.208 184.63 120.028 189.85 121.358C190.73 121.578 190.73 122.838 189.85 123.068Z" fill="#FFC401"/>
<path d="M202.34 107.541C198.77 108.451 197.53 109.701 196.61 113.271C196.46 113.871 195.6 113.871 195.44 113.271C194.53 109.701 193.28 108.461 189.71 107.541C189.11 107.391 189.11 106.531 189.71 106.371C193.28 105.461 194.52 104.211 195.44 100.641C195.59 100.041 196.45 100.041 196.61 100.641C197.52 104.211 198.77 105.451 202.34 106.371C202.94 106.531 202.94 107.391 202.34 107.541Z" fill="#FFC401"/>
<path d="M44.42 153.84C57.9068 153.84 68.84 142.907 68.84 129.42C68.84 115.933 57.9068 105 44.42 105C30.9332 105 20 115.933 20 129.42C20 142.907 30.9332 153.84 44.42 153.84Z" fill="#BD54AE"/>
<path d="M52.9103 115.049L35.9903 114.949L35.9503 121.929C35.9403 123.649 36.8203 125.249 38.2703 126.169L42.2703 128.699C42.6003 128.909 42.6003 129.389 42.2603 129.589L38.2303 132.069C36.7603 132.969 35.8703 134.559 35.8603 136.279L35.8203 143.259L52.7503 143.359L52.7903 136.379C52.8003 134.659 51.9203 133.059 50.4703 132.139L46.4703 129.609C46.1403 129.399 46.1403 128.919 46.4803 128.719L50.5103 126.239C51.9803 125.339 52.8703 123.749 52.8803 122.029L52.9103 115.049Z" fill="#DBC8F9"/>
<path d="M37.3496 115.129H40.0796C40.0796 115.129 40.0796 120.559 40.0796 121.739C40.0796 124.719 41.7396 126.819 41.7396 126.819C41.7396 126.819 37.3496 125.049 37.3496 121.739C37.3496 119.879 37.3496 115.129 37.3496 115.129Z" fill="#F9F5FE"/>
<path d="M51.9197 136.322L50.6897 135.852L36.7397 136.242L36.6797 145.112L51.8597 145.202L51.9197 136.322Z" fill="#DBA300"/>
<path d="M36.7403 136.241C36.7503 135.221 40.5403 133.541 42.7503 133.551C44.9303 133.561 51.9203 136.321 51.9203 136.321C48.3103 134.721 36.7203 138.721 36.7403 136.241Z" fill="#FFC401"/>
<path d="M54.9809 112.202L33.9609 112.078L33.9392 115.768L54.9592 115.892L54.9809 112.202Z" fill="#3D00C3"/>
<path d="M54.9009 143.081L33.8809 142.957L33.8591 146.647L54.8791 146.771L54.9009 143.081Z" fill="#3D00C3"/>
<path d="M94.0793 93.0174C87.0793 93.0174 81.2293 87.4974 80.8993 80.4374L80.5892 73.9074C80.4292 70.3874 81.6393 67.0074 84.0193 64.4074C86.3893 61.7974 89.6393 60.2774 93.1593 60.1074L116.199 59.0274C119.719 58.8574 123.099 60.0774 125.699 62.4574C128.309 64.8274 129.829 68.0774 129.999 71.5974L123.009 71.9274C122.929 70.2774 122.219 68.7474 120.989 67.6374C119.769 66.5274 118.179 65.9574 116.529 66.0274L93.4893 67.1074C91.8393 67.1874 90.3093 67.8974 89.1993 69.1274C88.0893 70.3474 87.5093 71.9374 87.5893 73.5874L87.8993 80.1174C88.0593 83.5274 90.9593 86.1774 94.3793 86.0174L117.419 84.9374L117.749 91.9274L94.6993 93.0074C94.4893 93.0174 94.2893 93.0174 94.0793 93.0174Z" fill="#DBA300"/>
<path d="M151.669 93.8991C150.899 93.8991 150.129 93.8291 149.359 93.6991L126.639 89.7191C123.169 89.1091 120.139 87.1891 118.119 84.2991C116.099 81.4091 115.319 77.9091 115.919 74.4391L122.819 75.6491C122.529 77.2791 122.899 78.9191 123.849 80.2791C124.799 81.6291 126.219 82.5391 127.849 82.8191L150.569 86.7991C152.199 87.0791 153.839 86.7191 155.199 85.7691C156.549 84.8191 157.459 83.3991 157.739 81.7691L158.869 75.3291C159.159 73.6991 158.789 72.0491 157.839 70.6991C156.889 69.3491 155.469 68.4391 153.839 68.1591L131.119 64.1791L132.329 57.2891L155.049 61.2691C158.519 61.8791 161.549 63.7991 163.569 66.6891C165.589 69.5791 166.369 73.0791 165.769 76.5491L164.639 82.9891C164.029 86.4591 162.109 89.4891 159.219 91.5091C156.969 93.0791 154.359 93.8991 151.669 93.8991Z" fill="#DBA300"/>
<path d="M112.49 112.839C114.091 112.839 115.39 111.541 115.39 109.939C115.39 108.337 114.091 107.039 112.49 107.039C110.888 107.039 109.59 108.337 109.59 109.939C109.59 111.541 110.888 112.839 112.49 112.839Z" fill="#2F00A7"/>
<path d="M123.12 112.839C124.721 112.839 126.02 111.541 126.02 109.939C126.02 108.337 124.721 107.039 123.12 107.039C121.518 107.039 120.22 108.337 120.22 109.939C120.22 111.541 121.518 112.839 123.12 112.839Z" fill="#2F00A7"/>
<path d="M133.75 112.839C135.351 112.839 136.65 111.541 136.65 109.939C136.65 108.337 135.351 107.039 133.75 107.039C132.148 107.039 130.85 108.337 130.85 109.939C130.85 111.541 132.148 112.839 133.75 112.839Z" fill="#2F00A7"/>
<path d="M125.939 54.4491C125.909 54.4591 125.869 54.4791 125.829 54.4891C125.499 54.5691 125.169 54.3591 125.089 54.0291L123.179 45.8391C123.099 45.5091 123.309 45.1791 123.639 45.0991C123.969 45.0191 124.299 45.2291 124.379 45.5591L126.289 53.7491C126.359 54.0391 126.199 54.3291 125.939 54.4491Z" fill="#3D00C3"/>
<path d="M130.129 54.4884C129.969 54.5584 129.789 54.5584 129.619 54.4784C129.309 54.3284 129.179 53.9684 129.329 53.6584L132.739 46.5984C132.879 46.2884 133.249 46.1584 133.559 46.3084C133.869 46.4584 133.999 46.8184 133.849 47.1284L130.439 54.1884C130.369 54.3284 130.259 54.4284 130.129 54.4884Z" fill="#3D00C3"/>
<path d="M121.259 56.4176C121.019 56.5276 120.729 56.4676 120.549 56.2476L115.379 50.1476C115.159 49.8876 115.189 49.4976 115.449 49.2876C115.709 49.0676 116.099 49.0976 116.309 49.3576L121.479 55.4576C121.699 55.7176 121.669 56.1076 121.409 56.3176C121.359 56.3676 121.309 56.3976 121.259 56.4176Z" fill="#3D00C3"/>
</svg>
