<svg width="240" height="180" viewBox="0 0 240 180" fill="none" xmlns="http://www.w3.org/2000/svg">
<path d="M26.1791 115.07C39.1785 140.921 86.1409 154.23 128.441 147.754C170.741 141.278 222.733 115.6 220.909 84.0629C219.085 52.526 168.842 58.5564 157.913 46.791C146.983 35.0257 131.855 5.90051 60.2266 34.9587C26.3093 48.7136 10.2695 83.4282 26.1791 115.07Z" fill="#CFD3FF"/>
<path d="M40.8695 89.5675C40.4775 89.5675 40.1523 89.2424 40.1523 88.8503V84.2797C40.1523 83.8876 40.4775 83.5625 40.8695 83.5625C41.2615 83.5625 41.5867 83.8876 41.5867 84.2797V88.8503C41.5867 89.2519 41.2615 89.5675 40.8695 89.5675Z" fill="#91268C"/>
<path d="M40.8695 98.4525C40.4775 98.4525 40.1523 98.1273 40.1523 97.7353V93.1742C40.1523 92.7821 40.4775 92.457 40.8695 92.457C41.2615 92.457 41.5867 92.7821 41.5867 93.1742V97.7449C41.5867 98.1369 41.2615 98.4525 40.8695 98.4525Z" fill="#91268C"/>
<path d="M47.3531 91.864H42.7728C42.3808 91.864 42.0557 91.5389 42.0557 91.1468C42.0557 90.7548 42.3808 90.4297 42.7728 90.4297H47.3531C47.7451 90.4297 48.0702 90.7548 48.0702 91.1468C48.0702 91.5389 47.7547 91.864 47.3531 91.864Z" fill="#91268C"/>
<path d="M39.063 91.864H34.4828C34.0907 91.864 33.7656 91.5389 33.7656 91.1468C33.7656 90.7548 34.0907 90.4297 34.4828 90.4297H39.063C39.4551 90.4297 39.7802 90.7548 39.7802 91.1468C39.7802 91.5389 39.4646 91.864 39.063 91.864Z" fill="#91268C"/>
<path d="M185.368 31.7667C184.976 31.7667 184.65 31.4416 184.65 31.0496V26.4789C184.65 26.0868 184.976 25.7617 185.368 25.7617C185.76 25.7617 186.085 26.0868 186.085 26.4789V31.0496C186.085 31.4512 185.76 31.7667 185.368 31.7667Z" fill="#91268C"/>
<path d="M185.367 40.6478C184.975 40.6478 184.649 40.3227 184.649 39.9306V35.3695C184.649 34.9775 184.975 34.6523 185.367 34.6523C185.759 34.6523 186.084 34.9775 186.084 35.3695V39.9402C186.084 40.3322 185.759 40.6478 185.367 40.6478Z" fill="#91268C"/>
<path d="M191.85 34.0632H187.27C186.878 34.0632 186.553 33.7381 186.553 33.3461C186.553 32.954 186.878 32.6289 187.27 32.6289H191.85C192.242 32.6289 192.567 32.954 192.567 33.3461C192.567 33.7381 192.252 34.0632 191.85 34.0632Z" fill="#91268C"/>
<path d="M183.56 34.0632H178.98C178.588 34.0632 178.263 33.7381 178.263 33.3461C178.263 32.954 178.588 32.6289 178.98 32.6289H183.56C183.952 32.6289 184.277 32.954 184.277 33.3461C184.277 33.7381 183.962 34.0632 183.56 34.0632Z" fill="#91268C"/>
<path d="M129.62 10H77.2885C70.2101 10 64.415 15.7951 64.415 22.8734V125.861C64.415 132.939 70.2101 138.734 77.2885 138.734H154.529C161.607 138.734 167.403 132.939 167.403 125.861V47.7828C167.403 44.2031 165.984 40.7585 163.445 38.2324L139.17 13.9579C136.644 11.4184 133.199 10 129.62 10Z" fill="#F9F5FE"/>
<path d="M129.618 10V41.0286C129.618 44.7569 132.644 47.7828 136.372 47.7828L167.401 47.7693C167.401 44.1896 165.983 40.745 163.443 38.2189L139.169 13.9579C136.642 11.4184 133.198 10 129.618 10Z" fill="#3D00C3"/>
<path d="M155.529 64.5055H76.3026C74.8302 64.5055 73.6279 63.3033 73.6279 61.8309C73.6279 60.3585 74.8302 59.1562 76.3026 59.1562H155.529C157.001 59.1562 158.204 60.3585 158.204 61.8309C158.204 63.3033 157.001 64.5055 155.529 64.5055Z" fill="#7D5BCA"/>
<path d="M155.529 81.3259H76.3026C74.8302 81.3259 73.6279 80.1236 73.6279 78.6512C73.6279 77.1788 74.8302 75.9766 76.3026 75.9766H155.529C157.001 75.9766 158.204 77.1788 158.204 78.6512C158.204 80.1236 157.001 81.3259 155.529 81.3259Z" fill="#7D5BCA"/>
<path d="M117.702 114.597H75.4952C74.7108 114.597 74.0703 113.512 74.0703 112.183C74.0703 110.855 74.7108 109.77 75.4952 109.77H117.702C118.487 109.77 119.127 110.855 119.127 112.183C119.127 113.512 118.487 114.597 117.702 114.597Z" fill="#7D5BCA"/>
<path d="M117.702 98.5033H75.4952C74.7108 98.5033 74.0703 97.4183 74.0703 96.0896C74.0703 94.7608 74.7108 93.6758 75.4952 93.6758H117.702C118.487 93.6758 119.127 94.7608 119.127 96.0896C119.127 97.4183 118.487 98.5033 117.702 98.5033Z" fill="#7D5BCA"/>
<path d="M115.733 47.7829H76.3026C74.8302 47.7829 73.6279 46.5807 73.6279 45.1082C73.6279 43.6358 74.8302 42.4336 76.3026 42.4336H115.747C117.219 42.4336 118.422 43.6358 118.422 45.1082C118.408 46.5942 117.219 47.7829 115.733 47.7829Z" fill="#7D5BCA"/>
<path d="M115.733 31.072H76.3026C74.8302 31.072 73.6279 29.8697 73.6279 28.3973C73.6279 26.9249 74.8302 25.7227 76.3026 25.7227H115.747C117.219 25.7227 118.422 26.9249 118.422 28.3973C118.408 29.8697 117.219 31.072 115.733 31.072Z" fill="#7D5BCA"/>
<path d="M116.522 153.62C136.594 153.62 152.865 137.349 152.865 117.277C152.865 97.2051 136.594 80.9336 116.522 80.9336C96.4502 80.9336 80.1787 97.2051 80.1787 117.277C80.1787 137.349 96.4502 153.62 116.522 153.62Z" fill="#DBA300"/>
<path d="M116.523 148.365C133.692 148.365 147.611 134.446 147.611 117.276C147.611 100.106 133.692 86.1875 116.523 86.1875C99.3526 86.1875 85.4336 100.106 85.4336 117.276C85.4336 134.446 99.3526 148.365 116.523 148.365Z" fill="#B78400"/>
<path d="M116.57 146.712C132.799 146.712 145.955 133.556 145.955 117.327C145.955 101.098 132.799 87.9414 116.57 87.9414C100.341 87.9414 87.1846 101.098 87.1846 117.327C87.1846 133.556 100.341 146.712 116.57 146.712Z" fill="#FFC401"/>
<path d="M105.925 120.253C106.679 119.389 106.065 118.04 104.919 118.04H101.487C101.464 117.7 101.452 117.358 101.452 117.013C101.452 108.462 108.409 101.505 116.96 101.505C121.069 101.505 124.809 103.112 127.587 105.73L132.427 100.069C128.19 96.1931 122.738 94.0703 116.96 94.0703C110.831 94.0703 105.07 96.4568 100.737 100.79C96.4035 105.123 94.017 110.885 94.017 117.013C94.017 117.357 94.0256 117.699 94.0405 118.04H91.1497C90.0034 118.04 89.3897 119.389 90.143 120.253L96.6644 127.733L98.0342 129.305L102.952 123.663L105.925 120.253Z" fill="#3D00C3"/>
<path d="M143.776 115.888L138.912 110.308L135.885 106.836L131.563 111.793L127.994 115.888C127.241 116.752 127.854 118.101 129.001 118.101H132.429C131.868 126.146 125.145 132.52 116.96 132.52C113.387 132.52 110.093 131.304 107.468 129.266L102.628 134.929C106.682 138.185 111.685 139.954 116.96 139.954C123.088 139.954 128.849 137.568 133.183 133.235C137.258 129.159 139.611 123.82 139.877 118.101H142.77C143.916 118.101 144.53 116.752 143.776 115.888Z" fill="#3D00C3"/>
<path d="M146.602 165.802C145.63 167.926 143.112 168.864 140.983 167.882L124.649 160.373C122.525 159.401 121.588 156.883 122.57 154.753C123.542 152.629 126.06 151.692 128.19 152.674L144.523 160.182C146.653 161.164 147.585 163.673 146.602 165.802Z" fill="#7D5BCA"/>
<path d="M162.454 147.725L161.858 148.069C160.001 149.142 157.619 148.504 156.547 146.646L151.065 137.151C149.992 135.293 150.63 132.912 152.488 131.84L153.084 131.496C154.941 130.423 157.323 131.061 158.395 132.919L163.877 142.414C164.95 144.272 164.311 146.653 162.454 147.725Z" fill="#7D5BCA"/>
<path d="M147.506 155.784L147.169 155.979C145.232 157.097 142.766 156.428 141.654 154.501L133.098 139.682C131.98 137.745 132.649 135.279 134.575 134.167L134.913 133.972C136.85 132.854 139.315 133.523 140.428 135.45L148.984 150.269C150.096 152.196 149.433 154.671 147.506 155.784Z" fill="#7D5BCA"/>
<path d="M155.055 151.426L154.29 151.867C152.473 152.917 150.154 152.295 149.104 150.478L141.787 137.804C140.738 135.986 141.359 133.667 143.177 132.618L143.932 132.182C145.749 131.133 148.068 131.754 149.117 133.572L156.435 146.246C157.488 148.048 156.863 150.382 155.055 151.426Z" fill="#7D5BCA"/>
<path d="M139.247 158.819C137.221 159.989 134.635 159.297 133.466 157.27L118.951 132.131C117.782 130.105 118.474 127.52 120.501 126.35C122.527 125.18 125.112 125.873 126.282 127.899L140.796 153.038C141.976 155.059 141.273 157.65 139.247 158.819Z" fill="#7D5BCA"/>
<path d="M162.246 163.446L153.665 168.4C147.963 171.692 140.663 169.736 137.371 164.034L130.53 152.185L159.771 135.302L166.612 147.152C169.91 152.863 167.958 160.148 162.246 163.446Z" fill="#7D5BCA"/>
</svg>
