<svg width="240" height="180" viewBox="0 0 240 180" fill="none" xmlns="http://www.w3.org/2000/svg">
<path d="M115.869 168.86C160.009 168.86 195.799 133.07 195.799 88.93C195.799 44.79 160.009 9 115.869 9C71.7295 9 35.9395 44.79 35.9395 88.93C35.9395 133.07 71.7295 168.86 115.869 168.86Z" fill="#CFD3FF"/>
<path opacity="0.46" d="M115.68 151.36C150.07 151.36 177.95 123.48 177.95 89.0903C177.95 54.7003 150.07 26.8203 115.68 26.8203C81.2902 26.8203 53.4102 54.7003 53.4102 89.0903C53.4102 123.48 81.2902 151.36 115.68 151.36Z" fill="white"/>
<path d="M119.58 170.4C173.47 170.4 217.16 167.18 217.16 163.2C217.16 159.22 173.47 156 119.58 156C65.69 156 22 159.22 22 163.2C22 167.18 65.69 170.4 119.58 170.4Z" fill="#8A85C9"/>
<path d="M61.5306 162.982L29.8306 86.4822C28.3906 82.9822 30.2006 80.1622 33.8806 80.1622H40.2606C42.8606 80.1622 44.6306 78.7322 44.8006 76.4822L45.0106 73.6722C45.1806 71.4322 46.9506 69.9922 49.5606 69.9922H79.8706C82.2306 69.9922 84.9006 71.1822 86.8906 73.1022L89.3506 75.4822C91.3306 77.4022 94.0006 78.5922 96.3606 78.5922H134.961C138.641 78.5922 142.781 81.4222 144.181 84.9122L175.611 162.972H61.5306V162.982Z" fill="#22008C"/>
<path d="M56.2902 137.002L44.3302 90.7719C43.5402 87.7219 45.5402 84.6719 48.3102 84.6719H142.04C143.89 84.6719 145.53 86.0719 146.03 88.1219L163.44 157.712C164.21 160.772 162.98 162.602 160.2 162.562L65.8902 162.592C64.0702 162.572 62.4602 161.182 61.9502 159.172L56.2902 137.002Z" fill="#CECECE"/>
<path d="M67.06 144.131L61.97 71.3308C61.79 68.7508 63.83 66.5508 66.42 66.5508H172.35C175.11 66.5508 177.35 68.7908 177.35 71.5508L167.35 144.131H67.06Z" fill="#D8D8D8"/>
<path d="M61.6797 162.553L73.2297 87.5025C73.7697 85.0625 75.9597 83.3125 78.5097 83.3125H176.75C180.63 83.3125 183.24 87.2025 181.71 90.7125L160.5 159.402L61.6797 162.553Z" fill="#EFEEEA"/>
<path d="M61.5312 162.942L85.3512 92.6517C86.3512 89.7217 89.0013 87.7617 91.9713 87.7617H193.251C196.521 87.7617 198.821 91.1017 197.771 94.3217L175.611 162.972L61.5312 162.942Z" fill="#3D00C3"/>
<path d="M58.7202 42.3286C63.7502 43.6186 65.4902 45.3486 66.7802 50.3886C66.9602 51.2186 68.2502 51.2186 68.4302 50.3886C69.7202 45.3586 71.4502 43.6186 76.4902 42.3286C77.3202 42.1486 77.3202 40.8586 76.4902 40.6786C71.4602 39.3886 69.7202 37.6586 68.4302 32.6186C68.2502 31.7886 66.9602 31.7886 66.7802 32.6186C65.4902 37.6486 63.7602 39.3886 58.7202 40.6786C57.8902 40.8686 57.8902 42.1386 58.7202 42.3286Z" fill="#FFC401"/>
<path d="M173.269 48.9419C178.299 50.2319 180.039 51.9619 181.329 57.0019C181.509 57.8319 182.799 57.8319 182.979 57.0019C184.269 51.9719 185.999 50.2319 191.039 48.9419C191.869 48.7619 191.869 47.4719 191.039 47.2919C186.009 46.0019 184.269 44.2719 182.979 39.2319C182.799 38.4019 181.509 38.4019 181.329 39.2319C180.039 44.2619 178.309 46.0019 173.269 47.2919C172.449 47.4919 172.449 48.7619 173.269 48.9419Z" fill="#FFC401"/>
<path d="M134.001 47.3403L124.321 57.0203V22.8203H115.341V57.5303L105.161 47.3403L98.7109 53.7903L117.431 72.5103C118.621 73.7003 120.541 73.7003 121.731 72.5103L140.451 53.7903L134.001 47.3403Z" fill="#91268C"/>
<path d="M168.21 167.01C181.399 167.01 192.09 156.319 192.09 143.13C192.09 129.941 181.399 119.25 168.21 119.25C155.022 119.25 144.33 129.941 144.33 143.13C144.33 156.319 155.022 167.01 168.21 167.01Z" fill="#FFC401"/>
<path d="M150.561 144.122L155.401 139.262L163.351 147.072L180.981 129.512L185.861 134.372L163.351 156.762L150.561 144.122Z" fill="#3D00C3"/>
</svg>
