<svg width="240" height="180" viewBox="0 0 240 180" fill="none" xmlns="http://www.w3.org/2000/svg">
<path d="M125.371 163C165.688 163 198.371 130.317 198.371 90C198.371 49.6832 165.688 17 125.371 17C85.0543 17 52.3711 49.6832 52.3711 90C52.3711 130.317 85.0543 163 125.371 163Z" fill="#CFD3FF"/>
<path d="M194.564 153.937C194.859 153.642 195.349 153.642 195.644 153.937L199.085 157.378C199.38 157.673 199.38 158.163 199.085 158.458C198.79 158.753 198.3 158.753 198.005 158.458L194.564 155.017C194.262 154.714 194.269 154.232 194.564 153.937Z" fill="#FFC401"/>
<path fill-rule="evenodd" clip-rule="evenodd" d="M194.332 153.709C194.754 153.287 195.448 153.287 195.869 153.709L199.31 157.15C199.731 157.571 199.731 158.265 199.31 158.686C198.889 159.107 198.195 159.107 197.773 158.686L194.332 155.245C193.902 154.815 193.913 154.128 194.332 153.709ZM195.64 153.937C195.345 153.642 194.856 153.642 194.561 153.937C194.265 154.232 194.258 154.714 194.561 155.017L198.002 158.458C198.297 158.753 198.786 158.753 199.082 158.458C199.377 158.163 199.377 157.673 199.082 157.378L195.64 153.937Z" fill="#FFC401"/>
<path d="M187.872 147.241C188.167 146.946 188.657 146.946 188.952 147.241L192.386 150.675C192.681 150.97 192.681 151.46 192.386 151.755C192.091 152.05 191.601 152.05 191.306 151.755L187.865 148.314C187.57 148.018 187.577 147.536 187.872 147.241Z" fill="#FFC401"/>
<path fill-rule="evenodd" clip-rule="evenodd" d="M187.646 147.013C188.067 146.591 188.761 146.591 189.183 147.013L192.617 150.447C193.038 150.868 193.038 151.562 192.617 151.983C192.195 152.404 191.501 152.404 191.08 151.983L187.639 148.542C187.214 148.117 187.229 147.43 187.646 147.013ZM188.954 147.241C188.659 146.946 188.17 146.946 187.874 147.241C187.579 147.536 187.572 148.018 187.867 148.314L191.308 151.755C191.604 152.05 192.093 152.05 192.388 151.755C192.683 151.46 192.683 150.97 192.388 150.675L188.954 147.241Z" fill="#FFC401"/>
<path d="M187.951 157.088L191.4 153.64C191.695 153.345 192.184 153.345 192.48 153.64C192.775 153.935 192.775 154.424 192.48 154.72L189.031 158.168C188.736 158.463 188.247 158.463 187.951 158.168C187.656 157.873 187.649 157.39 187.951 157.088Z" fill="#FFC401"/>
<path fill-rule="evenodd" clip-rule="evenodd" d="M187.722 156.86L191.17 153.411C191.591 152.99 192.285 152.99 192.706 153.411C193.128 153.833 193.128 154.527 192.706 154.948L189.258 158.396C188.837 158.817 188.143 158.817 187.722 158.396C187.302 157.977 187.291 157.29 187.722 156.86ZM191.398 153.64L187.95 157.088C187.648 157.39 187.655 157.873 187.95 158.168C188.245 158.463 188.735 158.463 189.03 158.168L192.478 154.72C192.773 154.424 192.773 153.935 192.478 153.64C192.183 153.345 191.693 153.345 191.398 153.64Z" fill="#FFC401"/>
<path d="M194.192 150.846L197.64 147.398C197.935 147.102 198.425 147.102 198.72 147.398C199.015 147.693 199.015 148.182 198.72 148.477L195.271 151.926C194.976 152.221 194.487 152.221 194.192 151.926C193.896 151.631 193.889 151.148 194.192 150.846Z" fill="#FFC401"/>
<path fill-rule="evenodd" clip-rule="evenodd" d="M193.968 150.618L197.416 147.169C197.837 146.748 198.531 146.748 198.952 147.169C199.374 147.591 199.374 148.284 198.952 148.706L195.504 152.154C195.083 152.575 194.389 152.575 193.968 152.154C193.548 151.735 193.537 151.048 193.968 150.618ZM197.644 147.398L194.196 150.846C193.894 151.148 193.901 151.631 194.196 151.926C194.491 152.221 194.981 152.221 195.276 151.926L198.724 148.477C199.019 148.182 199.019 147.693 198.724 147.398C198.429 147.102 197.94 147.102 197.644 147.398Z" fill="#FFC401"/>
<path opacity="0.46" d="M125.371 147C156.851 147 182.371 121.48 182.371 90C182.371 58.5198 156.851 33 125.371 33C93.8909 33 68.3711 58.5198 68.3711 90C68.3711 121.48 93.8909 147 125.371 147Z" fill="white"/>
<path d="M46.2617 41.5847C40.4466 43.272 38.4325 45.5792 36.9484 52.1736C36.7061 53.2755 35.2977 53.2755 35.0403 52.1736C33.5562 45.562 31.5269 43.272 25.7269 41.5847C24.7577 41.3092 24.7577 39.708 25.7269 39.4153C31.5421 37.728 33.5562 35.4208 35.0403 28.8264C35.2826 27.7245 36.6909 27.7245 36.9484 28.8264C38.4325 35.438 40.4617 37.728 46.2617 39.4153C47.2461 39.708 47.2461 41.292 46.2617 41.5847Z" fill="#7D5BCA"/>
<path fill-rule="evenodd" clip-rule="evenodd" d="M57.5 145.857C60.4587 145.857 62.8571 143.459 62.8571 140.5C62.8571 137.541 60.4587 135.143 57.5 135.143C54.5413 135.143 52.1429 137.541 52.1429 140.5C52.1429 143.459 54.5413 145.857 57.5 145.857ZM57.5 148C61.6421 148 65 144.642 65 140.5C65 136.358 61.6421 133 57.5 133C53.3579 133 50 136.358 50 140.5C50 144.642 53.3579 148 57.5 148Z" fill="#3D00C3"/>
<path d="M115.645 71.5727C115.645 92.0473 99.0473 108.645 78.5727 108.645C58.098 108.645 41.5 92.0473 41.5 71.5727C41.5 51.098 58.098 34.5 78.5727 34.5C99.0473 34.5 115.645 51.098 115.645 71.5727Z" fill="#49C190" stroke="#30AA78" stroke-width="3"/>
<path d="M53.7734 60.9102H58.7681L63.5774 69.9933H63.7834L68.5927 60.9102H73.5874L65.8945 74.5451V82.0011H61.4663V74.5451L53.7734 60.9102Z" fill="white"/>
<path d="M79.8358 82.31C78.2087 82.31 76.8081 81.9805 75.6341 81.3214C74.467 80.6554 73.5676 79.7148 72.936 78.4996C72.3044 77.2776 71.9885 75.8324 71.9885 74.1641C71.9885 72.5369 72.3044 71.1089 72.936 69.88C73.5676 68.651 74.4567 67.6933 75.6032 67.0067C76.7567 66.3202 78.1092 65.9769 79.6608 65.9769C80.7043 65.9769 81.6758 66.1451 82.5752 66.4815C83.4814 66.8111 84.271 67.3088 84.9438 67.9748C85.6235 68.6407 86.1521 69.4783 86.5297 70.4876C86.9073 71.4899 87.0961 72.6639 87.0961 74.0096V75.2145H73.7393V72.4957H82.9665C82.9665 71.8641 82.8292 71.3046 82.5546 70.8171C82.28 70.3297 81.8989 69.9486 81.4115 69.674C80.9309 69.3925 80.3714 69.2518 79.7329 69.2518C79.0669 69.2518 78.4765 69.4063 77.9616 69.7152C77.4535 70.0173 77.0553 70.4258 76.767 70.9407C76.4786 71.4487 76.331 72.0152 76.3241 72.6399V75.2248C76.3241 76.0075 76.4683 76.6837 76.7567 77.2536C77.0519 77.8234 77.4672 78.2628 78.0028 78.5717C78.5383 78.8807 79.1733 79.0352 79.9079 79.0352C80.3954 79.0352 80.8416 78.9665 81.2467 78.8292C81.6518 78.6919 81.9985 78.4859 82.2868 78.2113C82.5752 77.9367 82.7949 77.6003 82.9459 77.2021L87.0035 77.4698C86.7975 78.4447 86.3753 79.296 85.7368 80.0238C85.1051 80.7447 84.2881 81.3076 83.2858 81.7127C82.2903 82.1109 81.1403 82.31 79.8358 82.31Z" fill="white"/>
<path d="M103.12 70.6935L99.104 70.9407C99.0353 70.5974 98.8877 70.2885 98.6611 70.0138C98.4346 69.7324 98.1359 69.5092 97.7652 69.3445C97.4013 69.1728 96.9653 69.087 96.4573 69.087C95.7776 69.087 95.2043 69.2312 94.7375 69.5195C94.2706 69.801 94.0372 70.1786 94.0372 70.6523C94.0372 71.0299 94.1882 71.3492 94.4903 71.6101C94.7924 71.871 95.3108 72.0804 96.0454 72.2383L98.9083 72.815C100.446 73.1308 101.593 73.6389 102.348 74.3391C103.103 75.0394 103.481 75.9594 103.481 77.0991C103.481 78.1358 103.175 79.0455 102.564 79.8281C101.96 80.6108 101.129 81.2218 100.072 81.6612C99.0216 82.0938 97.8098 82.31 96.4367 82.31C94.3427 82.31 92.6744 81.8741 91.4317 81.0021C90.1959 80.1233 89.4716 78.9287 89.2588 77.4183L93.5738 77.1918C93.7042 77.8303 94.02 78.3177 94.5212 78.6541C95.0224 78.9837 95.6643 79.1484 96.447 79.1484C97.2159 79.1484 97.8338 79.0008 98.3007 78.7056C98.7744 78.4035 99.0147 78.0156 99.0216 77.5419C99.0147 77.1437 98.8465 76.8176 98.517 76.5636C98.1874 76.3027 97.6794 76.1036 96.9928 75.9663L94.2535 75.4205C92.7087 75.1115 91.5587 74.576 90.8035 73.8139C90.0552 73.0518 89.681 72.0804 89.681 70.8995C89.681 69.8834 89.9556 69.008 90.5049 68.2734C91.061 67.5388 91.8402 66.9724 92.8426 66.5742C93.8518 66.176 95.0327 65.9769 96.3852 65.9769C98.3831 65.9769 99.9553 66.3991 101.102 67.2436C102.255 68.0881 102.928 69.238 103.12 70.6935Z" fill="white"/>
<path d="M214.645 104.573C214.645 125.047 198.047 141.645 177.573 141.645C157.098 141.645 140.5 125.047 140.5 104.573C140.5 84.098 157.098 67.5 177.573 67.5C198.047 67.5 214.645 84.098 214.645 104.573Z" fill="#DC3545" stroke="#C61E2E" stroke-width="3"/>
<path d="M177.27 94V115.091H173.418L164.243 101.816H164.088V115.091H159.629V94H163.542L172.646 107.264H172.831V94H177.27Z" fill="white"/>
<path d="M188.019 115.4C186.419 115.4 185.036 115.06 183.869 114.38C182.708 113.694 181.812 112.739 181.181 111.517C180.549 110.288 180.233 108.864 180.233 107.244C180.233 105.61 180.549 104.182 181.181 102.96C181.812 101.731 182.708 100.776 183.869 100.097C185.036 99.41 186.419 99.0668 188.019 99.0668C189.618 99.0668 190.998 99.41 192.159 100.097C193.326 100.776 194.225 101.731 194.857 102.96C195.488 104.182 195.804 105.61 195.804 107.244C195.804 108.864 195.488 110.288 194.857 111.517C194.225 112.739 193.326 113.694 192.159 114.38C190.998 115.06 189.618 115.4 188.019 115.4ZM188.039 112.001C188.767 112.001 189.375 111.795 189.862 111.384C190.35 110.965 190.717 110.395 190.964 109.674C191.218 108.953 191.345 108.133 191.345 107.213C191.345 106.293 191.218 105.472 190.964 104.751C190.717 104.031 190.35 103.461 189.862 103.042C189.375 102.623 188.767 102.414 188.039 102.414C187.305 102.414 186.687 102.623 186.186 103.042C185.691 103.461 185.317 104.031 185.063 104.751C184.816 105.472 184.692 106.293 184.692 107.213C184.692 108.133 184.816 108.953 185.063 109.674C185.317 110.395 185.691 110.965 186.186 111.384C186.687 111.795 187.305 112.001 188.039 112.001Z" fill="white"/>
<path d="M121.187 99.8949C120.121 99.8949 119.199 99.6685 118.422 99.2157C117.649 98.7583 117.052 98.1225 116.631 97.3084C116.21 96.4897 116 95.5406 116 94.4612C116 93.3726 116.21 92.4212 116.631 91.6071C117.052 90.7884 117.649 90.1526 118.422 89.6998C119.199 89.2424 120.121 89.0137 121.187 89.0137C122.252 89.0137 123.172 89.2424 123.945 89.6998C124.722 90.1526 125.321 90.7884 125.742 91.6071C126.163 92.4212 126.373 93.3726 126.373 94.4612C126.373 95.5406 126.163 96.4897 125.742 97.3084C125.321 98.1225 124.722 98.7583 123.945 99.2157C123.172 99.6685 122.252 99.8949 121.187 99.8949ZM121.2 97.6308C121.685 97.6308 122.09 97.4936 122.415 97.2192C122.74 96.9402 122.984 96.5606 123.149 96.0803C123.318 95.6001 123.403 95.0535 123.403 94.4406C123.403 93.8277 123.318 93.2811 123.149 92.8009C122.984 92.3206 122.74 91.941 122.415 91.662C122.09 91.383 121.685 91.2435 121.2 91.2435C120.711 91.2435 120.299 91.383 119.966 91.662C119.636 91.941 119.387 92.3206 119.218 92.8009C119.053 93.2811 118.971 93.8277 118.971 94.4406C118.971 95.0535 119.053 95.6001 119.218 96.0803C119.387 96.5606 119.636 96.9402 119.966 97.2192C120.299 97.4936 120.711 97.6308 121.2 97.6308Z" fill="#22008C"/>
<path d="M128.274 99.6891V89.1509H131.107V90.9896H131.217C131.409 90.3356 131.732 89.8416 132.185 89.5077C132.637 89.1692 133.159 89 133.749 89C133.895 89 134.053 89.0091 134.222 89.0274C134.391 89.0457 134.54 89.0709 134.668 89.1029V91.6963C134.531 91.6551 134.341 91.6185 134.099 91.5865C133.856 91.5545 133.634 91.5385 133.433 91.5385C133.003 91.5385 132.619 91.6322 132.281 91.8198C131.947 92.0027 131.681 92.2589 131.485 92.5882C131.293 92.9175 131.197 93.2971 131.197 93.7271V99.6891H128.274Z" fill="#22008C"/>
</svg>
