<svg width="240" height="180" viewBox="0 0 240 180" fill="none" xmlns="http://www.w3.org/2000/svg">
<path d="M31.0505 157.803C31.0505 157.803 -18.1595 64.5231 18.6805 42.7531C48.0705 25.3831 73.8405 55.7731 105.301 34.6131C145.871 7.30307 176.63 25.5931 198.62 59.5831C215.12 85.0931 223.861 101.593 232.131 121.453C245.021 152.383 217.691 159.443 217.691 159.443L31.0505 157.803Z" fill="#CFD3FF"/>
<path d="M99.5214 24.5936C95.6714 25.5736 94.3314 26.9136 93.3514 30.7636C93.1914 31.4036 92.2614 31.4036 92.0914 30.7636C91.1114 26.9136 89.7714 25.5736 85.9214 24.5936C85.2814 24.4336 85.2814 23.5036 85.9214 23.3336C89.7714 22.3536 91.1114 21.0136 92.0914 17.1636C92.2514 16.5236 93.1814 16.5236 93.3514 17.1636C94.3314 21.0136 95.6714 22.3536 99.5214 23.3336C100.171 23.5036 100.171 24.4236 99.5214 24.5936Z" fill="#FFC401"/>
<path d="M201.541 131.531C197.691 132.511 196.351 133.851 195.371 137.701C195.211 138.341 194.281 138.341 194.111 137.701C193.131 133.851 191.791 132.511 187.941 131.531C187.301 131.371 187.301 130.441 187.941 130.271C191.791 129.291 193.131 127.951 194.111 124.101C194.271 123.461 195.201 123.461 195.371 124.101C196.351 127.951 197.691 129.291 201.541 130.271C202.191 130.441 202.191 131.371 201.541 131.531Z" fill="#22008C"/>
<path d="M109.19 48.9602C106.77 49.5802 105.92 50.4202 105.3 52.8502C105.2 53.2602 104.61 53.2602 104.51 52.8502C103.89 50.4302 103.05 49.5802 100.62 48.9602C100.21 48.8602 100.21 48.2702 100.62 48.1702C103.04 47.5502 103.89 46.7102 104.51 44.2802C104.61 43.8702 105.2 43.8702 105.3 44.2802C105.92 46.7002 106.76 47.5502 109.19 48.1702C109.59 48.2702 109.59 48.8602 109.19 48.9602Z" fill="#22008C"/>
<path d="M38.9302 115.933C36.5102 116.553 35.6602 117.393 35.0402 119.823C34.9402 120.233 34.3502 120.233 34.2502 119.823C33.6302 117.403 32.7902 116.553 30.3602 115.933C29.9502 115.833 29.9502 115.243 30.3602 115.143C32.7802 114.523 33.6302 113.683 34.2502 111.253C34.3502 110.843 34.9402 110.843 35.0402 111.253C35.6602 113.673 36.5002 114.523 38.9302 115.143C39.3302 115.243 39.3302 115.833 38.9302 115.933Z" fill="#22008C"/>
<path d="M45 94C49.4183 94 53 90.4183 53 86C53 81.5817 49.4183 78 45 78C40.5817 78 37 81.5817 37 86C37 90.4183 40.5817 94 45 94Z" fill="#3D00C3"/>
<path d="M202.86 69.912C206.196 69.912 208.9 67.2078 208.9 63.872C208.9 60.5362 206.196 57.832 202.86 57.832C199.525 57.832 196.82 60.5362 196.82 63.872C196.82 67.2078 199.525 69.912 202.86 69.912Z" fill="#FFC401"/>
<path d="M69.3301 107.582L114.14 102.082L158.95 107.582L114.14 130.742L69.3301 107.582Z" fill="#B78400"/>
<path d="M158.951 158.852L114.141 174.292V123.022L158.951 107.582V158.852Z" fill="#FFC401"/>
<path d="M69.3301 158.852L114.14 174.292V123.022L69.3301 107.582V158.852Z" fill="#DBA300"/>
<path d="M114.141 123.022V133.992L69.8613 122.492L94.2513 116.172L114.141 123.022Z" fill="#B78400"/>
<path d="M69.3304 107.582C69.3304 107.582 61.7404 119.142 58.6504 119.442C58.6504 119.442 101.27 136.442 103.89 136.202C106.51 135.962 114.14 123.022 114.14 123.022L69.3304 107.582Z" fill="#FFC401"/>
<path d="M114.141 123.022V133.992L157.311 117.092L134.041 116.172L114.141 123.022Z" fill="#DBA300"/>
<path d="M158.951 107.582C158.951 107.582 166.541 119.142 169.631 119.442C169.631 119.442 127.011 136.442 124.391 136.202C121.771 135.962 114.141 123.022 114.141 123.022L158.951 107.582Z" fill="#FFD740"/>
<path d="M80.9699 145.973C81.6199 146.863 82.6799 147.253 83.3399 146.833L88.7099 143.413V157.393C88.7099 158.323 89.4599 159.343 90.3899 159.673C91.3199 160.013 92.0699 159.533 92.0699 158.603V144.623L97.4399 151.943C98.0899 152.833 99.1599 153.223 99.8099 152.803C100.46 152.383 100.46 151.323 99.8099 150.433L91.5799 139.213C91.5399 139.163 91.4999 139.113 91.4599 139.063C91.4499 139.053 91.4399 139.033 91.4199 139.023C91.3899 138.983 91.3599 138.953 91.3199 138.923C91.3099 138.913 91.2999 138.903 91.2899 138.893C91.2499 138.853 91.2199 138.823 91.1799 138.793C91.1699 138.783 91.1599 138.783 91.1499 138.773C91.1099 138.733 91.0699 138.703 91.0299 138.673C91.0199 138.673 91.0199 138.663 91.0099 138.663C90.9599 138.633 90.9199 138.593 90.8699 138.563C90.8599 138.563 90.8599 138.553 90.8499 138.553C90.7999 138.523 90.7599 138.493 90.7099 138.463C90.6999 138.453 90.6799 138.453 90.6699 138.443C90.6299 138.423 90.5899 138.403 90.5499 138.383C90.4899 138.353 90.4399 138.333 90.3799 138.313C90.3199 138.293 90.2699 138.273 90.2099 138.263C90.1699 138.253 90.1299 138.243 90.0899 138.233C90.0799 138.233 90.0599 138.223 90.0499 138.223C89.9999 138.213 89.9499 138.213 89.9099 138.203C89.8999 138.203 89.8999 138.203 89.8899 138.203C89.8399 138.203 89.7999 138.203 89.7499 138.203H89.7399C89.6999 138.203 89.6499 138.213 89.6099 138.213C89.5999 138.213 89.5999 138.213 89.5899 138.213C89.5499 138.223 89.5099 138.233 89.4799 138.243C89.4699 138.243 89.4599 138.243 89.4499 138.253C89.4199 138.263 89.3799 138.273 89.3499 138.293C89.3399 138.293 89.3299 138.303 89.3199 138.303C89.2799 138.323 89.2399 138.343 89.1999 138.373L80.9699 143.623C80.3199 144.023 80.3199 145.083 80.9699 145.973Z" fill="#22008C"/>
<path d="M148.761 146.653C148.111 147.543 147.051 147.933 146.391 147.513L141.021 144.093V158.073C141.021 159.003 140.271 160.023 139.341 160.353C138.411 160.683 137.661 160.213 137.661 159.283V145.303L132.291 152.623C131.641 153.513 130.571 153.903 129.921 153.483C129.271 153.063 129.271 152.003 129.921 151.113L138.151 139.893C138.191 139.843 138.231 139.793 138.271 139.743C138.281 139.733 138.291 139.713 138.311 139.703C138.341 139.663 138.371 139.633 138.411 139.603C138.421 139.593 138.431 139.583 138.441 139.573C138.481 139.533 138.511 139.503 138.551 139.473C138.561 139.463 138.571 139.463 138.581 139.453C138.621 139.413 138.661 139.383 138.701 139.353C138.711 139.353 138.711 139.343 138.721 139.343C138.771 139.313 138.811 139.273 138.861 139.243C138.871 139.243 138.871 139.233 138.881 139.233C138.931 139.203 138.971 139.173 139.021 139.143C139.031 139.133 139.051 139.133 139.061 139.123C139.101 139.103 139.141 139.083 139.181 139.063C139.241 139.033 139.291 139.013 139.351 138.993C139.411 138.973 139.461 138.953 139.521 138.943C139.561 138.933 139.601 138.923 139.641 138.913C139.651 138.913 139.671 138.903 139.681 138.903C139.731 138.893 139.781 138.893 139.821 138.883C139.831 138.883 139.831 138.883 139.841 138.883C139.891 138.883 139.931 138.883 139.981 138.883H139.991C140.031 138.883 140.081 138.893 140.121 138.893C140.131 138.893 140.131 138.893 140.141 138.893C140.181 138.903 140.221 138.913 140.251 138.923C140.261 138.923 140.271 138.923 140.281 138.933C140.311 138.943 140.351 138.953 140.381 138.973C140.391 138.973 140.401 138.983 140.411 138.983C140.451 139.003 140.491 139.023 140.531 139.053L148.761 144.303C149.411 144.703 149.411 145.763 148.761 146.653Z" fill="#7D5BCA"/>
<path d="M130.72 102.68C124.18 108.6 118.21 110.2 110.65 115.33C110.23 115.62 109.47 115.22 109.41 114.65C106.68 89.5003 116.34 81.7703 127.57 74.8203L139.33 83.2803C139.12 85.6503 137.66 96.4203 130.72 102.68Z" fill="#FFC401"/>
<path d="M132.189 92.1898C128.589 95.4498 125.299 96.3299 121.129 99.1599C120.899 99.3199 120.479 99.0998 120.449 98.7898C118.949 84.9298 124.269 80.6698 130.459 76.8398L136.939 81.4998C136.819 82.8098 136.009 88.7398 132.189 92.1898Z" fill="#DC3545"/>
<path d="M158.109 93.2527C158.109 93.2527 156.619 82.9627 155.439 75.4827C158.669 73.5227 165.269 69.3627 169.259 65.4527C170.739 64.0127 171.809 63.1727 172.589 62.7227C173.849 74.3227 169.879 86.5027 158.109 93.2527Z" fill="#22008C"/>
<path d="M129.649 58.0425C129.699 57.7425 129.749 57.4525 129.779 57.1325C122.399 58.4725 112.189 60.4525 112.189 60.4525C114.609 46.9625 124.719 39.1725 135.979 36.5625L133.849 42.2925L133.839 42.3125L129.649 58.0425Z" fill="#22008C"/>
<path d="M140.049 84.7836L125.759 74.5336C125.609 70.3036 125.859 66.1536 126.449 62.0836C126.499 61.7836 126.549 61.4936 126.579 61.1736C127.389 56.0236 128.769 51.0736 130.629 46.3636C131.429 44.3636 132.299 42.4036 133.269 40.5036C140.179 26.8536 151.329 15.9636 164.689 10.2836C170.669 7.74364 177.099 6.25364 183.759 6.02364C184.249 6.01364 184.759 6.37364 184.899 6.84364C186.889 13.2836 187.609 19.9136 187.199 26.4436C185.649 51.9636 166.999 76.3336 140.049 84.7836Z" fill="#7D5BCA"/>
<path d="M136.76 82.34L128.33 76.43C129.06 72.85 130.06 69.27 131.31 65.68C131.41 65.41 131.5 65.16 131.58 64.88C133.2 60.32 135.19 55.83 137.49 51.44C138.47 49.58 139.5 47.73 140.58 45.92C148.35 32.91 158.68 21.4 169.59 13.92C174.47 10.57 179.48 8.03001 184.4 6.51001C184.76 6.41001 185.07 6.61001 185.07 6.98001C185.25 12.08 184.46 17.59 182.87 23.25C176.68 45.3 158.18 69.79 136.76 82.34Z" fill="#DBC8F9"/>
<path d="M187.22 26.4917L164.58 10.2817C170.57 7.73175 177.12 6.22175 183.8 6.00175C184.26 5.97175 184.75 6.33175 184.89 6.78175C186.92 13.2717 187.64 19.9417 187.22 26.4917Z" fill="#22008C"/>
<path d="M161.621 53.2523C159.021 56.8923 153.981 57.7523 150.341 55.1523C146.701 52.5523 145.841 47.5123 148.441 43.8723C151.041 40.2323 156.081 39.3723 159.721 41.9723C163.361 44.5723 164.221 49.6123 161.621 53.2523Z" fill="#7D5BCA"/>
<path d="M160.169 52.2206C158.139 55.0606 154.209 55.7306 151.369 53.7006C148.529 51.6706 147.859 47.7406 149.889 44.9006C151.919 42.0606 155.849 41.3906 158.689 43.4206C161.529 45.4506 162.199 49.3806 160.169 52.2206Z" fill="#22008C"/>
<path d="M159.539 51.7725C157.759 54.2625 154.319 54.8525 151.819 53.0725C149.329 51.2925 148.739 47.8525 150.519 45.3525C152.299 42.8625 155.739 42.2725 158.239 44.0525C160.729 45.8325 161.309 49.2825 159.539 51.7725Z" fill="white"/>
<path d="M84.4786 49.5662L78.979 55.2651C78.9292 55.3233 78.8877 55.3897 78.8627 55.4562L75.5481 65.907C75.4317 66.2642 74.9748 66.3722 74.7173 66.0898L72.4411 63.6141C72.2417 63.3981 71.8928 63.4064 71.7017 63.6308L67.7722 68.2663C67.5646 68.5156 67.1741 68.4906 66.9913 68.2248L42.1769 31.5722C41.612 30.7331 42.5009 29.6781 43.423 30.0934L84.3291 48.777C84.6364 48.9182 84.7195 49.3253 84.4786 49.5662Z" fill="#7D5BCA"/>
<path d="M78.8535 55.3152L43.1811 30.6918C43.0233 30.5755 42.8488 30.8081 42.9984 30.9327L75.6468 57.7742C75.6634 57.7908 75.68 57.8157 75.68 57.8406L74.7662 66.1149L74.8825 66.1814C75.14 66.3226 75.464 66.198 75.5554 65.9155L78.8867 55.4066C78.895 55.3733 78.8784 55.3318 78.8535 55.3152Z" fill="#22008C"/>
<path d="M75.6819 57.8477L71.7109 63.6297C71.7109 63.6297 72.0515 63.2558 72.4503 63.613L74.7681 66.1219C74.9758 66.3545 75.3662 66.2133 75.3745 65.8976L75.6819 57.8477Z" fill="#3D00C3"/>
<path d="M187.321 89.1021L189.091 95.4921C189.111 95.5521 189.111 95.6221 189.101 95.6821L187.361 104.692C187.301 105.002 187.601 105.262 187.901 105.162L190.571 104.252C190.811 104.172 191.061 104.312 191.111 104.562L192.151 109.542C192.201 109.812 192.501 109.952 192.741 109.822L225.641 92.7721C226.391 92.3821 226.161 91.2421 225.311 91.1921L187.761 88.5921C187.461 88.5621 187.241 88.8321 187.321 89.1021Z" fill="#FFC401"/>
<path d="M189.161 95.5721L225.231 91.7121C225.391 91.6921 225.431 91.9321 225.271 91.9621L190.531 98.6621C190.511 98.6621 190.491 98.6821 190.481 98.7021L187.851 105.152H187.741C187.491 105.152 187.311 104.932 187.351 104.682L189.101 95.6221C189.111 95.6021 189.131 95.5821 189.161 95.5721Z" fill="#B78400"/>
<path d="M190.482 98.7109L191.092 104.551C191.092 104.551 190.992 104.141 190.552 104.241L187.842 105.161C187.592 105.241 187.372 104.991 187.482 104.751L190.482 98.7109Z" fill="#DBA300"/>
<path fill-rule="evenodd" clip-rule="evenodd" d="M99.861 108.278C99.8609 108.279 99.8608 108.279 99.3398 108.142C98.8187 108.005 98.8187 108.005 98.8187 108.005L98.8188 108.005L98.8194 108.003L98.8223 107.991L98.8346 107.942C98.8456 107.898 98.8618 107.83 98.8823 107.741C98.9233 107.562 98.9814 107.295 99.0485 106.947C99.1826 106.252 99.3523 105.235 99.4924 103.958C99.7727 101.402 99.9341 97.8106 99.4571 93.6711C98.5038 85.3973 95.0028 74.9425 84.7988 66.1807L85.5007 65.3633C95.9567 74.3415 99.5508 85.0717 100.527 93.5478C101.015 97.7833 100.851 101.458 100.563 104.075C100.42 105.384 100.245 106.43 100.106 107.151C100.037 107.512 99.9761 107.791 99.9325 107.981C99.9106 108.077 99.893 108.15 99.8808 108.2L99.8664 108.257L99.8625 108.272L99.8613 108.277L99.861 108.278Z" fill="#3D00C3"/>
<path fill-rule="evenodd" clip-rule="evenodd" d="M140.928 108.562C140.928 108.562 140.929 108.562 140.591 108.142C140.253 107.722 140.254 107.722 140.254 107.722L140.258 107.719L140.267 107.711L140.302 107.684C140.333 107.659 140.378 107.625 140.437 107.58C140.556 107.49 140.731 107.359 140.96 107.195C141.42 106.867 142.098 106.403 142.982 105.856C144.75 104.762 147.34 103.333 150.641 101.983C157.243 99.2849 166.697 96.9045 178.101 98.1766L177.981 99.2474C166.795 97.9995 157.524 100.334 151.049 102.981C147.811 104.304 145.274 105.705 143.549 106.772C142.687 107.306 142.028 107.756 141.587 108.072C141.366 108.23 141.2 108.353 141.089 108.437C141.034 108.479 140.993 108.511 140.966 108.532L140.937 108.555L140.93 108.561L140.928 108.562Z" fill="#22008C"/>
<path fill-rule="evenodd" clip-rule="evenodd" d="M59 88.8721L59.0452 88.436C59.0905 87.9999 59.0907 88 59.091 88L59.0956 88.0005L59.1086 88.0019L59.1583 88.0075C59.2017 88.0124 59.2656 88.02 59.3489 88.0304C59.5155 88.0513 59.7598 88.0837 60.0734 88.1303C60.7006 88.2234 61.6051 88.3731 62.7197 88.5998C64.9482 89.0532 68.0198 89.8152 71.3942 91.0509C78.1324 93.5183 86.1331 97.8945 91 105.528L90.2633 106C85.5455 98.6006 77.7531 94.3129 71.0943 91.8745C67.7701 90.6573 64.7422 89.906 62.5459 89.4592C61.448 89.2359 60.5588 89.0888 59.9453 88.9977C59.6386 88.9522 59.4009 88.9206 59.2405 88.9005C59.1603 88.8905 59.0995 88.8833 59.059 88.8787L59.0138 88.8736L59.003 88.8724L59 88.8721Z" fill="#7D5BCA"/>
</svg>
