<svg width="240" height="180" viewBox="0 0 240 180" fill="none" xmlns="http://www.w3.org/2000/svg">
<path d="M34.8132 163.96C34.8132 163.96 -20.6568 128.99 17.2532 91.51C55.1632 54.03 105.893 15.71 139.903 30.53C179.293 43.6 170.853 64.1 208.203 91.23C245.553 118.36 236.913 139.9 230.223 150.81C223.533 161.72 222.423 164.52 222.423 164.52L34.8132 163.96Z" fill="#CFD3FF"/>
<path d="M173.313 49.06C184.652 49.06 193.843 39.8684 193.843 28.53C193.843 17.1916 184.652 8 173.313 8C161.975 8 152.783 17.1916 152.783 28.53C152.783 39.8684 161.975 49.06 173.313 49.06Z" fill="#CFD3FF"/>
<path d="M151.873 164.22H182.473L197.983 157.27L194.603 151.42L184.593 158.37L193.753 145.72L184.573 137.69L177.393 153.42L178.953 135.43H164.283L167.103 153.39L157.793 137.06L151.383 140.18L158.223 154.31L148.013 143.31L144.123 146.77L154.553 156.14L142.663 150.29L153.283 157.27L142.143 153.39L139.023 158.92L151.873 164.22Z" fill="#3D00C3"/>
<path d="M28.7923 168.599L24.9023 167.359V43.9487L28.7923 42.7188V168.599Z" fill="#91268C"/>
<path d="M75.243 162.419L28.793 168.599V42.7188L75.243 47.6587V162.419Z" fill="#5D1368"/>
<path d="M36.0429 108.528C34.8929 108.528 33.9629 107.598 33.9629 106.448V96.4784C33.9629 95.3284 34.8929 94.3984 36.0429 94.3984C37.1929 94.3984 38.1229 95.3284 38.1229 96.4784V106.448C38.1229 107.598 37.1929 108.528 36.0429 108.528Z" fill="#FFC401"/>
<path d="M211.332 168.599L215.222 167.359V43.9487L211.332 42.7188V168.599Z" fill="#91268C"/>
<path d="M164.883 162.419L211.333 168.599V42.7188L164.883 47.6587V162.419Z" fill="#5D1368"/>
<path d="M204.082 108.528C205.232 108.528 206.162 107.598 206.162 106.448V96.4784C206.162 95.3284 205.232 94.3984 204.082 94.3984C202.932 94.3984 202.002 95.3284 202.002 96.4784V106.448C202.002 107.598 202.932 108.528 204.082 108.528Z" fill="#FFC401"/>
<path d="M112.642 114.929C112.642 114.929 111.652 114.399 110.952 114.729C110.252 115.059 111.092 116.749 111.092 116.749L112.662 116.159L112.642 114.929Z" fill="#DB837B"/>
<path d="M114.083 107.059C114.083 107.059 115.783 112.859 115.113 114.749C114.813 115.589 113.283 117.649 111.793 117.389C110.773 117.209 110.583 116.129 111.053 115.539C111.523 114.949 112.143 115.509 112.143 115.509C112.143 115.509 112.783 113.739 111.763 113.429C110.743 113.119 110.353 114.569 110.353 114.569C110.353 114.569 111.053 115.749 110.453 116.259C109.853 116.769 108.403 115.099 108.503 114.229C109.043 109.279 110.163 109.369 110.373 107.779C110.633 105.659 114.083 107.059 114.083 107.059Z" fill="#FFB7A9"/>
<path d="M114.083 107.059L114.493 108.589C114.493 108.589 110.743 108.989 109.803 109.279L110.623 107.669L114.083 107.059Z" fill="#DB837B"/>
<path d="M109.851 107.81C109.851 107.81 109.251 100.96 109.531 97.1601C109.541 97.0801 109.541 97.0101 109.551 96.9401C109.651 95.7501 109.891 94.7601 110.151 93.9801C110.691 92.3401 111.371 91.5401 111.371 91.5401C111.371 91.5401 113.411 88.7401 114.641 91.8801C115.941 95.1701 114.501 108 114.501 108L114.031 107.98L110.221 107.83L109.851 107.81Z" fill="#3D00C3"/>
<path d="M103.943 159.988L110.073 159.758L110.503 159.738L110.443 160.408L110.373 161.098L110.133 163.578L110.023 164.748L103.963 164.328L103.953 163.418L103.943 160.738V159.988Z" fill="#DB837B"/>
<path d="M115.141 95.9602C115.111 96.1702 115.081 96.3502 115.041 96.5102C114.831 97.3502 114.401 97.5702 113.701 97.7802C112.711 98.0802 111.671 97.6002 110.831 96.8202C110.431 96.4502 110.071 96.0002 109.791 95.5402C109.781 95.5202 109.771 95.5002 109.761 95.4802C109.611 95.1702 109.411 94.2902 109.171 93.0402C108.581 89.8802 107.801 84.3402 107.171 79.5702C106.521 74.7202 106.021 70.6602 106.021 70.6602C106.021 70.6602 108.871 72.0102 109.861 73.9002C110.851 75.7902 113.251 79.4902 114.051 85.8002C114.431 88.8202 115.281 94.8802 115.141 95.9602Z" fill="#3D00C3"/>
<path d="M110.783 102.309C110.503 102.009 110.303 96.1794 110.083 95.8294C110.073 95.8094 110.063 95.7894 110.053 95.7694L109.463 93.3294C108.873 90.1694 108.093 84.6294 107.463 79.8594L110.353 80.7694C110.353 80.7694 111.673 85.8794 111.933 90.0794C112.193 94.2694 112.063 99.2494 112.073 100.349C112.143 106.739 111.033 102.529 110.783 102.309Z" fill="#22008C"/>
<path d="M109.713 133.382C111.253 132.602 113.963 130.492 114.023 130.772C114.053 130.912 113.233 161.252 113.213 161.412C113.213 161.412 110.693 161.662 108.153 161.962C105.103 162.322 102.353 161.872 102.283 161.852C102.283 161.852 102.553 144.802 102.523 141.832C102.493 138.902 103.153 134.542 103.153 134.542C103.153 134.542 107.723 134.392 109.713 133.382Z" fill="#FFEEC2"/>
<path d="M113.682 136.972C113.682 136.972 112.432 142.012 107.802 141.362C106.772 141.212 105.962 140.772 105.342 140.172C103.162 138.082 102.682 136.312 102.682 136.312C102.682 136.312 102.122 123.152 101.412 114.552C100.982 109.472 100.662 105.202 100.712 104.522C100.852 102.662 101.852 101.262 101.852 101.262L111.312 102.582C115.442 121.522 113.682 136.972 113.682 136.972Z" fill="#FFEEC2"/>
<path d="M104.782 140.781C104.842 141.251 106.232 156.501 105.652 162.111C105.652 162.111 104.322 162.111 103.942 162.051C103.592 161.991 102.292 161.861 102.292 161.861C102.292 158.541 102.532 141.301 102.682 136.311C102.342 130.091 102.122 123.151 101.412 114.551L102.882 107.871C102.882 107.871 104.112 113.341 104.112 118.231C104.112 123.121 104.562 139.031 104.782 140.781Z" fill="#EDCE7E"/>
<path d="M88.5223 159.602L94.6523 159.922L95.0823 159.952L94.9523 160.612L94.8323 161.282L94.3623 163.732L94.1423 164.892L88.1523 163.932L88.2223 163.022L88.4623 160.352L88.5223 159.602Z" fill="#DB837B"/>
<path d="M95.3733 131.401C99.9833 131.661 102.253 128.121 102.283 128.411C102.303 128.551 96.7433 162.001 96.7133 162.151C96.7133 162.151 92.7433 162.511 87.1133 161.551C87.1133 161.551 87.7833 144.281 88.0233 141.311C88.2533 138.391 88.8033 127.641 88.8033 127.641C88.8033 127.641 91.1533 131.161 95.3733 131.401Z" fill="#FFEEC2"/>
<path d="M99.9418 137.298C99.9418 137.298 98.9918 140.058 96.6018 140.988C95.8018 141.298 94.8418 141.408 93.6918 141.148C93.6518 141.138 93.6218 141.128 93.5918 141.118C93.3018 141.048 93.0418 140.948 92.8018 140.838C92.7918 140.838 92.7818 140.828 92.7718 140.828C92.7618 140.828 92.7518 140.818 92.7418 140.818C90.9918 139.968 90.2318 138.148 89.9118 136.528C89.8018 135.968 88.9818 137.178 88.9518 136.708C88.9018 135.838 89.0718 131.308 88.8118 127.648C88.1718 118.438 89.7518 105.028 89.9518 103.818C90.2618 101.978 91.3818 100.668 91.3818 100.668L94.8218 101.378L104.762 103.438C105.122 122.368 99.9418 137.298 99.9418 137.298Z" fill="#FFEEC2"/>
<path d="M102.492 68.1181L95.4922 66.8281L96.5422 67.9281C96.5422 67.9281 104.622 75.2481 102.492 68.1181Z" fill="#22008C"/>
<path d="M94.9529 51.7812C94.9529 51.7812 92.0429 52.0213 92.1329 55.9613C92.2329 60.5113 95.4529 62.5913 96.1029 65.9313C96.1229 65.5313 96.1729 64.0013 96.1429 63.6213C95.7329 59.4813 92.3329 58.2113 93.4929 57.2513C94.7529 56.2113 94.9529 51.7812 94.9529 51.7812Z" fill="#002264"/>
<path d="M100.713 72.7295C99.273 72.4995 96.043 68.1795 96.043 68.1795L96.133 64.5395L96.153 63.8495L96.173 63.0195L99.273 64.1295H99.283L102.293 65.2095V66.3395L102.303 69.8995C105.373 70.9995 102.153 72.9595 100.713 72.7295Z" fill="#FFB7A9"/>
<path d="M106.152 53.8179V57.0979C106.152 57.0979 106.972 55.3279 107.052 54.0179C107.132 52.7079 106.152 53.8179 106.152 53.8179Z" fill="#002264"/>
<path d="M102.293 66.3386C101.903 66.7986 101.263 67.1186 100.223 66.9686C98.0828 66.6586 96.6528 65.1586 96.1328 64.5386L96.1528 63.8486L96.1728 63.8086L99.2728 64.1286H99.2828L102.293 65.2086V66.3386Z" fill="#DB837B"/>
<path d="M106.362 54.4595C106.362 54.4595 107.692 63.8295 103.052 65.7995C100.952 66.6895 99.2222 66.3995 97.9522 65.8095C96.4122 65.0895 95.3522 63.8095 94.9722 62.6895C94.5022 61.2795 94.1722 58.8995 94.7622 56.1695C95.6322 52.1295 97.9322 51.3795 99.9522 51.5595C101.982 51.7295 105.872 51.1295 106.362 54.4595Z" fill="#FFB7A9"/>
<path d="M94.6625 57.7297C94.6625 57.7297 93.7925 57.0297 93.0425 57.6297C92.2925 58.2297 91.9325 60.0397 93.5725 61.3697C94.0825 61.7797 94.8625 61.3897 94.8625 61.3897L94.6625 57.7297Z" fill="#FFB7A9"/>
<path d="M100.612 55.9615C100.652 55.8315 100.572 55.7015 100.422 55.6415C100.212 55.5615 99.792 55.3215 99.102 55.2515C98.072 55.1415 97.042 55.7515 97.532 55.7715C97.802 55.7815 98.462 55.7615 99.042 55.8915C99.522 55.9915 99.942 56.2415 100.082 56.3015C100.302 56.4115 100.552 56.1815 100.612 55.9615Z" fill="#002264"/>
<path d="M103.503 56.6483C103.483 56.5183 103.573 56.3883 103.723 56.3483C103.943 56.2883 104.383 56.0883 105.073 56.0783C106.103 56.0683 106.833 56.5783 106.493 56.6583C106.233 56.7183 105.663 56.6583 105.073 56.7283C104.583 56.7883 104.143 56.9883 103.993 57.0383C103.773 57.1183 103.543 56.8783 103.503 56.6483Z" fill="#002264"/>
<path d="M101.902 61.3709C101.982 61.3709 102.262 61.3709 102.482 61.1609C102.512 61.1309 102.782 60.8709 102.722 60.4809C102.662 60.0509 102.262 59.8709 102.242 59.8709C102.212 59.8609 102.172 59.8709 102.162 59.9009C102.152 59.9309 102.162 59.9709 102.192 59.9809C102.192 59.9809 102.542 60.1309 102.592 60.4909C102.642 60.8209 102.402 61.0509 102.392 61.0609C102.202 61.2309 101.972 61.2409 101.902 61.2309C101.862 61.2309 101.832 61.2609 101.832 61.2909C101.842 61.3309 101.862 61.3609 101.902 61.3709Z" fill="#DB837B"/>
<path d="M97.8425 58.8783C97.9025 58.9983 98.4825 59.1983 99.2825 59.1983C100.082 59.1983 100.632 59.0683 100.722 58.8783C100.812 58.6783 100.222 57.4883 99.2825 57.4883C98.3125 57.4883 97.7825 58.7683 97.8425 58.8783Z" fill="white"/>
<path d="M98.7626 58.3898C98.9226 58.3898 99.0527 58.2598 99.0527 58.0998C99.0527 57.9398 98.9226 57.8098 98.7626 57.8098C98.7426 57.8098 98.7327 57.8198 98.7127 57.8198C98.8627 57.6798 99.0527 57.5898 99.2827 57.5898C99.7227 57.5898 100.093 57.9498 100.093 58.3998C100.093 58.8398 99.7327 59.2098 99.2827 59.2098C98.8427 59.2098 98.4727 58.8498 98.4727 58.3998C98.4727 58.3398 98.4827 58.2798 98.4927 58.2198C98.5327 58.3198 98.6426 58.3898 98.7626 58.3898Z" fill="#040605"/>
<path d="M106.133 58.9916C106.073 59.1116 105.493 59.3116 104.693 59.3116C103.903 59.3116 103.343 59.1816 103.253 58.9916C103.163 58.7916 103.753 57.6016 104.693 57.6016C105.663 57.6016 106.193 58.8816 106.133 58.9916Z" fill="white"/>
<path d="M104.183 58.5031C104.343 58.5031 104.473 58.3731 104.473 58.2131C104.473 58.0531 104.343 57.9231 104.183 57.9231C104.163 57.9231 104.153 57.9331 104.133 57.9331C104.283 57.7931 104.473 57.7031 104.703 57.7031C105.143 57.7031 105.513 58.0631 105.513 58.5131C105.513 58.9531 105.153 59.3231 104.703 59.3231C104.263 59.3231 103.893 58.9631 103.893 58.5131C103.893 58.4531 103.903 58.3931 103.913 58.3331C103.963 58.4331 104.063 58.5031 104.183 58.5031Z" fill="#040605"/>
<path d="M98.8633 61.8281C98.8633 61.8281 101.333 62.8081 103.253 62.3881C103.253 62.3881 102.273 64.9481 100.543 64.5581C98.8633 64.1781 98.8633 61.8281 98.8633 61.8281Z" fill="#BA3917"/>
<path d="M101.263 65.0017C101.263 65.0017 100.513 65.2917 99.5234 64.5117C99.5234 64.5117 99.9034 65.4117 100.593 65.3417C100.853 65.3117 101.263 65.0017 101.263 65.0017Z" fill="#DB837B"/>
<path d="M106.733 53.1698C107.473 52.6698 107.993 51.9998 108.043 51.1698C108.193 49.0298 105.533 49.6198 105.533 49.6198C105.533 49.6198 105.263 48.3398 103.703 48.3398C102.153 48.3398 99.8531 49.7998 98.5231 50.0198C97.1931 50.2398 95.1931 49.8998 94.4531 50.8998C94.2331 51.1898 94.1831 51.2298 94.1531 51.4398C93.7231 51.2398 93.8031 50.8898 94.3031 50.4498C93.6231 50.4798 93.0831 51.7098 94.1331 52.0998C94.2331 52.3898 94.4531 52.5398 94.4531 52.5398C94.4531 52.5398 92.2431 57.7798 93.1331 57.4098C94.0231 57.0398 95.2631 57.8398 95.6531 59.1998C96.3731 54.7898 95.6331 55.3198 96.5731 54.0598C97.2331 53.1798 101.103 54.4398 103.253 54.3698C103.753 54.3498 104.303 54.2798 104.863 54.1598C104.863 54.1598 107.883 54.2098 108.603 51.3198C108.593 51.3198 108.133 52.5898 106.733 53.1698Z" fill="#002264"/>
<path d="M111.323 102.572C111.323 102.572 102.333 105.442 94.213 103.552C93.333 103.342 92.463 103.082 91.613 102.762C91.243 102.622 90.873 102.462 90.513 102.292C90.513 102.292 89.213 88.1616 87.453 82.9616C86.633 80.5516 83.163 74.2416 84.053 73.3916C87.813 69.8016 95.503 68.1016 95.503 68.1016C95.503 68.1016 100.053 70.8716 101.843 70.8216C101.843 70.8216 102.663 70.8316 102.503 69.3316C102.503 69.3316 107.503 70.7216 108.723 72.7416C110.403 75.5316 111.813 93.7416 111.323 102.572Z" fill="#3D00C3"/>
<path d="M104.483 101.978H103.923C104.043 81.6383 101.243 70.9883 101.213 70.8783L101.753 70.7383C101.793 70.8383 104.603 81.5483 104.483 101.978Z" fill="#F9F5FE"/>
<path d="M101.422 71.2108L103.132 72.7508L101.942 70.8208L101.832 70.8008H101.672L101.422 71.2108Z" fill="#22008C"/>
<path d="M95.4916 66.8281L94.1816 68.5281C94.1816 68.5281 95.1416 69.4181 96.7116 70.7981C98.2416 72.1381 100.252 73.0881 100.252 73.0881L101.832 70.7981C101.832 70.7981 100.142 70.1981 98.4616 69.1781C97.0816 68.3581 96.0916 67.6581 95.4916 66.8281Z" fill="#F9F5FE"/>
<path d="M101.832 70.7994L103.142 72.7394C103.142 72.7394 103.712 70.8494 103.562 69.6394L102.492 68.1094C102.492 68.1194 102.652 70.6594 101.832 70.7994Z" fill="#F9F5FE"/>
<path d="M103.922 119.881L103.942 119.141C103.942 119.031 104.212 108.431 103.422 103.971L103.692 103.921C104.352 107.621 104.282 115.511 104.232 118.221C104.752 116.421 105.742 111.781 105.252 103.801L105.532 103.781C106.182 114.381 104.232 119.151 104.212 119.201L103.922 119.881Z" fill="#EDCE7E"/>
<path d="M90.1133 82.4417C90.1133 82.4417 88.8933 82.3217 88.3633 86.6317L90.4933 102.292L93.5133 103.382C93.5133 103.382 91.7133 96.3617 91.2633 92.6017C90.8033 88.8317 90.1133 82.4417 90.1133 82.4417Z" fill="#22008C"/>
<path d="M100.232 138.082L74.2524 139.752C73.6624 139.792 73.1624 139.342 73.1224 138.762L71.9224 120.142C71.8824 119.552 72.3324 119.052 72.9124 119.012L98.8924 117.342C99.4824 117.302 99.9824 117.752 100.022 118.332L101.222 136.952C101.262 137.542 100.822 138.052 100.232 138.082Z" fill="#E38D3A"/>
<path d="M86.7124 130.74L71.9224 120.15C71.8824 119.56 72.3324 119.06 72.9124 119.02L98.8924 117.35C99.4824 117.31 99.9824 117.76 100.022 118.34L86.7124 130.74Z" fill="#DB7C07"/>
<path d="M87.5215 132.121L86.0815 132.211C85.7315 132.231 85.4215 131.971 85.4015 131.611L85.1515 127.771C85.1315 127.421 85.3915 127.111 85.7515 127.091L87.1915 127.001C87.5415 126.981 87.8515 127.241 87.8715 127.601L88.1215 131.441C88.1415 131.791 87.8715 132.101 87.5215 132.121Z" fill="#FFEC99"/>
<path d="M87.8629 132.102L85.7629 132.242C85.5929 132.252 85.4529 132.122 85.4429 131.962L85.4029 131.402C85.3929 131.232 85.5229 131.092 85.6829 131.082L87.7829 130.942C87.9529 130.932 88.0929 131.062 88.1029 131.222L88.1429 131.782C88.1529 131.942 88.0229 132.092 87.8629 132.102Z" fill="#2F00A7"/>
<path d="M92.3453 136.864L74.4629 138.02L74.4971 138.548L92.3794 137.393L92.3453 136.864Z" fill="#DB7C07"/>
<path d="M99.3076 136.412L93.5996 136.781L93.6338 137.31L99.3418 136.941L99.3076 136.412Z" fill="#DB7C07"/>
<path d="M80.0116 115.892C79.8116 112.742 82.2117 110.012 85.3617 109.802C86.8917 109.702 88.3616 110.202 89.5116 111.212C90.6616 112.222 91.3516 113.622 91.4516 115.152L90.7117 115.202C90.6217 113.872 90.0317 112.652 89.0317 111.782C88.0317 110.912 86.7516 110.462 85.4216 110.552C82.6816 110.732 80.5916 113.102 80.7616 115.852L80.0116 115.892Z" fill="#2F00A7"/>
<path d="M81.1839 115.811L79.707 115.906L79.8787 118.571L81.3556 118.475L81.1839 115.811Z" fill="#FFEC99"/>
<path d="M91.8128 115.124L90.3359 115.219L90.5076 117.883L91.9845 117.788L91.8128 115.124Z" fill="#FFEC99"/>
<path d="M84.1816 115.779C84.7116 115.889 85.1916 115.469 85.1916 115.469C85.1916 115.469 85.0116 115.869 85.7616 116.099C86.3716 116.289 86.5816 115.599 86.6416 115.339C86.6116 115.569 86.5916 116.129 87.2316 116.219C88.0316 116.329 88.1116 115.469 88.1116 115.469C88.2716 115.479 88.4116 115.479 88.5216 115.459C89.2716 115.369 89.3916 114.069 89.7116 112.279C90.0316 110.489 88.8316 109.649 87.2516 108.539C86.0916 107.719 85.9316 106.899 85.9316 106.529L85.9516 106.319C83.3316 105.299 81.3516 107.749 81.3516 107.749C81.3516 107.749 81.7816 108.789 81.8816 109.409C81.9816 110.029 81.4516 110.769 81.5516 112.809C81.6516 114.849 82.5016 115.199 82.9516 115.339C83.4016 115.479 83.7416 115.159 83.7416 115.159C83.7416 115.159 83.6616 115.659 84.1816 115.779Z" fill="#FFB7A9"/>
<path d="M84.4123 73.0091C85.8823 71.5991 91.7723 79.1391 89.8223 83.3291C87.8723 87.5191 86.9423 90.4491 85.4923 92.6591C84.0423 94.8791 78.7323 98.7191 77.7423 94.8591C76.7623 90.9991 80.1023 77.1291 84.4123 73.0091Z" fill="#3D00C3"/>
<path d="M77.5918 93.9401C77.5918 93.9401 79.3318 105.82 81.3218 108.64C81.8718 109.42 87.0318 108.06 86.9318 106.79C86.7318 104.19 85.8818 94.9601 85.2218 93.5801C84.3118 91.6701 78.2918 91.2401 77.5918 93.9401Z" fill="#3D00C3"/>
<path d="M103.514 170.911L103.564 169.571L105.094 168.891L109.064 169.811L119.944 170.781C119.944 170.781 120.064 171.051 119.644 171.151C119.234 171.251 114.564 171.331 109.664 170.511L109.694 170.921L103.514 170.911Z" fill="#170E09"/>
<path d="M103.573 164.671C103.733 163.941 105.673 163.771 107.583 163.871L107.493 162.801L109.893 162.951C109.893 162.951 110.953 164.271 111.413 164.571C113.823 166.161 117.293 168.081 119.773 168.251C121.553 168.371 120.563 170.711 119.933 170.781C113.653 171.451 106.733 169.521 103.563 169.571C103.563 169.571 103.323 165.801 103.573 164.671Z" fill="#442A1D"/>
<path d="M85.2873 170.93L95.2773 170.93L95.2773 170.28L85.2873 170.28L85.2873 170.93Z" fill="#170E09"/>
<path d="M85.2917 168.63C85.8717 167.79 88.1317 163.67 88.1317 163.67C88.1317 163.67 88.4117 163.67 88.8417 163.66V162.73H93.0317V163.69C93.6217 163.72 94.0417 163.76 94.0617 163.83C94.1617 164.09 95.4117 167.72 95.5917 168.63C95.7717 169.54 94.9617 170.28 94.9617 170.28H85.5217C85.5317 170.27 84.7117 169.47 85.2917 168.63Z" fill="#442A1D"/>
<path d="M111.822 104.661H89.8516L90.1516 102.191H111.682L111.822 104.661Z" fill="#002264"/>
<path d="M107.062 101.98H101.352V104.94H107.062V101.98Z" fill="#FFD740"/>
<path d="M92.5724 102.191H91.9824V104.811H92.5724V102.191Z" fill="#FFEEC2"/>
<path d="M97.6527 101.98H96.9727V104.82H97.6527V101.98Z" fill="#FFEEC2"/>
<path d="M110.463 101.98H109.783V104.82H110.463V101.98Z" fill="#FFEEC2"/>
<path d="M108.353 86.3289L105.583 84.3389L104.943 80.1289H109.263L109.783 83.9389L109.763 83.9789C109.723 84.0489 108.883 85.6289 108.443 86.2089L108.353 86.3289ZM105.843 84.1889L108.303 85.9489C108.703 85.3689 109.373 84.1389 109.493 83.8989L109.023 80.4189H105.273L105.843 84.1889Z" fill="#F9F5FE"/>
<path d="M149.652 160.5C149.652 160.5 148.862 161.71 149.242 163.07C149.622 164.43 150.052 166.13 149.962 167.27C149.872 168.42 150.562 170.66 152.302 171.43C154.032 172.21 155.202 171.36 155.222 169.87C155.262 168.39 153.852 166.16 153.852 166.16L149.652 160.5Z" fill="#22008C"/>
<path d="M151.812 147.293C151.902 153.253 151.352 159.433 153.462 165.153C153.642 165.653 153.852 166.163 153.872 166.693C153.902 167.223 153.692 167.803 153.232 168.073C152.752 168.353 152.112 168.223 151.672 167.883C151.232 167.543 150.952 167.033 150.742 166.513C149.562 163.713 149.752 160.543 149.302 157.523C148.652 153.213 146.892 149.253 145.822 145.063C144.752 140.863 144.422 136.423 144.002 132.113C145.982 131.723 148.002 131.233 150.022 131.223C150.022 131.223 151.232 134.683 151.332 135.073C151.682 136.343 151.922 137.653 152.032 138.973C152.282 141.733 151.762 144.533 151.812 147.293Z" fill="#FFB7A9"/>
<path d="M149.291 124.031C149.211 125.811 149.161 127.671 149.161 127.671C149.161 127.671 149.551 129.841 150.041 131.231C148.011 131.691 145.981 131.451 144.031 132.171C144.001 131.721 143.831 127.781 142.231 125.921C142.131 125.811 142.081 125.501 142.021 125.081C144.431 124.711 146.871 124.431 149.291 124.031Z" fill="#FFB7A9"/>
<path d="M147.072 135.12C145.382 135.12 144.012 133.74 144.012 132.05C144.012 130.35 145.382 128.98 147.072 128.98C148.762 128.98 150.132 130.36 150.132 132.05C150.142 133.75 148.762 135.12 147.072 135.12Z" fill="#FFB7A9"/>
<path d="M138.982 127.753C140.292 127.673 141.782 127.293 143.162 127.293C143.292 129.613 143.422 131.993 143.552 134.383C141.442 134.443 137.422 134.383 137.422 134.383C136.682 132.023 136.302 130.123 135.932 127.933C136.942 127.873 137.972 127.813 138.982 127.753Z" fill="#FFB7A9"/>
<path d="M138.352 163.323C138.602 162.843 139.172 162.583 139.932 160.093C140.572 158.023 138.162 147.103 137.252 141.243C136.762 138.593 137.232 135.453 137.412 134.383C139.632 134.493 141.312 134.453 143.542 134.383C143.582 135.263 143.752 137.873 143.792 138.743C143.822 139.333 143.832 139.903 143.852 140.483C143.852 140.483 144.292 146.573 143.542 151.803C142.432 159.523 143.522 161.553 143.562 161.693C143.562 161.693 143.212 163.623 142.372 163.793C140.062 164.273 138.702 167.163 137.262 166.873C135.822 166.583 135.402 166.503 135.402 166.503C135.402 166.503 137.802 164.383 138.352 163.323Z" fill="#FFB7A9"/>
<path d="M140.482 137.441C138.792 137.441 137.422 136.061 137.422 134.371C137.422 132.681 138.792 131.301 140.482 131.301C142.172 131.301 143.542 132.681 143.542 134.371C143.542 136.061 142.172 137.441 140.482 137.441Z" fill="#FFB7A9"/>
<path d="M147.072 135.12C145.382 135.12 144.012 133.74 144.012 132.05C144.012 130.35 145.382 128.98 147.072 128.98C148.762 128.98 150.132 130.36 150.132 132.05C150.142 133.75 148.772 135.12 147.072 135.12Z" fill="#FFB7A9"/>
<path d="M140.482 137.441C138.792 137.441 137.422 136.061 137.422 134.371C137.422 132.681 138.792 131.301 140.482 131.301C142.172 131.301 143.542 132.681 143.542 134.371C143.542 136.061 142.172 137.441 140.482 137.441Z" fill="#FFB7A9"/>
<path d="M133.412 101.773C129.662 112.133 135.152 128.753 135.152 128.753C135.152 128.753 143.302 132.543 150.792 129.363L152.722 116.693C152.722 116.693 154.442 107.863 149.492 102.133C144.472 96.3032 133.412 101.773 133.412 101.773Z" fill="#3D00C3"/>
<path d="M136.253 166.59C135.553 166.52 137.433 164.52 137.303 164.61C137.173 164.7 134.303 167.47 134.013 168.24C133.913 168.52 134.123 169.04 134.973 169.09C135.823 169.15 137.263 168.88 138.063 168.59C138.873 168.3 141.453 165.52 142.043 165.25C142.643 164.98 142.563 167.52 142.693 167.56H143.513C143.513 167.56 144.323 163.78 143.563 161.68C143.563 161.68 142.943 161.79 141.493 163.24C139.963 164.77 137.233 166.69 136.253 166.59Z" fill="#22008C"/>
<path d="M133.292 96.6511C134.002 95.1811 132.952 94.2111 132.532 93.3211C132.072 92.3211 130.132 93.0311 129.452 93.9711C128.772 94.9111 122.002 109.751 122.002 109.751C122.532 110.691 125.352 108.641 125.352 108.641C125.352 108.641 132.592 98.1311 133.292 96.6511Z" fill="#FFB7A9"/>
<path d="M123.453 110.52C123.283 110.79 122.993 111.9 122.853 112.17C122.713 112.42 122.493 114.2 122.413 114.92C122.333 115.64 122.713 116.15 123.033 115.87C123.353 115.59 123.563 113.11 123.633 112.79C123.703 112.45 124.963 110.43 124.963 110.43C124.953 109.22 123.623 110.24 123.453 110.52Z" fill="#FFB7A9"/>
<path d="M122.333 110.22C122.233 110.68 122.153 112.53 122.143 112.76C122.153 113 122.313 114.3 122.533 115.03C122.763 115.77 123.313 115.91 123.283 115.31C123.283 114.7 123.033 112.91 123.003 112.76C122.973 112.61 123.723 111.31 123.563 110.8C123.353 110.09 122.443 109.77 122.333 110.22Z" fill="#FFB7A9"/>
<path d="M122.013 109.923C121.903 110.383 121.573 112.003 121.563 112.223C121.553 112.463 122.233 113.733 122.463 114.453C122.693 115.193 123.243 115.333 123.213 114.733C123.193 114.133 122.563 112.583 122.533 112.443C122.513 112.293 123.153 110.903 122.993 110.393C122.763 109.673 122.113 109.473 122.013 109.923Z" fill="#FFB7A9"/>
<path d="M124.942 107.631C123.692 106.401 122.302 108.791 122.002 109.971C122.102 110.061 122.232 110.131 122.332 110.211C122.862 110.561 123.382 110.851 123.912 111.181C124.042 111.271 124.192 111.361 124.322 111.451C124.742 111.131 125.102 110.781 125.172 110.571C125.352 110.101 124.922 107.641 124.942 107.631Z" fill="#FFB7A9"/>
<path d="M124.033 108.683C124.113 109.373 125.143 110.673 125.143 110.673C125.143 110.673 124.593 111.303 124.623 111.903C124.663 112.503 124.983 112.713 125.163 112.563C125.333 112.403 126.323 111.083 126.253 110.963C126.193 110.853 125.913 109.723 125.763 109.373C125.563 108.893 124.873 107.633 124.873 107.633C124.873 107.633 123.963 107.983 124.033 108.683Z" fill="#FFB7A9"/>
<path d="M153.952 80.5196L150.182 61.6296C149.712 59.1196 147.812 60.0996 145.102 60.6196L139.542 61.6796C136.832 62.1996 134.992 62.5796 135.492 67.1696L138.562 83.4596C139.042 85.9596 154.422 83.0196 153.952 80.5196Z" fill="#002264"/>
<path d="M133.373 83.6309C133.653 83.9109 133.983 84.1309 134.343 84.3009C135.163 84.6709 136.083 84.7009 136.923 84.3809C137.763 84.0609 138.433 83.4309 138.803 82.6009C139.383 81.3109 139.093 79.7809 138.083 78.7909C137.803 78.5109 137.473 78.2909 137.113 78.1209C135.413 77.3509 133.413 78.1109 132.643 79.8209C132.073 81.1109 132.353 82.6509 133.373 83.6309Z" fill="#EDB6E0"/>
<path d="M133.753 96.5817L134.003 96.1217C134.183 95.7117 138.483 86.0517 139.063 81.6917L139.113 81.3217L132.473 80.2617L132.393 80.6117C131.353 85.5117 129.023 92.7717 128.653 93.7317L128.533 94.0617L133.753 96.5817Z" fill="#EDB6E0"/>
<path d="M151.772 85.803C152.152 85.913 152.542 85.973 152.942 85.953C153.842 85.913 154.672 85.513 155.282 84.853C155.882 84.183 156.202 83.323 156.162 82.423C156.092 81.013 155.142 79.773 153.802 79.353C153.422 79.243 153.032 79.183 152.632 79.203C150.772 79.293 149.332 80.873 149.422 82.743C149.472 84.143 150.422 85.373 151.772 85.803Z" fill="#EDB6E0"/>
<path d="M135.022 88.7621C133.052 86.9921 133.042 85.2521 133.672 83.8421C133.642 83.8121 133.612 83.8021 133.582 83.7721C132.882 83.2021 132.442 82.3921 132.352 81.4921C132.312 81.1021 132.342 80.6921 132.442 80.3121C132.722 79.2221 133.532 78.3621 134.562 77.9721V77.9621C134.562 77.9621 134.782 77.8021 138.972 76.4621C141.462 75.6221 144.092 73.9421 149.012 76.6321C150.152 77.5421 152.212 77.9721 154.502 79.5721C155.162 80.1021 155.582 80.5921 155.882 81.2821C156.252 82.1021 156.272 83.0221 155.952 83.8721C155.632 84.7121 155.002 85.3821 154.162 85.7421C153.792 85.9121 153.412 85.9921 153.012 86.0221C152.842 86.0321 152.682 86.0321 152.512 86.0121C151.722 88.6721 149.972 95.7421 149.972 95.7421L151.802 102.622C142.182 108.502 132.012 103.082 132.012 103.082L135.022 88.7621Z" fill="#EDB6E0"/>
<path d="M148.232 76.073C148.052 76.003 147.852 75.893 147.662 75.713C147.622 75.673 147.572 75.643 147.542 75.603C147.412 75.443 147.032 74.983 147.082 73.173C147.082 73.143 147.082 73.133 147.082 73.103C147.092 72.773 147.112 72.363 147.162 71.883C147.192 71.623 147.242 71.343 147.292 71.043L141.042 71.153C141.152 71.613 141.212 72.043 141.292 72.443C141.312 72.603 141.372 72.983 141.412 73.473C141.432 73.623 141.442 73.843 141.462 74.083C141.492 74.583 141.532 75.243 141.512 76.043C141.512 76.133 141.502 76.223 141.502 76.293C141.492 76.473 141.492 76.613 141.482 76.753C141.472 76.903 141.372 77.033 141.232 77.073L140.782 77.213C140.672 77.253 140.622 77.343 140.662 77.453C140.762 77.843 145.752 79.293 146.702 78.183C147.112 77.693 147.662 77.013 148.272 76.173C148.312 76.173 148.292 76.103 148.232 76.073Z" fill="#FFB7A9"/>
<path d="M150.273 67.4006C150.063 68.6906 149.423 69.1006 148.633 69.3106C148.453 69.3606 148.263 69.4006 148.073 69.4106C148.033 69.4106 147.983 69.4206 147.943 69.4206L147.863 65.8206C147.863 65.8206 147.883 65.7906 147.903 65.7606C147.993 65.6506 148.173 65.3906 148.453 65.2506C148.583 65.1906 148.703 65.1506 148.843 65.1406C149.423 65.1506 150.533 65.7506 150.273 67.4006Z" fill="#FFB7A9"/>
<path d="M139.123 61.4822C139.123 61.4822 137.793 62.6322 137.483 65.3122C137.163 68.0022 137.993 72.2822 139.843 73.6122C143.073 75.9522 147.133 73.5222 147.933 70.7622C148.543 68.6422 148.343 65.0822 147.263 62.4422C146.523 60.6922 142.803 57.9722 139.123 61.4822Z" fill="#FFB7A9"/>
<path fill-rule="evenodd" clip-rule="evenodd" d="M148.923 66.15C148.993 66.13 149.083 66.12 149.183 66.14C149.243 66.15 149.303 66.12 149.313 66.06C149.323 66 149.293 65.94 149.233 65.92C149.093 65.88 148.953 65.89 148.843 65.93C148.723 65.98 148.633 66.05 148.553 66.15C148.403 66.34 148.323 66.62 148.273 66.89C148.223 67.16 148.213 67.43 148.213 67.64C148.213 67.75 148.213 67.83 148.223 67.89C148.223 67.92 148.223 67.94 148.233 67.96V67.98V67.99C148.233 67.99 148.233 67.99 148.343 67.99H148.233L148.243 68.24L148.423 68.07C148.423 68.07 148.433 68.06 148.443 68.06C148.463 68.05 148.473 68.03 148.503 68.01C148.553 67.97 148.613 67.92 148.673 67.89C148.743 67.85 148.803 67.83 148.863 67.81C148.913 67.81 148.953 67.81 148.973 67.84C149.013 67.89 149.093 67.89 149.133 67.84C149.173 67.79 149.173 67.72 149.133 67.67C149.043 67.57 148.933 67.56 148.833 67.57C148.733 67.58 148.633 67.62 148.563 67.67C148.533 67.69 148.483 67.71 148.453 67.74C148.453 67.71 148.453 67.67 148.453 67.63C148.463 67.43 148.473 67.17 148.523 66.92C148.573 66.67 148.643 66.43 148.753 66.28C148.793 66.23 148.853 66.17 148.923 66.15Z" fill="#DA8369"/>
<path d="M140.782 65.6903C140.782 65.3903 139.812 65.0003 138.962 65.1703C138.342 65.3003 137.862 65.6903 137.912 65.7903C137.942 65.8803 138.492 65.5503 139.312 65.6403C140.002 65.7103 140.562 66.0203 140.742 65.8103C140.752 65.7803 140.792 65.7503 140.782 65.6903Z" fill="#002264"/>
<path d="M143.842 65.4921C143.862 65.1621 144.862 64.8621 145.682 65.1121C146.292 65.2921 146.742 65.7721 146.682 65.8721C146.642 65.9721 146.132 65.5821 145.302 65.5721C144.602 65.5621 144.032 65.8621 143.882 65.6121C143.872 65.5921 143.842 65.5521 143.842 65.4921Z" fill="#002264"/>
<path d="M142.282 69.4709C142.172 69.4509 141.802 69.4109 141.602 69.1309C141.352 68.7809 141.442 68.2609 141.812 67.9209C141.832 67.8909 141.902 67.8909 141.922 67.9209C141.952 67.9409 141.952 68.0109 141.912 68.0309C141.592 68.3209 141.522 68.7509 141.712 69.0309C141.872 69.2609 142.182 69.3109 142.262 69.3109C142.312 69.3209 142.342 69.3509 142.332 69.3909C142.352 69.4509 142.322 69.4709 142.282 69.4709Z" fill="#DA8369"/>
<path d="M144.882 66.36C144.082 66.41 143.602 67.41 143.682 67.57C143.762 67.72 144.242 67.81 144.932 67.77C145.612 67.73 146.112 67.54 146.172 67.45C146.222 67.35 145.712 66.33 144.882 66.36Z" fill="white"/>
<path d="M144.202 67.0805C144.192 67.1305 144.182 67.1805 144.192 67.2205C144.212 67.5905 144.522 67.8705 144.892 67.8505C145.262 67.8305 145.542 67.5205 145.522 67.1505C145.502 66.7805 145.192 66.5005 144.822 66.5205C144.642 66.5305 144.482 66.6105 144.362 66.7305C144.382 66.7305 144.392 66.7305 144.402 66.7305C144.532 66.7305 144.642 66.8305 144.652 66.9605C144.652 67.0905 144.552 67.2005 144.422 67.2105C144.332 67.2205 144.232 67.1605 144.202 67.0805Z" fill="#040605"/>
<path d="M143.553 71.323C143.213 71.793 142.603 72.163 141.943 72.073C141.663 72.033 141.463 71.893 141.353 71.823C140.813 71.453 140.733 70.833 140.723 70.703C141.123 70.793 141.683 70.893 142.363 70.843C142.983 70.803 143.513 70.673 143.883 70.543C143.833 70.763 143.753 71.053 143.553 71.323Z" fill="#BA3917"/>
<path d="M139.403 66.4621C140.193 66.4221 140.763 67.4421 140.693 67.6321C140.623 67.7921 140.153 67.9321 139.483 67.9621C138.813 67.9921 138.413 67.5521 138.363 67.4521C138.313 67.3521 138.583 66.5021 139.403 66.4621Z" fill="white"/>
<path d="M138.903 67.1598C138.893 67.2098 138.883 67.2698 138.893 67.2998C138.913 67.6698 139.223 67.9598 139.593 67.9298C139.963 67.9098 140.253 67.5998 140.223 67.2298C140.203 66.8598 139.893 66.5698 139.523 66.5998C139.343 66.6098 139.173 66.6898 139.063 66.8098C139.083 66.8098 139.093 66.8098 139.103 66.8098C139.233 66.8098 139.343 66.9098 139.363 67.0398C139.363 67.1698 139.263 67.2798 139.133 67.2998C139.043 67.2998 138.953 67.2398 138.903 67.1598Z" fill="#040605"/>
<path d="M140.592 67.5206C140.652 67.5106 140.682 67.4506 140.672 67.4006C140.672 67.3906 140.352 66.3306 139.332 66.3806C138.492 66.4206 138.272 67.0506 138.182 67.2906C138.172 67.3106 138.162 67.3206 138.172 67.3406C138.152 67.3906 138.182 67.4406 138.232 67.4706C138.282 67.4906 138.332 67.4606 138.362 67.4106C138.372 67.4006 138.372 67.3806 138.382 67.3606C138.462 67.1406 138.652 66.6206 139.362 66.5806C140.232 66.5406 140.492 67.4306 140.502 67.4606C140.492 67.5006 140.542 67.5306 140.592 67.5206Z" fill="#002264"/>
<path d="M146.182 67.5096C146.192 67.5096 146.202 67.5096 146.202 67.5096C146.252 67.4896 146.272 67.4296 146.262 67.3796L146.252 67.3596C145.912 66.4796 145.352 66.2796 144.952 66.2696C143.912 66.2596 143.662 67.3096 143.652 67.3296C143.642 67.3796 143.672 67.4296 143.722 67.4496C143.772 67.4596 143.822 67.4296 143.842 67.3796C143.852 67.3396 144.062 66.4596 144.942 66.4796C145.282 66.4796 145.762 66.6496 146.072 67.4396L146.082 67.4596C146.092 67.4896 146.142 67.5096 146.182 67.5096Z" fill="#002264"/>
<path d="M141.502 74.4202C141.502 74.4202 143.502 74.8102 145.122 73.7502C146.732 72.6702 147.132 71.9102 147.132 71.9102C147.132 71.9102 144.892 75.6202 141.522 75.1602L141.502 74.4202Z" fill="#DB837B"/>
<path d="M150.062 67.2913C150.062 67.2913 149.262 67.9113 148.252 67.3913C147.632 67.0713 147.132 66.5813 146.722 66.0213C145.992 65.0213 145.322 63.9813 144.472 63.0813C143.622 62.1813 142.552 61.4313 141.332 61.2513C140.372 61.1013 139.302 61.3713 138.602 62.0313C138.462 62.8413 138.322 63.6613 138.182 64.4713C138.072 65.1113 137.682 66.3413 137.322 66.8813C136.952 67.4213 136.292 67.7713 135.692 67.5613C135.692 67.5613 134.152 59.6813 138.422 59.0913C138.422 59.0913 139.062 57.9813 141.002 57.2813C143.552 56.3613 149.202 56.5113 150.212 61.3813C150.962 65.0013 150.062 67.2913 150.062 67.2913Z" fill="#002264"/>
<path d="M147.263 75.043C147.263 75.043 143.703 78.353 142.923 78.273C142.143 78.193 141.493 75.583 141.493 75.583C141.493 75.583 139.993 75.943 139.683 76.343C139.373 76.743 139.113 80.403 139.113 80.403C139.743 80.983 142.253 78.603 142.693 78.903C143.133 79.203 145.013 81.733 145.403 81.663C145.403 81.663 148.603 76.953 148.453 76.263C148.383 76.003 147.263 75.043 147.263 75.043Z" fill="#BD54AE"/>
<path d="M132.382 101.643L132.262 101.603C132.282 101.533 134.562 94.7627 133.692 90.1527C132.822 85.4827 134.682 83.7927 134.762 83.7227L134.842 83.8227C134.822 83.8427 132.952 85.5427 133.812 90.1327C134.692 94.7627 132.402 101.573 132.382 101.643Z" fill="#BD54AE"/>
<g opacity="0.38">
<path d="M151.372 90.6923L150.492 86.6523C150.492 86.6523 147.942 93.4323 148.052 95.9323C148.152 98.4423 149.832 103.692 149.832 103.692L151.812 102.642L149.982 95.7623L151.372 90.6923Z" fill="#BD54AE"/>
</g>
<path d="M158.843 97.8228L158.863 97.3028C158.833 96.8528 157.443 85.6228 155.983 81.4828L155.863 81.1328L149.463 83.2128L149.563 83.5628C150.853 88.4028 152.913 96.5828 153.033 97.6128L153.063 97.9728L158.843 97.8228Z" fill="#EDB6E0"/>
<path d="M163.813 84.3504C163.813 84.3504 163.153 82.4404 161.783 82.5304C161.783 82.5304 153.713 94.9804 153.153 96.3804C152.593 97.7804 153.623 99.6304 155.013 99.4204C156.253 99.2404 157.413 98.8404 158.523 97.0304C159.673 95.2404 163.813 84.3504 163.813 84.3504Z" fill="#FFB7A9"/>
<path d="M161.424 83.2196C161.424 83.2196 162.414 80.5996 163.514 80.0496C164.614 79.4996 165.444 79.4396 165.944 79.2096C166.444 78.9796 167.144 78.5896 167.314 78.8996C167.484 79.2096 167.174 79.5696 166.464 79.9396C165.754 80.2996 165.944 80.4496 165.944 80.4496C165.944 80.4496 166.854 80.3896 167.554 80.0596C168.254 79.7296 168.774 79.0096 169.154 78.4796C169.604 77.8396 169.804 78.6296 169.804 78.6296C169.804 78.6296 170.154 77.8896 170.494 78.0396C170.834 78.1796 170.514 78.7996 170.514 78.7996C170.514 78.7996 170.874 78.5896 170.994 78.7096C171.114 78.8396 171.234 79.4796 170.664 80.3996C170.664 80.3996 171.094 80.2896 170.834 80.9496C170.574 81.6096 170.204 82.3896 169.284 82.7696C168.364 83.1396 165.604 83.2796 164.784 83.6696C163.964 84.0596 163.304 85.6796 163.304 85.6796C163.304 85.6796 161.774 85.9096 161.424 83.2196Z" fill="#FFB7A9"/>
<path d="M168.263 80.6494L168.203 80.5494C169.453 79.7994 169.743 78.6194 169.743 78.6094L169.853 78.6394C169.853 78.6894 169.553 79.8794 168.263 80.6494Z" fill="#DB837B"/>
<path d="M168.894 81.0312L168.844 80.9212C169.954 80.4512 170.464 78.7912 170.464 78.7812L170.574 78.8112C170.564 78.8812 170.054 80.5412 168.894 81.0312Z" fill="#DB837B"/>
<path d="M169.374 81.7194L169.324 81.6094C169.904 81.3594 170.614 80.3694 170.624 80.3594L170.724 80.4294C170.694 80.4694 169.984 81.4594 169.374 81.7194Z" fill="#DB837B"/>
<path d="M167.143 81.7393C167.133 81.7393 166.053 81.2093 164.803 81.5493L164.773 81.4393C166.063 81.0993 167.153 81.6193 167.193 81.6393L167.143 81.7393Z" fill="#DB837B"/>
<path d="M195.382 139.35C191.712 140.29 190.432 141.56 189.502 145.23C189.342 145.84 188.462 145.84 188.302 145.23C187.362 141.56 186.092 140.28 182.422 139.35C181.812 139.19 181.812 138.31 182.422 138.15C186.092 137.21 187.372 135.94 188.302 132.27C188.462 131.66 189.342 131.66 189.502 132.27C190.442 135.94 191.712 137.22 195.382 138.15C196.002 138.3 196.002 139.19 195.382 139.35Z" fill="#FFD740"/>
<path d="M201.043 74.8995C199.313 75.3395 198.713 75.9395 198.263 77.6795C198.193 77.9695 197.773 77.9695 197.693 77.6795C197.253 75.9495 196.653 75.3495 194.913 74.8995C194.623 74.8295 194.623 74.4095 194.913 74.3295C196.643 73.8895 197.243 73.2895 197.693 71.5495C197.763 71.2595 198.183 71.2595 198.263 71.5495C198.703 73.2795 199.303 73.8795 201.043 74.3295C201.333 74.4095 201.333 74.8195 201.043 74.8995Z" fill="#F9F5FE"/>
<path d="M32.314 42.2602C28.644 43.2002 27.364 44.4702 26.434 48.1402C26.274 48.7502 25.394 48.7502 25.234 48.1402C24.294 44.4702 23.024 43.1902 19.354 42.2602C18.744 42.1002 18.744 41.2202 19.354 41.0602C23.024 40.1202 24.304 38.8502 25.234 35.1802C25.394 34.5702 26.274 34.5702 26.434 35.1802C27.374 38.8502 28.644 40.1302 32.314 41.0602C32.934 41.2202 32.934 42.1002 32.314 42.2602Z" fill="#FFD740"/>
<path d="M57.1031 78.8405C54.7431 79.4405 53.9231 80.2705 53.3131 82.6305C53.2131 83.0305 52.6431 83.0305 52.5431 82.6305C51.9431 80.2705 51.1131 79.4505 48.7531 78.8405C48.3531 78.7405 48.3531 78.1705 48.7531 78.0705C51.1131 77.4705 51.9331 76.6405 52.5431 74.2805C52.6431 73.8805 53.2131 73.8805 53.3131 74.2805C53.9131 76.6405 54.7431 77.4605 57.1031 78.0705C57.4931 78.1705 57.4931 78.7405 57.1031 78.8405Z" fill="#F9F5FE"/>
<path d="M80.1932 23.2383V48.0983L50.0332 52.4883L59.7832 37.8583L50.0332 28.0283L80.1932 23.2383Z" fill="#91268C"/>
<path d="M80.1923 48.0975L68.9023 45.0675L80.1923 42.4375V48.0975Z" fill="#5D1368"/>
<path d="M159.934 23.2383V48.0983L190.094 52.4883L180.344 37.8583L190.094 28.0283L159.934 23.2383Z" fill="#91268C"/>
<path d="M159.934 48.0975L171.224 45.0675L159.934 42.4375V48.0975Z" fill="#5D1368"/>
<path d="M120.062 13.8281C98.2223 13.8281 68.9023 20.6081 68.9023 20.6081V45.0681C68.9023 45.0681 98.2223 37.8681 120.062 37.8681C141.902 37.8681 171.222 45.0681 171.222 45.0681V20.5981C171.222 20.5981 141.902 13.8281 120.062 13.8281Z" fill="#BD54AE"/>
<path d="M76.9641 37.5977C75.4741 32.7677 74.7241 30.3677 73.2441 25.5777C74.6041 25.2077 75.2941 25.0277 76.6641 24.6777C77.4341 27.8877 77.8241 29.4977 78.6041 32.7177C78.6441 32.7077 78.6641 32.6977 78.7141 32.6877C79.6041 29.0677 80.0441 27.2577 80.9341 23.6577C82.0541 23.4077 82.6141 23.2777 83.7441 23.0477C84.6341 26.2777 85.0841 27.8977 85.9741 31.1277C86.0141 31.1177 86.0341 31.1177 86.0841 31.1077C86.8641 27.5377 87.2541 25.7577 88.0441 22.1977C89.4241 21.9477 90.1141 21.8277 91.5041 21.5977C89.9941 27.0477 89.2441 29.7777 87.7341 35.2477C86.5241 35.4677 85.9241 35.5877 84.7241 35.8377C83.7941 32.8777 83.3241 31.3977 82.4041 28.4477C82.3641 28.4577 82.3441 28.4577 82.3041 28.4677C81.3741 31.8277 80.9141 33.5077 79.9841 36.8677C78.7541 37.1577 78.1641 37.2977 76.9641 37.5977Z" fill="#FFD740"/>
<path d="M92.7734 34.3966C92.7734 29.1966 92.7734 26.5966 92.7734 21.3966C96.3934 20.8366 98.2134 20.5966 101.863 20.2266C101.863 21.2466 101.863 21.7566 101.863 22.7766C99.4834 23.0266 98.2934 23.1666 95.9234 23.4866C95.9234 24.5566 95.9234 25.0866 95.9234 26.1566C98.1134 25.8566 99.2034 25.7266 101.403 25.4866C101.403 26.5066 101.403 27.0166 101.403 28.0466C99.2134 28.2766 98.1134 28.4166 95.9234 28.7166C95.9234 29.7866 95.9234 30.3166 95.9234 31.3866C98.2934 31.0566 99.4834 30.9166 101.863 30.6766C101.863 31.6966 101.863 32.2066 101.863 33.2266C98.2234 33.5966 96.4034 33.8266 92.7734 34.3966Z" fill="#FFD740"/>
<path d="M103.844 33.0256C103.844 27.8256 103.844 25.2256 103.844 20.0256C105.104 19.9056 105.744 19.8556 107.004 19.7656C107.004 23.9456 107.004 26.0356 107.004 30.2156C109.184 30.0556 110.274 29.9956 112.454 29.8956C112.454 30.9156 112.454 31.4256 112.454 32.4456C109.004 32.5956 107.284 32.7056 103.844 33.0256Z" fill="#FFD740"/>
<path d="M125.483 24.0772C124.203 24.0372 123.563 24.0272 122.283 24.0072C122.243 23.6772 122.153 23.3872 122.023 23.1172C121.893 22.8572 121.713 22.6272 121.493 22.4372C121.273 22.2472 121.023 22.1072 120.723 22.0072C120.423 21.9072 120.103 21.8572 119.743 21.8572C119.103 21.8572 118.563 22.0172 118.103 22.3272C117.643 22.6372 117.293 23.0972 117.043 23.6772C116.793 24.2672 116.673 24.9772 116.673 25.8072C116.673 26.6672 116.803 27.3872 117.053 27.9672C117.303 28.5472 117.653 28.9772 118.113 29.2672C118.563 29.5572 119.103 29.6972 119.733 29.6972C120.083 29.6972 120.403 29.6572 120.693 29.5672C120.983 29.4772 121.233 29.3472 121.453 29.1772C121.673 29.0072 121.853 28.7972 121.993 28.5572C122.133 28.3072 122.233 28.0272 122.293 27.7172C123.573 27.7372 124.213 27.7572 125.493 27.8072C125.433 28.3772 125.273 28.9472 124.993 29.4972C124.713 30.0472 124.333 30.5472 123.843 30.9972C123.353 31.4472 122.763 31.7972 122.063 32.0672C121.363 32.3272 120.563 32.4572 119.663 32.4672C118.473 32.4672 117.413 32.2272 116.473 31.7272C115.533 31.2272 114.793 30.4972 114.253 29.5172C113.713 28.5372 113.443 27.3372 113.443 25.9172C113.443 24.4872 113.723 23.2672 114.273 22.2472C114.823 21.2372 115.573 20.4572 116.503 19.9272C117.443 19.3972 118.493 19.1172 119.663 19.1172C120.453 19.1172 121.193 19.2272 121.863 19.4572C122.533 19.6772 123.133 20.0072 123.643 20.4372C124.153 20.8672 124.573 21.3872 124.893 21.9972C125.203 22.5972 125.403 23.2972 125.483 24.0772Z" fill="#FFD740"/>
<path d="M139.635 26.8672C139.635 28.2972 139.355 29.4772 138.805 30.4172C138.255 31.3572 137.505 32.0272 136.565 32.4572C135.625 32.8872 134.565 33.0572 133.395 32.9672C132.215 32.8772 131.155 32.5472 130.215 31.9772C129.275 31.4072 128.525 30.6072 127.975 29.5972C127.425 28.5772 127.145 27.3572 127.145 25.9372C127.145 24.5072 127.425 23.3072 127.975 22.3372C128.525 21.3672 129.275 20.6472 130.215 20.1872C131.155 19.7272 132.215 19.5372 133.395 19.6272C134.565 19.7172 135.625 20.0672 136.565 20.6672C137.505 21.2672 138.255 22.1072 138.805 23.1572C139.365 24.1972 139.635 25.4372 139.635 26.8672ZM136.405 26.5372C136.405 25.6872 136.285 24.9672 136.045 24.3572C135.805 23.7472 135.455 23.2772 135.015 22.9372C134.565 22.5972 134.025 22.4072 133.395 22.3572C132.765 22.3072 132.225 22.4272 131.775 22.6972C131.325 22.9672 130.975 23.3872 130.735 23.9572C130.495 24.5272 130.375 25.2372 130.375 26.0772C130.375 26.9172 130.495 27.6472 130.735 28.2472C130.975 28.8472 131.325 29.3072 131.775 29.6372C132.225 29.9672 132.765 30.1572 133.395 30.2072C134.025 30.2572 134.565 30.1472 135.015 29.8872C135.465 29.6272 135.805 29.2172 136.045 28.6472C136.285 28.0872 136.405 27.3872 136.405 26.5372Z" fill="#FFD740"/>
<path d="M141.475 20.5781C143.035 20.7681 143.815 20.8681 145.375 21.0981C146.695 24.5081 147.355 26.2181 148.675 29.6581C148.735 29.6681 148.765 29.6681 148.825 29.6781C150.145 26.6781 150.805 25.1781 152.115 22.2081C153.665 22.4881 154.435 22.6481 155.985 22.9681C155.985 28.1681 155.985 30.7681 155.985 35.9681C154.765 35.7181 154.165 35.5981 152.945 35.3681C152.945 32.1781 152.945 30.5781 152.945 27.3881C152.905 27.3781 152.885 27.3781 152.835 27.3681C151.595 30.2981 150.965 31.7681 149.725 34.7081C148.945 34.5781 148.555 34.5081 147.775 34.3881C146.525 31.0081 145.905 29.3281 144.645 25.9781C144.605 25.9681 144.585 25.9681 144.535 25.9581C144.535 29.1681 144.535 30.7781 144.535 33.9881C143.305 33.8181 142.695 33.7381 141.465 33.5881C141.475 28.3781 141.475 25.7781 141.475 20.5781Z" fill="#FFD740"/>
<path d="M157.934 36.3672C157.934 31.1672 157.934 28.5672 157.934 23.3672C161.524 24.1572 163.314 24.5972 166.874 25.5672C166.874 26.5872 166.874 27.0972 166.874 28.1172C164.544 27.4772 163.384 27.1872 161.044 26.6272C161.044 27.6972 161.044 28.2272 161.044 29.2972C163.204 29.8072 164.274 30.0872 166.424 30.6672C166.424 31.6872 166.424 32.1972 166.424 33.2272C164.284 32.6472 163.204 32.3772 161.044 31.8572C161.044 32.9272 161.044 33.4572 161.044 34.5272C163.384 35.0872 164.554 35.3772 166.874 36.0172C166.874 37.0372 166.874 37.5472 166.874 38.5672C163.324 37.5972 161.534 37.1572 157.934 36.3672Z" fill="#FFD740"/>
</svg>
