<svg width="128" height="128" viewBox="0 0 128 128" fill="none" xmlns="http://www.w3.org/2000/svg">
<path fill-rule="evenodd" clip-rule="evenodd" d="M81.7174 113.017H21.133C17.1847 113.017 13.9664 109.835 13.9995 105.89V22.1598C13.9995 18.2153 17.2179 15 21.1662 15H81.7174C85.6657 15 88.884 18.2153 88.884 22.1598V105.857C88.884 109.802 85.6657 113.017 81.7174 113.017ZM72.8427 48.6807H24.9397C23.9092 48.6807 23.0449 47.4609 23.0449 46.0066C23.0449 44.5523 23.876 43.3325 24.9397 43.3325H72.8427C73.8732 43.3325 74.7375 44.5523 74.7375 46.0066C74.7375 47.4609 73.9065 48.6807 72.8427 48.6807ZM24.9397 66.4136H72.8427C73.9065 66.4136 74.7375 65.1938 74.7375 63.7395C74.7375 62.2852 73.8732 61.0654 72.8427 61.0654H24.9397C23.876 61.0654 23.0449 62.2852 23.0449 63.7395C23.0449 65.1938 23.9092 66.4136 24.9397 66.4136ZM72.8427 86.4976H24.9397C23.9092 86.4976 23.0449 85.2778 23.0449 83.8235C23.0449 82.3692 23.876 81.1494 24.9397 81.1494H72.8427C73.8732 81.1494 74.7375 82.3692 74.7375 83.8235C74.7375 85.2778 73.9065 86.4976 72.8427 86.4976Z" fill="#D1D1D2"/>
<path d="M112.181 33.0732L78.2957 78.1498L64.5604 85.4435C63.8742 85.7924 63.0948 85.2141 63.2591 84.4624L66.4425 69.234L100.328 24.1575C101.284 22.8607 103.108 22.6267 104.406 23.5821L111.601 28.973C112.902 29.9541 113.137 31.7764 112.181 33.0732Z" fill="#989899"/>
<path d="M77.8015 78.4213L64.1399 85.6795C63.627 85.9541 63.0214 85.5099 63.1542 84.9189L66.3252 69.7964C66.3725 69.5555 66.6709 69.439 66.8738 69.5956L77.8829 77.8369C78.0569 77.9711 78.0451 78.2857 77.8015 78.4213Z" fill="#E8E8E8"/>
<path d="M112.189 33.0745L105.635 41.795L93.7561 32.8826L100.336 24.1587C101.295 22.8876 103.115 22.6279 104.413 23.5833L111.609 28.9742C112.884 29.9586 113.145 31.7777 112.189 33.0745Z" fill="#E8E8E8"/>
</svg>
