<svg width="128" height="128" viewBox="0 0 128 128" fill="none" xmlns="http://www.w3.org/2000/svg">
<path d="M52.9736 63.5558H25.4624C24.1598 63.5558 23.0956 62.5008 23.0956 61.189V60.6478C23.0956 51.6302 30.4803 44.053 39.4978 44.2089C48.2676 44.3649 55.3404 51.5385 55.3404 60.3267V61.189C55.3404 62.4916 54.2763 63.5558 52.9736 63.5558Z" fill="#989899"/>
<path d="M47.1703 36.5026C46.4089 32.2828 43.134 29.0996 39.2261 29.0996C35.3182 29.0996 32.0432 32.2828 31.2818 36.5026C30.0893 36.7044 29.1719 37.8878 29.1719 39.3005C29.1719 40.8692 30.2819 42.1351 31.6488 42.1351C31.7038 42.1351 31.7497 42.1259 31.7955 42.1259C33.0523 45.3917 35.9053 47.6851 39.2261 47.6851C42.5469 47.6851 45.3906 45.4009 46.6566 42.1259C46.7024 42.1259 46.7575 42.1351 46.8033 42.1351C48.1702 42.1351 49.2802 40.86 49.2802 39.3005C49.2802 37.8878 48.3628 36.7044 47.1703 36.5026Z" fill="#E8E8E8"/>
<path d="M83.1591 32.8607L66.9404 16.642C65.2525 14.954 62.9591 14 60.5648 14H25.6047C20.8712 14 17 17.8712 17 22.6047V91.4057C17 96.1392 20.8712 100.01 25.6047 100.01H77.2055C81.939 100.01 85.8102 96.1392 85.8102 91.4057V39.2362C85.801 36.8419 84.8562 34.5486 83.1591 32.8607ZM53.6297 57.7758C53.6297 59.9499 51.8684 61.7112 49.6942 61.7112H28.7604C26.5863 61.7112 24.825 59.9499 24.825 57.7758V25.421C24.825 23.2469 26.5863 21.4856 28.7604 21.4856H49.6942C51.8684 21.4856 53.6297 23.2469 53.6297 25.421V57.7758Z" fill="#D1D1D2"/>
<path d="M60.565 14V34.732C60.565 37.2272 62.5832 39.2454 65.0783 39.2454L85.8012 39.2362C85.8012 36.8419 84.8472 34.5486 83.1593 32.8515L66.9406 16.642C65.2526 14.954 62.9593 14 60.565 14Z" fill="#989899"/>
<path d="M77.8653 72.2056H24.9343C23.9436 72.2056 23.1455 71.4075 23.1455 70.4168C23.1455 69.426 23.9436 68.6279 24.9343 68.6279H77.8653C78.856 68.6279 79.6541 69.426 79.6541 70.4168C79.6541 71.4075 78.856 72.2056 77.8653 72.2056Z" fill="#989899"/>
<path d="M77.8653 82.4614H24.9343C23.9436 82.4614 23.1455 81.6633 23.1455 80.6726C23.1455 79.6819 23.9436 78.8838 24.9343 78.8838H77.8653C78.856 78.8838 79.6541 79.6819 79.6541 80.6726C79.6541 81.6633 78.856 82.4614 77.8653 82.4614Z" fill="#989899"/>
<path d="M77.8653 92.7178H24.9343C23.9436 92.7178 23.1455 91.9197 23.1455 90.929C23.1455 89.9382 23.9436 89.1401 24.9343 89.1401H77.8653C78.856 89.1401 79.6541 89.9382 79.6541 90.929C79.6541 91.9197 78.856 92.7178 77.8653 92.7178Z" fill="#989899"/>
<path d="M82.3332 114C98.1858 114 111.037 101.149 111.037 85.2966C111.037 69.4439 98.1858 56.5928 82.3332 56.5928C66.4805 56.5928 53.6294 69.4439 53.6294 85.2966C53.6294 101.149 66.4805 114 82.3332 114Z" fill="#E8E8E8"/>
<path d="M101.295 96.6625L91.58 89.498C95.2678 82.8014 93.5248 74.2242 87.2043 69.5732C80.3334 64.5095 70.6187 65.9772 65.5549 72.8481C60.4911 79.7191 61.9589 89.4338 68.8298 94.4975C71.5177 96.479 74.7009 97.5248 77.985 97.5248C78.7647 97.5248 79.5444 97.4697 80.3334 97.3505C83.7459 96.8368 86.8098 95.2314 89.1582 92.7913L98.8638 99.9466C99.2307 100.213 99.6527 100.341 100.075 100.341C100.698 100.341 101.313 100.057 101.717 99.5154C102.396 98.6072 102.203 97.3321 101.295 96.6625ZM71.2516 91.2226C66.1879 87.489 65.1054 80.3337 68.839 75.2699C70.6462 72.8206 73.3065 71.2153 76.3154 70.7566C76.8933 70.6649 77.4712 70.6282 78.0492 70.6282C80.471 70.6282 82.8102 71.3987 84.7917 72.8573C87.241 74.6645 88.8463 77.3248 89.305 80.3337C89.7637 83.3426 89.0115 86.3607 87.2043 88.81C83.4707 93.8646 76.3154 94.947 71.2516 91.2226Z" fill="#989899"/>
</svg>
