<svg width="128" height="128" viewBox="0 0 128 128" fill="none" xmlns="http://www.w3.org/2000/svg">
<path d="M86.0503 110.085H29.9898C25.0274 110.085 21 106.058 21 101.095V38.0587C21 33.0963 25.0274 29.0688 29.9898 29.0688H86.0503C91.0127 29.0688 95.0401 33.0963 95.0401 38.0587V101.095C95.0401 106.058 91.0217 110.085 86.0503 110.085Z" fill="#D1D1D2"/>
<path d="M77.9589 25.5178H68.6095C66.9284 25.5178 65.526 24.1064 65.6878 22.4343C65.7507 21.796 65.7327 21.1308 65.6249 20.4566C65.0855 17.0854 62.2807 14.4154 58.8915 14.0468C54.2527 13.5434 50.3242 17.1663 50.3242 21.6972C50.3242 21.9309 50.3332 22.1556 50.3512 22.3804C50.504 24.0795 49.0656 25.5088 47.3576 25.5088H38.0891C36.1832 25.5088 34.637 27.0551 34.637 28.9609V35.4965C34.637 37.4024 36.1832 38.9486 38.0891 38.9486H77.9589C79.8647 38.9486 81.411 37.4024 81.411 35.4965V28.9609C81.411 27.0641 79.8647 25.5178 77.9589 25.5178ZM54.1988 21.7061C54.1988 19.6025 55.9159 17.8855 58.0195 17.8855C60.1231 17.8855 61.8401 19.6025 61.8401 21.7061C61.8401 23.8008 60.1501 25.4998 58.0644 25.5178H57.9835C55.8979 25.4998 54.1988 23.7918 54.1988 21.7061Z" fill="#989899"/>
<path d="M74.9672 50.5996L76.4505 55.1754H81.2601L77.3675 57.9982L78.8598 62.574L74.9672 59.7423L71.0746 62.574L72.5669 57.9982L68.6743 55.1754H73.4839L74.9672 50.5996Z" fill="#E8E8E8"/>
<path d="M58.0198 45.4658L60.1414 52.0014H67.0097L61.454 56.0378L63.5756 62.5734L58.0198 58.537L52.4641 62.5734L54.5857 56.0378L49.03 52.0014H55.8982L58.0198 45.4658Z" fill="#E8E8E8"/>
<path d="M41.0753 50.5996L42.5677 55.1754H47.3682L43.4846 57.9982L44.9679 62.574L41.0753 59.7423L37.1917 62.574L38.6751 57.9982L34.7825 55.1754H39.592L41.0753 50.5996Z" fill="#E8E8E8"/>
<path d="M83.5417 76.2934H32.5066C31.3828 76.2934 30.4749 75.3854 30.4749 74.2617C30.4749 73.138 31.3828 72.23 32.5066 72.23H83.5417C84.6655 72.23 85.5734 73.138 85.5734 74.2617C85.5734 75.3854 84.6655 76.2934 83.5417 76.2934Z" fill="#989899"/>
<path d="M72.0617 76.2934H32.5066C31.3828 76.2934 30.4749 75.3854 30.4749 74.2617C30.4749 73.138 31.3828 72.23 32.5066 72.23H72.0617C73.1855 72.23 74.0934 73.138 74.0934 74.2617C74.0934 75.3854 73.1765 76.2934 72.0617 76.2934Z" fill="#E8E8E8"/>
<path d="M83.5417 86.6215H32.5066C31.3828 86.6215 30.4749 85.7135 30.4749 84.5898C30.4749 83.4661 31.3828 82.5581 32.5066 82.5581H83.5417C84.6655 82.5581 85.5734 83.4661 85.5734 84.5898C85.5734 85.7135 84.6655 86.6215 83.5417 86.6215Z" fill="#989899"/>
<path d="M48.0769 86.6215H32.5066C31.3828 86.6215 30.4749 85.7135 30.4749 84.5898C30.4749 83.4661 31.3828 82.5581 32.5066 82.5581H48.0859C49.2096 82.5581 50.1176 83.4661 50.1176 84.5898C50.1086 85.7135 49.2006 86.6215 48.0769 86.6215Z" fill="#E8E8E8"/>
<path d="M83.5417 96.9501H32.5066C31.3828 96.9501 30.4749 96.0421 30.4749 94.9184C30.4749 93.7947 31.3828 92.8867 32.5066 92.8867H83.5417C84.6655 92.8867 85.5734 93.7947 85.5734 94.9184C85.5734 96.0421 84.6655 96.9501 83.5417 96.9501Z" fill="#989899"/>
<path d="M58.0197 96.9501H32.5066C31.3828 96.9501 30.4749 96.0421 30.4749 94.9184C30.4749 93.7947 31.3828 92.8867 32.5066 92.8867H58.0286C59.1524 92.8867 60.0603 93.7947 60.0603 94.9184C60.0514 96.0421 59.1434 96.9501 58.0197 96.9501Z" fill="#E8E8E8"/>
<ellipse cx="89.5677" cy="95.8555" rx="18.1446" ry="18.1446" fill="#E8E8E8"/>
<path d="M89.4712 106.883C88.3666 106.883 87.4712 105.988 87.4712 104.883V87.5366C87.4712 86.4321 88.3666 85.5366 89.4712 85.5366H89.595C90.6995 85.5366 91.595 86.4321 91.595 87.5366V104.883C91.595 105.988 90.6995 106.883 89.595 106.883H89.4712ZM80.4615 98.1594C79.3983 98.1594 78.5364 97.2975 78.5364 96.2343V96.2343C78.5364 95.1711 79.3983 94.3092 80.4615 94.3092H98.6047C99.6679 94.3092 100.53 95.1711 100.53 96.2343V96.2343C100.53 97.2975 99.6679 98.1594 98.6047 98.1594H80.4615Z" fill="#989899"/>
</svg>
