<svg width="128" height="128" viewBox="0 0 128 128" fill="none" xmlns="http://www.w3.org/2000/svg">
<path d="M92.701 114H34.3561C29.1915 114 25 109.809 25 104.644V39.0388C25 33.8742 29.1915 29.6826 34.3561 29.6826H92.701C97.8656 29.6826 102.057 33.8742 102.057 39.0388V104.644C102.057 109.809 97.875 114 92.701 114Z" fill="#7D5BCA"/>
<path d="M84.2805 25.9872H74.5501C72.8005 25.9872 71.3409 24.5182 71.5093 22.778C71.5748 22.1137 71.5561 21.4214 71.4438 20.7197C70.8825 17.2111 67.9634 14.4323 64.4361 14.0487C59.6083 13.5248 55.5197 17.2953 55.5197 22.0108C55.5197 22.2541 55.5291 22.488 55.5478 22.7219C55.7068 24.4902 54.2098 25.9778 52.4322 25.9778H42.786C40.8025 25.9778 39.1932 27.5871 39.1932 29.5706V36.3725C39.1932 38.356 40.8025 39.9652 42.786 39.9652H84.2805C86.264 39.9652 87.8732 38.356 87.8732 36.3725V29.5706C87.8732 27.5964 86.264 25.9872 84.2805 25.9872ZM59.5522 22.0202C59.5522 19.8308 61.3392 18.0438 63.5285 18.0438C65.7179 18.0438 67.5049 19.8308 67.5049 22.0202C67.5049 24.2001 65.746 25.9685 63.5753 25.9872H63.4911C61.3205 25.9685 59.5522 24.1908 59.5522 22.0202Z" fill="#3D00C3"/>
<path d="M62.4295 85.2886H65.4371C70.0147 85.2886 73.741 89.015 73.741 93.5926V97.9999H54.1255V93.5926C54.1255 88.996 57.8519 85.2886 62.4295 85.2886Z" fill="#F9F5FE"/>
<rect x="54.1255" y="95.4556" width="19.5022" height="2.54377" fill="#F9F5FE"/>
<path d="M70.3704 78.1268C70.3704 78.9023 70.238 79.6779 69.9543 80.4156C68.7058 83.7447 64.9984 85.4282 61.6692 84.1798C58.34 82.9314 56.6566 79.2239 57.905 75.8947C58.8508 73.3789 61.2531 71.7144 63.9391 71.7144C67.4763 71.7144 70.3704 74.5895 70.3704 78.1268Z" fill="#DBC8F9"/>
<path d="M81.5737 82.9277H84.0582C87.8396 82.9277 90.9179 86.006 90.9179 89.7875V93.4283H74.714V89.7875C74.714 85.9904 77.7923 82.9277 81.5737 82.9277Z" fill="#F9F5FE"/>
<rect x="74.714" y="91.3262" width="16.1103" height="2.10135" fill="#F9F5FE"/>
<path d="M88.1335 77.0115C88.1335 77.6522 88.0241 78.2928 87.7898 78.9022C86.7584 81.6524 83.6958 83.043 80.9457 82.0117C78.1955 80.9804 76.8048 77.9178 77.8361 75.1677C78.6174 73.0894 80.6019 71.7144 82.8208 71.7144C85.7428 71.7144 88.1335 74.0895 88.1335 77.0115Z" fill="#DBC8F9"/>
<path d="M43.8597 82.9277H46.3442C50.1257 82.9277 53.2039 86.006 53.2039 89.7875V93.4283H37V89.7875C37 85.9904 40.0783 82.9277 43.8597 82.9277Z" fill="#F9F5FE"/>
<rect x="37" y="91.3262" width="16.1103" height="2.10135" fill="#F9F5FE"/>
<path d="M50.4195 77.0115C50.4195 77.6522 50.3101 78.2928 50.0758 78.9022C49.0445 81.6524 45.9818 83.043 43.2317 82.0117C40.4815 80.9804 39.0908 77.9178 40.1221 75.1677C40.9034 73.0894 42.8879 71.7144 45.1068 71.7144C48.0288 71.7144 50.4195 74.0895 50.4195 77.0115Z" fill="#DBC8F9"/>
<path d="M63.3814 51.4635C63.5311 51.0029 64.1828 51.0029 64.3324 51.4635L65.9256 56.3669C65.9926 56.5729 66.1846 56.7124 66.4012 56.7124H71.5568C72.0412 56.7124 72.2426 57.3322 71.8507 57.6169L67.6797 60.6473C67.5045 60.7746 67.4311 61.0003 67.4981 61.2063L69.0913 66.1097C69.2409 66.5703 68.7137 66.9534 68.3218 66.6687L64.1508 63.6382C63.9756 63.5109 63.7383 63.5109 63.563 63.6382L59.392 66.6687C59.0001 66.9534 58.4729 66.5703 58.6226 66.1097L60.2158 61.2063C60.2827 61.0003 60.2094 60.7746 60.0341 60.6473L55.8631 57.6169C55.4712 57.3322 55.6726 56.7124 56.157 56.7124H61.3127C61.5293 56.7124 61.7213 56.5729 61.7882 56.3669L63.3814 51.4635Z" fill="#FFC401"/>
<path d="M44.5244 57.1779C44.6741 56.7172 45.3258 56.7172 45.4754 57.1779L46.4272 60.107C46.4941 60.313 46.6861 60.4525 46.9027 60.4525H49.9826C50.4669 60.4525 50.6683 61.0723 50.2764 61.357L47.7848 63.1673C47.6095 63.2946 47.5362 63.5203 47.6032 63.7263L48.5549 66.6554C48.7046 67.1161 48.1773 67.4991 47.7855 67.2144L45.2938 65.4041C45.1186 65.2768 44.8813 65.2768 44.706 65.4041L42.2144 67.2144C41.8225 67.4991 41.2953 67.1161 41.4449 66.6554L42.3967 63.7263C42.4636 63.5203 42.3903 63.2946 42.215 63.1673L39.7234 61.357C39.3315 61.0723 39.5329 60.4525 40.0173 60.4525H43.0971C43.3137 60.4525 43.5057 60.313 43.5727 60.107L44.5244 57.1779Z" fill="#FFC401"/>
<path d="M82.2384 57.1779C82.3881 56.7172 83.0398 56.7172 83.1894 57.1779L84.1412 60.107C84.2081 60.313 84.4001 60.4525 84.6167 60.4525H87.6965C88.1809 60.4525 88.3823 61.0723 87.9904 61.357L85.4988 63.1673C85.3235 63.2946 85.2502 63.5203 85.3171 63.7263L86.2689 66.6554C86.4185 67.1161 85.8913 67.4991 85.4995 67.2144L83.0078 65.4041C82.8326 65.2768 82.5953 65.2768 82.42 65.4041L79.9284 67.2144C79.5365 67.4991 79.0093 67.1161 79.1589 66.6554L80.1107 63.7263C80.1776 63.5203 80.1043 63.2946 79.929 63.1673L77.4374 61.357C77.0455 61.0723 77.2469 60.4525 77.7313 60.4525H80.8111C81.0277 60.4525 81.2197 60.313 81.2866 60.107L82.2384 57.1779Z" fill="#FFC401"/>
</svg>
