<svg width="128" height="128" viewBox="0 0 128 128" fill="none" xmlns="http://www.w3.org/2000/svg">
<path d="M83.1468 32.8991L66.9083 16.6606C65.2569 14.9174 62.9633 14 60.578 14H25.6239C20.8532 14 17 17.8532 17 22.6239V91.4312C17 96.2018 20.8532 100.055 25.6239 100.055H77.2752C82.0459 100.055 85.8991 96.2018 85.8991 91.4312V39.2294C85.8073 36.844 84.8899 34.5505 83.1468 32.8991Z" fill="#D1D1D2"/>
<path d="M60.578 14V34.7339C60.578 37.211 62.5964 39.2294 65.0734 39.2294H85.8074C85.8074 36.844 84.8899 34.5505 83.1468 32.8073L66.9083 16.6606C65.2569 14.9174 62.9633 14 60.578 14Z" fill="#989899"/>
<path d="M77.8264 67.2113H24.9824C23.9732 67.2113 23.2393 66.3856 23.2393 65.4682C23.2393 64.459 24.0649 63.7251 24.9824 63.7251H77.9182C78.9273 63.7251 79.6613 64.5508 79.6613 65.4682C79.6613 66.3856 78.8356 67.2113 77.8264 67.2113Z" fill="#989899"/>
<path d="M77.8264 79.9633H24.9824C23.9732 79.9633 23.2393 79.1376 23.2393 78.2202C23.2393 77.211 24.0649 76.4771 24.9824 76.4771H77.9182C78.9273 76.4771 79.6613 77.3027 79.6613 78.2202C79.6613 79.1376 78.8356 79.9633 77.8264 79.9633Z" fill="#989899"/>
<path d="M77.8264 92.7157H24.9824C23.9732 92.7157 23.2393 91.89 23.2393 90.9726C23.2393 89.9634 24.0649 89.2295 24.9824 89.2295H77.9182C78.9273 89.2295 79.6613 90.0552 79.6613 90.9726C79.6613 91.89 78.8356 92.7157 77.8264 92.7157Z" fill="#989899"/>
<path d="M47.7333 56.5687H26.8158C24.7975 56.5687 23.1461 54.9173 23.1461 52.8989V24.9173C23.1461 22.8989 24.7975 21.2476 26.8158 21.2476H47.7333C49.7516 21.2476 51.403 22.8989 51.403 24.9173V52.8989C51.403 54.9173 49.7516 56.5687 47.7333 56.5687Z" fill="#E8E8E8"/>
<path d="M82.3218 114C98.181 114 111.037 101.143 111.037 85.284C111.037 69.4248 98.181 56.5684 82.3218 56.5684C66.4626 56.5684 53.6062 69.4248 53.6062 85.284C53.6062 101.143 66.4626 114 82.3218 114Z" fill="#E8E8E8"/>
<path d="M82.3214 96.7521C70.8536 96.7521 61.771 86.9356 61.404 86.4769C60.7618 85.743 60.7618 84.7338 61.404 83.9998C61.771 83.5411 70.8536 73.7246 82.3214 73.7246C93.7893 73.7246 102.872 83.5411 103.239 83.9998C103.881 84.7338 103.881 85.743 103.239 86.4769C102.872 86.9356 93.8811 96.7521 82.3214 96.7521ZM65.349 85.2842C68.0095 87.7613 74.7068 93.0824 82.3214 93.0824C89.9361 93.0824 96.6334 87.7613 99.2939 85.2842C96.6334 82.8072 89.9361 77.4861 82.3214 77.4861C74.7068 77.4861 68.0095 82.8072 65.349 85.2842Z" fill="#989899"/>
<path d="M82.3208 91.7063C78.7428 91.7063 75.8988 88.8623 75.8988 85.2843C75.8988 81.7063 78.7428 78.8623 82.3208 78.8623C85.8988 78.8623 88.7428 81.7063 88.7428 85.2843C88.7428 88.8623 85.8988 91.7063 82.3208 91.7063ZM82.3208 82.532C80.8529 82.532 79.5685 83.7247 79.5685 85.2843C79.5685 86.844 80.7612 88.0366 82.3208 88.0366C83.8805 88.0366 85.0731 86.844 85.0731 85.2843C85.0731 83.7247 83.8805 82.532 82.3208 82.532Z" fill="#989899"/>
</svg>
