<svg width="128" height="128" viewBox="0 0 128 128" fill="none" xmlns="http://www.w3.org/2000/svg">
<g clip-path="url(#clip0_2757_3115)">
<path d="M67.1852 14.9209H21.7632C15.84 14.9209 11 19.7609 11 25.6841V56.1798C11 62.1029 15.84 66.943 21.7632 66.943H49.0096C50.1942 66.943 51.0404 68.0261 50.7696 69.1768C50.0589 72.2569 48.9419 75.5061 47.3173 78.857C46.5727 80.3462 48.265 81.8693 49.6866 80.9893C53.782 78.4508 59.6374 74.1861 64.5452 68.1953C65.1882 67.4168 66.1698 66.943 67.1852 66.943C73.1083 66.943 77.9484 62.1029 77.9484 56.1798V25.6841C77.9484 19.7609 73.1083 14.9209 67.1852 14.9209Z" fill="#989899"/>
<path d="M62.7693 37.6654H23.2306C22.3526 37.6654 21.6666 36.449 21.6666 34.9987C21.6666 33.5484 22.38 32.332 23.2306 32.332H62.7693C63.6473 32.332 64.3333 33.5484 64.3333 34.9987C64.3333 36.449 63.6199 37.6654 62.7693 37.6654Z" fill="#D1D1D2"/>
<path d="M61.3568 53.1103H23.1769C22.329 53.1103 21.6666 52.0123 21.6666 50.7031C21.6666 49.3939 22.3555 48.2959 23.1769 48.2959H61.3568C62.2047 48.2959 62.867 49.3939 62.867 50.7031C62.867 52.0123 62.1782 53.1103 61.3568 53.1103Z" fill="#D1D1D2"/>
<path d="M51.3987 32.3672C44.4046 32.3672 38.7073 38.0646 38.7073 45.0586V81.0109C38.9823 88.3979 43.1866 93.9773 66.369 93.7023C67.587 93.7023 68.7265 94.2524 69.4731 95.1561C75.249 102.229 82.1644 107.258 86.9974 110.244C88.687 111.266 90.6516 109.498 89.7871 107.73C87.8618 103.8 86.5652 99.9498 85.7007 96.3349C85.3864 94.9989 86.408 93.7023 87.7832 93.7023H104.954C111.948 93.7023 117.645 88.0049 117.645 81.0109V45.0586C117.645 38.0646 111.948 32.3672 104.954 32.3672H51.3987Z" fill="#D1D1D2"/>
<path d="M75.2198 70.485V67.7738C75.2198 67.0666 75.2591 66.4379 75.3377 65.9271C75.4163 65.4163 75.5735 64.9448 75.7699 64.5519C75.9664 64.159 76.2807 63.7267 76.5951 63.3731C76.9487 62.9802 77.3416 62.548 77.8524 62.0372L81.6638 58.1866C82.4889 57.3614 82.8818 56.3005 82.8818 54.9646C82.8818 53.6679 82.4496 52.6464 81.6245 51.8212C80.7993 50.9961 79.7384 50.6032 78.4418 50.6032C77.0666 50.6032 75.9271 51.0747 75.0627 52.0177C74.159 52.9607 73.6482 54.1002 73.5303 55.4361L67.2435 54.9253C67.44 53.3536 67.8329 51.9391 68.4616 50.721C69.0903 49.503 69.9154 48.4421 70.8977 47.5777C71.9193 46.7132 73.0588 46.0846 74.3554 45.6523C75.6521 45.2201 77.1059 44.9844 78.6776 44.9844C80.1707 44.9844 81.5459 45.1808 82.8032 45.613C84.0606 46.0453 85.1608 46.6739 86.1038 47.4598C87.0468 48.2849 87.7541 49.2672 88.3041 50.4853C88.8542 51.7033 89.09 53.0393 89.09 54.611C89.09 55.7111 88.9328 56.6542 88.6578 57.4793C88.3434 58.3044 87.9505 59.051 87.479 59.7582C87.0075 60.4655 86.4181 61.0942 85.7894 61.7228C85.1608 62.3515 84.4535 63.0195 83.7462 63.6875C83.2747 64.1197 82.8818 64.5126 82.5675 64.8269C82.2531 65.1413 81.9781 65.4949 81.7423 65.8485C81.5066 66.2022 81.3887 66.5951 81.2708 67.0273C81.153 67.4595 81.1137 68.0096 81.1137 68.6383V70.485H75.2198ZM74.2375 77.3218C74.2375 76.261 74.6305 75.3572 75.377 74.6107C76.1629 73.8641 77.0666 73.4712 78.1668 73.4712C79.2276 73.4712 80.1314 73.8248 80.9172 74.5714C81.7031 75.2787 82.096 76.1824 82.096 77.2433C82.096 78.3042 81.7031 79.2079 80.9565 79.9544C80.1707 80.701 79.2669 81.0939 78.1668 81.0939C77.656 81.0939 77.1452 80.976 76.6737 80.7796C76.2021 80.5831 75.7699 80.3081 75.4163 79.9937C75.0627 79.6794 74.7483 79.2865 74.5519 78.8149C74.3554 78.3434 74.2375 77.8719 74.2375 77.3218Z" fill="#E8E8E8"/>
</g>
<defs>
<clipPath id="clip0_2757_3115">
<rect width="106.667" height="106.667" fill="white" transform="translate(11 11)"/>
</clipPath>
</defs>
</svg>
