<svg width="128" height="128" viewBox="0 0 128 128" fill="none" xmlns="http://www.w3.org/2000/svg">
<path d="M95.2619 63.0323L95.1581 56.7957C95.1581 52.736 91.9448 49.4494 87.9393 49.3195V49.3003C87.8609 49.2982 87.7804 49.2939 87.6999 49.2939C87.6448 49.2939 87.5919 49.2961 87.5368 49.2982V49.311C83.4953 49.4004 80.2396 52.7083 80.2396 56.7936V63.0323H62.4212L61.0586 80.4703H68.5089C72.6289 80.4703 75.7644 83.2989 75.7644 87.4417C75.7644 91.5845 72.6289 94.9413 68.5089 94.9413H62.4212V114H87.5291H88.1173H109C111.761 114 114 111.761 114 109V63.0323H95.2619Z" fill="#7D5BCA"/>
<path d="M62.3862 14H38.478H38.012H19C16.2386 14 14 16.2386 14 19V63.1193L30.5368 69.1215C30.5368 73.2643 33.8751 76.6211 37.9951 76.6211C37.9993 76.6211 38.0056 76.6211 38.012 76.6211C38.1687 76.6211 38.3234 76.6147 38.478 76.6041V76.5722C42.367 76.3166 45.4533 73.096 45.4533 69.1215L62.3862 63.1193L67.6415 45.0827V29.979L62.3862 14Z" fill="#FFC401"/>
<path fill-rule="evenodd" clip-rule="evenodd" d="M38.3128 76.6145C38.3262 76.6139 38.3397 76.6132 38.353 76.6125V76.6127C42.307 76.4266 45.4554 73.1435 45.4554 69.1214V63.1192H62.3884V80.029H68.474C72.5939 80.029 75.9322 83.3858 75.9322 87.5286C75.9322 91.6714 72.5939 95.0282 68.474 95.0282H62.3884V111.31H38.0141L19 111.31C16.2386 111.31 14 109.071 14 106.31V63.1191H30.5368V69.1214C30.5368 73.2642 33.8751 76.621 37.9951 76.621C38.0169 76.621 38.0389 76.621 38.0609 76.6208C38.1452 76.6201 38.2292 76.618 38.3128 76.6145Z" fill="#3D00C3"/>
<path d="M87.5015 14V49.3852C87.5566 49.3831 87.6095 49.381 87.6646 49.381C91.7845 49.381 95.1228 52.7378 95.1228 56.8806L95.2266 63.1193H110.772V19C110.772 16.2386 108.534 14 105.772 14H87.5015Z" fill="#3D00C3"/>
<path d="M62.3874 14V29.979L56.3018 30.0834C52.1819 30.0834 48.8436 33.4402 48.8436 37.583C48.8436 41.7258 52.1819 45.0827 56.3018 45.0827H62.3874V63.1193H80.2079V56.8806C80.2079 52.7378 83.5462 49.381 87.6661 49.381C87.7466 49.381 87.825 49.3852 87.9055 49.3873V14H62.3874Z" fill="#3D00C3"/>
</svg>
