<svg width="128" height="128" viewBox="0 0 128 128" fill="none" xmlns="http://www.w3.org/2000/svg">
<path d="M114.5 111.9L114.1 53.1996L109.5 38.4996C109.3 37.7996 108.6 37.7996 108.4 38.4996L104 53.0996L104.4 111.8C104.4 113.5 105.3 114.8 106.4 114.8H112.6C113.6 115 114.5 113.6 114.5 111.9Z" fill="#FFD740"/>
<path d="M112.4 116.8C113.6 116.5 114.7 115.7 115.4 114.7C115.9 113.9 116.3 112.9 116.3 111.9V98.4996L116.1 52.6996L115.7 51.8996C115.7 51.8996 115.7 51.8996 115.7 51.7996L108.8 37.1996C108.4 36.1996 107.3 35.5996 106.3 35.5996C105.2 35.5996 104.3 36.1996 103.9 37.1996L97.1001 51.7996L96.6001 52.7996L96.8001 98.5996V107.4V111.9C96.8001 114.3 98.5001 116.3 100.8 116.8C101.1 116.9 101.5 116.9 101.8 116.9H111.2C111.4 116.9 111.6 116.9 111.8 116.8C111.9 116.8 112.1 116.8 112.2 116.8C112.3 116.9 112.4 116.8 112.4 116.8ZM100.8 112V107.4V102.6H112.2V111.9C112.2 112.5 111.7 113 111.2 113H101.9C101.8 113 101.6 113 101.5 112.9C101.1 112.8 100.8 112.4 100.8 112ZM106.3 41.4996L110.9 51.1996H101.8L106.3 41.4996ZM100.6 55.2996H112L112.1 98.5996H100.7L100.6 55.2996Z" fill="#3C00C3"/>
<path fill-rule="evenodd" clip-rule="evenodd" d="M27.3999 107.5V20.5C27.3999 16.4 30.0999 13 33.4999 13H84.7999C88.0999 13 90.8999 16.3 90.8999 20.5V107.6C90.8999 111.7 88.1999 115 84.8999 115H33.4999C30.1999 115 27.3999 111.7 27.3999 107.5Z" fill="#DBC8F9"/>
<path d="M83.5 117H20.5C15.3 117 11 112.8 11 107.5V20.5C11 15.2 15.2 11 20.5 11H83.5C88.7 11 93 15.2 93 20.5V107.6C93 110.1 92.1 112.4 90.3 114.2C88.4 116 86 117 83.5 117ZM20.5 15C17.4 15 15 17.4 15 20.5V107.6C15 110.6 17.4 113.1 20.5 113.1H83.5C85 113.1 86.3 112.5 87.4 111.5C88.4 110.5 89 109.1 88.9 107.7V20.5C88.9 17.5 86.5 15 83.4 15H20.5Z" fill="#3C00C3"/>
<path d="M78.4999 31.4004H25.3999C24.2999 31.4004 23.3999 30.5004 23.3999 29.4004C23.3999 28.3004 24.2999 27.4004 25.3999 27.4004H78.4999C79.5999 27.4004 80.4999 28.3004 80.4999 29.4004C80.4999 30.5004 79.5999 31.4004 78.4999 31.4004Z" fill="#3C00C3"/>
<path d="M78.4999 48.7002H25.3999C24.2999 48.7002 23.3999 47.8002 23.3999 46.7002C23.3999 45.6002 24.2999 44.7002 25.3999 44.7002H78.4999C79.5999 44.7002 80.4999 45.6002 80.4999 46.7002C80.4999 47.8002 79.5999 48.7002 78.4999 48.7002Z" fill="#3C00C3"/>
<path d="M78.4999 66H25.3999C24.2999 66 23.3999 65.1 23.3999 64C23.3999 62.9 24.2999 62 25.3999 62H78.4999C79.5999 62 80.4999 62.9 80.4999 64C80.4999 65.1 79.5999 66 78.4999 66Z" fill="#3C00C3"/>
<path d="M78.4999 83.2002H25.3999C24.2999 83.2002 23.3999 82.3002 23.3999 81.2002C23.3999 80.1002 24.2999 79.2002 25.3999 79.2002H78.4999C79.5999 79.2002 80.4999 80.1002 80.4999 81.2002C80.4999 82.3002 79.5999 83.2002 78.4999 83.2002Z" fill="#3C00C3"/>
<path d="M78.4999 100.5H25.3999C24.2999 100.5 23.3999 99.6 23.3999 98.5C23.3999 97.4 24.2999 96.5 25.3999 96.5H78.4999C79.5999 96.5 80.4999 97.4 80.4999 98.5C80.4999 99.6 79.5999 100.5 78.4999 100.5Z" fill="#3C00C3"/>
</svg>
