<svg width="128" height="128" viewBox="0 0 128 128" fill="none" xmlns="http://www.w3.org/2000/svg">
<path d="M84.5606 72.264C84.5606 71.156 83.6633 70.2495 82.5462 70.2495H80.1838C80.3119 70.7806 80.3852 71.33 80.3852 71.8977C80.3852 72.7218 80.2387 73.5184 79.9548 74.2784H82.5462C83.6541 74.2784 84.5606 73.3719 84.5606 72.264Z" fill="#3D00C3"/>
<path d="M68.1435 42.4315L91.4838 42.4223C91.4838 39.7302 90.4125 37.1389 88.5079 35.2343L70.2495 16.9759C68.3358 15.0713 65.7536 14 63.0615 14V37.3495C63.0615 40.1606 65.3324 42.4315 68.1435 42.4315Z" fill="#3D00C3"/>
<path d="M77.8489 100.082C77.1713 99.6607 76.5303 99.1754 75.9535 98.626H71.2927C70.4778 100.393 69.0493 101.831 67.2821 102.646H77.3453L77.8489 100.082Z" fill="#3D00C3"/>
<path d="M68.1434 42.4315C65.3323 42.4315 63.0614 40.1606 63.0614 37.3495V14H23.6878C18.3586 14 14 18.3586 14 23.6878V101.171C14 106.501 18.3586 110.859 23.6878 110.859H52.7419H81.796C87.1435 110.859 91.4837 106.519 91.4837 101.171V80.3218V62.4296V42.4223L68.1434 42.4315ZM22.9369 56.0657H82.5468C83.6548 56.0657 84.5613 56.9631 84.5613 58.0802C84.5613 59.1973 83.6639 60.0947 82.5468 60.0947H22.9369C21.829 60.0947 20.9224 59.1973 20.9224 58.0802C20.9224 56.9631 21.829 56.0657 22.9369 56.0657Z" fill="#7D5BCA"/>
<path d="M22.9374 56.0659H82.5474C83.6553 56.0659 84.5618 56.9633 84.5618 58.0804C84.5618 59.1975 83.6645 60.0949 82.5474 60.0949H22.9374C21.8295 60.0949 20.923 59.1975 20.923 58.0804C20.923 56.9633 21.8295 56.0659 22.9374 56.0659Z" fill="#3D00C3"/>
<path d="M22.9374 70.2495H82.5474C83.6553 70.2495 84.5618 71.1469 84.5618 72.264C84.5618 73.3719 83.6645 74.2784 82.5474 74.2784H22.9374C21.8295 74.2784 20.923 73.3811 20.923 72.264C20.923 71.156 21.8295 70.2495 22.9374 70.2495Z" fill="#3D00C3"/>
<path d="M22.9374 84.4424H82.5474C83.6553 84.4424 84.5618 85.3397 84.5618 86.4568C84.5618 87.574 83.6645 88.4713 82.5474 88.4713H22.9374C21.8295 88.4713 20.923 87.574 20.923 86.4568C20.923 85.3397 21.8295 84.4424 22.9374 84.4424Z" fill="#3D00C3"/>
<path d="M22.9374 98.626H82.5474C83.6553 98.626 84.5618 99.5233 84.5618 100.64C84.5618 101.758 83.6645 102.655 82.5474 102.655H22.9374C21.8295 102.655 20.923 101.758 20.923 100.64C20.923 99.5233 21.8295 98.626 22.9374 98.626Z" fill="#3D00C3"/>
<path d="M84.5611 113.011C100.82 113.011 114 99.831 114 83.5725C114 67.3139 100.82 54.1338 84.5611 54.1338C68.3026 54.1338 55.1224 67.3139 55.1224 83.5725C55.1224 99.831 68.3026 113.011 84.5611 113.011Z" fill="#FFC401"/>
<path d="M104.001 95.2196L94.0382 87.876C97.8199 81.0084 96.0343 72.218 89.5514 67.4383C82.5008 62.2464 72.5475 63.7481 67.3465 70.7988C62.1546 77.8494 63.6563 87.8027 70.707 93.0037C73.4631 95.0365 76.7321 96.1078 80.0926 96.1078C80.8892 96.1078 81.695 96.0437 82.5008 95.9247C85.9986 95.3936 89.1485 93.7545 91.5567 91.2456L101.51 98.5893C101.885 98.864 102.316 99.0013 102.746 99.0013C103.387 99.0013 104.019 98.7083 104.431 98.1497C105.127 97.2158 104.925 95.9063 104.001 95.2196ZM73.1976 89.6432C68.0058 85.8157 66.8978 78.472 70.7253 73.2802C72.5841 70.7621 75.3036 69.1231 78.3894 68.6561C78.9846 68.5645 79.5706 68.5188 80.1658 68.5188C82.6473 68.5188 85.0555 69.3062 87.0791 70.8079C89.5972 72.6667 91.2362 75.3863 91.7032 78.4721C92.1702 81.5579 91.4102 84.6528 89.5514 87.1617C85.7239 92.3536 78.3894 93.4707 73.1976 89.6432Z" fill="#3D00C3"/>
</svg>
