<svg width="128" height="128" viewBox="0 0 128 128" fill="none" xmlns="http://www.w3.org/2000/svg">
<path d="M81.111 105.743H27.5836C22.8455 105.743 19 101.898 19 97.1596V36.9713C19 32.2332 22.8455 28.3877 27.5836 28.3877H81.111C85.8492 28.3877 89.6946 32.2332 89.6946 36.9713V97.1596C89.6946 101.898 85.8578 105.743 81.111 105.743Z" fill="#7D5BCA"/>
<path d="M81.539 53.6142H48.4835C47.4706 53.6142 46.6466 52.7902 46.6466 51.7773C46.6466 50.7645 47.4706 49.9404 48.4835 49.9404H81.539C82.5519 49.9404 83.3759 50.7645 83.3759 51.7773C83.3759 52.7902 82.5519 53.6142 81.539 53.6142Z" fill="#3D00C3"/>
<path d="M81.539 73.5971H48.4835C47.4706 73.5971 46.6466 72.7731 46.6466 71.7602C46.6466 70.7474 47.4706 69.9233 48.4835 69.9233H81.539C82.5519 69.9233 83.3759 70.7474 83.3759 71.7602C83.3759 72.7731 82.5519 73.5971 81.539 73.5971Z" fill="#3D00C3"/>
<path d="M81.539 93.5805H48.4835C47.4706 93.5805 46.6466 92.7565 46.6466 91.7436C46.6466 90.7308 47.4706 89.9067 48.4835 89.9067H81.539C82.5519 89.9067 83.3759 90.7308 83.3759 91.7436C83.3759 92.7565 82.5519 93.5805 81.539 93.5805Z" fill="#3D00C3"/>
<path d="M38.4155 59.3054H31.3426C28.9736 59.3054 27.0508 57.3827 27.0508 55.0136V47.9407C27.0508 45.5717 28.9736 43.6489 31.3426 43.6489H38.4155C40.7846 43.6489 42.7074 45.5717 42.7074 47.9407V55.0136C42.7074 57.3827 40.7846 59.3054 38.4155 59.3054ZM31.3426 47.0824C30.8705 47.0824 30.4843 47.4686 30.4843 47.9407V55.0136C30.4843 55.4857 30.8705 55.872 31.3426 55.872H38.4155C38.8876 55.872 39.2739 55.4857 39.2739 55.0136V47.9407C39.2739 47.4686 38.8876 47.0824 38.4155 47.0824H31.3426Z" fill="#FFC401"/>
<path d="M38.4156 79.5886H31.3427C28.9736 79.5886 27.0509 77.6659 27.0509 75.2968V68.2239C27.0509 65.8549 28.9736 63.9321 31.3427 63.9321H38.4156C40.7847 63.9321 42.7074 65.8549 42.7074 68.2239V75.2968C42.7074 77.6659 40.7847 79.5886 38.4156 79.5886ZM31.3427 67.3656C30.8706 67.3656 30.4843 67.7518 30.4843 68.2239V75.2968C30.4843 75.7689 30.8706 76.1552 31.3427 76.1552H38.4156C38.8877 76.1552 39.274 75.7689 39.274 75.2968V68.2239C39.274 67.7518 38.8877 67.3656 38.4156 67.3656H31.3427Z" fill="#FFC401"/>
<path d="M38.4156 99.8723H31.3427C28.9736 99.8723 27.0509 97.9496 27.0509 95.5805V88.5076C27.0509 86.1385 28.9736 84.2158 31.3427 84.2158H38.4156C40.7847 84.2158 42.7074 86.1385 42.7074 88.5076V95.5805C42.7074 97.9496 40.7847 99.8723 38.4156 99.8723ZM31.3427 87.6493C30.8706 87.6493 30.4843 88.0355 30.4843 88.5076V95.5805C30.4843 96.0526 30.8706 96.4389 31.3427 96.4389H38.4156C38.8877 96.4389 39.274 96.0526 39.274 95.5805V88.5076C39.274 88.0355 38.8877 87.6493 38.4156 87.6493H31.3427Z" fill="#FFC401"/>
<path d="M73.3859 24.9974H64.4589C62.8538 24.9974 61.5147 23.6498 61.6692 22.0532C61.7293 21.4438 61.7121 20.8086 61.6091 20.1648C61.0941 16.946 58.416 14.3966 55.18 14.0447C50.7509 13.564 46.9998 17.0232 46.9998 21.3494C46.9998 21.5725 47.0084 21.7871 47.0256 22.0017C47.1715 23.624 45.7981 24.9888 44.1672 24.9888H35.3175C33.4978 24.9888 32.0214 26.4652 32.0214 28.2849V34.5252C32.0214 36.3449 33.4978 37.8213 35.3175 37.8213H73.3859C75.2056 37.8213 76.682 36.3449 76.682 34.5252V28.2849C76.682 26.4738 75.2056 24.9974 73.3859 24.9974ZM50.6994 21.3579C50.6994 19.3494 52.3388 17.7099 54.3474 17.7099C56.356 17.7099 57.9954 19.3494 57.9954 21.3579C57.9954 23.3579 56.3817 24.9802 54.3903 24.9974H54.3131C52.3217 24.9802 50.6994 23.3493 50.6994 21.3579Z" fill="#3D00C3"/>
<circle cx="89.6425" cy="93.8168" r="20.1835" fill="#FFC401"/>
<path d="M99.8638 99.322C98.2373 97.9362 97.3028 95.9142 97.3028 93.7685V90.7496C97.3028 86.9388 94.4889 83.7821 90.8424 83.2518V82.0817C90.8424 81.4843 90.3611 81 89.7674 81C89.1737 81 88.6924 81.4843 88.6924 82.0817V83.2518C85.0424 83.7821 82.2285 86.9388 82.2285 90.7496V93.7685C82.2285 95.9107 81.294 97.9362 79.6569 99.329C79.2389 99.6931 79 100.216 79 100.771C79 101.818 79.8466 102.666 80.883 102.666H98.6483C99.6881 102.666 100.531 101.814 100.531 100.771C100.531 100.216 100.292 99.6931 99.8638 99.322Z" fill="#3D00C3"/>
<path d="M89.7674 107C91.7171 107 93.3472 105.6 93.7231 103.751H85.8118C86.1841 105.6 87.8177 107 89.7674 107Z" fill="#3D00C3"/>
</svg>
