<svg width="24" height="24" viewBox="0 0 24 24" fill="none" xmlns="http://www.w3.org/2000/svg">
<path d="M6.4908 8.10742V15.9214H4.83491V9.67381H4.79015L3 10.7927V9.33368L4.93337 8.10742H6.4908V8.10742Z" fill="#414042"/>
<path d="M8.34325 15.9214V14.731L11.1269 12.1532C11.3597 11.9204 11.5655 11.7146 11.7266 11.5356C11.8878 11.3565 12.0131 11.1686 12.0936 10.9985C12.1742 10.8195 12.2189 10.6315 12.2189 10.4257C12.2189 10.1929 12.1652 9.99602 12.0668 9.83491C11.9683 9.67379 11.8162 9.53058 11.6282 9.44107C11.4492 9.35157 11.2433 9.30681 11.0106 9.30681C10.7689 9.30681 10.563 9.35157 10.384 9.45002C10.205 9.54848 10.0797 9.6917 9.98124 9.87071C9.88278 10.0497 9.83803 10.2645 9.83803 10.5152H8.2627C8.2627 10.005 8.37906 9.55743 8.61178 9.1815C8.8445 8.80557 9.16672 8.51914 9.58741 8.31328C10.0081 8.10741 10.4825 8 11.0285 8C11.5834 8 12.0757 8.09846 12.4875 8.29538C12.8992 8.49229 13.2304 8.76082 13.4541 9.1099C13.6869 9.45898 13.8032 9.85281 13.8032 10.3093C13.8032 10.6047 13.7495 10.8911 13.6332 11.1865C13.5168 11.4729 13.3109 11.7951 13.0156 12.1442C12.7202 12.4933 12.3084 12.905 11.7714 13.3973L10.6346 14.5162V14.5699H13.9196V15.9214H8.34325Z" fill="#414042"/>
<path d="M18.0018 16.0288C17.4289 16.0288 16.9277 15.9304 16.4801 15.7335C16.0326 15.5365 15.6835 15.268 15.4329 14.9189C15.1733 14.5699 15.048 14.1671 15.0391 13.7195H16.7039C16.7129 13.9075 16.7755 14.0776 16.8919 14.2208C17.0082 14.364 17.1604 14.4714 17.3573 14.552C17.5542 14.6325 17.769 14.6683 18.0107 14.6683C18.2613 14.6683 18.4851 14.6236 18.682 14.5341C18.8789 14.4446 19.0311 14.3192 19.1385 14.1671C19.2459 14.0149 19.2907 13.818 19.2907 13.6121C19.2907 13.4063 19.237 13.2183 19.1206 13.0572C19.0043 12.8961 18.8431 12.7708 18.6283 12.6813C18.4135 12.5917 18.1629 12.547 17.8675 12.547H17.1425V11.3297H17.8675C18.1181 11.3297 18.3329 11.2849 18.5299 11.1954C18.7178 11.1059 18.87 10.9896 18.9774 10.8374C19.0848 10.6852 19.1385 10.5062 19.1385 10.3003C19.1385 10.1034 19.0938 9.93337 18.9953 9.7812C18.9058 9.62904 18.7715 9.51268 18.6104 9.43212C18.4493 9.35157 18.2524 9.30681 18.0286 9.30681C17.8049 9.30681 17.599 9.34262 17.411 9.42317C17.2231 9.50373 17.0798 9.62009 16.9635 9.7633C16.8561 9.90651 16.7934 10.0855 16.7845 10.2824H15.2002C15.2091 9.83491 15.3344 9.43212 15.5851 9.09199C15.8357 8.75186 16.1669 8.48334 16.5965 8.28642C17.0261 8.08951 17.4826 8 18.0197 8C18.5567 8 19.0311 8.09846 19.4339 8.29538C19.8367 8.49229 20.15 8.75186 20.3737 9.08304C20.5975 9.41422 20.7139 9.79015 20.7049 10.2019C20.7049 10.6405 20.5706 11.0075 20.3021 11.2939C20.0246 11.5893 19.6756 11.7683 19.237 11.8488V11.9115C19.8098 11.9831 20.2484 12.18 20.5527 12.5112C20.8571 12.8334 21.0003 13.2362 21.0003 13.7285C21.0003 14.176 20.875 14.5699 20.6154 14.9189C20.3648 15.2591 20.0067 15.5276 19.5503 15.7245C19.1027 15.9214 18.5836 16.0288 18.0018 16.0288Z" fill="#414042"/>
</svg>
