<svg width="24" height="24" viewBox="0 0 24 24" fill="none" xmlns="http://www.w3.org/2000/svg">
<path d="M10 10C12.21 10 14 8.21 14 6C14 3.79 12.21 2 10 2C7.79 2 6 3.79 6 6C6 8.21 7.79 10 10 10ZM10 4C11.1 4 12 4.9 12 6C12 7.1 11.1 8 10 8C8.9 8 8 7.1 8 6C8 4.9 8.9 4 10 4Z" fill="black"/>
<path d="M4 19V18.5C4 15.46 6.46 13 9.5 13H10.5C11.13 13 11.72 13.11 12.28 13.31C12.74 12.73 13.3 12.23 13.94 11.85C12.91 11.31 11.74 11 10.5 11H9.5C5.36 11 2 14.36 2 18.5V19C2 20.1 2.9 21 4 21H12.54C12.02 20.42 11.61 19.75 11.35 19H4Z" fill="black"/>
<path d="M17 12C14.24 12 12 14.24 12 17C12 19.76 14.24 22 17 22C19.76 22 22 19.76 22 17C22 14.24 19.76 12 17 12ZM19.35 18.65C19.55 18.85 19.55 19.16 19.35 19.36C19.25 19.46 19.12 19.51 19 19.51C18.88 19.51 18.74 19.46 18.65 19.36L17 17.71L15.35 19.36C15.25 19.46 15.12 19.51 15 19.51C14.88 19.51 14.74 19.46 14.65 19.36C14.45 19.16 14.45 18.85 14.65 18.65L16.29 17L14.64 15.35C14.44 15.15 14.44 14.84 14.64 14.64C14.84 14.44 15.15 14.44 15.35 14.64L17 16.29L18.65 14.64C18.85 14.44 19.16 14.44 19.36 14.64C19.56 14.84 19.56 15.15 19.36 15.35L17.71 17L19.35 18.65Z" fill="black"/>
</svg>
