<svg width="24" height="24" viewBox="0 0 24 24" fill="none" xmlns="http://www.w3.org/2000/svg">
<path fill-rule="evenodd" clip-rule="evenodd" d="M2 7C2 4.23858 4.23858 2 7 2H17C19.7614 2 22 4.23858 22 7V17C22 19.7614 19.7614 22 17 22H7C4.23858 22 2 19.7614 2 17V7ZM7 4C5.34315 4 4 5.34315 4 7V17C4 18.6569 5.34315 20 7 20H17C18.6569 20 20 18.6569 20 17V7C20 5.34315 18.6569 4 17 4H7ZM11.0808 9.50503C11.5884 8.99734 12.4116 8.99734 12.9192 9.50503L15.7071 12.2929C16.0976 12.6834 16.0976 13.3166 15.7071 13.7071C15.3166 14.0976 14.6834 14.0976 14.2929 13.7071L12 11.4142L9.70711 13.7071C9.31658 14.0976 8.68342 14.0976 8.29289 13.7071C7.90237 13.3166 7.90237 12.6834 8.29289 12.2929L11.0808 9.50503Z" fill="#414042"/>
</svg>
