<svg width="24" height="24" viewBox="0 0 24 24" fill="none" xmlns="http://www.w3.org/2000/svg">
<path d="M10 9.00004C10.5523 9.00004 11 9.44775 11 10C11 10.5523 10.5523 11 10 11C9.44775 11 9.00004 10.5523 9.00004 10C9.00004 9.44775 9.44775 9.00004 10 9.00004Z" fill="#414042"/>
<path d="M13 14C13 14.5523 13.4478 15 14 15C14.5523 15 15 14.5523 15 14C15 13.4478 14.5523 13 14 13C13.4478 13 13 13.4478 13 14Z" fill="#414042"/>
<path d="M10.7071 14.7071L14.7071 10.7071C15.0977 10.3166 15.0977 9.68346 14.7071 9.29293C14.3166 8.90241 13.6835 8.90241 13.2929 9.29293L9.29293 13.2929C8.90241 13.6835 8.90241 14.3166 9.29293 14.7071C9.68346 15.0977 10.3166 15.0977 10.7071 14.7071Z" fill="#414042"/>
<path fill-rule="evenodd" clip-rule="evenodd" d="M16.3117 4.07151L15.1708 4.34509L14.5575 3.34491C13.3869 1.43581 10.6131 1.43581 9.44254 3.34491L8.82926 4.34509L7.68836 4.07151C5.51069 3.54931 3.54931 5.51069 4.07151 7.68836L4.34509 8.82926L3.34491 9.44254C1.43581 10.6131 1.43581 13.3869 3.34491 14.5575L4.34509 15.1708L4.07151 16.3117C3.54931 18.4894 5.51069 20.4508 7.68836 19.9286L8.82926 19.655L9.44254 20.6552C10.6131 22.5643 13.3869 22.5643 14.5575 20.6552L15.1708 19.655L16.3117 19.9286C18.4894 20.4508 20.4508 18.4894 19.9286 16.3117L19.655 15.1708L20.6552 14.5575C22.5643 13.3869 22.5643 10.6131 20.6552 9.44254L19.655 8.82926L19.9286 7.68836C20.4508 5.51069 18.4894 3.54931 16.3117 4.07151ZM11.1475 4.39036C11.5377 3.75399 12.4623 3.75399 12.8525 4.39036L13.8454 6.00957C14.0717 6.37873 14.51 6.56026 14.9311 6.45928L16.7781 6.01637C17.504 5.84231 18.1578 6.4961 17.9837 7.22199L17.5408 9.069C17.4398 9.49009 17.6213 9.92833 17.9905 10.1547L19.6097 11.1475C20.2461 11.5377 20.2461 12.4623 19.6097 12.8525L17.9905 13.8454C17.6213 14.0717 17.4398 14.51 17.5408 14.9311L17.9837 16.7781C18.1578 17.504 17.504 18.1578 16.7781 17.9837L14.9311 17.5408C14.51 17.4398 14.0717 17.6213 13.8454 17.9905L12.8525 19.6097C12.4623 20.2461 11.5377 20.2461 11.1475 19.6097L10.1547 17.9905C9.92833 17.6213 9.49009 17.4398 9.069 17.5408L7.22199 17.9837C6.4961 18.1578 5.84231 17.504 6.01637 16.7781L6.45928 14.9311C6.56026 14.51 6.37873 14.0717 6.00957 13.8454L4.39036 12.8525C3.75399 12.4623 3.75399 11.5377 4.39036 11.1475L6.00957 10.1547C6.37873 9.92833 6.56026 9.49009 6.45928 9.069L6.01637 7.22199C5.84231 6.4961 6.4961 5.84231 7.22199 6.01637L9.069 6.45928C9.49009 6.56026 9.92833 6.37873 10.1547 6.00957L11.1475 4.39036Z" fill="#414042"/>
</svg>
